<svg id="Alabama" xmlns="http://www.w3.org/2000/svg" viewBox="0 0 262.6 371.93"><defs><style>.cls-1{fill:#ccabd1;}</style></defs><title>state</title><path class="cls-1" d="M243.1,263.79l-1.09-.53-.84-1.09.62-.86,2.44-2.43.71-1.53-.36-1.5-1-1.34-1.9-2-.18-2.84,2.09-2.33,1.33-.83q.14-18,.29-36t.29-36.22q.16-18.2.29-36.39c.09-12,.22-24.1.29-36.15s.19-24,.28-35.93.17-23.92.28-35.88c.07-7.68.14-15.36.12-23l-36.68,0-34.32,0-36.16,0-33.66,0L93.11,14,81.27,18.23l-6.22.63L68.6,17.76l-1.51-.55-1-.72-.49-1.19.22-1.92-2.2.86-2.39-1.79L59.29,9.71c0,12.37-.09,24.75-.13,37.12Q59.11,64.1,59,81.36,59,99.22,58.9,117.08q-.08,19-.15,38-.08,18.33-.13,36.65c0,10.46-.12,20.93-.12,31.39l-.25.39-4.17,2-1.23,1.31-.71,1.8.32,1.53,1.57,3-.07,3.8-4.44,4.34-.25,3.38.41.73.5.45,1,.63,2.09,2.13.7,1.58.59,3.29.42,1.48.8,1,2,1.79.43,1.12v3.6l-.22,1-1,1.39-.22,1,.76,3.25,1.48,3.39.9,3.44-2.16,6.45-.35.64-.83.17H55.7l-.71.13-1.11,1-1,1.48-.57,1.75.32,1.75-.2.46-.22.35-.25.24-.27.19h.43l-.9.55-.9.73-.68,1-.35,1.32.25,1.37,1.15,1.84,0,1-.49,1-.36-.07-.41-.39-.63,0-.5.42-.74.88-.59.5-2.17,1.13-2.09.66v.65l1,1-.35,1.76-1.06,1.85-1.05,1.32-.49.29-1.34.48-.56.43-.55,1-.62,2-.45,1-.22.79-.1,1.12-.18,1-.48.42-.64-.38-.28-.83-.18-.85-.27-.37-.5.27-.53.64-.45.71-.55,1.64-.74-.47-.66-1-.07-.55-1.34.34-.64,1.08-.36,1.4-.5,1.4-.62.78-.59.51-.46.6-.22,1,.18,1,.46.66.49.55.22.57.68.83,1.33.75.85,1-.71,1.55-.66.38L28,331l-.67.48L25.88,333l-1.61,1.16,1.12.54,2.16-.22,1,.94-1,.85-1.15.77-1.22.53-1.16.22-.85.39,1,2.13-.83,1,.28.88.27,1.42,0,1.32-.32.59L23,346V347l.41,1.76.15,1.2.21.83-.21.63-1.09.57h-.69l-3.07-.59,1.13,1.46,3.37,3.23.45,1-.74.38-1.05.08-2-.15-.27.19V358l.24.41.49.18,1.32.14,1.61.67,1.58-.22,1.2.46,2.45,1.57,1.26.34.35-.59,3.19-3.56-2.07-5.14-.28-1.18.5-1.8,1.19-.73,1.47.27L35.39,350l1,1.28,1.08,1,1.27.69,1.54.3,1.37-.19,2.72-.94L45,352l.66-.63,1-.57,1.16-.1.9.71.13,1.2-.71,2.83.15,1.32,1.57,1L52,357l1.76-1.94.71-2.38-.35-1.79-1.26-2.52-.28-2,.22-1.08.53-.54.6-.12.53.25.36.64L54.76,347l.22.85,2.41,2.27,2.67-.55L62.89,348l2.9-.75,1.48.37,1.62.77,1.55,1,1.23,1.07,1.25.84,4.65,1.86L80,354.87l.73.36,1,.26,1.26.08.83.33.31.78.17,1,.34.92L85.68,360l.59.53L87,361l2.14-1.46,1.12-2L92.17,352l.81-1.41.81-1,1-.64,1.22-.54,4-.44.91-.46,1.58-1.55,2.64-2,2.48-1,1.09,1.57.57,2.3,1.48,2.35,2.11,1.74,2.41.44,3.05-.59,1.3.34-.8,1.75-.5,1.53,1,.83,1.65,0,1.44-.93.55-1.75v-1.73l.41-1.3,3.7-.79.87-.84.21-1.32-.22-5.72.34-1.85.92-.77,1.48-.13,1.55-.5,1.19-1.08.28-1.88-.39-1-1.23-1.38-.27-.93.36-.81.8.06.79.42.36.33.36.85.84.26,1.62-.16,2.91-1.24,1.19-1.38-.56-.63-1.43-.45-1.39-.85-.83-1.62.74-.59,1.47.15,1.26.6,3.56,2.82.63,1-.25,3.67.13,1.34.63,1.26,1.09,1,2.73,1.47,1.12.87,1.36.8,3.47.26,1.54.41,2.6,2.78,1.48,1.2.67-.67.67-1.46,1.6-.61,3.36-.59.78-.53.67-.6.53-.69.42-.78.71-2.25.63-8.33.32-1.8.63-1.93.94-1.54,1.16-.61.68-.79,1.48-3.6.94-1h.69l1,.22.81.35.38.32.34.77.8,0,2.59-.81,1.39-.75,2.44-1.91,1.48-3,1.62-7.74,2.06-2.54,1.42-.38,3-.29,1-.79,1.06-1.53.92-1.09,3.68-2.71,1-1.3.3-1.63-1.44-3.42-.59-5.4-.5-1.22-.55-1.83v-1.67l1.29-.73,7.94-.76,4.37.21,1.2.59,2.35,2.72,1.36.84,2.78-.62,10-6.23,4.38-1.82,2.38-.33,5.63.59.91-.5-.94-2.91.49-1.71,1-1.19.91-1.5.08-1.3-1.5-.55Z"/></svg>