<svg id="Alabama" xmlns="http://www.w3.org/2000/svg" viewBox="0 0 473.91 371.93"><defs><style>.cls-1{fill:#ccabd1;}</style></defs><title>state</title><path class="cls-1" d="M453.19,307.3c0-12.89,0-25.79-.1-38.68s-.05-25.79-.1-38.69q-.08-20.13-.1-40.26l-.05-14.85q-.07-19.61-.11-39.22-.07-20.63-.13-41.26c0-12.7-.1-25.39-.12-38.09q0-20-.12-40.08H13.16q0,13.13,0,26.26,0,19.66,0,39.33t0,39.33q0,19.58,0,39.16,0,19.79,0,39.58t0,39.45q0,20.15,0,40.29,0,19.22,0,38.44,0,19.79,0,39.59h0v0H453.33q0-5.15,0-10.3Q453.28,327.32,453.19,307.3Z"/></svg>