<svg id="Alabama" xmlns="http://www.w3.org/2000/svg" viewBox="0 0 273.59 371.93"><defs><style>.cls-1{fill:#ccabd1;}</style></defs><title>state</title><path class="cls-1" d="M243.55,203.3q0-13.87,0-27.74,0-13.41,0-26.83,0-14.72,0-29.43,0-13.39,0-26.78,0-14.27,0-28.54,0-13.82,0-27.64,0-14,0-28.07H15.05q0,5.1,0,10.19,0,14,0,27.94t0,28q0,13.94,0,27.88t0,28.16c0,9.5,0,19,0,28.5l9,8q10.08,9,20.2,18,11.08,9.83,22.19,19.64,10.22,9,20.47,18,7.4,7,14.81,14Q112,246.33,122.26,256q10.43,9.77,20.89,19.51,8.87,8.64,17.76,17.25,9.63,9.33,19.28,18.64c6.59,6.35,13.11,12.76,19.79,19q10.52,9.86,21.05,19.7l0-.55-.37-1.52.9-1.18.15-.44-.15-.65-.72-.84-.18-.43.13-.63.39-.18h.52l.53-.11.45-.22.16-.15.36-1.86,0-1-.19-1.87-.5-2.23-.09-1.2.06-1.25-.38-1.11-1.22-2.45-.7-2.25-.65-1.88.81-2.28-.24-2,.29-1-.25-.76-1.34-3.42-.19-1-.11-1.29,0-2.61.21-.7.67-1.2.15-.52-.09-.54-.24-.42-1.51-2-.56-1.09-.4-1.25-.07-1.31.65-.67.17-.52,0-.53-.12-1.09v-.53l.05-.4.12-.21.27-.39.15-.15.17-.16,1.28-.6,1.25-.78,2.23-.58.6-.25.32-.08.36,0,2.05.61.14.06.2.13.33.26.4.26.51.17.3,0h.28l.26,0,.22-.08,1-.6.2-.09.23-.07.25,0h.27l.26,0,.35.13.34.2.41.43.37.48.28.45.86,1.92.37.58.48.59.72.62.88.39,1,.06L239,302l1.34-.76,1.52-5.29.72-1,.77-1.05.09-.46,0-.45q0-2.88,0-5.76,0-13.95.05-27.9c0-9,0-17.91,0-26.87Q243.56,217.88,243.55,203.3Z"/></svg>