<svg id="Alabama" xmlns="http://www.w3.org/2000/svg" viewBox="0 0 473.91 371.93"><defs><style>.cls-1{fill:#ccabd1;}</style></defs><title>state</title><path class="cls-1" d="M295.67,172.88l-.52-.23-1.07-.77-4.29-4-9.64.54-2.43,1.45,1.75,2.81,2.88,1.63.84,1,.27,1.86,0,2.17.2,2,.7,1.63,1.31,1.22,3.49.36,3.56-1,3-2.22,2-2.63.77-1.59,0-.86-.52-1ZM25.26,71.33l-.93.41-1,1L21.5,75.14l-.91,1L19.41,77l-.2,1-2.59.77-3,4.26-1,2.4-.48,2.63.61,2,2,.77h.91l.75-.18.48-.59.43-2.68.59-1.18,2.81-3.45.77-.41h1.56l1.09-.18L25.78,81l1-.41-.59-2.4L26.49,76l1-1.86L29,72.79l-1.07-1.27ZM319.62,197.55l-1.29-1.22-1.63.23-1.56.77-2.54,2-3.08,1.22-1.2.82-.84,1.63,2.56,1.59,1.13.23,2-1,.89-.23h3.58l1.91-.23,1.06-1-1.09-.82ZM90.43,59,90,58.2l-.36-1-.09-1L89,55l-1.16-1.22-1.38-1-2.11-.59-.91-.61-.84-.39-.79.39-.59.41-.86.41-6.49.82-.63.2-1.16-.84-1.31-.59-1.29-.2-1.11.79-1.5.41-4.6,2.45-6.44,4.22-.2.2-.57.43-.14.59v.84l-.18.59-3.33,4.24-1,.82-.57.79.77,2L51.77,72l.64.36L52.83,74l1,.64,1.38.36,1.43,1,1.41.41h2l1.81.18,1.25,2.22L65.44,81l.66.82h.59l1.93-.59,3.86.18,3.83,1,1.86,1.86,4.54-3L87.28,77l-.36-1L87,75.6l.52-.23.91.41.09-1.63-.09-1.81-.23-1.59-.36-1.22,2.95-5.26.91-3.63v-1L91,59.2Zm134.92,72.38-1.18-1.18-.38-1.81,0-1.63-.29-1-1.34-.64-1.29-.54.25-1.68.84-1.59.5-.63h-4.06l-1.11.41,2.27,1.59-1.47.64-.93.23-.45-.41h-.34l-1.93-2-1.09-1-.86-1.22L211,115.42h.59l.27.18.34.45v-1.63l-.14-1.41-.52-1-2.09-1.41-1.5-2.22-1.29-2.4-.2-1.41-.88-1.63-1-1.45-1.23-1.18-1.52-.64-.18-.36-.25-.23-.14-.23v-.59l-5,2.63-1.27,1.22-.77,1.63-.64,1-.61.36-.68.23-2.47,1.63-.41.82v.77l-.3.63-1.27.18-.91-.18-1.61-.18-4.6-.45-1.88.23-1.54.59L176.6,111l3.06,2.63-.27,1.63-.66,1.81.86,1.81,1.41,1.45,1,.77.91,1,1.59,3,1.16,1.63.7.41,1.29.59.59.41.34.63,1.68,6,.45.18.38.45.39.18.79-.64,1-.54,3.92-.64H199l1.81.64.25-2.68L200,130.38l-1.66-.82-1.54-1.41h1.63l2,.82,1-.18-1.18-2.45,1.25.82.45.59.66-.59h.7l.59.41.38.59-.14,1.22-.77.36-.89.23-.54.86.41,1.81L204,133l1.88-.36L207,131.2l1.77,1,.77.64.84,1-.39.82.84.82,2.43,1.18,1.2,1.27.54.18h1.41l1.9-.64,2.2-.82,1.93-.18,1.13,1.63,1.27-1.18,4.42-3.08L228,132.65Zm140.5,54.42,1-3.4-1.25-3.08-4.76-2.59-1.2-.45-3.76-.54-.73-.82-.48-2-.54-.77-2.95-.64-1.86-.45-.82-1.18-.5-.82-1.16-1.18-1.31-1-1.09.36-.16-.36-.25-.27h-.64l-1.11-.36L341,165.8h-1.4l-1.29.18-1.31.41-2.65,2-.93.27-2.45.18-1.22.18-1.31.63-1,.55-1,.23-1.18-.77-2.38-5.71-.59-1-.68-.82-3.29-3.45-1-.59-1.29-1-.7-.23-.29.82-.29.64h-1.38l-.59-.23-.11.59-.34,1.09-.07.77-.39-.23-1-.18-.41-.23-.36,2-3,6.44,5.53,8.12.48.41.64.23,2,.77,1.54,1,2.4,1h1.07l.75-.23.73-.18.86-.23h2l.93.23.45.64.27,2,.29,1,.34.41.77.64.46,1.77.25,7.35.93,3,2.13,1.81h3.7l1.56-.82.91-.41.41.23.43.64h.93l3.13-.64,4.65-3.27,1.63-.36,1.5.18,1.61.63,1.77.18,1.56-.41,5.62-3.22,2.47-2.27Zm-60-38.6-2.45-.63h-1.7l-.68-.23-.47-.36-.41-.23h-.68L298.14,147l-.66.23h-5.71l-1.7-.41-1.11-.64L287,144l-1.57-1.27-.18.45.11,1-.7,1.18h-1.25l-2.9-1-1.29-.36-11.07-.45-1-.82-.91-1-.93-.59-.89.18-.79.41h-1l-.88-.18-.52-.41-.14,1.59.25,1.27-.25,1.36-1.5,1.86-.8.59-.91,1.18-.66,1.27,0,1.81,1,1.18,1.63.64h1.82l1.61-1,1.36-.41,5.17.18,7.12-.54,1.88.18,8.1,3.45,3.29,1,3.24.18,3.22-.54,3.13-1.45,3.13-1.63,2.59-2.63,1.41-3.4ZM459.8,286.35l-4.29-2.45-3.38-3.45-.52-1.18-.68-4.49-.39-1.41-1-.77-2-.23-3.36.59-.91-.36-.61-2v-6.85l-.27-2-.75-1.41-7-7.89-2.79-2.27-10.89-5.62-9-3.63-3.7-.82-3.06-1.86-1.86-.77-.86.18-.82.59-.88.23-1.09-.64-1-1-.64-.41-1.61-.59-2.18-2-5-2-.52-.41-.2-.82-.09-.82-.3-.82-.45-.36-2.34-.45-4.81-2.22-2.68-.41-2.06,2.45-1.22,3.22-.29,2.68.75,3.36,1.41,2.9,4.11,5.21.29.41.89,1.63,0,1.63-.77,1.18-2.65,2-.54.59-3.17,4.9-.84,1-1.68,3-3.47,1.22-1.2,1-.46,1.63-.75.77-1.72,1.22-1.77,1.63-1,2,.45,3.85,1.7,2.63,2.2,2.63,2,3,.72,1.81.52,1.81.36,1.81.09,2,.14.86,1,3,.27.18,1.11-.18h.3l.07.59-.11.77,0,.45,2,7.26,1.13,2,.34,1,0,.59-2.15,14.19-.07,7.3.41,1.81,1,.77,1,.41.39,1.18.2,1,.45,1h3.38l3.17.86,3.38,1.36,2.93,1.86,1.88,1.81,1.48,2.4,0,.64,1-.45,1.52-1.59.88-.41,1.15-.82,3.67-5.26,1.22-4.81.77-1.45,3.63-3.45,1.25-.36,4.22-2.45,1.22-.82,2-2.22,1.18-.82,1.36-.41,1-.36,2.68-2.67,2-1.41,1-.41,1.5-.41,6.58.18,1.43-.77,5.69-1.22,2.88-1.63,1.61-.59,2.09-.18,1.43-.41,7.39-6.71.64-1,6.82-3.81,1-1.45.91-1.81.66-2,.23-1.81Z"/></svg>