<svg id="Alabama" xmlns="http://www.w3.org/2000/svg" viewBox="0 0 473.91 371.93"><defs><style>.cls-1{fill:#ccabd1;}</style></defs><title>state</title><path class="cls-1" d="M457.07,133l-1-.37-1.39-.12-.19-.14-.14-.67-.3-.23-.29,0-.59,0-.87-.1-1.83.07-1.31-.53-2.61-1.74-1.19-.36-1.13-.73-.25-1.6-.07-1.6-.57-.73-2-1.38-1.29-3-.45-3,.52-1.38-2.59-.57-.28-.41-.31-1.21-.23-.46-2.47-1.8-1.08-.5-.47-.3-.58-.87-1.31-2.71-.37-.58-1-.46-1.06-1.18-.68-1.54.09-1.56.44-.22,1.57-.1.66-.44.21-.63.05-.85-.07-1.65L431,96l.94-1.3,1.88-1.9.65-.44.5-.25.35-.48.18-1.87.17-.77.31-.63.49-.26,2.84.85,1.31.11.94-1,.14-.86-.33-.53-.44-.54-.21-.94.06-.87.28-1.5.06-.79-.56-.78L438,79.72l-.87-1.07.51-.77,0-1.06-.4-.91-.77-.4-1.39.05-1,.22-.89.49-1.78,1.56-1.22.81L428.8,79l-1.24-.61L426,76.58l-.64-.49-.68-.28-1.24-.14-.5-.16-.52-.47-.28-.57-.23-.64-.38-.65L421,73l-.75-.12-.67-.2-.76-1.19-3.34-3.1H19.59c0,7.7,0,15.4.06,23.11.06,11.38.07,22.77.11,34.15s.08,23,.1,34.45c0,11,.07,22,.1,33s.07,21.79.1,32.68q0,16.86.11,33.72c.06,11.44.07,22.88.1,34.33H456.73v-57q0-17.44,0-34.88,0-16.11,0-32.22V135.22l-.26-.1-.07-.26v-.22l-.07-.12.84-.9Z"/></svg>