<svg id="Alabama" xmlns="http://www.w3.org/2000/svg" viewBox="0 0 341.59 371.93"><defs><style>.cls-1{fill:#ccabd1;}</style></defs><title>state</title><path class="cls-1" d="M85.48,58.76l-1.73,1.09L83,60.6l-.33,1L82.56,63l-.06,2.65.51.75,3.6.25L87,67l.67,1,.27.21,1.79-.4.53-.57,0-1.09-.51-.66-1,.73.4-1,.72-1.07.79-.84.6-.33L91,64,90.85,66l-.16,1-.4,1.05-.38.51-1.17.82-.61.65-.24.62.13.68L90.26,75l.58-.31.5-.73.83-1.55,1.25-3.18.34-.54,1.52-.78.34-.68.2-.88.51-.41.71-.11h.77v-.4l-.45-.76.15-1.1L98,62.48l.57-.69.53-.16.52,0,.52-.05.48-.41,1.65-2,.39-.32,1-.39.42-.28.66-1.38.27-.22.85-.2.86-.52,2.48-2.09-.66-.75-1.39-.6-1.19-.3.51-.72.8-.13,1.73.08,2.17-.71.82-.09.88.13,1.61.55.9.12.8-.22,1.43-.9.91-.08v-.4l-.53-.52-.79-1.29-.59-.6-1.5-.89-.77-.26h-9.28l-3.38.64L98.81,48l-.55.43-.61.71-.43.26-.46-.14L96.31,49,95.87,49l-.29.2-1.07,1L91.3,51.8l-1.32,1L86.18,58ZM252.59,134l-.37-.44-.47-.19-.56.08.22-.75-.23-.37-1.09-.43-.56.57-.27.2v.39l.32.07.17.1.12.1.22.13-.54.42.91.49.72.23,1.66.06Zm-98.33,9.6.5-.34.37-.4.3-.52.22-.68-.38-1.21.51-.56.9-.17h.73l1.45,1.07,1,.41.87-.49.55-.78.59-.58.65-.45.79-.34.84-.22.5.11.38.46.46.81-1.29,3.76.08.55.14.12,0,.27,0,.27-.14.12-.29-.06-.53-.27-.27-.06h-1l-.41.06,0,.17,0,.25-.21.51-.14.71-.07.24-.13.09-.22,0-.24.07-.2.2-.41,1.64-.28.51-1.29,1.27-.14.62.47,1,.42.6,1.24.95.67.68.41.32.4.13.42-.27v-.59l-.16-.6-.11-.28,0-.28L162,152l0-.35.12-.43.26-.08.29,0,.19-.1.79-2,.6-.79,1.27-.47.2-.4.09-.57v-.64l.2-.38.47-.13,1-.06,1.63-.78.24-.26.33-.66.27-.28.6-.19,1.49-.19.64-.4.3-.35-.3-.39,1.06-3.22,1.32-2.48,1.85-1.6,6.84-1.09,1.52.18,2.53.88,2.36,1.45-.16-1.33.29-.85.74-.45,4.27-.64,5.11.12.68-.38.54-.89.81-1.81,2.59-3.39.82-.51,3.17.32,1.24-.71.38-.08.43.29.48.49.47.35.39-.15.85-.63.85.32,1.44,1.33.83.31,2.7.08.88.25,2.1,1.31,3.86,1.21.67.6,1.43,1.73.48.36.38.37.85,1.63.41.37.78.1.94.36.79.66.33,1,.76,1.07,1.73,1,1.85.31,1.12-1-.71-.41-.31-1.1.13-1.21.61-.78-.43-.39-.23-.54,0-.67.38-.77.54-.44.41-.06.29-.24.42-3,.85-.72,1.14.21,1.25.78.8-.5.8.32.61.84.23,1.08.06.75.13.26.36,0,.19-.1.6-.54.29-.13,1.12,1.17.25-1.22.26-.41,2.22.28,1,.76.66.21,0-.13.25-.27.35-.26.32-.12.5.12.82.53.42.12,2.61-.1,8,1.67.32.2.43.12.35-.22.38-.31.47-.16,2.15-.33.6.33,0-.64.13-.57.37-1.13-.69-.2-.52-.45-.47-.52-.52-.39-.81-.23-.65-.08-.6-.22-.63-.68-1.43-1.91-.23-.47,0-.86.29-.61.41-.56.36-.71h-.56l-.45-.19-.9-.56-.26,0-.59.1-.26-.06-.17-.25-.38-1-.73-.25-1.19-.19-1.1.07-.48.56-.45.35-.91-.95-.75-1.28,0-.64.92-.31,1.27-1.22,1-.08-.42-1-1-1.52-.2-1.17-.19-2.23,1.87.2,0,.22.94.13.48.18.81.64.21-.38v-.51l.41,0,0-.1-.94-1.57-.74-1.43-.45-1.93,1.93-5.37-1.48-.86-2-.28-1.77,1.14-2.53,1.44-1.89-1.22-1.48.14-1.33.5-1,1.26-.69.66-.52.67-.48.48.06.68-1.58,1-1.61.37-1.34-.79.36-1.18-1-1.53-1.52-1-1.3.37-1,1-1.38.69-1.47.4-1.32.13-.63-.13-1.68-1.08-1.48-.36-.28-.17-.56-.81-.39-.27-.53.08-1.32.65-.64.1-.75-.27-.51-.5-.34-.7-.29-.88,1.1-1.34.4-1-.52-1.95.7-6.79.21-.86.55-.72.69-.46.62-.55.34-1-.94.12-1.66.55-.85.13-3.35-.42-3.07.26L215,88.78l-7.27,3.77-1.85.33-13.5-1.44-1.24.25-.28-.39-1.09.68-6.56,1.38-1.09-.19L181,92.48l-5.47,4L171,98.53l-1.59,1.37-1.44.25-.63.27L165.58,102l-.52.62-1.93,2.9-1.24,1.25-1.33.38.08-.26.11-.64.08-.26-1.13,0-.86-.18-.72-.53-.73-1.06-.85-.74-.81.32-1.21,1.42-.8.48-1.08.3-1-.14-.41-.85-.2-.5-.43-.09h-.51l-.38-.2-1.21-1.79-.2-.55,0-.36-.13-.3-.46-.41-.5-.26-.56-.1-.54.14-.45.44-.37.25-.51.06-1-.09-.22.22-.66,1-.35.33-1,.09-1.91-.38-1.7.86-4.86-.84-1-.56-.56-1.18-.2-2.9-.17-.41-.41-.27-2.08-1-.4-.55.07-.84-.73-.54-.8-.84-.66-1-.27-1-.39-.55-1.83-2-.52-.78-.65-2.53-.61-1.12-.79.27-.45.23-.29-.53L120,83.16l-.29-.06-1,.32-.48-.07-.4-.4-.39-1.05-.33-.53-.38-.14-.45.05-.38-.05-.15-.44-.54-.51L111,79.11l-6.42-.58-2.19.21-3.18.93-.65.73-.37,1.21-.88,1.25-1.07,1-.94.32v-.36l.81-1.17.7-1.6.79-1.42,2.22-1.17L101,77.25l.41-1-1.18-.08-.61.28L97.8,77.79l-1.74,1.77-1.25.56-1.18,1.34-.63.31-1.34.18-.46.37.56.68-2.18,3.14-1.34,1.57-.56-.38.16-.38.36-.24.39-.17.3-.21L89,86l-.12-.35-.81-1.7-.13-.57.15-.58.25-.54.13-.55,0-.55-.23-.54.5-1,.45-1.34.32-1.42.12-1.25-.24-1.13-.56-1.1-.73-.94-.67-.62-.27,0-.26.24-.27.1-.3-.36v-.27l.25-.61.33-1.6.07-.69-.2-.62-.91-.78L83.76,67l-1-.34-.88-.9-.09-1L82,63.54,82.23,62l-.4-1.31-.91-.06-1,.58L73.22,67l-1.1.56-.27.24L71,69.5l-.15.27-.24.52L69.25,72.7l-.67.72-.41.16-1.25.2-1.59.7-.45.1-2-.46-.81.06-.92.8-2.9,3.26-3.25,2.49-3.57,1.72-15.8,2-1.61.85L26.8,92.09l-1.68,1-7.06,2.32L16,96.73l-.48.14L14.16,97l-1.07.28-1,.49-.89.64-.13.28.2,1.1.18.59.16.24.27.17.44.07.33,0,.31-.11.69-.45.27,0,.28.16.4.84.22.26.78.15.36.15.38.39.33.25.47.16.39,0,.4.13.39.28.52.61.49.71.4,1,.69,1.63,1,2.5.66,1.57.32,1.16.12.29.22.26,1.12.32.42.11,1.18.33,1.85.51,2.38.66,2.82.78,3.15.87,3.36.94,3.48,1,3.47,1,3.36.93,3.15.87,2.83.78,2.39.66,1.83.51,1.19.33.41.11,1.42.39.82.48,2.37,1.36,2.36,1.36,2.35,1.35,2.37,1.35,1,.55.51.07.31,0,.59-.11h.27l.28.13.3.28.4.09.33,0,.83-.32.3,0,.36,0,.41.14.61.33.91.29,1.35.72.46.11.34,0,.87-.69.26-.07.29,0,.3.07.31,0,.27-.07.49-.28.27-.08.31,0,.32,0,.41.15.42.25.66.52.39.11h.34l.25-.09h.29l.31.12,1.36.76.39.07h.33l.83-.24.34.06.36.22,1,.83.24.09.68.12,1.39,0,.33.06.32.12.71.41.66.26.34,0h.33l.59-.1h.32l.29.12,1,.84.26.15.62.23.37.24.32.4,1,2.31.15.42,0,.51-.14.32-.15.28-.87,1.18-.15.28-.11.3v.38l.11.41.39.53.3.29.6.35.59.25.67.17.33,0,.64-.08.82-.26h.22l.18.08.11.09.48.65.17.19.21.18.26.15.66.19,1.74.15.31.09.26.16.22.17.17.21.46.7.2.2,1,.69.4.36.49.67.55.6.24.33.07.17v.17l-.11.32-.17.19-.43.37-.09.31,0,.41.28.6.68,1.14.13.33.08.43v.75l-.09.46-.15.34-.2.18-.25.12-.27.09-.19.23,0,.51.37,1.15.33,1.76v.38l0,.19-.08.3-.22.57-.3.52-.17.24-.19.21-1.32,1-.17.22-.11.34,0,.46.1.7,0,.46-.08.37-.47,1.21,0,.35.11.36.25.35.6.41.39.08.31-.06.47-.28.27-.08h.31l.9.28.34,0,.3,0,.28-.07,2.93-1.58.25-.08.28,0,.24.18.25.3.33.52.26.5.06.28,0,.3-.19.35-.6.68-.33.47-1,2.28-.77,2.28-.15.71-.18,1.79,0,.39.28.53.6.78.93,1,.4.55.22.39.08.26.67.55,2.16.89.05-.16-.35-2.51.13-1.18,1.72-1L133.25,165l.21-.62.26-1.38.21-.53.78-.88.33-.48.71-2.72.45-.87,1.39-2.18.93-1,1.56-3.33.73-.62,1.73-.6.69-.56.57-1.82.11-.12.25-2.53.59-2.24.54-1.15.66-.49.33-.64.74-2.92.46-.8h.68l.24.61,0,.79-.11.58-.32.76-.81,1.31-.24.65v1l.25.81.33.68.24.63.07,1-.32,2.73.16.9.38.68.38.18.16-.59.33-.37,1.51-.52,1-.17.68-.28.58-.42.24-.55.28-.88,1.06-1.64ZM59.66,21.91l-.37.36-.55,1.42,0,.5.13.05.17-.06.2.15.76,1,.86.32.94-.15,6.81-3.29,2.1-.35v-.4H67.22l.51-.69,1.5-1,.16-.42L79.77,15l2.06-1.31,1.61-1.48.17-.27-.06-.46-.21-1.09,0-.3.92-1.23,2.9-1.8,1.07-1,.51-.64.19-.31L89,4.77l-.45.6L88,5.68,86.88,6l.17-.5.31-.43.85-.7-3,1.69-.83.75-.67-.29-1.29.58L82,6.84l-3,2.48V8.47L77.67,9.76l-1.88,1.41-1.8,1-1.06,0-.74.79-1,.63-1,.33-.79-.13-1.39,1-5.6,3.07-3.67,2.81.42.68.66,0,1.39-.63v.4ZM271.49,133.23l.15,0,.18-.68.4.18.41.54.24.37.28.32,1,.67.24.63v.11l.26,0,.43-.29.16-.06h1.48l.4.18.45.35.45.23.35-.16.91-.87.86,0,1.65,1.06.94.35,1.17.13,1.11-.16.73-.54,1.38-3.09.13-.63-.77-.67-1-.21-.87-.5L284.2,129l-.28-1.12-.7-.8-1.76-1-2.54-.15-1.1.25,0,.86.48.36.59.12.42.32v1l-.25.53-.42.3-1,.37-1,.54-.47.18-.62.06-.28.24-.61,1.07-.46.24-.74-.49-.84-.84-.84-.29-.74,1.2-.09.83.21.39ZM159.22,102.59l.24.41.27.57.17.76,0,.4,0,.22.4.24.25,0,.12-.62.2-.15.21.13.21.27.13.27,0,.12.89.09.51-.2.26-.68-.18-.7-.51-.08-.59.11-.38-.15v-.46l.25-.53.6-1-.41-1.18-.27-.44-.41-.32-.94-.3-.74.27-.45.76-.07,1.21.12.57ZM300.29,342.94l-.64,3-.12,1.61.48.53.51-.82.12-1.57-.05-3.09ZM260.81,113.8l-.63-.72h-1l-.3.45,0,.81-.24,1,.75,1.07.7,1.35.82.79,1.13-.63.22-1.23-.54-1.56ZM183,186.06l-.32-.23-.31-.32-.73.25-.56.74-.27.93.19.79.87.53.71-.63.6-1.07.56-.82-.39,0Zm4.7-4.05.12-.72-.3-.67-.49-.44-.59-.38-.53-.47-.62,0-.44.41-.58,1.08,1.34,2.94,1,.89,1.19-.76-.56-.53.11-.66Zm62.79-38.42-.17-.74-.59-.74-.19.3-.07.72-.22.5-.41,0-.94-.6-2.62-.66-1.09-.07-.93.58.55.65,1.89,1.71,1.33,1.6.57.38.71.21.83.07.83-.07.65-.22.49-.53.73-1.61.43-.62L251,144Zm79,154.68-.29-.37-.3-.83-1.07-2.38-.4-.5-.28-.53-2-9.5-.82-9.51-1.3-4.24-2.28-15.55-1.42-3.2-.21-.78-.13-1.13-.33-.91-2.12-3.31-1.28-1.35-1.47-1.12-4.45-2.42-1-.15-.79.13-2,.67-.61.33-1.41,1.64-.69.46-1.33.17-.51.17-.91.78-.51.17-2.87.09-.39.13-.33.22-.34.36-1.2,1.69-.19.39-.56.41-3.54.53.75.27.81,0,.72.15.46.69-1.38,1.55-.74,1-.33,1-.27,1.23-1.93,2.7-.86,2.38-.64,1-.79-.16-.17-.45-.18-.62-.27-.36-.48.3-2.66,4.14-1.4,1.52-1.55.85-1.62-.31L276,264.64l-2-.59-.81-.66-2-.77-.9-.63-.85-1.07-.72-1.43-.24-1.55.56-1.4.13-.55-.11-1.83.13-.84.44-.62.43-.48.07-.49-.7-.67,1.42-4.28,1.06-1.73,1.64-.79.47,0,.88.3.53,0,.39-.15.67-.5.45-.11.41.06.78.26.44.06.24-.29.28-1.44.17-.53.74-.45,2-.09.72-.43.11-.57-.07-.68,0-.57.44-.24.27-.27.1-.64.22-3.89.4-2.43.86-1.95,1.55-1.09.4-.06,1.23.06-.13.32-.27.86-.14.33.55-.53,1.8-2.36.39-.71.23-.19,1.14,0,.38-.15.62-.89.19-.47.17-.74.29-2.24.27-12,.17-1.18.75-2,.15-1.23-.09-1.19-.39-2.27-.16-2.65L294,198.2l-.33-1-.45-.92-.1-.33-.06-.55-.13-.27-.26-.24-.66-.36-.73-.83-1.11-.79-.49-.49-.43-.54-.25-.4-.12-.55,0-1-.13-.39-.28-.25-.3-.17L288,189l0-.52.2-.21.24-.17.1-.42.08-1.43.37-1,.79-.62,1.37-.2.37.24.88,1.18.52.47.65.27.67.12,1.43,0-.38-1-1.51-.77-.31-1.32.12,0,.28,0,.28-.13.13-.27,0-.37-.09-.24-.09-.17,0-.15,0-.56-.31-1.44-.18-.48-.4-.23-.54-.12-.48-.18-.21-.42L290.73,177l-.71-1.57-.11-.54.08-.65.22-.39.8-.73-1.54-1.83-1.71-1.55L286,168.64l-1.79-.48-1.37.09-.56-.09-1.6-.71-.58-.09-.65-.31-1-1.48-.77-.53-.45-.08-1.46.08-.56-.12-1.12-.53-1.39-.42-.76-.74-1.37-1.67-1.81-1-6.1-.18-.78-.42-.61-.85-.39-1-.14-1-.21-.89-.52-.91-1.17-1.55-1.26-1.18-1.79-1.06-2-.72-1.81-.15-3.77.32-1.61-.61-3.07-2.79-5.19-2.76-1.29-1.2-.64-.27-.79.27-.43.52-.28.62-.41.54-.8.3-5.31-.25-1.51-.53v.39l.57.49,1.38,1.5.12.31-.5.34-1.56,2.42-2.37,1.82-1.13,1.13-.85,1.74-.28,2.09.26,2.08.6,1.85.78,1.34,1.25,1.38.68.43,3.62.57.77.36-1,1.51-2,.75-2.22.19-3.53-.24-1.76.36-6.36,3.47L212,172.32l-1,1.62-.3,2.12.85,7.11-.59,5.11-1.25,4.49-1.78,4-2.63,4.7-.34.4-.48.12-.41-.22-.17-.41.1-.52.57-1,.12-.58,0-1.27.15-.39.94-1,.48-1,.34-1.17.2-1.26.06-1.31.1-.64.38-.69.08-.58-.18-.71-.42-.43-.56-.11-.49.27-.22.53-.16.85-.17,1.51-.14.66-.35.51-.86,1,.32.05.76.37-.34.52-.87.68-.16.47-.19,1.65-.21.84-.55.81-.12.86-.25.55-.72-.47-.32-.54-.69-1.62-.25-1.12.57-1.72,1.53-3.62.17-.81,0-.76-.26-.6-.34-.15-1.06.4.32-1,.57-1.3.72-1.13.73-.48.31-.46-.26-1.06-.73-1.95v-1.65l.59-.58.69-.19.34-.45.3-.91.5-1,.1-.77-.9-.18-1.09,1.12-.57.08-.53,0-.47.09-.48.47-2,4-.61.78-1.74,1.68-.36.49-.21,1L194,190.8l-.48.61-.62.26-.68-.24-1.2-1.08-.59-.25-.3-.05-.5-.24-.3-.05-.41.12-.12.28,0,.36-.13.36-1.39,2.29-.48.42h-.33l-.29-.14-.25-.17-.22-.09h-1.25l-.67.31-.17.76.15,1.77-.52,5,.25.94-.35.66-.42.34-.51.13-.64.05-.39-.06-.66-.31-.32,0-.27.15-.65.53-1.47.48-1.13,1-.6,1.39.43,1.66.68,1.35.3,1.36V212l-.72,3.69-.26.62-.2.69v1.77l-.19.76.58,1.8-.53,2.37-1,2.19-1.81,3.3-1.75,4.3-1.25,2-3,2.72-1.18,1.63L166,242l.41.9,1.21,1.66.46,1.19.4.51.27.55-.35,1.26.06.63.26.86.67,4.74-.21,2-1,1.87L166,261.06l-.7,1.77-.13,2.15.29,1.2.88,2,.34,1.68,5.92,15.37.75.8.51-.6,2.76-.89-.23.74-.61.74-.76.56-.68.23-.56.34.12.85L176,293.6l.34,2.16.43,1.33.54,1.23.47.69,0,.22,0,.14-.07,0h.08l-.13,0h-.1l0,.06v.23l.48,1.41.13,13.78-2.15,12.81-1.16,4-3,7.61-4.52,6.72-4.4,10.11-2.13,3.43-2.57,2.75-2.37,1.37-.38.6-.45.55-1.67.94h81.53V369l3.32-.12,3.32-.13,3.32-.13,6.63-.25,3.32-.13,3.31-.13,3.32-.12,3.32-.13,6.63-.25,3.32-.12,6.63-.25,3.32-.13,3.26-.13,0-.41.15-.71.36-.43.45-.09.39.3h.3l0-1.42.13-1.07.32-.92,1.67-2.66.67-.64.72.13.39-1.48.66-1.09.89-.44,1.08.5.25-.67,0-.7-.17-.67-.39-.56,1.19-.15.62-.48.88-2.32.2.4.18.27.46.45-.16-.38-.05-.31-.06-.77-.12-.37-.37-.54-.08-.22.09-.75.22-.46.14-.39-.16-.55.17-.24.37-.86,1.28-5.72.83-1.9L303,336.5l.79-1,.78-.72,2.5-1,1.27-.21.38-.15.57-.43.72-.72.63-.83.26-.78L311,330l.35-1,.1-.65-.06-.55-.36-.76-.12-.56.09-1,.29-1.22.41-1,.43-.43,1.76-.74.53-.13.4,0,.28-.22.18-.73-1-.6-.66-1.13,0-1.1.94-.48,1-.24.76-.57.75-.73.93-.69.5.37,1.68.74H321v.66l-.32.78-.2.77.22.38.39.39.15.56-.46.89.81.9.29.2-1.12.59-.3.36v.18l1.42-.18,1.29-.58,1.06-1,.91-1.56.6-1.44,1.11-3.92.26-2.28.23-1,0-.58-.11-.41-.47-1.1.12-.9.57-1.56.14-1.06.46-1.91.9-1.75.63-1.73ZM192,162.88l-.19-.13-.18,0-.22.29,1.73,3,.32.32.25-1-.31-.93-.59-.81Zm14.79-16.94.43-.34-.64-.28-1.41-.2-.65-.29,0,1.06-.08.72-.18.61-.28.72-.34.6-.37.52-.29.58-.45,2.44-.58,1.13-.19.91.83,1,1.25.32,1.46-.39,1.27-.9.66-1.19v-.84l-.4-1.58-.12-.89.07-.63.12-.61,0-.6-.21-.63-.22-.46,0-.41Zm1.4-1.89.23-.09.22-.2.18-.26.08-.24-.06-.41-.22,0-.31.08-.27-.07-.6-.59-.74-.57-.15-.08-.13,0-.13-.07-.13-.23-.16,1.18.48.86.84.53Z"/></svg>