<svg id="Alabama" xmlns="http://www.w3.org/2000/svg" viewBox="0 0 473.91 371.93"><defs><style>.cls-1{fill:#ccabd1;}</style></defs><title>state</title><path class="cls-1" d="M367.49,280.43l-.82-1.1-1.14-.61-1,.35-.41,1.74.5,1.36,2.57,1.32,1,1.2-1.23.38-3-.18-.52.64.65,1.08,2.59,1.23.79,1.1,1-2.1.9-2.66,0-2.41ZM456,249.79,452.11,259l-2.57,4.84-1.11,3.2-.43,3.59-.5,1.27-2.94,4.23-2.07,4.14,1.63-.23.53-1.11,3.38-4,4-10.17,1.58-7.25,3.52-6.79,1-3.71h-.61Zm.67-21.7c-12.59,0-25.18,0-37.76,0l-21.41,0-.41-5.93c-.63-12.85-1.19-25.7-1.8-38.55q-.93-19.62-1.85-39.25-.88-19.09-1.79-38.18T389.81,68c0-.17,0-.35,0-.52h-78.5q-20.65,0-41.31,0H25.34l-1,65.18.2.37.41,0,1-.48,1.25-.83,11-9.93.78-.24,4.09-.7.75-.34.42-.51,1.16-2.7.7-1.1,1.28-1.35,2.8-2.13,4.6-2.49.49-.36.44-.47,1.08-1.58,1.9-1.47L59,106l.37-.45.27-.44.23-.45,1.25-3.21.32-.55.37-.54.47-.39L66.07,98l.73-.13.93.09,1.69.65,1.57,1,1.87,1.8,1.06.6.75.15.84,0,1.12-.49.55-.45.46-.51,1-1.59L84.51,93l1.2-1.65,1-1.73L87,89.2l.41-.42.39-.33.46-.28L88.8,88l1.72-.38.58-.23.29-.33-.09-.35-.43-.73-.09-.54.06-.65.23-.67.32-.58,1.42-2.21.55-1.06.41-1,.23-.46.29-.42.38-.13.46.09.7.65.29.51.9,1,1.1.74.17.45-.08.3-.52.18-.8.48-.23.29-.15.33-.14.48,0,.51v.34l.06.22.06.15.55.78.23.19.32.23,3.59,1.77,1.63,1.14.41.42.49.39,2.42.8,8,1.37.23-.48,3.39-1.08,7.08,1,3.06-2.3.46-1.28-.49-.66L126,86.57l.31-1.81,1.6-.47,1.93,0,1.24-.5-2.71-3.83,1-.64.87-.08,1.92.33.91-.11,2.56-1.29,2-.46,4,.87,2,0,.7-.62L146,75.58l1.13-.92,2.94-3.56.82-.6.9-.44,1.13-.36,5.1.37,4.54,3,7.52,7.7L172,82l2.24.82,2.09.09,1.55-.91,1-.34,2.77.78.55-.44.52-1,1.2-.2,1.34.26,1,.42,1.43,1.95-.51,2L185.39,87l-2.45.64.58,1.4L185,93.78h.61l.23-1.21.49-1.4.77-.84.9.38.64,1.44-.35.94-.58.74-.09.81,1.25,1.5,1.46,0,1.63-.52,1.83-.12v.87l-1.36.39-.65,1,0,1.38.58,1.58-2.13,1.63,1.28,1.23,4.52,2,.85,2.15-.47,2.34-.75,2.38v2.29l1.51,2.47.14.06,1.93.91,5,0,1.81.35,4.2,1.7,4.46,1.09,1.07,1,1.9,3.22,1.86,1.29,2.24.63,1.94.87,1.08,2-.36,2.59L223,134.85l-3.24,2.91L219,139.9l.56,2,1.31,1.68,1.49,1.38,3.53,3.6,2.29,1.31,8.72.86,3.15.91,2.89,1.59,2.16,2.31.6,1.74.41,2,.68,1.67,1.33.7,1.41.28,3.31,1.19,3,.63,1.11.89,1.14,1.53,7.54-8.25,10.93,15.6-8.71,10.32-.07,2.16,1.66,3.24-.45,1-.5.75-.53.56-.6.4,1,2.52-1.16,1.42-3.91,1.22-1.42.74-.78.61-.77.8-.58,1.12-.37,2.12-.85,2-.61,2.15-.56.74-1,.3-2.19-.14-.64.22-.75.68-.61.23-.56.34-.47.95-.29,1.34.12.82.56.16,1-.61.67.86-2.77,1.28-1,.5-2.13.74-1.11,2.41-.61,2.55-.93,1.17-.74,1.54.06,3.5.52,3.77.54,2.42,1.08,2.24,1.77,2.51,2.13,1.55,2.16-.78,1-.76,2.24-1,1.12-1.28,2-4.28L257.7,229l-.4-.49-.67-.43,1.28-1,1.34-.78.23.33.06.13.12.13.34.27v.94l-.55,1,.18,1.37.69,1.28,1.09.7,1.22-.26,1.28-1,1.55-2.25.55-1,.41-1,.23-1.13.09-1.23,1.59,1.89,1.37,3.12,2.85,9.29,1.38,2.39,6.72,7.25,2.65,1.71,2-.11.41-3.13-.7-3.52-1-3.06-2.43-5.47,3.11,2,2.13,2.49,1.16,3.31.38,4.66.32,1.2.75,1.66,1.64,2.76,1.54,1.44,1.3.49,9.41-1.17,3.55.4,2.77,1.85,1.34,1.34,1.27,1,1.22,1.19,1.2,2,.55,1.75.7,3.08.18,1.08,1.32.87.7-1.06.61-3.23,2.15,2.48,1.31.87.79-1.67.5-.72.5-1,.2-1.22-.11-.84-.54-1.9-.07-1.14,2.2,2.07.74,4.11.35,4L328,271l2.68,1,7.17,6.7-.09-1.89-.61-1.11-.78-.91-.61-1.22.2-1.89.85-2.39.54-2.51-.54-2.24-3.06-4.69-2.7-2.39-.68-.93-.58-2.39.55-1.9.9-1.77.49-2.17-1-1.92-2.3,0-2.68.6-2.2.09-2-1.28-1.72-2.13-1.2-2.48-.46-2.28-1.05-.81-6.35-3.08-3.35-3.06-2.56-3.46-1.61-4.28-.58-4.7-.16-.93-.57-.7.73-.94-.68-2-.4-2.75L301,203l.15-1.45-.12-1,.26-.86.94,3.14,2.92,19.12.49,1,1,.76,6.59,8.6,1.7,1.29,3.11.7,1.1.49,1.64,1,.67.85.17.69.12.8.45,1.16,1.46,2,1.49.69,3.41-.09,2.27-1,.38-2.44-.7-2.86-.9-2.3-2.8-4.34-6.84-8-1.87-4.84-.15-2.83.83-7.94-.39-2.33-.7-2.33-.32-2.49.73-2.78-2.76-3-1.14-2.21-.15-2.57,1.06-1.74,3.67-2.29,1.39-1.91.55-2.71h-1l-2.92,1.78-.93-.92,1.28-4.1-1-1-.47-.82-.12-.37-.11-.53,2.33,0,1,.23.69.59,1.57-1.64-1-1.56-3.26-2-1-1.41-.74-1.87.15-1.52,1.63-.38,1.93,1.16,3.35,4,1.82.86.7-1.37-1.25-3.07-4-6.42L317.14,156l-1-.88-2.08-.9-1-.78-.67-1.29-.06-1.31.55-1,1.16-.36,1,.6,1,1.32,1.46,2.47,5.62,5.86.75-.3.61-.85.74-.47,2.32-.13,1.64-.56.43-1.29-1.34-2.27-1.78-1.44-5.25-2.52-2.13-.44-.69-.42-.67-1-.23-1.16.58-.87.81.22,3.29,2.45,1.32-.92,1.22.26,1,1,.52,1.39H327l.55-2.83-1.06-2.76L325,142.11l-1.34-4.62-1.31.08-2.16,1.49-1-.72L317.81,136l-.67-.49-.29-.68-.41-1.49-.89-1.49-3-1L312,130l-.43-1.12-.88-1.19-.73-.14-1.72-.61-1.25-.66.65-.32,2.52-.16,1-.49,1-1,1.08,1,4.92,2.36,1.34,1.37,1.11,1.51.9.93.75-.34.61.94.75-.8.88,0,.93.58.87,1,4-2.6v-.78l-3.38-.53-2.59-2.32-2-3.33-1.57-3.51,3.24,1.09.81.65,1.64,2.94.9,1.25,1.52,1,1-1.13.06-.85-3.24-4.34L326,118.9l.6-.71,5.45,1.32.29-.51-.7-1.69,1.12-.85,1-.13,1-.28.88-1.32h-.61l.23-2.33-2.14-1-2.71-.66-1.56-1.31,7.54-1.93,1.34.63,1.94,5.8.74,5.91,3-3.75.76-.51.11-.69-.73-1.52-1.4-2.21,1.34-9.56.64-.54.64-1.13.78-.94h.93l.71.89,0,1-.68,2.42-.67,5.45.38,2.5,1.6,1.68,2.56-2.33,6-3.56,4.79-4.81.64-1.14.23-1.65-.78-.56-3.62-1.27-1.05-1.26,2.77-7,.93-1,1.07-.52,1.38-.2,6.73.06,1.07-.54,1.64-3,1.13-1.32,1.6-.4-1.19,5-.8,2.2-1,1.94-2.48,3.62-.9,2.41.36,2.36,1.68-2.16,7-5.82,1.86-2L381,87.73l1.72-1.85,2.38-.88-.74,2.91-1.2,2.94-1.75,2.42L379,94.65l1,2.09,1.49,1.47,2.94,1.74v.79l-2.68-.45-4.58-1.54L375,99l-1.69,1.11L371.11,102l-3.93,4.42-.32,2.32,2.45.83,11.24.13,2.53.78,1.34,1.63-2.57.12-.69-.1-4.38.16-11.09-.38L357,113l-.32.56-.78,2.76-.55,1-.93.49-2.16.43-1,.9-.34,1-.21,2.51-.4,1.16-4.81,9.09-1.64,4.39-.43.8-.61,1.48,0,1.42,2.29,1.11.77,1.12.52,1.31.16,1-.29,5.56.15,2.31.84,1.2L349,153l.84-4.72,1.43-4.78,3.39-1.87v.87l-1.35.94,2.38.84,2.12-1,2.1-1.63,2.22-.93L360.91,143l-4.37,4.55-1.89,2.87.73.86-1.12.36-2.32.42.29,1.19.44,1,.58.75.79.54-.38,2.58L352,159.69l-2.24.83-2.19.23-2.76-.42-1.67-1.07-2.61-2.82-1.05-.71-1.13-.47-.88.24-.67,2.91-1.34,2.71-.31.93-.29,3.14L333,174.64l.2,2.22,1.55-.08,2-1.25,1-1.36-.48-.76-.9-1.14-.65-1.29.3-1.19L337,169l.83-.25,3-.24.67-.16,1-.6.08-.35.73-1.07.82-.92.38.08.7-2.12,1.62.67,3.12,2.77-.47,1.49-.23,2,.38,1.81,1.27.78.65-.68.74-3,.31-.75,1.26.19.11,1.13-.7,2.59.64.48,4.14,1.72L356,176.15l-2.77,1L351,178.83l-.41,3.56,1.4,3,2.07.34,2-1.3,1.35-2,.37,2-.85,2-1.37,1.52-1.26.61-1.83-.24-1.75-.69-1.61-1.1L347.85,185l-.76-2.88-.2-.49-1-.2-.63-.52-1-1.55-1.49-.8-1.54.78-2.72,2.29-.16,1.06-.53,1.27-1.92,7.35-.91,2.21-.32,1.8-.27,3.06.58.67,1.32-.22,1.4-.76.81-.94-.34-1.77.2-2.88.61-2.94.81-2,1.52-1.51.11,1.1-.9,5.19.81,1.22,1.8-1.85,3.15-4.16,1.9.91-.26,2.09-2,3.9,1.26.81.87,2.92.85.64,1.2-.6.52-1.44.44-1.73.88-1.46.38,1.26,0,1.21-.34,1-.68.78.87,1.53,1.76.07L356,199l2.07-.16v.86l-1.34.48-2.56,1.32-.88.77V203l1.93.84,1.43-.25,1.28-.75,1.48-.63-.52,2.52,1.84,2.2,2.79,1.57,2.34.58,2.28-.7,1.4-1.78,2.13-4.39h.55l.35.4.4.38L372,205l-.47,3.88-1.22,2.09-1.17.78-1.51.5-3.08.35-10-3.84-1.84.4-1.05-.74-1-1,.56-.35,1.48-1.3-1.4.22-2.57,1.08-1.42.35-1.67,0-4.43-.84,1,1.63.47.52.64.43V210l-2.18,2.6-.76,1.76,1.22.79,3.06,0,1.22-.35,1.08-.86.52-1,.06-.68.29-.41,1.14-.13.79,0,.63.11.54.26.4.45.29,1.35-1.49,1.63.53,1.32-1.93,1-2.2.7-1.84,1-.77,2.05-.43,3.15-.91,1.78-.93-.24-.44-3-.88-1.15-1.8-.31-1.48,1,.09,2.65.55.65.9.69.85,1,.68,2.76.61,1.46.73,1.31.52.74,2.95,4.68,1.86,3.08.52,3.37h.61l.29-2.71-1.39-5.65,1.1-1.05,1.63,1.16,5.89,7.47.9,2.3.66.81,2.59.72,1,1.06,3.21,5.59,1.05.88.93-1.17,1.1-3.29V249.6l-.17-1.61-.77-1.23-1-.63,1.79-3.18,2.8-3.44L372,238.1l1,2.83-.72,1.89L369.53,244l-.61,1.63.38,1.16.85,1.06,1,.9.55.76.16,1.22-.14,1.23v1.09l.52.75.69-1.23,2.42-7.4.64-1,5.07-5.85.45-1.2.23-1.43.35-1.17.66-.48,1.28.14.23.44-.23.7-.58,2.67-.87,1.93-3.3,5.45-1.07,2.68-.44,2.87.93,2.5,1.84,1,4.34.31,1.58.83-3.67,1.74-4,1.13-3.18,2.16-1.27,4.75.11,2.5.29,1,.61.38.85-.43.21-1,.09-1.11.52-.87,2.07-.56,4.45.5,2.3-.88,1.32.24,1.75-.2,1.39.46.33,1.29-.79.69-3,.54-1,.49.61.85-.52,1.1-.82,1-1,.78-1,.44v.92l.44.26.09.12V274l.23.38,1.2-.74,1.39-.23,2.42.08,1.49-.6,1.08-1.29,1.08-1,1.45.29-1.34,2.3-4.51,4.31-1,1.49-.61.4-2.8.41-.64.93-.43,1.36-2.1,3.33-.76.8.27.15h.26l.14.17-.06.63H381l.45-.77.61-.52.78-.32.94-.12-.5,1.63-.84,1-.85.72-.59.91-.16,1.1.25.52.36.47.16.91.91.61,1.95-1.25,3-2.76,2.15-1.55,2.27-.3,8.94.76,1.87.49,1.08.53,1.57-3.64L406,285c8.05-1,16.11-2.09,24.16-3.2l.24-1,2.16-6.24-.51-1.05.59-.46,1.61-2.19.85-.66.92,0,1.84.76.68,0,.72-1.2,1.13-4,.47-.85,1-1.1,1.43-7.34.93-1.51,1.31-1.11,3.2-1.75-1.31,2.67.32,1,3.33-.14,1-.91,2.42-5.56,1.17-1.61,1.34-2.27,1-2.37.18-2-.81-1.41-1.15,0-1.3.26-1.4-.46.43-.23.46-.42.44-.29v-.79h-.73v-.93l1-1.75-1.39-1.11-4.23-1.34,1.81-1,1.63.38,1.56.87,1.7.52,1.66-.29.12-.87-1.78-3.12,1.37.56,1,0,.54-.69-.09-.75Zm4.89,0,0,0-.14,3.83L459.73,239l-.29,3.7,1.61-2.15,1.13-4.24.65-4.68c0-1.2,0-2.4.06-3.6ZM367.2,263.16l.23-1.05L367,261l-.81-1.16-1.46-1.23-2.3.52-1.6,1.73.58,2.47,1,.38,3.78.4Z"/></svg>