<svg id="Alabama" xmlns="http://www.w3.org/2000/svg" viewBox="0 0 269.59 371.93"><defs><style>.cls-1{fill:#ccabd1;}</style></defs><title>state</title><path class="cls-1" d="M233.06,20.81l1.8-.66-27.07.18q-21.42.15-42.84.3t-42.8.29q-21.43.15-42.85.3l-42.64.29.4,1.81.55,3.49L38.17,29l.1,1-.06,1.19-.38,2-.42,1.25-.44,1-1.81,3-.38.87-.6,1.89-.19.9-.16,1.75,0,.94.2,1,.5,1.3L35,48l.5.7,2,2.26.35.69.22.67.13.75,0,1-.1,1.28-.38,2.15-.32,1.39-1,3.07L36.1,63.8,36,67.18l-.23,1.76L34,74.69l-.16.9-.12.87.15,3.31.83,5.43L35,86.49l1.48,3.3,4.57,7.77,1.08,2.38.6,2.2.12.88,0,1.42-.06,1.4-.31,2.2L42,110.52l-.7,1.79-2,3.94-.34.84-.3.88-.05,1.07.05,1.2,1.5,6.71.19,1.52,0,2.93-.35,3.2-.4,1.59L39,137.28l-1.13.86-1.27.74-1.17.91-1.08,1.08-.45.69-.38.73-.22.85-.31,3.15-.42,2-3.7,12-1.26,2.18-.25.92v1l.47,1.31.48.83,1.39,1.86.32.66.27,1,.15,1.29-.13,4.05.1,2.26,1,6.48.48,1.86.44,1.27.83,1.25.32.61.21.73.1.93,0,1.16-.26,1.95-.63,2.31-.09.9.09.9,2,3.58.28.7.19,1.18,0,1.55-.19,3.1-.32,1.6L29.2,224.37l-.29,1.31-.23,1.65.06,3.2.16,1.81.6,1.69.75,1.48.23.35.22.06.42-.11,1.17-.55,1.2-.87.48-.59.47-.65.32-.81.48-2.58.35-.76.41-.68.57-.48.63-.34.73-.19.75-.06.8,0,1.72.38L42,228l.6.65.48.82,1.52,5.32.88,1.28.55.38,1,1,.8,1.19-.07,3.23v1.09c-.08,4-.15,8-.24,12q-.47,21.62-.91,43.24-.43,20.71-.85,41.41L45.45,342l-1.17,5.15L47.17,356q21.1.83,42.21,1.59c14.07.52,28.14,1.09,42.21,1.61v0l-.7-4.22-2.09-3-4.6-4.79-.91-1.61-.65-1.44-.4-1.65L122,340.2l.07-2.65.55-1.71.75-1.53.83-2.08.76-6.34.73-2.58,1.84-1,2.6-1,1-2.42.45-6.71,1.87-8.23.28-3.34-.67-3.8V295l.67-6,.73-.81.5-.73.23-.86-.14-.88-.25-.44-.25-.28-.1-.42.15-1.9.51-1.51.82-1.32,1.12-1.33,1.3-2.8.25-3.33-.42-5.56.8-25.15.63-3.89,1.11-2.11,3.7-3.61,1.52-2.51.86-2.91.95-6.14.38-5.17.67-1.54,2.9-2.37,1.37-1.94,5.68-5.24,1.14-2.36.88-2.9.63-3.21.23-3.26.64-3.11,1.58-3.09,7-10.06.23-1.09-.7-.85-.91-.93-.48-1.23.63-2.36,4.57-8.31,1.58-4.75.6-5.72-.07-13.13.8-7.59,2.4-5.38,3.93-3.21L189,120.6l5.23.24,2.6-.44,2-1.43,3.55-4.6,1.72-1.57,9.38-6,2.78-1.17.95-1.32,1.87-3.27L222.76,98l2.05-2.7.1-2.61L224.56,90l.77-2.89,1.08-.74h1.32l1.3-.26,1-1.52L230,83.13l-.72-1.55L228,79.48l-3.33-8.66-.41-2.17-.76-2.71L222,63.87l-1.07-2.4.44-3.77L224,52.26q4.92-7.07,9.86-14.13l.95-3.7-.93-2.37-1.45-2.31-.79-3.52.38-4Z"/></svg>