<svg id="Alabama" xmlns="http://www.w3.org/2000/svg" viewBox="0 0 257.59 371.93"><defs><style>.cls-1{fill:#ccabd1;}</style></defs><title>state</title><path class="cls-1" d="M239.05,305.94q0-16.22,0-32.45,0-15.72,0-31.45l-1.55-.44-.58-.42-1-1.29-.61-1.05-.47-.57-.38-.31-.54-.29-.27-.2-.2-.2-.11-.22-.08-.23-.07-.25,0-.58v-.34l0-.32L233,235l-.21-.23-.27-.18-.35-.17-.16-.19-.28-.63-1.43-2.3-.33-.85-.36-.29-1.28-.72-.45-.12h-.3l-.16.17-.38.7-.19.18-.27.11-1,.14-.24.09-.42.26-.34.36-.1.24,0,.25.07.23.12.21.14.18.12.21.08.22,0,.29v.29l-.06.28-.14.21-.17.15-.94.37-.17.15-.1.22,0,.52-.07.22-.25.56-.07.28,0,.3V237l0,.27.12.5.06.21.07.14.11.15.15.14.21.12.82.28.19.14.11.2v.21l-.22.16-.34.09-.61.07-.33,0-.21-.06-.43-.32-1.1-.53-.43-.09-3.86,0-.52.08-1.58,1.09-.22.12-.6.13-.73.07-.31.1-.71.34-.33,0-.26-.08-.18-.16-.13-.21-.11-.21-.28-.4-.24-.2-.33-.19-.64-.24-1.49-.05-.32.05-.26.09-.19.15-.25.15-.37.12-.67.11-.57-.07-3.37.62-.33,0-.87-.36-1-.25-.65-.07-.79,0-.4,0-.28-.1-.52-.42-.51-.24h-.31l-.24.11-.31.34-.16.13-.27.12-.89.23-.56.24-.41.24-.19.15-.14.19-.12.25-.26,1.17-.62,1.64-.2.24-.3.2-.56.2-.39,0L191,244l-.21-.15-.16-.18-.24-.21-.3-.2-.68-.19h-.51l-1,.14-.22,0-.31-.31-.19-.16-.23-.12-4.33-.55-1.2-.32H181l-.3.06-.62.42-.21.09-1,.26-.2.14-2,2.07-.15.19-.14.22-.11.24-.06.26v.28l.08.24.6,1.05,0,.28-.15.27-.57.3-.31,0-.22-.13-.82-1.19-.17-.17-.21-.13-1.57-.51-.26-.16-.18-.16-.55-.8-.22-.22-.3-.21-.59-.22-.31-.2-.15-.26,0-.57-.05-.22-.33-.66,0-.21v-.14l.14-.45.33-.77,0-.26-.11-.28-.25-.25-.56-.3-.3-.22-.17-.25v-.56l-.05-.25-.1-.22-1-1.08-.12-.2,0-.23,0-.24.12-.22.15-.19.36-.31.16-.18.11-.22,0-.26,0-.25-.07-.25-.21-.44-.39-.62-.11-.22-.25-.73-.1-.24-.13-.21-.3-.37-.13-.21-.09-.22-.09-.25,0-.26-.08-.24-.1-.22-.13-.2-.51-.52-.15-.19-.47-.83-.14-.2-.67-.71-.82-.68-.93-.49-.82-.22h-.61l-.25.07-.22.11-.19.13-.7.67-.27.16-.35.12-.64.06-.34-.1-.2-.19-.09-.84-.08-.25-.3-.28-.47-.3-1.65-.79-.42-.33-.32-.43-.22-.44-.47-1.44-.22-.44-.26-.4-.31-.36-.13-.21-.07-.23,0-.24.14-.18.18-.14.68-.33.17-.16.15-.21.12-.25.09-.28.22-1.21,0-.3v-.06l-.16-.79-.07-.25-.54-1.41-.23-.45-1.11-1.63-.1-.22-.22-.88-.23-.38-.26-.13-1.19,0-.3-.11-.19-.19,0-.26v-.6l-.08-.24-.12-.21-.29-.4-.1-.23-.06-.26,0-.28-.12-.51-.09-.24-.23-.43-.5-.58-.57-.45-.71-.83-.62-.52-.16-.24-.05-.26,0-.56-.06-.27-.17-.27-.27-.26-.78-.6-.23-.22-.12-.22-.09-.24-.06-.57v-.3l.09-.61.07-1.25v-.61l-.13-.33-.27-.34-1-.84-.15-.35-.06-.56-.09-.24-.06-.25v-.3l.05-.29.08-.28.21-.52.07-.28,0-.29-.09-.82v-.38l-.1-.34-.37-.36-1.1-.5-.28-.25-.14-.29V190l.09-.65.16-.57.11-.26.27-.43.11-.23,0-.27-.07-.28L142,187l-.3-.36-.27-.2-.29-.15-1.84-.65-.42-.24-.25-.27,0-.55-.07-.26-.1-.22-.91-.81-1.27-.92-.66-.34-.48-.17-.21.07-.13.11-.08.14-.05.25V183l0,.24.12.35,0,.24v.24l-.06.21-.09.11-.14.08-.94.33-.22.12-.2.14-.17.18-.15.22-.23.52-.09.28-.12.25-.14.22-.17.17-.63.4-.17.18-.13.22-.1.25-.08.25-.15.2-.19.14-1.4.59-.81.55-.22.11-.27,0-.6,0-.27,0-.23.1-.2.15-.16.19-.15.21-.12.23-.37,1.08-.16.27,0,0-.15.13-.85.45-.2.14-.3.12-.39.08-.74-.06-.4-.12-.25-.19-.14-.19-.19-.35-1.19-.68-.37-.26-.23-.29-.05-.27-.1-.29L120,190l-1.17-.91-.35-.12-1.66-.32h-.7l-.49-.07-.16-.18,0-.19.41-.63.1-.27,0-.28-.06-.3-.13-.31-.21-.42-.07-.32.06-.26.14-.19.74-.63.45-.51.09-.14.08-.17.08-.23,0-.26V183l-.13-.52v-.25l.15-.48-.06-.33-.23-.37-.9-.92-.22-.3-.08-.24-.19-.69-.3-.49-.07-.34,0-.27.16-.18.37-.34.16-.2.12-.24.1-.27.24-.47.4-.65.19-.44.07-.13.12-.18.36-.29.23-.1.25-.06,1.21-.06.26-.06.24-.11.2-.14.85-.87.15-.22,0-.3-.06-.38-.74-1.22-.1-.24-.08-.24,0-.29,0-.29.05-.31.09-.27.35-.72.07-.3,0-.31-.14-.33-.25-.15-.93-.27-.85-.37-.32-.32-.11-.32.07-.28,0-.31,0-.36-.28-.5-.1-.37,0-.34.08-.29.11-.25.71-1.09.13-.24.09-.27,0-.29,0-.28-.09-.26-.15-.23-1.4-1.53L117,159l0-.27,0-.27.08-.21.07-.12.16-.14.22-.1,1.18-.13.25-.08.22-.13.16-.19.12-.23,0-.29v-.3l-.09-.56-.07-.87,0-.27-.06-.27L119,154l-.17-.33-.1-.27,0-.28.07-.25.11-.22.29-.43.11-.25.07-.29,0-.6.06-.28.11-.27.72-1.08.12-.25.05-.28,0-.31-.06-.6v-.65l.09-.62.15-.59.82-1.78.08-.32.06-.31,0-.32,0-.29-.05-.28-.13-.27-.18-.28-.51-.61-.12-.21,0-.08v-.05l.07-.23.16-.14.2-.11,1-.38.22-.14.19-.15.17-.18.12-.21.06-.25,0-.25-.09-.24-.11-.23-.06-.25,0-.27.08-.26.25-.46.1-.26,0-.28,0-.28-.06-.27,0-.28.05-.28.09-.27.22-.53.12-.63v-.93l0-.33-.05-.33-.14-.34-.22-.19-.27-.12-.3,0-.29,0-2.4.62-.23.11-.57.44-.45.24-.25.08-.26,0-.28,0-.59-.22-.23,0-.24,0-.81.33-.42.1-.59.05-.44-.12-.51-.23-.85-.56-.38-.33-.26-.31-.08-.26-.05-.27,0-.29.1-.25.48-.63.06-.3-.08-.37-.29-.51-.24-.29-.9-.66-.24-.11-.28-.06-.27,0-.24.07-.21.13-.58.5-.79,1-.23.14-.27.06-.35-.09-.19-.19-.1-.25v-.28l.25-1.24,0-.33,0-.35-.13-.36-.18-.22-.25-.16-1-.3-.58-.27-.37-.33-.51-.59-.38-.35-1.08-.72-.33-.27-.22-.26-.3-.73-.16-.53-.1-.56-.07-.9,0-.32.06-.31.08-.29.05-.28,0-.27-.22-.22-.89-.55-.3-.24-.22-.23-1-1.36-.24-.24-.23-.15-.7-.19-.51-.22-.27-.21-.17-.2-.06-.13,0-.09-.17-.94-.08-.26-3.16-3.55-.51-1.21-1-1.38-.4-.38-1-.69-.31-.34-.33-.47-.25-.26-.28-.21-.35-.19-.21-.21-.13-.25-.13-.55-.1-.26-.15-.25-.23-.29-.14-.27-.34-.74-.4-.62-.28-.32-.3-.22-3.19-1.29-1.78-.33-.52-.23-.28-.21-.19-.24L81,98.75l-.3-.74-.58-.86L79,95.81l-.32-.31L76,93.7l-1.39-.42L74,93l-.24-.27-.1-.29.07-.24.1-.19.1-.1.17-.13.23-.07,1.51-.15.26-.08.23-.1.21-.14.15-.22.07-.26-.14-.34-.32-.24-.55-.27-.36-.23,0,0-.21-1.08L74.94,88l-.32-.33L73.71,87l-.21-.27v-.27l.15-.18.19-.16.85-.54.19-.17.17-.19.15-.22.22-.53.08-.29-.08-.44-.24-.57-1-1.52L74,81.26l.09-1.3,0-.37-.1-.36-.23-.44-.25-.24-1-.7-.19-.29-.11-.36-.08-.36-.22-.48-.33-.27-.94-.58-.25-.29-.16-.29-.67-2.52-.14-.32-.23-.42-.28-.27-.84-.52-.33-.33L67.34,70l-.38-.4-.44-.36L66.28,69l-.16-.26-.27-.55L65,67l-.42-.81-1-1.32-.78-.77-.3-.5-.12-.33q0-16.73,0-33.47,0-9.58,0-19.16h-35q.06,16.85.11,33.71t.11,33.42q.06,16.54.12,33.08.06,16.39.12,32.77,0,.71,0,1.42l-.54,1.62-.14.92.26.78,1.68,2.2,1.18,2,.49,1.08.4,2.5.76,1.39v1.07l-.33,1-.46.71-1,1.19.19.54,1.87,2.42c.3.84.61,1.67.91,2.51l.3,1.57,1,2.85,2.11,2.19.33.79.36.65,2.53.57.34.31.73.86,2.05,1.29,1.49.3.52.49.45.55.45,1,.65,2.07,1.24,2.45.27,1L48,187l-.28.95-.49.78-1,1.21-.2.34L45.29,192l-.16,1.06-.14.5-1.68,2.16-.52,1.68-1.22,1.45-.46.91L41,200.82l-.11,2.08-.34.82-.47.86-.63,3.07-.73,1.93-3.75,5.77-.28.54-.12.51.08.57.17.39.17.25.08.14-.06,1-.38,2.32-.29.93-.81,1.75L31.62,227l-.5.61-.66.59-2.14,1.41-.66.81-.38.72-1,2.51-.89,1.76-.39,1-.3,1.93-.35.93-.47.84-.49.59-.39.19-.39.12-.3.26-.12.63-.16.27-.33.29-.23.35.37,1.33-.27.89-.39,1-.12,1.14.16.57.47,1,.1.63,0,.51-.17.64,0,.51.24.91.57.64,1.37,1,.35-.41.29-.43.33-.35.48-.19.46.12.26.4.21.48.3.37.73.23.62-.16.64-.29.8-.15.44.17.11.44,0,.55.07.54.27.65.19.27.77.43.61.47.71.7.17.45-.15.35-.25.29-.13.27v.56l0,.58-.14.56-.29.49-.38.17h-.49l-.48.08-.36.43v.81l1,1.67.25,1,0,.56-.12.38-.16.37-.16.54-.24,2-.45,1.59-.14,1.17-.41,1.1-.39.65-.78.62-.55.79.28,1.12v.37L28,277q0,16.33,0,32.66,0,16.78.05,33.56,0,9.82,0,19.64h211q0-11.14,0-22.28Q239.06,323.28,239.05,305.94Z"/></svg>