<svg id="Alabama" xmlns="http://www.w3.org/2000/svg" viewBox="0 0 473.91 371.93"><defs><style>.cls-1{fill:#ccabd1;}</style></defs><title>state</title><path class="cls-1" d="M465.38,177.07q-.16-19.14-.29-38.29-.16-20.65-.32-41.29t-.31-41.55q0-2.57,0-5.13l-.14-3.38c-12.65-.09-25.3-.16-38-.41l-42.66-.85-42.34-.83-40.06-.79L287.6,44.3l-4.2,2.19-2,.1-3-.52-5.44-1.69-32.1-.5-1.31,7.18-10.05,1-.29-8.18-12.62-1.17Q197.82,42,179.1,41.26l-44.73-1.72L99.25,38.2l-27.3-1Q70.6,57.68,69.34,78.21c-.79,12.72-1.64,25.43-2.43,38.15s-1.52,25.56-2.38,38.33q-1.4,20.72-2.64,41.46c-.84,13.71-1.8,27.42-2.63,41.13-.75,12.21-1.5,24.42-2.34,36.62,3.56,6.25,7.09,12.51,10.7,18.73l3.51,5.11-3.73,2.83Q50.15,311.2,33,322q-7.2,4.5-14.42,9l-3.3,2.21,1.31,2.19q5.65,9,11.39,18l.76.91,1,.76.57.5.76,1,1.17,2.66.83,2.54,5.37-3,2.9-1.47.83-.4.76-1.19,4.83,3.9,4.47-.33,4.28-3,4-4.35,2.14,2.64,4.4-7.51,3.8,1.52,2.47-.28,8.63-5.66,3.26-1.43,10.27-6.94,1.85-.55,1.73-3.35,4.14-2.33,4.57-1.36,3.09-.45,1.93-.69,2.64-3,1.92-.71,1.93.52,3.3,1.9,2-.1,1.64-1.28,3-4,.9-.83.76-.54.76-2.69.95-1.19.5.33.76.91.88.8,1,0,7.87-6,1.57-.33,2.71,1.83,1.17,2.07,1.59,1.19,4.21-.86,3.09-1.28,1.19-1.1.81-1.76,2.21-3.38,2.07-1.76,5.11-2.4,2.35-2.17,2.47-1.52,6.7-.45,2.9-1.12,2.12-2.24,6-8.51,8.7-8.46.62-1.57,1.93-3,2.14-2,1,1.43.62,7.23,1.78,3.52,3,1.09,13.72-.4,2.43,1.26,1.71.57,3.8-3,2.42-.85,8.89-.62,3.16.62,2.28,1.33,2.07,1.64,2.28,1.21,3,0,1.86-1.24,1.81-2.19,2.13-2,13.31-3,5.37,1.54,9.65,4.69,2.57-2h1.72l.62,1.59.62.64.83.57,1.26,1.43,2.95-4.28,4.77-3.33,5.23-2.14,4.49-.64,9.93,3.78,4.9.38,4.4-4.16-.88-.45-2.28-1.85,2.4-7.37-2.19-4.85-3.88-4.09-2.68-5,4.42.48,3.45,2.12,2.26,3,1.18,3.09-.14,2.85-.91,2.38-.61,2.14.75,2.26,1.45,1.23,3.24,1.45,1.67,1.54,7.51,3.31L364.87,269l6.27,4.09,1.38-8.18,6.16.43,7.59,3.23,5.79.28,2.19-3.51L395.7,258l2.71-1.86,11,10.61,14.83-8,2.21-.52,15.24-.38,3,.6,3.09,1.67,2.29,2.07.07,1.73-3.73.69v2.14l7.72-1.09,1.45-6.14,2.07-15.64,1.38-4.18,1.53-2.47,3-.81q1-16,2-32-.1-13.66-.21-27.31"/></svg>