<svg id="Alabama" xmlns="http://www.w3.org/2000/svg" viewBox="0 0 233.59 371.93"><defs><style>.cls-1{fill:#ccabd1;}</style></defs><title>state</title><path class="cls-1" d="M146.13,143.75l3.49-1.48,3.59.37,2.59,1.67,2.07,2.72,2.13,3.58,1.26-3.86,4.05-8.07.89-3.43-1.08-4.78-2.44-2.72-2.78-2.06L158,122.94,156.79,116l-.37-9.64.37-9.11L158,92l3.73,5.6,2.64,5.31,1.41,5.8.47,7.24,2.6,5.5,5.56,5.06,5.72,3.65,2.87,1.11,1.35-3.25.72-8.8,1-1.8,2.79.84,2,2.13.7,3-4,8.59-2.21,7.11-1.61,7.29L183,152l2.17,4.52H190l5.56-2.57,6.89-5.78,1.18-.39.19-1.4v-5.44l.62-3.77.44-.8L195.35,120l-5.56-4.57-3-1-3.49-1.94-4.94-3.84-3.5-4.66-1.6-3.09-.56-2.56-.07-2.16,1.43-13.75-.46-4.07-.06-2,.8-3.49.24-2.48.19-2.9-.61-4.63-1.08-1.49-2.41-.49-5.75.37-2.4-.68-.9-2.13-.46-2.7q-.81-19.18-1.61-38.37l-.37-5.53-15.75-.22-50.32,1L48.2,13.6l-14.66.3q.18,23.55.34,47.1.2,24.9.4,49.81.18,22.45.32,44.9.19,24.37.38,48.73,0,4.51.06,9-1.22,20.82-2.59,41.64l-3.95,1.05-2,3.22-1.79,5.44-2.68,20.32-1.89,8,27.71-3.9,50.29-18.84,14-.62,3.59,1.15,6.79,3.37,3.06.74,2.88-1.72,1.32-3.78.75-3.79,1.14-1.7,15.69-30.33.81-7.11-.34-21.19L146.29,199l-4-8.15,1.69-4.11,4.12-3.86,3.43-7.48.62-8.16-1-8.09-3-6.18-7.07-3.67,1.51-2.75Zm22,53.82-.37-3.37-1.08-2.44-1.8-1.55-2.77-.67-4.57,14.27-.81,6.54,3.31,3.78-1,1.73-.52,1.48-.81,1.3-2.07,1.23,1.17,4.85-1.8,9.05.62,2.66,1.89-.55,2.59-2.51,2.44-3,1.41-2.16,1.8-5.25,1.51-7.73,1-8.89Zm38-38.31-7.63,4.88-3,3.28-1.8,4.69-1.79,11.27-1.8,4.6-1.73,1.42-4.48,2.66-.89,1.61.18,5.87-.27,2.84-1,2.22-2.94,4.15L177.86,213l1.33,4.6L183,222.9l-3.4,2.77L170,230l-1.95,2.16,1,5.68,2.53,1.49,3.51-1.73,3.57-4,6,.95,5.3-6.3,6.37-5.68,9.47,2.77-1.32-4.47.18-3.71.71-3.86.43-4.75.29-30.37,3.67-13.83v-8.29ZM106.79,348.44l-2-4,.9-5.78-.37-3.93-.8-2.83-1.61-1.59-3.24-.11.8,5.74-.71,4.33L97.27,343l-4.95.93-2.22,2.66L89,352.39l1.17,5.85,4.2,2.68,8.86-1.67,4.42-1.79,2.22-2.29-.7-3.45Z"/></svg>