<svg id="Alabama" xmlns="http://www.w3.org/2000/svg" viewBox="0 0 417.59 371.93"><defs><style>.cls-1{fill:#ccabd1;}</style></defs><title>state</title><path class="cls-1" d="M406.26,144.95v-1.83l.6-1.9.38-1.88-.68-1.72L403,136l-1-1,1.71-1.3-.47-1.27,0-1.11.51-.8,1.09-.31v-.69l-1.47.1-1.3.42H400.8l-1-1.2.07-.65.47-.59.28-.76-.51-1.16-.73-.31-.61.68-.4,1.12-.18,1h-.49l-1.16-3.82-.46-1.12,2-.52,1.44-1.24.4-1.57-1.14-1.56-.79-.34-1.08-.21-1,.16-.42.77-.44.35-2.22-.63-.83.28-1.24.73-1.68-.07-1.79-.66-1.49-1-6-6.17-3.63-2.36-4.09-.3-.91.29-.73.36-.65.48-2.36,2.84-.91.74-1.42,1.83-.56.5-1.59,0-3.17-.7-1.58.37-2,1-.72.09-1.55-.26-.7.06-.8.51,2.17,3.07-1,.4-1.54,0-1.29.38-.25,1.45,1.56.53.39.53-.37,1-2.45,1.84-5.66-.8-2.71.87-.19.39-6.44-1.1-1.94-.64-.39-.31-.33-.34-1.3-.92-2.87-1.42-.26-.18-.19-.15-.44-.62,0-.12-.05-.18v-.27l0-.41.11-.39.12-.27.19-.23.63-.39.42-.14.07-.24-.14-.36-.88-.59-.72-.81-.24-.41-.56-.52-.37-.07-.31.1-.23.34-.19.37-.33.82-.44.85-1.14,1.77-.26.46-.19.54-.05.52.07.43.35.59.07.28-.23.27-.47.18-1.38.31-.42.15-.37.23-.3.27-.33.34-.25.34-.8,1.38-1,1.32-4.74,4.86-.77,1.27-.37.4-.44.36-.89.39-.68,0-.6-.12-.84-.48-1.5-1.44-1.26-.77-1.36-.52-.74-.07-.59.1-3,1.54-.38.31-.3.44-.26.44-1,2.57-.19.36-.22.35-.3.36-.31.3L295,139.42l-.86,1.26-.35.38-.39.29-3.68,2L287.49,145l-1,1.08-.55.88-.93,2.16-.33.41-.6.27-3.27.56-.63.19-8.84,8-1,.67-.77.38h-.33l-.16-.3.84-52.19H229.46l-41.94,0V94.91q0-20.63,0-41.27-.06-20.92,0-41.84l-1.23.34-3.53,2.52-1.35-.77-2,.06-2,.69-1.45,1.09-.82,2.08.59,1.78,2.61,3.57,1.78,3.45.7,1.84L181,30l-.39,2.33L179,36.36l-.15,2.41h.22l.51.11.54.24.35.37.06.5-.11,1.11,0,.51.51,2.3.09,1.39-.32.6L180,49.09l-.44.62-2.15,1.77-.74.81L175,56.34l-.75,2.36-.56,3.67L173,64.24l-1.71,3.59-.86,2.52-.31,2,.1,4.25L170,78.91l-.61,1.42-.72,1.24-.58,1.76.11.68.33.85.09,1-.54,1-1,.13L166,86.39l-.83-.11-.35,1.58.24,1.06.42,1.19.3,1.11-.19.85-1.47,1.82-.51.87-.49,1.19-.29,1-.33,2-.42,1.05-1.73,1.13-.65.85.47,1.23,1.24,1.42.84,1.19.26,1.36-.42,2-1.29,1-.35.43-.07.45.12,1.15,0,.49-.93,2.8-.14,1L154,119.75l-8.79,6.95-2.54,2.88-1.82,3.36-1.21,1.55-3.13,1.17-1.42,1.19-2.24,2.48-1.19.8-1.58.68-1.75.49-1.63.18-1.61.63-2.76,2.59-1.86.26-1.56-1.14-1.05-1.9-.75-1.79-.75-.8-3.35,0-1.26.61-5.95,5.74-.64,1.81-.55,3.95-.93,1.25-.61-.54-.49-.18-.47.18-.63.54-.54-.75-1.72.67-2,.06-1.59.47-1.23,3.45L90.6,161,90,162.57l-.1,1.26.22,3.76-.17,2.33-.63.94-4,1.62-.47,0,0,.35.35,1.34.31.62.54.68.58.55.49.23,1,.77.16,1.8-.39,3.65.51,1.69.72,1.58,0,1.17-1.56.46-.86-.34-1.38-1.5-1-.35-.82.51-.49,1.21-.6,2.43-.94,1.43L80,192.41l-1.73.9-1.49-.77-.56-1.1.16-.49.42-.58.23-1.34.19-.29.37-.17.39-.27.17-.59-.07-.68-.18-.53-.28-.54-.37-1.61-.72-1.59-1.08-1.21-2.48-1-1.23-1.13-1.47-1-1.87,0-2.52,1.91-2.66,3.5L61,187.67l-1.24,3.12-.54,4.13-.39.94-1,1.78L56.88,200l-1.49,1L54,202.22l-.23,2.36.59,1.74.73,1.39.6,1.65.26,2.55-.51,1.44-.14,1,.75,1.75.32,1.29.19,1.36-.07,1-1.21,1.66-1.75.34-3.8-.56-1.09.93-.89,2.18-1.68,8.85L45.47,235l-1.14,1.74-1.42.56-5.92.49-6.67,2.4-3.46.37L24,239.21l0,0,0,.59,0,1.12-.31,2.61,0,.37,0,.28.26.77,1.45,3.18.26,1.16.07,1-.18,1.25-.19,2.27,0,1,0,.54,0,.56,0,.51-.19.35-.35.23-1,.19-.39.14-.23.27-.14.45,0,.56.11,1.61-.07.51-.11.42-.26.42-.59.62-1.42,1-.26.26-.14.23-.1.35,0,.46,0,.5.45.88,5.95,8.47.44.86.4,1.45.37.92.54.7,4.34,3.85.31.35.39.58.28.77.09.53,0,.35-.22.44-1,1.56-.14.31.07.47.42.54,3.2,2.3.44.45.44.58.59,1,.27.71.15.64.37,3.2.26,1,.18.47.21.39,5,5.11,1,1.4.56,1.08,0,.53.1.51,1.14,3.29.35,1.49.38.54.68.47,3.08,1.14.6.32.61.43.75.76L54.67,318l.21.18.32-.18.42-.14.6.14,2.45,2.21.63.76.26.39.18.47.1.51,0,.56,0,.51.54.61,1,.6,6.25,2,1,.11,2.36-.56.87.1,1.46.82.67.72.24.34.21.47.11.51v.56l-.1.51-.11.42-.1.19,0,.1-1.91,1.5-.26.34-.19.47,0,.44.15.42.32.33,2.83,1.82.27.31.26.34.19.42.16.47.07.51,0,.51,0,.57-.27,2.38,0,.58.05.55.16.47.26.42.32.34,3.79,2.66.74.63.28.38.23.42.72,1.87.21.39.28.38.7.7.91.56.31.06,1,.12,1.1,0,1.73.19.7.23.44.23.42.3.36.35.28.35,1,1.63.68.7.37.33L95.7,358l2,1.43,1,.27,4.81.45,1.87-.14.54-.23.6-.43,4.11-4.41.51-.35.65-.33,1.19-.35,3.15-.35.58-.3.63-.52,1-1.09.48-.77.32-.71.56-1.62.21-.42.39-.42.65-.39,1-.07.66.14.49.31.32.35,1.54,2.26.47.51.37.3,4.13,2.64.63.54.31.32.23.35.28.72.18.28.18.16.21.12.88-.23,6.4-3.34,8.19-1.05.7-.23,2.17-1.1.78-.07.6.09,1.1,1,.44.09.56-.11,5.2-3.08.42-.42.44-.59.51-1,.09-.67,0-.58-1.17-2.12-.15-.47,0-.57,0-.56.17-.55.18-.51.28-.47.44-.44.6-.42,1.08-.4.79-.1.7.05,2.19.5.26.09.26.21.14.28,0,.77.17.35.35.23L168,341l.4.19.32.26.18.35.17.37.23.26.24.16.28,0,.63-.14.37-.16q3.54-2.16,7.1-4.29,3.57-1.69,7.14-3.36l1.84-.63,1.87-.19.59,0,.76.19.28.38.12.39.06.35,0,.88,0,.5.12.46.23.4.31.33.32.19.44.09.4-.05.42-.11.49-.32,2.38-2.12,9.63-5.47.35-.42L206,329l0-1.05-.3-.44-.91-.61-.3-.32-.21-.4-.07-.47v-.47l.19-.63.38-.68.81-.87.59-.47.51-.32,1.3-.63,1.66-1.05.72-.65.28-.5.19-.6-.08-.88-.24-.54-.35-.37-2.26-1.17-.87-.58-1-1-.17-.21-.06-.23-.07-.36.37-1,5.11-9.59.28-.7.65-2.29.11-.32L228.59,281q2.24-4.35,4.45-8.7l1.77-5.63.12-.63-.21-1v-.77l.16-.53.28-.47,3.69-3.41,1.72-2.19.77-.68,1.78-1.19,1.33-1.4.37-.63.19-.63-.05-.51-.09-.44-.34-1-.1-.61.16-.93.4-.7.79-1,.44-.84.31-.91.28-.54.31-.35,1.56-.58.79-.51.35-.53.8-3,.44-.88,1.28-1.7.34-.63.2-.56.09-4.2.21-1.45.07-.25,1.47-2.09.34-.74.17-.57,0-.56-.05-.53.05-.81.16-1,.49-1.72.44-.79.51-.42.49,0,6.6,2.46.18.13.26.23.23.35,3.08,5.58.19.44,0,.19,0,.31-.07.36-.33.78-.1.38.1.08.23.11,16.35,5.44.59,0,.42-.25.36-.35q3.06-4.26,6.13-8.52l.51-.9.47-1,1.14-3.46.07-.28.12-.38,0-.18.14-.27.72-3.33.23-.62.36-.74.7-1.14.8-.82.83-.64,1.19-.72.58-.5.37-.45.12-.39.83-5.68.18-.64.36-.8,1.4-2,.35-.69.23-.59.12-.52.36-.82.55-.92,3.34-4.53.39-.36.45,0c2.82,2,5.66,4,8.49,5.94l.56.16.47-.31.44-.5c3.12-4.62,6.27-9.22,9.4-13.84l.42-.28h.43l.26.24.23.37.21.4.26.34.32.27.4.1.49,0,.63-.15,1.82-.82.61-.44.47-.44.54-.85.84-1.79.49-.83.42-.39.68-.27.82-.16,1.28-.45.68-.41.51-.44,2-2.64.44-.83,0-.4,0-.39L343,177l0-.36.17-.4,1.3-2.15,3.13-3.76,3.15-2.49,2.57-3.18.37-.55.15-.4,0-.49,0-.47-.33-1.47-.09-.52,0-.55.11-.61.14-.61.52-1.61.09-.59.05-.58-.1-1.08-.09-.43,0-.45v-.44l.08-.49.19-.47.26-.44,2.44-3.49,1.13-1.94.35-1.05.14-.61.14-1.19-.05-1-.46-3.06,0-1,.17-.83.42-1,1.11-1.78,1.1-.59c1.73,1.37,3.44,2.77,5.15,4.16,10.86,8.82,21.81,17.52,32.6,26.42l.7.6.49-1.23c2.51-5.91,5-11.82,7.48-17.76l-.12,0Z"/></svg>