<svg id="Alabama" xmlns="http://www.w3.org/2000/svg" viewBox="0 0 438.23 371.93"><defs><style>.cls-1{fill:#ccabd1;}</style></defs><title>state</title><path class="cls-1" d="M404.35,76.3l-1.45-2.46.14-.69-.14,0h-.45c-11.48.35-23,.63-34.45,1q-8,.23-16,.44l-.49-.14-.12-.4,0-.42.25-.93,2.78-5.4.74-1,1.3-2.21.93-1,.53-.79.29-.35.38-.28.42-.18,1.57-.37.45-.18.42-.24.34-.27.31-.4.21-.46.18-.51.12-.53.11-.86.12-.48.18-.46.28-.42.33-.35.79-.53.41-.21,1-.28,1.79-.74,2.45-1.39.38-.3.28-.37.23-.46.18-.49.29-1.92.17-.44.28-.35.36-.25,2-.62.41-.21.37-.31.33-.32.3-.41.18-.42.18-.47.1-.49,0-.51-.38-2.88,0-.6.51-2.29,0-.61v-.56l-.12-.53-.16-.45-.23-.41-.3-.37-.34-.35-.37-.3-2.6-1.61-.33-.37-.21-.42-.11-.51-.07-.53-.1-1.56-.06-.44-.14-.35L371,29l-.4-.24-.32-.3-.22-.32-.78-2.18-.39-.79-.17-.2-.09-.23h-350Q21,42.91,23.41,61.11q2.17,16.66,4.34,33.33,2.47,18.76,4.94,37.51l0,.33q-.4,18.86-.8,37.72-.35,16.83-.72,33.67-.37,17.13-.73,34.26-.41,19.37-.83,38.73-.22,10.3-.44,20.59l1.34.32.77,1.72.57,1.95,1.44,1.35,1.9.55,2-.31v.58l-1,1,.56.9,1.44.29,1.67-.83,1.58.88.82-.81.55-1.51.81-1.11,1.32,0,3.8,2,1.07-.49,1-.91,1.18-.43,2.67,1.55,1.53.42,1.62-.09,1.44-.74,2.27,1.71,1.18.58.74.31c.09,12.06.25,24.12.34,36.18q.06,7.31.15,14.62l36-.06c11.5,0,23,0,34.49,0q18.76,0,37.52,0l33.53,0q19.15,0,38.3,0c11,0,22,0,33,0h11.81l1.09-.07.41-9.73.68-1.17,1.52-.64,1.65-.46,1-.62.49-1.65-.19-1.62-.88-3.11-.07-4.66-.42-1.13-1-.86-2.46-.91-.83-.16-1.12-1.81.86-2,2.92-3.83.42-1.78.27-2.76-.06-2.73-.09-1.69-2.64-2.71-1.55-1.28-1.49-.53-1.28-.69-1.18-1.56-.34-1.53,1.23-.72h1.88l1.73-.3,1.35-.93.7-2-.33-2.33-1.25-1.26-3.25-1.6-1.55-1.6.23-.86,1.21-.64,1.44-1,3.06-4.15.72-.67.51-.35,1.66-1.65.77-.58.9-.18,2.11-.1.79-.34,1-2-.48-1.78-.88-1.51-.48-3.22,1.48-2.11,1.14-2.3-1.28-2.57-1.09-.62-1-.42-.79-.65-.29-1.29.65-.67,4.22-.91,4.39-2.27,1.78-.3,1.86,0,1.55-.19,1.27-.73,1-1.68-.19-3.63-5.68-2.79-.07-2.66,1-1,3.89-2.41,1.25-.46,1-.78,3-6.93.34-.56.51-.16,1,0,1.27.58.77.16.35-.42.26-1,1.09-1.76.28-.77-.14-1.18-.7-1.78-.26-1.35,0-.86.35-.49,1,.74.65.34.88.08,3.29-.37,1.79-.67,2.87-1.57,2.53-2.77.62-2.78,0-3.28.82-8-1.39-6.53.67-4,1.34-3.34,1.14-1.9,1-.31,1.51.94,1.76.09,1.67-.51.72-.83,1.13-1.25-.4-1.76-.9-1.88-.32-1.64.9-1.23,8.76-3.45,3.68-2.37,2.65-3.25.09-4-2.41-2.89c-.29-.54-.6-1.07-.9-1.6l.88-.72,1.49-.3,1.85-.75,2.89-1.61,1.17-1.23.83-1.46.51-1.64.16-1.85.82-1.65,1.88,0,2.16.53,1.6.11,1.62-2.37.07-3.9-.79-4-1.55-4.75-.33-1.92-.1-4.39.35-2.22.95-1.53,4.2-3.48,1.2-1.39,1-1.58.39-1.58,0-2.46.38-1.61,1-1,1.9-.56,1.94-.26,1.79-.51.81-1.2-1-2.33-1.23-1.78-.34-1.13.5-.89,1.33-1.09,1.41-1.53,0-1.25-2.2-2.88L385,101.64l.07-1.71,1.11-1.3,12-5.27,4.94-4.11-.72-1.76L400.37,86l-2.06-1,.77-1.78L400.23,82l1.49-.71,1.71-.22,2.3,1.83,1.2.33.53-1.83-1-2.95-2.07-2.13"/></svg>