<svg id="Alabama" xmlns="http://www.w3.org/2000/svg" viewBox="0 0 289.22 371.93"><defs><style>.cls-1{fill:#ccabd1;}</style></defs><title>state</title><path class="cls-1" d="M102.15,75.69l-.28-.36-.07-.4-.5-.42-.6-.73-.3-.15h-.46l-1,.23-.35.21-.2.26,0,.19.21.13.8,0,.43.27.48.59.61.29L102,77l.17.05.11-.24-.07-.78Zm7.64,12.39-.31-.76-.8-1.2-.24-.66-.09-.7.14-.26v-.43l-.14-.55-.45-.91-.24-.25-.8-.39-.62-.59-.2,0-.46.12-.25.17.21.55-.09.33-.26.12-.69.1-.12.21.29.84.82.08.24.11.3.44.13.54-.11.41-.48.65,0,.31.1.58-.15.82.09,1.08.21.51L108,92.93l.56,1.23.65.84.21-.11,0-.34-.14-.66.4-1.23,0-.63-.13-1,.36-1.6ZM91.44,84.74l-.14-.44-.15-.3h-.23l-.68.31-.4.11,0,.8.05.55L90,86l.22.27.2.51.16.29L91,86l.66-.56v-.29ZM167,86.45v0h0V73.62q0-13.92,0-27.84,0-13.75,0-27.5H13.63q0,12.11,0,24.23,0,14.52,0,29,0,13.95,0,27.9,0,13.17,0,26.34,0,14.76,0,29.53,0,13.71,0,27.42,0,13.27,0,26.54,0,14.36,0,28.73t0,28.68q0,13.32,0,26.64,0,13.47,0,26.94,0,14.38,0,28.77h8c9,0,18,0,27,0l28.6,0,26.24,0q14.49,0,29,0,13,0,26,0,14.45,0,28.9,0,13.21,0,26.43,0,14.18,0,28.36,0,13.69,0,27.37,0V252.49q0-13.38,0-26.77V86.45ZM104.8,52l.68-.52.38-.55.18-.4.1,0,.15.15.52.34.55.67.52.4.37.38.3.47.13.44v.47l-.05.56-.15.37-.34,0-1.36-.43h-.68l-.34.17-.14.19-.11.05-.2-.21-.56-.89Zm16.87,37.42-.26.32-.32.3-4,2.54-.29.12-1,.06-.77.18-.58.34-.93.82-.38.26-1,.49-.45.54-.22.77-.09.9v1.55l0,.31-.11.17-.62.59-1.74,2.07-2.69,1.81L104.61,105l-3.77,2.38-.65.14-.7-.11L98,106.78l-.31-.27,0-.24.34-.47.07-.22,0-.27-.45-1.09-.08-.31.05-.88,0-.77-.08-.41-.14-.26-1.56-1.67-.3-.54-.1-.49.1-2.36,0-.38-.33-1.29L95,94.11l-.78-1.78-.36-1.45-.36-.77-.32.09-.53,1.09-.26.35-.53.54-.23.36-.16.51-.42,2.85-.14.36-.44.71-.24.6L89.9,98l-.44-.16-.4-.44L88,94.9l-.23-.37-.39-.35-1.3-.83-.3-.44-.16-.49,0-.44.33-.88.07-.4L86,90.45h-.25l-.78.2-.43-.1-.3-.23-.12-.21L84,89.86l-.19-.32-.58-.75-.41-.35-1.18-.63-1.45-1.13-.42-.55.05-.53.68-1,.09-.34-.3-.11L79,84l-.49-.27-.11-.34.18-.27.36,0,.34,0,.18-.13,0-.22-.12-.51,0-.29,0-.8-.09-.45-.46-.74,0-.41.11-.38,0-.32-.07-.34-.43-.94-.11-.35-.06-.39-.05-1.19.06-.53.13-.49.2-.54.06-.53-.21-.5-.4-.46L76.37,71l-.26-.45-.7-1.94-.33-.49-2.61-2L72,65.4l-.62-1.11-.36,0-2.51,1.63-.1.36.09.52.22.74,0,.57-.41.11-1.56-.37-.28-.2-.16-.28,0-.34.08-.45L67,64.8l.27-.47.42-.28.53-.06,1.19.24.38-.1.21-.17.06-.08-.51-3.29L68.14,57.3l-.94-1.71L65.94,51.7l-.1-.77.3-.17L67,51l.11-.14,0-.37,0-.38.26-.13.41,0,.32-.21.15-.31L68,48.74l.07-.29.12-.27v-.29L68,47.58l-.3-.3L67.26,47l-1.06-.45-.29-.32-.14-.41,0-.47.21-.43.52-.27.64-.11,1.1,0,1.54-.83.51-.17.36,0,.78.19h.67l2.26-.52.39-.23.56-.89.39-.23.32-.14.08-.24v-.31l0-.33.22-.27.4-.19,1.57-.22.29-.09.74.2.42.22,1.21.9,0,.06.07.23.14.29.15.19.95.88.11.24-.1,1.14,0,.05,0,.05L82,45.69l0,.76,0,.48-.16.29-.82.91-.63.4-.21.38-.09.45v.37l.09.34.55.92.14.33.14.54.19.5.27.2.31.11.3.2.3.41.91,1.63.29.41,1.5,1.26.53.34,1.37.62.68.13.46-.15.25-.31.07-.34.08-.2h.21l.53.12.74,0,.52.17.59.38.47.4.24.27.13.32L92.26,60l.07,1.9L92.52,63l.36.5.79.36.23.29.14.37,0,.42-.08.43-.26.68-.09.3,0,.38v1l.07.5.34.87.05.34,0,.87.2.52.42.47,1,.87.5.3.49.07.41-.11.25-.26.22-.29.3-.21,2.6-.94V68.34l-.77-.51-.63-1.73L98.67,64l-.17-.33L98,63.19l-.18-.38.07-.42.23-.41.32-.32.2-.26,0-.3,0-.38,0-.5-.06-.46-.28-.3-.36-.24L97.62,59l-.16-.32,0-.4.32-2.2.18-.45.31-.22L99.77,55l.27,0,.12.25.21.35.42.26.45.09.32-.12.35-.46.17-.15.18-.05h.19l.2.07,1,.7.32.36.41.71.08.62-.45.16-.56,0-.28.09.08.28.4.81.15.6.24.49.41.18.44,0,.53-.21h.29l.33.11.37.24.44.09,1.13-.42,1.09,0,.43-.34.84-1,.56-.27,4,.18.5,1.12.23.88-.16.62-2.23,2.37-1.46-.34-.31-.78h-.2l-.7,1.51-.2.18-.36,0-.6-.22-1.55-1-2.54-.17-2,1.94-1.72,3.29,1.33.42h2.16l.19,1.43.11.45.22.36,2.27,2.05.43.59.21.72.26,1.55.31.67.47.51,1.06.67.44.39.33.6.23.77.14.85.22.72.71,1,.21.49.35.42,1.94.42,2.54,1.09.61.43.64.56,1,1.11.51,1.07.33.54.92.74.07.34Z"/></svg>