<svg id="Alabama" xmlns="http://www.w3.org/2000/svg" viewBox="0 0 473.91 371.93"><defs><style>.cls-1{fill:#ccabd1;}</style></defs><title>state</title><path class="cls-1" d="M463.35,236.79q-.09-15.7-.16-31.4-.09-17.24-.18-34.48-.07-17.51-.17-35-.09-17.13-.16-34.25-.06-16.51-.16-33H13.62q0,10.72,0,21.43,0,17.09,0,34.18l.13.35.32.53.83.81L16,127.32l.44.85.92,1.27.28.59.17.28.25.29.47.38.4.42.41.54.35.35.89.55.3.28.24.45.15.33.71,2.66.17.31.27.31,1,.61.35.29.23.5L24,139l.11.38.2.3,1.08.74.26.26.24.46.1.38,0,.39-.1,1.38.18.45,1,1.61.25.6.08.47-.09.31-.23.56-.15.24-.18.2-.2.17-.9.57-.2.17-.16.2,0,.28.22.28,1,.65.34.35.28.6.22,1.14,0,.05.39.25.57.28.34.25.15.36-.08.28-.16.23-.22.15-.24.11-.27.08-1.59.16-.25.08-.19.14-.1.11-.1.2-.07.25.1.3.25.28.62.32,1.47.44,2.8,1.89.34.33,1.2,1.42L33,161l.32.78.38.72.2.25.29.22.55.24,1.88.34L40,164.88l.31.23.3.34.42.66.36.79.15.28.24.31.15.27.11.27.13.58.13.27.22.22.37.2.3.22.26.28.35.5.33.35,1,.74.42.41,1,1.46.54,1.27,3.34,3.75.08.28.17,1,0,.1.06.14L51,180l.28.22.54.23.74.2.24.16.25.25,1.05,1.44.24.24.32.26.94.58.23.24,0,.28-.05.29-.09.31-.07.33,0,.34.08.95.11.59.17.55.31.77.24.27.35.29,1.14.76.41.38.54.62.4.35.61.28,1.07.31.26.17.19.24.14.38,0,.37,0,.36-.27,1.31v.29l.1.26.2.2.37.09.29-.06.24-.15.83-1.06.61-.53.22-.13.26-.08.29,0,.3.06.26.11.95.7.25.3.31.54.08.39-.06.31-.51.67-.11.26,0,.31.05.28.08.27.27.33.4.35.89.58.54.24.47.12.63-.05.45-.11.85-.35.26,0,.24,0,.62.23.3,0,.28,0,.26-.08.47-.25.61-.47.24-.11,2.54-.66.3,0,.32,0,.29.13.23.21.15.36.06.35,0,.35,0,1-.13.66-.23.56-.09.29-.05.3,0,.29.06.28,0,.29,0,.3-.11.27-.27.49-.09.27,0,.29.06.27.11.25.1.25,0,.27-.07.27-.13.22-.18.19-.21.16-.23.15-1,.4-.22.12-.16.15-.08.25v.06l0,.09.12.22.54.65.19.3.14.28.06.3,0,.31,0,.34-.06.33-.09.34-.87,1.88-.16.62-.09.66v.68l.06.64,0,.33L75,215l-.13.26-.76,1.14-.12.28-.06.3,0,.63-.07.3-.12.27-.31.45-.12.23-.07.27,0,.3.11.29.18.35.22.59.07.29,0,.28.08.92.1.59v.31l0,.31-.13.25-.17.2-.23.13-.27.08-1.24.14-.23.1-.17.15-.08.13-.08.23,0,.28,0,.28.17.32L73,227.31l.15.24.09.28,0,.29,0,.31-.1.28L73,229l-.75,1.15-.11.27-.08.3,0,.35.11.4.29.53.05.38,0,.32-.07.29.11.34.34.34.89.39,1,.28.27.16.15.35,0,.33-.07.32-.37.76-.1.29-.06.33,0,.31,0,.3.08.26.11.26.79,1.28.06.41-.05.31-.16.23-.9.92-.21.15-.26.11-.28.06-1.28.06-.27.06-.24.11-.38.31-.13.19-.08.14-.2.46-.43.68-.25.49-.11.28-.13.26-.17.22-.39.35-.17.19,0,.29.07.36.31.52.2.73.08.26.23.32.95,1,.24.39.07.35-.16.51,0,.27.13.55v.32l0,.28-.08.24-.08.18-.1.15-.48.54-.78.67-.15.21-.07.27L70,254l.22.44.14.33.06.32,0,.29-.1.28-.43.67,0,.21.17.19.52.07h.74l1.76.34.37.13,1.24,1,.19.27.11.31.06.28.24.3.39.28,1.26.71.2.37.15.2.27.2.42.13.78.06.41-.08.31-.13.21-.15.89-.47.16-.13,0,0,.17-.28.39-1.14.12-.24.16-.22.17-.2.21-.15.24-.11.29,0,.63,0,.29,0,.23-.11.86-.58,1.48-.63.21-.15.15-.21.08-.27.1-.26.14-.24.18-.19.66-.42.18-.17.14-.24.12-.27.1-.29.24-.54.15-.24.18-.19.21-.14.24-.13,1-.34.15-.08.09-.12.06-.22v-.26l0-.25-.12-.36,0-.26v-.59l.06-.26.08-.15.13-.12.22-.07.51.18.7.36,1.34,1,1,.86.11.24.07.27,0,.59.26.29.44.25,1.94.68.3.16.28.22.32.38.15.31.07.3,0,.28-.11.25-.29.45-.11.27-.18.61-.1.68v.33l.15.31.3.26,1.16.53.39.37.11.36v.4l.1.86,0,.3-.08.29-.23.55L99,263l-.06.31v.32l.07.26.09.25.06.59.16.37,1.05.89.28.36.14.35v.64l-.07,1.32-.09.64,0,.31.06.6.1.25.13.23.24.24.83.64.28.28.18.28.07.29,0,.59.06.28.17.26.65.55.75.88.6.47.53.61.24.46.1.25.12.54,0,.29.06.28.1.24.31.42.12.22.08.26v.64l.05.28.2.2.31.12,1.26,0,.28.14.24.4.23.93.11.23,1.18,1.73.24.47.57,1.49.08.27.17.84v.07l0,.32-.24,1.28-.1.29L111,289l-.16.23-.18.17-.71.34-.19.15-.14.19-.05.26.07.24.13.22.33.38.28.42.23.46.5,1.53.23.46.35.46.44.35,1.75.84.5.31.32.29.08.26.1.89.21.2.36.11.68-.06.37-.12.29-.18.74-.71.21-.14.23-.11.26-.08h.64l.87.23,1,.52.86.72.71.75.14.21.5.88.16.2.54.55.14.21.1.23.08.26,0,.27.09.26.1.24.14.22.31.38.13.22.1.25.26.77.12.23.41.65.22.46.08.26,0,.27,0,.28-.11.23-.17.19-.38.33-.16.19-.13.24,0,.25.05.24.13.21,1,1.14.11.24.05.27V310l.18.26.32.24.59.32.27.26.11.3-.05.28-.35.81-.15.48v.15l0,.22.34.69.05.23,0,.6.16.27.32.22.62.23.32.22.23.23.59.84.19.17.27.17,1.67.53.22.14.18.18.87,1.25.24.14.33,0,.6-.31.16-.28,0-.29-.64-1.11-.08-.25v-.3l.06-.27.12-.25.14-.24.16-.2,2.14-2.18.21-.14,1.07-.27.22-.1.65-.44.31-.07h.4l1.27.34,4.58.58.24.13.2.16.33.33.23,0,1-.14h.54l.72.19.31.22.25.22.17.19.22.16.32.07.41,0,.59-.21.32-.21.22-.25.65-1.74.28-1.23.12-.26.15-.21.2-.16.43-.26.59-.25.94-.24.28-.13.17-.14.33-.36.25-.11h.33l.54.25.55.44.29.11.42,0,.84,0,.69.07,1.07.26.92.38.35,0,3.57-.65.6.08.71-.12.39-.12.27-.16.2-.16.27-.1.34-.06,1.57.06.67.26.35.2.26.22.29.42.11.22.13.22.19.17.27.08.35,0,.75-.36.33-.1.77-.07.64-.15.23-.12,1.67-1.15.55-.08,4.07,0,.46.1,1.16.56.46.33.23.06.34,0,.65-.07.36-.1.23-.17v-.22l-.12-.21-.2-.15-.86-.3-.22-.13-.16-.15-.11-.15-.07-.14-.07-.22-.13-.53,0-.29v-.3l0-.32.07-.29.27-.59.07-.24,0-.55.11-.24.18-.16,1-.39.18-.16.15-.22.06-.3,0-.31-.05-.31-.09-.23-.12-.22-.15-.19-.13-.22-.07-.24,0-.26.11-.25.36-.38.45-.27.25-.09,1.08-.14.29-.12.2-.2.4-.74.17-.17h.32l.47.13,1.35.76.38.31.35.9,1.51,2.43.3.67.17.2.37.18.28.19.22.24.12.37,0,.34v.36l0,.61.08.27.09.25.11.23.21.21.28.21.58.3.41.33.49.6.64,1.11,1.07,1.37.61.45,1.64.46q0-13.16,0-26.33H429.84c11.24,0,22.48-.05,33.72,0l0-.65q0-7.46-.07-14.93Q463.42,254,463.35,236.79Z"/></svg>