<svg id="Alabama" xmlns="http://www.w3.org/2000/svg" viewBox="0 0 473.91 371.93"><defs><style>.cls-1{fill:#ccabd1;}</style></defs><title>state</title><path class="cls-1" d="M212.44,75.68l1.35-.33,2.11-1.67,1.31-.7v-.33l-.08-.25-.3-.48-.36-.06-.43.28-.51.17-.61-.4-.66.56-1.43.49-.61.54-.22.54-.08.73.1.63.41.27m-5.07,20.7.74-1,.69-1.73.18-.87-.62-.06-1,.41-.82.52-1,.94-.33.83.17,2.5,2-1.59m11.38-25-.05.88.43.72.51-.12,1.6-1.46,1-.4,1.24-1,1.1-1.22.82-1.39.15-.19.1-.23v-.37l-.76,0-.57.35-1,1.21L223,67l-.69.54L221,69.81l-.38-.48.15-.17h.07l.07-.07.1-.33h-.64l-.54.16-.45.34-.3.55-.13,0-.23,0h-.35l-.45.09v.58l.74.27,0,.73M52.38,171.92l.56.48.77,1,.92.91,1,.2,2.88-4.6.23-.95-.51-.7-1.43-.5-.87-.43-.93.1-1,.26-1,.07.1,1.1-.74,2.56,0,.49m390.23,131,.76,0,.8-.36,1.46-1.19,1-.57.18,0,.18-.11.17-.3-4.41.56-1,.45-.28.9.36.51.73.2M326.47,316.17l11,6.73.05-1.89-.8-6.31.23-3.23-.06-1.32-.51-1.27-.84-1-.87-.83-.71-1-.41-2.5-.25-.6-.16-.63.16-1,.35-.62.56-.59,1-.81.12,1.48-.46,1.2-.2,1.24.92,1.61,1.83,1.66.67.76.55,1.15.59,2.54.21,2.78,0,6-.19,1.5-.77,3-.48,3.07-1.32,3-.29,1.53-.35,1.07-3.21,5.67-.41,1.4-.2,1.51,0,1.61,1.31-1,1.79-4.33,1.11-1.7,1.57-.83,2-.43,2-.06,1.64.31-.23-.71L342.7,333l-.16-.64.29-.65.66-.09.66,0,.29-.3.29-1.34.73-1.17,2.45-2.72.55-.44.67-.13h1.2l.15-.29,1.18-1.71.29-.73-.13-.33-.54-.44.58-.51.15-.09-.2-.61-.28-.63-.18-.24-.13-.12-.25-.18-.18-.21q-1.37-2.14-2.72-4.3l-.31-.52.79-.53c3.89-2.41,7.76-4.84,11.65-7.24l.89-.68-.84-1.22c-.86-1.48-1.7-3-2.55-4.47.93-13.39,1.65-26.79,2.55-40.18.37-5.43.68-10.86,1-16.3l-1.5-1.83c3.46-13.51,7.24-27,10.85-40.43.8-3,1.58-6,2.38-8.93l.92-1.21-1.5-4.61.61-2.68.16-1.24c.32-13.34.55-26.68.83-40q.11-5.09.21-10.17v-.57l0-1.68-.41-.62-.52-.5-.28-.2-.46-.66-.79-2.76-.25-.43-.31-.33-.41-.19-.89-.2h-.42l-.39,0-.38.1-.33.18-.3.25-.21.35-.18.4-.25,1.34-.17.42-.24.34-.25.31-.62.46-.61.28-.22.06-.11,0-.12-.18-.39-.77-.31-.88-.08-.94,0-1.66.12-.86.15-.68,2.93-7.62.16-.83.1-1.61,0-.81-.1-.61-.15-.36-1-1.86,0-.47,0-.46.33-1.2.14-1,0-.6-.05-.49-.11-.37-.16-.32-.43-.65-.23-.66-.25-1-.53-3.37-.05-1.17.07-2.1-.08-.67-.14-.51-.16-.34-.72-1-.25-.43-.24-.68v-.53l.13-.48.66-1.14,1.92-6.22.22-1,.16-1.64.12-.44.2-.38.23-.36.56-.56.61-.47.66-.39.59-.45.3-.56.21-.83.18-1.66,0-1.52-.09-.79-.78-3.48,0-.62,0-.56.15-.46.18-.44,1.06-2,.36-.93.27-1.29.16-1.14,0-.73,0-.74-.06-.46-.31-1.14-.56-1.24-2.37-4-.77-1.71-.17-.67L367,48.12,367,46.4l.06-.45.08-.46.9-3,.12-.91.08-1.76.18-1,.53-1.59.17-.72.2-1.12.05-.66,0-.53-.07-.39-.11-.35-.18-.36-1-1.17-.26-.36-.25-.45-.26-.67L367,30l0-.49.08-.91.1-.47.31-1,.2-.45.94-1.55.22-.51.22-.65.2-1,0-.62-.05-.53-.3-1.15-.28-1.82-.21-.94q-20.77.17-41.53.29l-33.45.23-.92-.08H291l-7.08-.88-1,.06-1,.32-2,1.38-3.26,1.2-.91.5-2.43,2-1,.44-3,.81-7.83,4.82Q249.53,40,237.55,51l-3.08,4.22-2,2.39h0l.72,1.15.38,1.43.11,1.38-.6,1.08L229.46,65l-.08.26,0,.44-.08.49-.22.39-.21.15L225.92,68l-.3.51-.53.73-7.26,6.39-7.22,3.3L200.92,86l-.49,1.11.31,1.66.75.54,1,.3,1,1,.28.87-.15.59-.22.52.09.61.41.43.51.07.43-.36.18-.88.52-1,3.63-1.82.47,1.06,2.24-.42.79.86-.41.38-.17.25-.23,1,.43-.46.46-.33.5-.2.54-.06-.34,1-.64,1-.79.8-1.46.74-1,.91L209,97l.35.42h3.45l1-.34,1.53-1.45.88-.32.94.25.4.64-.14.86-.64.93-.86.45-1.83.33-.74.75-.4,1.16-.09.93-.21,1-.87,1.21-2.42,2.06-.63,1.09-1.51-1.09.28-.49.51-1.57-2.74,1.34-.74.72-.64,1.23.33.54.82.39.88.8.31.37.73.57.28.35.17.57,0,.58.07.61.74,1.47.49,2.11.38,1-.51,1.48-.09,1.75.21,1.85.38,1.78.47-1.07.53-.73.61-.22.71.45-2.35,3.45-.28,1.69,1.53,1.14-1.09,1-2.17,2.68-1.13.54-3.76.79-1.45-.27-2.3-.9-1,.17-2.9,3-1.07.84-5.81,2.81-2.14,1.56-1.93,2-2.52,4.79-1.33-.94-.79-.2-.34.86-.3.32-3.6,1.64L169,149.83l-.29.22-.33.68,0,.57.05.46-.08.38-.2.48,0,.24-.1.15-.51.18-.56.06-.51-.17-.44-.37-.4-.57.15-.29.28-.76-21.4-1-2.55.54-7,2.58-2.52,0-2.32-1.09-4-3.63-.28-.13-1.25-.34,0-.81-1.38-.68-19.95-3.78-6.71,1.09-8.52-1.25-17.25,2.65L67.3,147l-6,1-7.16,2.85-3.82.68.25,1.32.29,6.85,0,.82-.13,1-.23.65-.31.61-.24.77,0,1.09v0l2.2,1.48,6.2.75,1.5,1.91-.28,1.69-1.94,2.06-.48,1.71.25.67,1,1,.24.44.41,3.34.31.83,1.17,2.27.31,1,.12.66v1.76L60.8,188l-.54,1.34-.84,1-1.12.78-4.36,2-2.08,1.3-1.56,1.94-1.17,2.77-.89,1.32L47,201l-.25.33-.92,2-.68,1.11-.3.32-.72.4-3.69,1.11-1.15,1.63-2.93,1.93L33.65,211l-.57.35-.4.48-.48.71-.56.64L30,214l-2.61,3.55-3.11,1.75-.9,1.05-1,.9-3.81,1.44L14.39,226l-1.57.75-1.13.93-.63.26c0,6.71,0,13.42,0,20.12l40.47,0,41.94,0,40.91,0q20.33,0,40.66,0l42.06,0,40.5,0h.05l0,1,1.33,1,1.75.83,1.18.82.33,1.38.11,1.87.33,1.66.92.71,3.08-.5.71.23,1.22,1.05,1.51.55.81,1.4.53.32.7.28-.23.69-1.27,1.61,1.15.63,1,.35.68.67.24,1.63-.18.71-.75.63-.18.7.77,2.81,0,1.54-.35,3.83.16.77.71.7,2.81,6.09.76,1.16,1,.84,2.48.61.69.7.54.83.79.71,1.35.29,2.73-.17,1.07.67.72.65.59,0,.54-.27.64-.17.41.25.3.58.43,1.2.49.72.86,1.6.29,1.47,33.11,20.24m70.67,24-2.94.78-1.37.9-2.33.7-.8.12-.76.3-1.64,1.53-.86.62-3.66,1.38-5.43,1.06-1.86.82-1.86.14-1.51-.36.33.9,2-.11,5.42-1.08,5.94-2.08,1.84-.95.92-.19,3.65-2.23,5.25-1.68.8-.09.69-.59,2-1v-.45l-.94.15-2.9,1.36m-70.23,7.77-.72.43-.89.3-1.25-.08-.86-.25-.66.18-.66,1.19-.21,1.12-.12,2.31-.39,1.07-.38.3-.56.22-.57.35-.47.64-.08.5.08,2,6.65-3.5,2.74-2.77.2-3.81-1.09-.38-.78.19m123.87-31.73-1.53-.16-1.12.19.21.76v.45l-1.11-.19-.84-.42-.64.16-.46,1.51-1.07-.38-1.07.56L441,320.46l-2.14,1-1.15.25-.51-.4-.26-.78-1.81-2.77-.79-.29-.59.89-.35,1.41-.05,1.29-2.07-2.24-.76-.46-.51.48-.27.78,0,.4-.67.22-1.52.83h-.69l-.31-.53-.26-.83-.44-.52-.87.38.59,1.42-.87.85-1.43.66-3.1,2.49-1,1-.15.83.1.89-.84.68-1.3.47-1.2.26-1.21-.19-1.13-.52-1.09-.16-1.15.87-.49-.4-.54-.19-.59,0-.63.08.54-.94,1-1,1.13-.78,1.42-.48.42-.4.76-.95.15-.29.35-.87.29-.34.26-.06.63.12.26-.06,1.58-1.33.53-.17.11.48.46.91.49.53.25-.66-.14-.93-.16-.76.07-.71.64-.83.51-.22h1.2l.58-.32-.45-.2-.39-.31-.36-.43-.33-.56,3.84-3.63,2.19-1.32.82,1.37.76-.27.89-.59.74-.77.28-.84-.31-.66-.71-.39-.87-.13-.77.11-3,1.51-.86.71-1.37,1.63-.82.68-2.53.71-1.22.57-1,1.86L413.58,319,410,322.5l-1.24.48-7.18,1.49-8.76-.44h-9.51l.29.8-.17.51-.51.24-.72,0,.31-1.52-.81-.29-1.23.37-1,.44.26,1.24-.64,1.14-1.07.82-2.55.8-.61,0-.46-.18-1.11-.64-.51-.14-1.15-.16-4.82-1.82h-1.2l-.48.59,1,1.39.74-1,.84.43.53,1.11-.2,1-.71,0-1-.44-1-.22-.76.63-.66-.53-.5-.52.55-1.37-1-.93-1.42,0-.8,1.32.18.77.89,1.21.06.57-.44.31-1.4-.73-.79-.08.15-.34.2-.21-3-.77-3.11.85-1.9,2.33.74,3.65-.81.1-.92-1-1-1.47-1.1-1.13-.69.55-.61.86-.1.79L349,334l.2.86-.33.86-.66.39-.39-.47-.43-.95-.57-.75-.89.12-.36.69.15,2-.16.9-1.28-1-1.82-.51-1.6.35-.61,1.62-2.64-.62-1.51,1-2.4,4.67-.28.34-.57.36-.28.31-.1.2-.18.59-.09.21-1.58,2-.29.56.2,1.7,1.63,1.86-.29,1.49.9,0,2.9-.59.33-.2.69-.58.51-.23.69,0,.52.25.48,0,.58-.76-.71-1-.36-.3-.44-.22v-.51l1.54-1.11.87-.32,1.22-.11,1.12.17,1.5.47,1.09.65-.11.76.31.45.06.21,0,.33-1.08.08L337,353l-1,.65,1.88.39,7.9-2.43h10.09v-.5l-1.5-.3-4.2.5-1.2-.71.33-1.12,1.57-.34,3.12,0,6.09-2,5.71-.45,1.2-.44,2.09-1.29,3.61-.81.59-.32.8-.83.53-.31,1,0,2.47.81,1.29.21.77-.32v-.74l-.13-.85.31-.65L381,341l.69.21.67.31.64.17.68-.07,2.41-.62.72-.66.58-.15L391,340l1.17-.34,1.4-.87.68-.13,1.3.85.65.16,1.2-.24.82-.65.25-1-.58-1.2,2,.08,6.25-.88,1.33.08-.54.61-1.06.46-2.77.68-.35.11-.17.23.11.39.34.29.23-.13.25-.28.31-.16.54,0,5.75-2.42,3.52-.69,2.19-1.37.64-.57,0-.68-.38-.71-.13-.75.23-.59.66-.24,1.43.15.64.46,0,.8-.69,1.15,1.08-.17,2-1.11,1.92-.42,3.1-1.3,5.2-3.55,3.5-1L439,323l3.76-.93,6.85-4,1-.38.81-.46.42-.71-1-.29M373.9,347.41l0-.21.07-.11.25,0v-.45l-1.07.4-3.49.06-.62.14-.38.17-.91.69-1.33.49-.4.3-.8.36-8.13,1.38,1.26.86,8-1.62,3.28-1.78,4.21-.45,0-.25"/></svg>