<svg id="Alabama" xmlns="http://www.w3.org/2000/svg" viewBox="0 0 473.91 371.93"><defs><style>.cls-1{fill:#ccabd1;}</style></defs><title>state</title><path class="cls-1" d="M465.14,148.17,464,146l-.68-1-.58-1.64-.41-.79-.56-.34-.88.24-.75.36h-.82l-1-.9-1.47-.92-3.74.23-1.85-.39-1.08-1-.75-1.14-.95-1-3.4-.84-1.31-1.15-1-1.58-3.85-8.34-1-1-.23-1,.47-5.25,0-2.1-1.06-3.85.25-1,1-.86.25-1-.33-2.23-.92-.92-1.34-.48-1.58-.87,1.74-2.21.31-.95-1-.39-.72-.43-1.1-1.92-2.07-.76L430,97.26l-1-.32-4.22.69-1.26-1-.45-2.27L423,91.84,422.5,90l-1.62-1.13-2.39-1.14-1.82-1.41,0-1.37-33.77,0-32.53,0-34.48,0-34.73,0-33.25,0-32.19,0-34.33,0-34.72,0-33.51,0-32.92,0H79c0-9.18,0-18.37,0-27.55l-9.62,4L66,63.57l-3.15,1-3.45,2.9-3.25,1.2-3.76,2.45-1.85.58V71l.47-.46L52,69.15l.39-.29,1.87,0,.81-.39.72-.9-1.72-.75-1.41.84L51.4,68.94l-1.92,1.23-1,2.36-.82.54-.68.22-2.18,1.88-12.6,7.05-4.84,1-1.15.7L25,85,21.2,86.24V238.3c0,5.73,0,11.46,0,17.18,0,11.59,0,23.18,0,34.77,0,7.84,0,15.68,0,23.52H289q18.72,0,37.44,0,17.66,0,35.32,0h20.92l.58,0,.14-.16c1.75-2.89,3.51-5.77,5.27-8.65l1.35-1.38,1.71-1.1,1.42-.71,2.44-.73,1.7-.29,3.38-.13,3.63.53,2.79.94,2.21,1.4,1.33,1.2,2-2.66,1.17-.54,1.33-.33,4.71-2.31,1.85.75,1.87-.3,3.11-1.8,4.6-1.7,1.08-1-.41-2.07.45-2.24,1-1.8,1.31-.73,1.72-.48,2.54-2.25,1.76-.72,2.65-1.27,1-.7,3-3.37,1.17-.76,2.88-.92.77-.37,2.66-2.39.72-.39,1.94-.27,2.52-.82,2.21-1.37.95-1.94-.81-2.16-1.94-2.13-4.08-3.53-2.39-2.94-2.57-3.67-.25-.59-.7-.95-4-3.54-1.06-3.85-1-1.7-3,1.12-1.69-1.18-1.4-2-.76-1.86-.57-7.78-1.3-2.66-3.87-1.24-2.28.44-1-.41-.59-2.78-.31-1-.14-1.06.36-1-.3-3.17.07-1,.22-.75-.3-1-.25-1.26.29-1.35,1-2.87-.22-.05-.3-.71-.09-.83.36-.39.57-.34.51-.78.7-1.69,1.4.65,1.56-.17,1.26-1,.52-1.84.38-2.42.92-1,1.06-.74.76-1.73-.3-1.93-1.08-1.72L435.61,194l-.56-.85-.14-.59-.31-.33-.45-.12-.45,0-.3-.15,0-.37.07-.45-.07-.4-.88-1.24-.45-.8-.18-.71.81-1.59,1.71-1.58,1.83-1.22,1.13-.48,1.68-.46,1.42-1.17,3.14-4,.26-.11,0-.26,0-1.24.32-.49.75-.57.79-.49.54-.21,1-.82,4-5.37,1.81-4.45.74-2.8.07-.71.57-1.35,4.12-3.87.15-.28.41-1,.22-.42.41-.28.81-.1,1-.92.77-.29,1.72-.1,1.51-1,0-.18Z"/></svg>