<svg id="Alabama" xmlns="http://www.w3.org/2000/svg" viewBox="0 0 333.59 371.93"><defs><style>.cls-1{fill:#ccabd1;}</style></defs><title>state</title><path class="cls-1" d="M264.44,5.72q-14.72,0-29.45,0c-9.39,0-18.78,0-28.17,0-10.2,0-20.39,0-30.59,0-9.24,0-18.49,0-27.73,0-10.2,0-20.4,0-30.59,0l-28.16,0-29.45,0c0,7.32,0,14.65,0,22q0,14.43-.05,28.87l0,.62-.13.63L58,60.4Q57,64,55.92,67.62l-1.82,1-2.57.41L50.17,69,49,68.46l-1-.85-.65-.81L46.85,66,45.68,63.4l-.39-.62-.5-.65-.57-.59-.46-.28-.48-.18-.35,0h-.36l-.35.07-.31.1-.28.12-1.34.81-.3.11-.36.06h-.39l-.41,0-.7-.24-.54-.35-.44-.36-.28-.17-.2-.08-2.8-.83-.49,0-.44.11-.82.33-3,.79-1.7,1.07-1.75.82-.23.21-.2.21-.37.53-.16.29-.08.54v.72l.18,1.49,0,.73-.23.7-.89.91.09,1.79.54,1.71L25,74.68l2.06,2.68.33.58.11.74-.2.71L26.39,81l-.28,1-.06,3.56.15,1.76.26,1.3,1.84,4.66.34,1-.4,1.39.33,2.78-1.11,3.11.89,2.57,1,3.07L31,110.55l.51,1.51-.07,1.72.13,1.64.68,3,.25,2.56,0,1.36L32,124.91l-.22.2-.62.31-.73.16h-.71l-.53.25-.18.86.24.59,1,1.14.21.88-.2.61L29,131.51l.5,2.06q.32,4.32.65,8.63l.36.76.83.29.74.38.6.87.42,1,.2.78.1,1.78.66,1.2,1.1.69,1.42.22,3.42,7,.23.26.17.28.07.51-.07,1.5.07.42.63,1,.69.55.57.63.25,1.29.09,0,.52.63-.23.93-.28.94v0l.06.6.16.76.21.41.27.3.34.1.68,0,.25,0,.21.08.21.17.41.46.25.22,1,.68.26.23.78.93,4.36,3.18.89.48.51.44.61.68,1.67,1.1V178l.31,1.33-.44.85-1.66,1.27-1.75,1.73-1.66,2.14-1,.28-5.34,3.8-1.9.61-.85.88L41,192l-.44,2.67L40,195.92l-.82,1-.86.85-2.07,1.37-.81.86-.33,1.39.17.74.43.7,1,1.2.07.56-.42.58-1,.77.1,1v1.6L35.7,210l.64.68.18.33.06.74-.06.73-.18.34-.28.31.23.69.57,1.14-.34.92-.61.71-.57.9-.25,1.53,0,1.34,0,.71-.17.29-.46.38v.83l.29,1.36-.19.83-.17.42-.71.93-1,1-.53.65-.49,1.53L29.65,233l-.94.71-1.29.39-2.57.18-.5.33.24.72.54.79.42.49.31.68-.2.53-.63.67-.5,1.74.12.92L26.29,243l.36.85.53,3.6-.27,2.69-.79,2.33-.18,2.16,1.57,2.19,2.06.82,4.75.34,1.82,1,1.46,2.12.2.79,0,.6-.12.6-.07.78.83,4-.14,1.35-.6.8-1.94,1.35-.67.81-.2,1.08,0,1.14-.05,1.12-.51.92-2.21.51-5.48-1.12-2,1.46-.59,2.33-.43,1.07-.61,1v0l-.4.45-1.19,1v0l-.27.41-.83,1.64.44,1.27-.07,1.36L20,290.46h0l-.65.68h0l.28.11,1.94.7,26.51,9.68,30.68,11.17,28,10.16,24.38,8.83,30,10.86,29.71,10.74c8.36,3,16.65,6.23,25,9.34l3.18.39H321.54V357q0-14,0-28.1V209.64q0-14.61,0-29.23V93.09q0-14.94,0-29.89V5.76q-13.85,0-27.71,0Q279.16,5.71,264.44,5.72Z"/></svg>