<svg id="Alabama" xmlns="http://www.w3.org/2000/svg" viewBox="0 0 417.59 371.93"><defs><style>.cls-1{fill:#ccabd1;}</style></defs><title>state</title><path class="cls-1" d="M328.11,357.37h-.38l-.19.18.14.37.16.2.46.31.38.52.11-.27-.25-.81ZM323.36,360l.13.17.35.22.21-.43-.35-.22Zm2.29-63.09-.58.38,0,.27,1.32.53.37-.08.37-.39-.19-.38-.58-.12-.28.08-.2.12-.13-.25Zm-.46,59.13-1.49-1.16-.35-.06-.15-.09-.15-.19,3.3,5.11.07,1.63,1.11-.84-.74-2.16Zm-1.5-59.35.55.66.16.18.19.08v-.16l.13-.16.19-.25.29-.21.51-.06.34-.16-.13-.34-.36-.27-.34-.17-.9-.71-.35-.34-.86-.43-.56.47,0,.55.07.32V297l.32,0,.4-.38Zm-1.78-.93.15-.37-.15-.37-.13-.17-.1-.46-.35-.84-.46-.38-.78.15-.22.11-.44.1-.68.34-.15.6.24.32.15.15v.22l.05,0,.09-.37,0-.22v-.25l.26-.2.23.18.15.19.78.06.28.39.15.3.21.32.35.35Zm.27,62.84-.37,0-.1.17h.17l-.07.09-.33.28.06.37.57.51.12.24h.26l.11-.54-.13-.61Zm9.12.5-.62.75.08.11.49-.26.4-.38-.09-.22Zm29.25-23.64.7.41-.18-.34Zm-1.67-1.85.27.43.09-.44Zm1.63.87-.22-.13-.06.54.15-.06.19-.05Zm-21.75,22.19-1,.47h1.61l.56.33.25.81.25-.73.32-.51.44-.37,1.18-.47.15-.16,0-.38-1.08.16ZM357.94,341l0,.35.34-.28Zm-37.49,17.43-.16-.19-.37-.3-.38-.18-.31,0-.23-.15-.16,0-.21.58-.05.72.2.47.12.11.14.1.23.06.21-.13.25-.07.31.1.28.28.21.39.15-.23-.08-1Zm38-10-.43.22-.31.3-.12.35.23,0,.76-.5.37-.27.57-.66-.08-.26Zm-3.61,2-.31.29-.13-.09,0-.39.09-.52-2.22,1.59-.5.6,1.82-.13.81-.22.43-.38.25-.34.07-.16,0-.25Zm-11.95,6,3.69-1.58.72-.66.62-.11.21-.11.2-.18v-.34l-1.57.35Zm13.64-17.35.34.55,0-.28-.18-.47Zm-47-46.16.13.26.14.37.29.15.65.09.26-.31.6-1.06-.18-.57-.64-.24-.63.11-.51,0-.47.05-.12.5.1.33.12.13ZM282.43,249l-.06-1.33-.32-.28-.16-.09h-.24l.64,2.61.43,1.12.68,1.27-.19-1.25ZM165.19,71.54l-1.18.75-2,1-.38.48,2.78-.6,1.12-.62.5-1.13-.36-.12Zm98,137.94L262,207.25l-.49-.42-.84-.4.22.69.6,1,.36.43.41.87,2.12,2.51.87.67-.19-.85Zm18.58,34.64-.25-1.21-.54-1.28-.24-.38-.15,0-.3.34.47,1,.16,2.71.41,1.18.37-1.24ZM242.82,110l-.25-.34-.35-.25-.37.31,0,.79.42.23.65-.31.36-.13-.16-.09ZM158.67,76l-.67.22-.23.1-.18.27-.21.25L157,77l-.52.09-.13.2,0,.25-.16.23-10.62,5.11-2.2.55-1.12.07-1.36-.83-.81-.19,1.3.89,1.1.34,2.92,0,1.06-.32,3-1.75,1-.89,5-2.13,3-2.31,1.14-.46v-.23l.41-.39.28-.13v-.43l-.64.34Zm213.9,108.19,1.43,4.16.93,1.64.12.49.1.68.44,1.13.25,1.68.36.79.46.72.44.94,2.05,8.44.63,1.78.08.71.15.31.69.55.15.27.19.81,3,6.67.53,2.18,1,1.21.71,1.59-.21-1.29-8.51-22.91-.16-.89-.09-1.16-.22-1.16-.71-2.09-2-3.53-1-2.3-.39-2.28-.15-.2-.13-.11-.09-.17v-.28l-.37.12-.13.1L372,183ZM62.09,37.25l-1.72.45-.34-.4-1.18.5-5.37.72-2.18-.07-.77.1-1.37.53-.46.2-1.22.4-3.55,0-2.92,1-5.77,1-4.05.09-.92.34,2.76.35,33.89-4.32.54.25.56.09.5-.09.42-.25-4.76-.62ZM140.44,80l.28-.28-.12-.62-.08-.06-.64-.05-.66-.24L138,78.58l-.72.62-.93.07L134.28,79l.51.44,1,.4.53.3.34.39L137,81l.38.47.44.19,1.06.39h.59l.25-.58.12-.53.26-.52ZM290.79,260.9l-1,.08-1.65-.37-1-.41-.77-.6-.59-.85-.43-1.15-.13-.62-.19-.53-.27-.44-.44-.34.22,1.71.47,1.74.35.83.46.6.54.45,3,1.75.77.18.85-.28,1.27-1.06.95-.21-2.08-1.13Zm21,102.23-1.36.37-.59,0-.47-.4H309l-.23.32-.11.31.06.28.28.28v.34l-.5.56-.22.18,3.79-1.08-.22-.93Zm-4,1.55-.2-.2-.27-.15H307l-1,.89-.38.19-.53,0-.53-.18-.43.12-.21.85,1.51-.21.75-.22.47-.32.21-.34.16-.4.2.31,0,0v-.18l0-.12.12.28.13.22.18.15.28.08-.08-.42ZM362.25,337l.22-.15-.13-.33-.24.15Zm-45,21.32-.16-.05h-.15l-.09-.08,0-.28h-.31l-.34,1.15.5.06.34.13.07.21-.26.31v.41l.9-.08.53.3.16.53-.24.74h-.31l-.27-.65-.65-.43-1.47-.41.3.38.31.27.74.47-.37.47-.16.1-.11.18-.31.21-1.1.54-.5-.3-.57.22-1,.83v.37l3.56-1,1.71-.71,1.24-.89v-.41l-1.71-2Zm.39-66.38-.34-.39-.62-.06-.13.47.12.33.24.25.31.16.07.49-.12.84.15.22.46-1,.15-.43-.12-.36-.25-.28-.1-.16,0,0Zm-29.2-43.26-1-1-1-.37h-.67l.65,1.62.94,1.77.66,1.69-.21,1.38.65,1.08.75,2.73.66,1.13.67.24,0-1-.35-2.84-.4-.81-.76-1.19-.59-1.23.49-2Zm.25,114.64-.62-.19-.57.14-.13.16.28,0h.27l.34.2.42.22.4.78.06.3.13-.53-.09-.59Zm-.45,2.24,0,.15.5-.15.25-.21-.24,0Zm50.9-42.17.41.33.47.3.13-.54.12-.25,0-.24-.13-.41-.41-.07-.57.13-.19,0,.1-.11-.3-.09-.29.3Zm-78.27-199,.35.09.18-.12,0-.12-.17,0-.18-.13-.25-.1h-.28l-.18.12.09.09.16,0Zm-6.31-11.79v-.28l-.23-.15h-.23l-.27.13-.08.41.17.21.33-.1Zm5.26,18,.1.32.19.19,0,.22-.19.29,0,.15.23.06h.53l.41-.36,0-.59-.33-.42-.4-.21-.35,0Zm-1.63-4.47-.09.3.23.13v-.15ZM257.6,130l-.18.09,0,.17.16-.07Zm4.35,14,.15-.08,0-.13-.21-.38-.44,0,.26.17.16.25v.1Zm-2.8-9.95.21-.05.2-.12,0-.12-.25-.06-.25.19Zm-.34-8.59-.15,0,0,.26.21-.2.13.12,0,.12.34-.37-.21-.18-.21,0,.14.14,0,.07Zm-.62,3,.11.16.41-.22.21,0,.13.07.22.07.16-.12-.16-.11-.44-.13-.43.09Zm1.94-2.72.6-.12.47.07.21,0,0-.12-.19-.18-.25-.12h-.24l-.33.07-.32.2Zm103.76,16.83-.84-1.69-.69,0-.62.27-1.1.82-1.06.64-.29.39L359,144l-1.06,0-.39,1.53.12,1.85.46.89.43,4.56.25,1,.72,1.22,1.77,5.39L362,162l-.09-.84-.37-.92-.44-1.11-.1-.66,0-.53.24-1,.31-6.91.43-2.14,1.55-3.52ZM262.35,124.9l-.49-.21-.31.13.5.36-.06.26.07.28V126l.12.28.35.27.12-.17,0-.17-.08-.13v-.78ZM362.48,163.2l.14.6.07.69h.37l-.15-.52-.83-1.82Zm-100.86-24,.17.12.13.06,0-.15,0-.21-.06-.22-.79-.07-.08.07.24.08Zm-.91-1.73-.11-.38-.1.12Zm.56-2.19-.19-.21,0,.26.13.06Zm.82-3-.38-.09-.41.16.12.25.9-.22Zm-1.28.89-.28-.08-.3.13v.2l.18.1-.14.06h-.38l0,.19.72.27v.22l.19.15H261l.07,0,.27-.41,0-.68-.34-.14ZM340.63,324.6l.19.72.38.65.4.15.35-.23.16-.35.44-.65-.15-.59-.24-.11-.61-.13-.65.09Zm27.16,6-.18,0-.07.21-.24.07-.15.21h.06l.37-.08Zm2.86,4.4-.15-.75-.21.53-.36.29-.08.22-.12.06-.12.2.12.17.64-.68Zm14-21.06-.15.27-.8,3.18-.43.89-.68.54.15.06h.12l.07.07.71-.66.67-1.17.47-1.25.19-1.19.09-.23.09-.44-.08-.28Zm1.55-12.85-.21.29-.28.25-.38.25v.34l.22.06.13.08.13.12.19.11-.53.5-.08.58.31.44.64,0,.23-.35.1-3.07h-.33ZM365,332.31l.18-.38-.34-.21-.37-.15-.2.26.16.23Zm-3.11,2.76-.26.08v.15l.21.22.07.31.15.07.09.17.12-.23v-.39l-.15-.21Zm-14.08-7.72.18.34.09.8.09,0,.19-.34.1-.47-.26-.71-.31-.34-.29.33-.06.42.1.07Zm32.17-5-1.34,2-.66.42-1.59.39-.32.34.17.62.4.3.37.37.12.79-.47,1.15-1.84,2-1,2.39-2.25-.47-.31,1,.7-.28.57.21.29.51-.19.65-.39-.19h-.17v.2l.24.4-.44.66-.55.28-1.06.15.18.7-.32.65-1.24,1.3-.71,1.17-.38.28-.81.09-.27.32-.59,1.92-.58.24-.75.17-.47.29.26.6h1l1.13-1.12,1.84-2.42L370.1,339l.38-.56.46-1.28.32-.59.56.17.53-.31,4.07-4V332l-.22-.84.62-1.34,1.64-2.35,1.46-1.88.25-.55.1-.43.25-.64.32-.63.34-.36.21-.12.19-.16.16-.21.16-.31-1.09-.44Zm-16.73,22.3-1.57,1.92.5-.19,1-1.07.41-.65,0-.12,0-.2Zm-24.09-22.93-.29.15-.16.26.36.12,1.77.12.06-.16-.8-.13Zm2.93,2.19.46-.35-.12-.21-.87-.23-.28.09-.11.3.13.32.24.22Zm50.66-77.39-.29-1.74-.67-.86v-.42l.77-.81v-1.5l-1.29-5.33-.33-.57-.47-.37-1.1-.32-.63-.3V234l.59-.28.59-.08.52-.17.35-.6-.07-.66-.94-2-1-3-1.21-2.44-.15-.81L387,223l-1.4-.71-.33-.73-1.89-2.11-.4.06-1.12.36-.43-.16-.8-.51-.35-.1-1.27-1.48-.3-.47.67,0,.43.22.31.32.34.27,1.12.58,2,.51.57.5.44,1.12,0-.87-7.37-17.81-1.77-8.49-16-35.45-.38-1.34-1.47-3-.93-3.23-.46-1.15L355,143.81l-.19-2.32-.19-1.11-1.54-3,.38-.35v-.43l-.56-1.37-.81-5.16,1,.43,1.66,1.55,2.15.78.15,1-.38,1.15-.43.86-.37-.36-.37.81-.19,1.09v1.12l.21.84.71.81.9.42,3.18.55h.44l.6-.19,0-.2-.06-.82,0-.21h.33l.28.16.25.2.16.08,1-.08.68.25.44.56.31.86.37,2.24,0,2.24-1.5,7.14-.11,9.71.47,2.37,1.49,4.48,2.95,5.37.47,2,1.49,1.74.2.39.16.52,1.21,2.34-.06-2.42-4-6.16-1-2.4-.16-.9-.72-1.61L364.9,163l-.23-3.09.13-1.21-.37-.39.36-.72,0-5.53.16-.3.4-.19.38-.43.27-.47.12-.31.46-.09.88-1,.62-1.19-.75-1.12-1.21-3.69-3-5.28-2.64-3.74-3.14-5.8-6.73-10.71-.27-1.09-.44-1-.87-.64-.64-.65.28-1-4.61-8.61-3.26-9-3-6.7-2.21-4.13-.32-1-.22-1.17L335,81.51l-.22-1.07-1.52-2.68-.7-3.43-.5-.51-.32-.62-.28-2.82-.25-.82.37-.43-.5-.23-.33-.32-.09-.43.2-.54-.28-.09-.46-.23-.28-.08.29-1.82-1.69-6.62-.31-4.35-.22-1.1-1.08-2-.44-1L324.83,44l-.06-2.37.34-2.56-.16-.55-.36-.38-.35-.31-.15-.33.16-1.86-.16-.73-.27-.54-.22-.21-.25-.13-.3-.31-.24-.46-.33-.88-.31-.46-1.35-1.13,0-.23-.86-.32-.38-.81-.06-1,.12-1,0-1.3.1-.49.44-.19.47.18.38.45.25.57.09.58,0,1.34.13,1.05.41.81.8.59-.19-1.67.19-4.89.37-1.55.08-1-.26-.42-.18-.13,0-.27-.08-.27-.39-.13-.38.06-.69.28-.31.06-1.18-.48,0-.45-.37-.09-.9-.25-1.62.49h-.47l-2.06-.47-.5-.22L313,19.2l-.36,0-.52.08-.54-.06-2.4-.72-.73-.33-.5-.3-.32-.31-.48-.34-.71-.19L306,17l-.45.06L301,15.16l-.68-.38-.38-.3-.74-.47-.44-.1H298l-.69,0-.38,0-.43.12-.25.22-.13.23-.08.37V15l-.06.39-.06.27-.16.27-.21.18-.45.08-.42-.05-.52-.16-.25.07-.15.2-.1.61-.07.33-.15.27-.59.59-.15.23-.1.25-.07.26,0,.56.16,1.43,0,.33-.06.37-.35,1.31,0,.33,0,.68.1.45.16.54.23.51,1,1.36.22.44.08.28.06.58,0,.67-.68,3.83-1,3.6-.13.75,0,.35.1,1.67,0,.35-.1.45-.19.22-.26.13-1.37.38h-.22l-.25,0L289,40l-.33-.06-2.32.27-.47,0-.35-.12-.27-.18-.19-.21-.29-.5L284,37l-.1-.51v-.28l0-.34.13-.68.25-.84,0-.31,0-.29,0-.26-.07-.26-.24-.51-.22-.36-1.18-1.53-.27-.47-.06-.24v-.24l.09-.22.21-.37.15-.37v-.18l-.11-.08-2.06-.13-1.83-.14-2.34-.16-2.81-.19-3.26-.22-3.65-.25-4-.28L258.33,27l-4.64-.33-4.89-.33L243.69,26l-5.29-.37L233,25.27l-5.53-.38-5.59-.39-5.62-.38-5.61-.38-5.55-.39L199.62,23l-5.35-.37-5.19-.35-5-.36-4.74-.32-4.48-.3L170.7,21l-3.81-.26-3.42-.24-3-.21-2.55-.16L155.87,20l-1.5-.1-.93-.06-.32,0-1.58-.1-.44.07-2.22-2.37-.75-3.8-.06-2.45-.37-1.35L147,8.41,146.59,8l-.4-1.74-.28-.63-.3-.31-.87-.62-.22-.27,0-.72.1-.19H15.45l-.32.81L15.21,7l-.07.28-1,2.24-.19.59-.07.36,0,.35.07.45.21.47.5.78.57.72,2.41,2.37.28.43,1,1.91.71,1,.71.57,4,2.45.39.37.18.21.06.58,0,.85-.32,2-.4,1.51-.86,1.54-.19.5-.06.25.12.93.93,2.76,0,.05L25,34l.35.28.43.18,1-.11.43.11.43.56.25.8,0,.69-.46.32-1.21.27-.93.71-1.46,1.77V40l.6.43,0,.57-.37.59-.57.44-.6.15-1.24,0-.6.23.88.31.85.44-1.84.25-.57.18-.44.3-.31.34-.34.3-.57.24v.42l.53-.25,1.1-.31.41.14.86-.49,7.09-1.5,1.12-.5-.18-1,.5-.18,1.27-.19.43-.24.19-.56-.15-1.42.12-.55.93-.57L34,37.42l1-.35.41-1.34.2.16.06.06.1.13h.31l1.18-2.23.19-.71-.22-1-.93-1.46L36.07,30l-.18-1.84.18-.62.73-.11.57.35.27.59.36.5.85.13-.1.26-.12.68-.1.26,1.09.15.43.83.16,1,.34.76-.28.8-.09.94.28.66.76,0,.5-.63.34-2,.63-1.34,1.08-3.14L44,27.8l0-.57-.47-1,1.06.62L45.21,28l.51.77.95-.62.28.35.06.18,0,.26-1.71.76-.73.62-.3.82.08.56.25.27.37.09h.5l.22.25.68,1.12.45.25.84.08,1.12.3,1,.51.6.69-.08.62-.72-.24-.93-.51-.66-.26-3.24,2.66-.9.16-2.73,0-3,.81-1.87.88-.42.1-.31.25-.2.63,2.5-.31,5-1.39,7.75-1.05,2.8,0,1.42-.24,1.1-.55L57,37.3l4.05-.43,3.89.23.58-.42,0-.88.07-.25,1.16.18.62-.19L68,34.7l.44-.19.65-.05.65-.21.59-.3.51-.39.11-.42-.25-1.44,0-.68.42.75.5.55.47.09.34-.64.37-.29.49-.12,1.19,0-1.13,1.55-.22.85.68.74.88.12.69-.42.62-.56.71-.28,1-.11,2.17-.58,1-.12,2.12.37,1-.08.81-.74.61,1.54.65.55.88-.19,1.3-.65,0,1-.36.28-.25.26.28.87,1.52,1.65,0,.31.4.42-.06.8-.49.43-.88-.67-.5-.29-2.39-.69L84,36.62l-.71-.44-.69-.09-.64.34.12.42.6.32.77.13.23.17-.15.37-.32.4-.31.22-2.26-.56-.55-.49-.36-.65-.21-.66,0,.06-.06-.09-.24,0-.28.59-.26.79-.37.68-.62.3-3.27-.75-4-.13-.8-.27,0,.18v.16l-.06.09,1.3.85,6,.69,8.58,2.36,6.34,1.95,5.79,3,4.27,2.12,6,4.4,1.18.3-.38-.55-.31-.37.4-.1.63.66.39-.82-.84-.77-.91-.57-.4-.71.75-1.09-.62-.62-.47-.65-.56-.51-.91-.21-1.08.18-.66.29h-.56l-.78-.65-.36-1,.51-.76.92-.52.83-.23,1.57-.18.58-.41.57-1,.6,1.19.65.93.46.85v1l.59.19.35-.46.35-.63.56-.33.69-.25.74-.44.57-.08.24.78.88-.6,1.21-2.08.49-.46.5.29.44.68.63,1.39L116,44.7,114,47l-1.19-.47-.77.12L110,49.29l-1.06.62.4.56.35.39.42.31,1.74.85.47.38.38.66.86-.23,1.15.46,1.09.72.68.58.11-.29.13-.23.09-.25v-.39l.93.37.77-.25.78-.4.94-.07v.36l-.72.62-.19.88.35.52.9-.44.2.85-.11,1.94.45,1,.75.36.5-.49.6-1.3.44-.25,0,.13v.3l.21.25.4,0,.81,0,.35.17.22.62-.59.3-.8.22-.4.44-.8.46-1.77-.72L119.31,58l-.8-1.21-.87-.84-3.26-1,0-1.06-3-.54-.4.12.43.66,2.49,2.47.67.31,6.37,5.22-1,0-1.16-.74-1-1.05-.56-1h-.39l.12.52.13.39.19.34.25.35L119,62.18l5.72,2.68.82.67.9.93.71,1,.3,1.06.35.83,1.59,2.08.47,1.24-.22,4,.06.66.17.23-.35.53-.57.53-.47.27-.69,0-.38-.24-1.31-2-.55-1.21-.35-1.29L125,72.9l.13-4-.13-.56-.76,1.27.15,2.94,1,4.81.46.83.83.87,1,.46,1.9-.85,1.11,0,1.16.2,1.07,0,5.82-1.9,2-.09,4,.43.66-.38,1-1.53,1.27-.19.87-1.46.67-.37.77-.29.65-.53.67-.31.81.38-1.49,2.42-.22.47.23,1,.56-.2.72-.63.67-.37,1-.21.8-.47,1.18-.92.76-.23,1.34-.18.62-.34,2.52-2.42,1.5-1.07,2.43-.68,2.06-1.7,2.72-1.59.56.59.81-.07.94-.32,1-.19,2.06.19,1.87.62v.35l-.21.21-.47.62,1.42-.86.65-1.33-.36-1.22-1.55-.54-3.08-.4L172.6,63l-.06-.63-.18-.55-.81-.05.63-.89.75.23,1,.64,1.68.5,1.25.53.69.13.12-.23-1-1.21-.32-.52-.15.21-.37.38-.13.23-.22-.52-.15-.29.13-.46.07-.13,0-.12-.18-.47.37-.42.19.17.13.09.32.16,0-.91.33-.47,1.78-1,.59-.12,1.58.1.07-.26.29-.6.42-.65.44-.4.26,0,.25.13.16.15,0,.08h1l.29-.13.28-.53.32-.12.3.05.13.15.09.15.15.07.39.34.22.7.26.5.5-.21,1-.66,3.6-.31,1.6-.67,1-.09,3.66,3,4.7,3,2.24,1,1.19-.25,1.06,1.21.61.51.87.21.62.34,2.18,1.66.47.56.43.72,1.87,2,.43,1.24.22.31.47.28.47.35.21.59.26,1.36,0,.59.31,1,.74,1.1.9,1,.81.7,1.71.78.34.27L221,79l.43.32,1,.41,1,.16.86.26.59.72.2,1.19L225,83.42l-.32,1.14-.53.65.29.56.23.82.06.81-.25.53,1.27.95.65.32.5-.07,2.53,3,1.37,1.11,1.24-.21,1,.87.86.93,1.53,2.09.86,1.69.13.09.07,1.19.12.57.18.37.47.52.8.5.9.38.77.16.71.31.46.72.34.8.36.5-.57.54,0,.52.39.38.72.15.26.31,0,.66.22.66.84.31.65,0,.34-.06.88-.34.74-.13,1.41,0,.57-.19.89.56,1.1.46,1.15,0,1-.7.22.32.58.56.22.31.39-.27,1-.5v1.14l.12.88.4.66.86.46-1.06.65.56,1,1.86,1.48,0,.25v1.71l-.15.56-.25.59.28.46.59.26.59.06-.32,1.14.26,1,2.09,2.61.35.29.38.15,1,.14.34.15.53.73.13.82-.37,2.74,0,.6.36,1.68-1.24-1.56-.79-.46-.7.87.14.5,1,1.28.25.75.16.2h.34l.35.09.16.46v2l.11.56.15.4,0,.39-.41.55-.18.41,0,.5.15.49.19.38-.5,1-.18,4.87-.52,1.7-.1.66-.06,3-1.08,1.9.05.41v.35l-.58.67-1.8,4.75.36-.12.14-.08.19-.18.1.74-.41.8-1.06,1.57-.38,1.59-.31.76-.66.74-.47-.31-.22.75-.06,1.11,0,.76.26,1.42.3.85.47.81-.46.5-.13.69-.07,1.49-1.09,5.14-1.67,4.52-.25-.81.1-1,.37-1,.47-.74-.52.5-.56.8-.44,1-.19,1L252,182l.47,1.6.11.75.69,1.31,3.05,3,.69,1.85.15.92.4,1.25.56,1,.63.13,0-.71-.34-1.23-.73-1.93-.59-1-3-3.24-.4-.78.19-.78.95.94,1.94,1.55.88,1,.9,1.35.6.38,1.08.14.09.25-.06,1.23.11.47.28.25.34.1H262l.81-.34.56-.82.18-1-.36-.91.62-1.73.06-.37.14-.29.68-.86.21-.56v-.67l-.26-1.19-.07-.66,1.59-1,.45-.35-2.13.27-1.92-.75-1.85-1.08-1.91-.78.79-.95,2.3-.64.62-.71h-1.84l-.46-.12,0-.27.29-.41,0-.25.25-.62.06-.45-.09-.4-.43-.89-.13-.49,2,2,0-.59,0-.18h.31l.41.6.62.52,1.39.77v.41l-1,.38v.43l1.57,0,1.31.29.89.72.32,1.44-.32,2.71.07,1.41.62,1.08.44.12,1.76.07.24-.56-.09-.57-.31-.79.06-2.06.21-.9.44-.67,1-.59.87.09.6.68.46,2.33,1,2.34.15,1.28-.41.86L273.15,188l-.36.57-1.4,1-.24.38-.78,1.57-.35.23-.46.14-.39.29-.18.65-.15.44-1.38,1.11-.67,1.15-.35,1.16-.48,1-1.08.72.21.54.13.21-.59.69.64-.28.8-.12-.31.68-.68.5-1.46.39-.78.41.73.15.6.22.54.33.51.44-1.06.07-1.3-.66-1.21-.37-.87,1,.31.35.34.25.36.06.36-.23h.31l0,.55-.09.5-.23.46-.35.38-.56-.56-1.31-.62-.52-.38-.26-.44-.77-1.85h-.34l.18.89,1,2.53.57.81.78.33,1.85.32,1.93,1.45.95.49.7.74.55,2.7,1,2.14.06,1.4h-.34l-.16-.34-.16-.16-.18-.1-.22-.19v1.21l.62,1.09.83,1.1.59,1.21H269v-.76l.52.37.34.6.18.79v.95l-.27-.28-.18-.28-.23-.63.28,1.26,1.18,2.31.5,2,4.52,9,.33,1.1.2.21.25.19.6.36L277,235l-.66-1.31-.16-.87,1.36,1.48,1.46,4.76,1.49,1h.46l.36.08.71.25.39.25.47.46.34.09.3-.06.15-.13.09-.12.16-.06.24.12.47.55.16.11.31-.21.37-.41.29-.38,0-.21.43.61.18,1.57.44-.24.33-.74,0-.83-.44-2.46-.8-2.05-.26-.43-.31-.35-.69-1.72-.53-.62-.37.41-.55-.5-1.44-1.81-.59-1-.14-.45,1,.51.56.62,1,1.69.74.2.82-.43.5-.16-.18,1,.91,1.06.54.47.24-.18.3-.52.62-.09.6-.2.22-.88,1.15.31.9-.18.86-.35,2-.42,1.08-1,.84-.27-.62,1.71-.28.4-.47.25-1.1.23L290.77,235l-1,.75-.07.72,1,.86.68.34.37.51.12,1.36-.1,1.25-1.22,6.46,0,1.25.23.86.87,2,.25,1-.07,1.3-.25.82-.09.67.41,1,.78.87h.62l.69-.43,1-.43v.78l.49-.24,1.16-.34.4-.21.2-.29,1.5-4.31.55-.89,1.63-1.75,1-.8.82-.33.95-.14,1.19-.7.74-.29-.21.67-.26.5-.38.4-.5.37-.52-.29-.56.24-.44.48-.19.52-2.18,2.17-.57.72.2,1.4-.94,1.51-1.33,1.3-1.35.92-.22.26-.22.21-.38.08-.35-.16-.34-.62h-.2l-.29.5-.13.81v.82l.12.55.31-.41.28.28.15.06.67-.33,2.72,1.51h1l.23.14.22.27.34.15.24-.15.2-.48-.19-1.39,0-.81.34.85,1,1.76.35.82.25,1.09.09,3.45h-.34v-.37h-.34l.18.91,1.49,2.73,0,.17v.37l-.3,1.9.43,4.33.9,4h.37l0-.6,0-.59.12-.54.2-.51.85,4,.8,1.41,1.42,1.11-.43.51.13.68.47.64.54.43.47.11,1.13-.15.74,0-.16.65-.38.74-.49.61-.46.27-.56-.29-.56-.58-.59-.37-.7.29.33,1.61.19.42.49.58.19.12.35.06h.31l0-.38.28-.25.11-.12.18-.41.16-.31.34.47.5.28.59.11.62-.14.48-.31.37-.77.51-.4.28.65.48.44.57.21.41-.14.08.35.12.13v.16l-.2.41.41-.16.57-.48.21-.11.44.12.68.52,1,.44.58.56.53.24.67-.71.52.47.65.9.58.48.62.26,1.46.26.65.26,1.19.85,1.19,1.06.94,1.46.38.43-1.31,1-.46.6.62.28.22.31.6,1.47.32.47.43.08,1.68.12.06,1,.18.62.41.44v.76l1,1.9.52,2.48.19.53.59.24,1.13-.28.47.23.08.38-.19.43-.3.35-.93.62.56,1.1,1.62,1.81.71,2.12.05.53.27,1.14.06.59.39.58,2.29,1.84,1.9.37.28.13.87.53,1.75.3.91.49,2.83,3,.34,1-.5,1.19-.87.65-1.07.29-1.09,0-.89-.37v-.34l.28-.09.47-.24.28-.08v-.38l-3.82-1.62-.65-.46-.16,0-.87-1.68-.34-.44-.5-.5-.59-.4-.6-.11.31-.8-.93.74-.82,1.81-.53,2.15-.07,1.72.57,1.68.82,1.72,2.34,2.26.78.17,2.33-.56,2-.19,1.62-.35,1.91,0,.93-.17,1.15-1.25.21-.08,1.4-.91.74.7,1.49.31-.18.44v.41l.44.16.23,0,.16-.16.18-.46.26.31.27.18.25.13.25.16.06-.25.08-.16.11-.14.12-.22.49.59.79.28.84,0,.61-.12,1-.95.65-.29.75.46h.31l.29-.46,0-.34-.18-.36-.09-.51.28-.18,1.83-.39-.09.23-.06,0h-.08l-.15.12.78.28.44-.8.36-1.21.48-.89.76-.25,2,0,.65-.09.19.36.06.16.06.23-.44.1-.24.12-.13.22-.19.36.34.17.28.23.22.31.16.37.85-.54,1,.13.75.69.16,1.21h.37l-.16-1.11-.6-.87-.9-.5-1.09-.1.62-.71,1-.47.78-.06v.83l.68.25,1,1.41.75.62,0-.52-.64-.62-.6-.81.14-1.08.06-.6.85-1,.18-.5.09-.47.23-.41,2.26-2.57,1.81-1.59.08-.68-.37-.44-.64-.36-.39-.44.36-1,.4-.77-.19-.29-.35-.22-.22-.31-.16-1.18.09-1,.43-1,.82-1.16.31-.94,0-2.7.18-1.06,1.46-1.43,1-2.36.09-1.33.18-.53.55-.49.48-.09h.49l.52-.21.74-1,0-2.31.63-1.47.31-2,1.8-2.35.4,0,.16.73,0,1.43-.33,2.49v2.3H388l.8-16.21-.8-1.24v-.41l.83-.63.47-1.65,1.25-8.16-.16-1.22.3-.81.08-.93,0-1.9.11-.84.5-1.68.41-7.52.78-.11.28-1.6ZM362.66,335l.07-.53-.21-.68,0-.11-.19.17-.06.57.19.6Zm-17-7.53.31-.24.33-.06-.31-.4-.28,0,0,.09,0,.1,0,.06-.22.27Zm.91,1.56.46.14h.08l-.06-.42.39-.18.23-.15-.1-.09,0-.21-.34-.1-.28,0,.13.17-.13.25ZM263.94,199.63l-.13.18-.25.47.92-.4-.35-.21Zm.62.3.08-.11-.16.06ZM251,361.7l.06-.09,0-.21Zm-2.49-.34.22-.15-.16-.16Zm2.86.13v-.19l-.06.16Zm.72-1.13v-.05l-.1.06.05.07,0,0,.08,0,0-.11Zm-.56,1.34.09-.13-.1,0Z"/></svg>