<svg id="Alabama" xmlns="http://www.w3.org/2000/svg" viewBox="0 0 181.59 371.93"><defs><style>.cls-1{fill:#ccabd1;}</style></defs><title>state</title><path class="cls-1" d="M166.59,346.41l-.95-6.43,1.23-10.63v-2.43l-1.4-3-1.35.36-.77,1.68.71,2.39-1.88,3.13-4.11,5.07-1.54.1-1.64-2.07L153.34,332,152,330.56l-5.16.39L139,336.38l-3.24-.65L137,335l1.11-1.09,1-1.5.8-1.82h-4l3.52-4.25,13.66-3.7,4.53-4.32-3.47,0-2.89-1.17-2.41-1.88-2.1-2.13.65-.24.53,0,.3-.39,1.28-.14,1.07.45,2.82.36-3.82-9,.52-1.37h9.52l2.63,3.72.71,11.89,1.47-3.64.57-5.8-2.39-27.18-1.6-3.16-3.28-.44-5.57.22-7.56-2L139,271.42,128.88,257.5l-10.73-8.92-1.6-2.53-.16-6.36-.59-4.92-1.23-4.26L108.34,217l-2.93-4.61L99.9,209l-.4-3.29.76-5.85-.49-2.46-1.51-3.64-.71-2.63-.47-5.66,1.69-16.27-.76-6.3c-1.9-5.24-3.88-10.46-5.86-15.67l-5.92-7.52-1.58-1-3.41-.14-1.17-.67-.47-1.58-7.74-16.49-2.8-4-2.65-2.83-3.34-4.53L61.19,103l1.64-5.62,2.77-4.57,1.33-4.64-.28-4.65L64.76,79l-1.7-2.22L57.37,71l-.52-2.27L57.67,66l1.17-2.89.59-2.73,1.11-1.74,7-2.66,1.11-1,8.92-11.32,2.59-4.48,2.16-10.41,2.77-3.22,7-4.85L94,18.3c-1.13-1.06-2.31-2.08-3.46-3.11l-5.76-3.64L77.5,9.1,68,7.73l-8.79.34-4.45.75-6.35,1.9-3.7,1.84-4.45,2.85L36.8,19c-4.58,7.5-9.18,15-13.72,22.52l-.37.41-1.51-.06Q22.07,60.93,23,80q.91,19.54,1.83,39.07.92,19.86,1.86,39.73.93,20.06,1.88,40.12t1.91,40.41q1,20.35,1.92,40.7,1,20,1.9,40.07c.53,11,1,21.94,1.51,32.91l.82,12c13.15,0,26.3,0,39.44,0,12.72,0,25.43.06,38.15.09q20.53,0,41.06,0h5.17l-.24-1.88,1.81,0,1.48.29,1.18.63.93.9h2.77l1.23-6.09-1.11-6.2Z"/></svg>