<svg id="Alabama" xmlns="http://www.w3.org/2000/svg" viewBox="0 0 473.91 371.93"><defs><style>.cls-1{fill:#ccabd1;}</style></defs><title>state</title><path class="cls-1" d="M443.15,145.73l-12.31-.5-.44,0-.44.12-1.08.95-.4.17c-6.87,0-13.74-.09-20.61-.11q-16.5-.05-33-.17l-32-.17-1.36.65-1.78.48-8.44-.3c-11.25-.37-22.5-.79-33.75-1.17q-15.4-.52-30.79-1.07l-32.68-1.14-33-1.16-.43,0-1.8.4h-.12q-16,.22-31.94.4t-31.9.38l-.29.09-.26-.25-.21-.36-.37-.85-.24-.34-.4-.13-9.9-1-.25,0-.09.1v.29l.12.62.9,2.93.65,3.2.09,1-.06,2.26-.15,1.43H88.79l-33.36,0-.14.35-1.12,1.39-.83.79-.65.34-1.3-.36-.09-.91.47-1.24.15-.52-3.27.07.2.25.41.9-.34,1.15-.09,1L50,158.31l.16,1.4-.53,1.35-.91.61-1.18.17-1.29,0-1,.49.12,1.14.74,1.27,1,.89,1.24.42.5.4-.19.69-.5.39-.62.16-4.64.17-.9.32,2.71,4,1.31,2.5-.44,1.12-.79.19-1,.51-.81.6-.33.59-.21,1-1.53,2.55c-.16.85-.32,1.7-.48,2.55l.92,1.56,1.32,1.36.66,1.87-.34,1.16-.76-.21-1.46-1.16-1.09.14-.95.45-.74.78-.49,1.13,1.31.64,1.33,1,.46,1.12-3.14,2.61-7.63,3.35-.71.83,0,1.09.75,1.41,1.4,1.83v.8l-.9,1-.84.69-.32.56.22.72.78,1.13.66,1.48-.51.77-1.14.32-1.24.16-1.21.35-.61.62-.24,1,0,1.56-.25,1-.61,1-.77.89-2.67,2.21-.61,1-.22,1.42.06,2.79.21,1.23,1,3,.5,2.55,0,2.48-1,1.5-1-.07L19,236.47l-1.19,0-.52,1-.1,1.18-.33,1-.53.93-.74.78-1.84,1-1.18.48-.94.19-.56.46.43.75h8.31l32.46,0c10.81,0,21.63,0,32.44,0s21.92,0,32.88,0l-.56-1.6c6.06,0,12.12.14,18.18.21q16.08.19,32.15.36t32.38.38c10.86.12,21.72.22,32.58.37,10.69.15,21.38.15,32.07.15h32.69l.35.14,12.6.64q.59-6.72,1.21-13.45l.09-.47.11-.26.3-.58.59-.71.88-.86.31-.24.4-.21.78-.24h.41l.31.12.39.4.23.17.24.12.34.06h.72l2.68-.3h1.28l.19,0,.35-.24.49-.4,1-1,.41-.56.24-.5.07-1.94.07-.34.21-.62.15-.29.87-1.26.15-.29.09-.31.06-.36,0-.3-.22-.8v-.22l0-.24.1-.23.16-.28,1.13-1.22.37-.29.44-.25,2.09-.73.34-.21.4-.43.24-.31.81-1.65.31-.27.42-.25.83-.29,1.59-.33.41-.18.49-.28.78-.62,1.18-.72,1-.37,1-.25.32,0,1.77.15h.19l.18,0,.48-.16.33-.08h.33l.32.06.3.07.46,0,.56-.09,1-.31.48,0,.37.12.21.2.23.21.27.18.34.1.35,0,3.29-.66.31-.16.35-.27,1.12-1.08.51-.61.33-.3.44-.3,2.7-1.15.67-.53.54-.6L359,204l.45-.23.51-.09.44,0,.37.09h.38l.32-.15,1-1.41,1.06-1,.16-.23.3-.22.38-.21,1.25-.47.5-.31,1.22-1.22.31-.21.4-.18,1.74-.52,2.61-1.35.28-.11h.26l.59.16,2.08.19.72.19.31-.09.4-.27,1.29-1.5,1.24-1.85.27-.55.09-.31.1-.62.16-.28.57-.72.12-.37v-.31l-.43-1-.07-.29-.06-.33,0-.34.06-.34.1-.34.13-.27.16-.26.3-.25.4-.19.77-.15h.53l.43.1.64.28.71.5.52.45.26.09.33,0,.29-.2.3-.46.12-.35.24-.52.59-.66.15-.27.09-.28,0-.89.08-.23.1-.18.08-.08,3.42-1.87,1.19-.44,2.4-1.19.47-.1.37.07.21.2.83,1.17.07.17v.2l-.07.26-.31.75-.08.48,0,.35,0,.35.28.8.15.26.18.23.19.23.25.18.29.16.33.09h.34l.31-.06.44-.21,2.3-1.44.24-.12.22-.15.32-.28.37-.4.91-1.19.22-.4.65-1.45.51-.7,1.74-1.83.88-.68.81-.43.47-.19,1.78-.49,1.25-.62.42,0,1.06,0,.28-.12,1.54-1.12.57-.27.26,0h.19l.26.09.48.36.28.13.32.06.69,0,.29.06.28.12.21.16.16.19.1.28.06.3,0,.29.07.31.09.27.19.24.23.19.28.18.32.16.75.21.4.06.35,0,.43-.19.49-.31.81-.72.47-.24.5-.45.4-.52,5-9.49.2-.29,1.37-1.12,3.86-2.61.25-.1h.25l2.64.88,1.54.21.24,0,.1-.17-.09-.32-.14-.28-.67-1-.53-1.06-.09-.27,0-.43.18-.58,1.29-2.59.8-2.27v-.56l-.72-1.5-.08-.3.44-1.26Z"/></svg>