<svg id="Alabama" xmlns="http://www.w3.org/2000/svg" viewBox="0 0 373.59 371.93"><defs><style>.cls-1{fill:#ccabd1;}</style></defs><title>state</title><path class="cls-1" d="M325.16,21.44l-2.87.42-1.36.42-.61.5-.92,1.16-.44.38-2.67.56-1.88,1.21-5.11.94L285.35,38.55,261.3,59.06l-2.72.87-2.52,1.56-1.78.2-2.39-1.24-.66-.17-.83.41L248.91,62l-1,.28-1.89-.08-8.94-2.14-3.18.07-9.84,2.79-5.76,3.22-3.22.93-5.11.2-1.22.75-1.05,1-3.32,2.14-1.47.55-3.46-.2L196.39,70l-5.19-4.24-.7-.44-1.31-.6-.53-.37-.68-.91-.53-.83-.52-.62-.79-.29,1,2.13,3.11,2.77,1.53,1.78-3.57-2.59-2-1-1.87-.42-.88.11-1.16.45-.72.11-1-.1-.57-.29-1.51-1-3.07.54-3.68,2.35-3.49,1.44-2.5-2.19-.67.69-.84.39-.68-.24-.28-1.21-.73-.2L158.15,65l1.21-.64,2.67-.12,1.23-.64,1,.73.53-.39.37-.89.57-.74.7-.31.75-.19,1.89-.12,3.48-.8,1.65-.11,1.73.91,1.62-1.3,2.49-.63,5.07-.22-.48-1.62-.46-.94-.75-.49-2.83-.35-.77.1-1.2.7-.6-.44-.46-.65-.35-.35-.83-1.65-.92-1.13-1.31-.52.13.54L174.12,54l-.35,1.37-.38.88-.94.88-1.16.54-2.5.54-1.47-.06-2.58-1-1.23-.24-2.19-1-3.79-4.75-1.9-1.77-2,0-2.52-.64-4.62-2-2-1.39-3.46-3.71-1.73-1.12-.84,0-1.75.62-1.25.17-1.14-.15-5.75-1.81-.42-.78-.06-.91-40,1.53L49.06,40.67l-19.73.75q-.15,19.92-.3,39.84-.17,19.53-.32,39.06-.16,19.23-.29,38.46-.15,19.68-.33,39.35t-.31,39.21q-.15,19.49-.33,39-.08,9-.15,18l4.16-2.58,1.19-1.28.7-.56.9-.23.66.32.94,1.42.4.32,1.09.63,3.79,3.87,3.16.32,6.4-2.93,3.18-.64,1.6.92,1,1.77.79,1.74.84.77,1.44.28,1.82.67,3.13,1.66,1.12,1.2.79,1.61.44,1.76L67,307l.37,1.33.88,1.06,1,.91.79.91.7,1.56.46,1.71.26,1.94.08,2.28.7,1.65,1.62,1.22,8.29,3.11,1.65.2,6.64-1.3,1.75.26,3,1.42,3.16.89,1.15,1.38,1,1.7,1.14,1.53,5,5.1,2.94,2,3.25.71,1.49-.47,1.29-1.12.92-1.55.35-1.78.83-.61,5.23-1.71,1.65.17,1.53.62,1.4,1,1.22,1.21.68.38,2.64-.05,1.05.26,2.12,1,.94.66.53.67,1.78,2.92.92,1,.57.25,2.67-.63.9-.76,1.12-.68,1.74-.15,3.39.64,1.58-.08,1.31-.85.6-.94.79-2,.39-.73.6-.47,2-.76,1.05-1,1-1.31,1.18-1.14,1.53-.48,1.89-.29,4.52-2.3,1.93-.31.88.64.24,1.37v1.88l.22,1.84,1.8,6.27,2.17,3.63,3.25,1.83,3.44,1.2,2.85,1.8,5.35,5.46.76,1.34,1.23,3,.75,1.12,0,.07,2.7,1.24,3.25-.35,6.27-2.26,5.57-.46,1.34-.53,1.07-1.64L214,353l1.58-8.32.83-2,1-.88,3.57.53,1.65-.32,1.14-1.56.06-1-.17-1.28-.3-1.21-.7-1.65.13-1,.48-1.35-.24-2.39-.57-1.56-.68-1.3-.55-1.63.22-2.22,1.28-1.13,1.4-1,.85-2.19,1-1.67.37-.88.51-3.88,1.16-2.93,2.12-3.67,2.5-3.29,2.37-1.8,1.75,0,1.38.92,1.15,1.07,2.33,1,1,1.14.68,1.5.35,1.51.26.51.17.5.07.64-.16.55-.37.26-.35.16-.18.27-.22,1.26-.39.54-.15.46.53,1,1.4.73,1.62-.85,1.44-1.54.88-1.35.57-2.28.46-1.13.77-.48.91.33,1.3,1.41.81.33,1.47-.43,0-1.1-.68-1.49-.48-1.59.37-3.43-.15-1.69-1-.73-.46-.21-.54-.51-.51-.64-.29-.58-.32-1.25,0-.33.44,0,3.73-1.52.59-.88.16-2.18-.2-3.54.09-1.18.57-1.5L259.4,281l1.16-3.24,1.5-.44,1.84-.05,1.62-.63.51.71.59-.51.44-.16.46.16.57.51.88-1.18.52-3.71.59-1.7,5.59-5.39,1.19-.57,3.15,0,.7.75.7,1.68,1,1.78,1.46,1.07,1.75-.24,2.59-2.43,1.51-.6,1.53-.17,1.65-.46,1.49-.64,1.12-.75,2.11-2.33,1.34-1.12,2.94-1.1L303,258.8l1.71-3.16,2.39-2.71,8.26-6.53,5.11-2.95.14-1,.88-2.63,0-.46-.11-1.08.07-.42.33-.4,1.21-1,.39-1.85-.24-1.28-.79-1.12-1.16-1.34-.44-1.15.61-.8,1.62-1.06.39-1,.31-1.91.26-1,.46-1.12.47-.82,1.38-1.71.17-.79-.28-1-.39-1.12-.23-1,.33-1.48.79.11,1,.54.95-.12.51-1-.09-.91-.31-.8-.11-.64.54-1.65.68-1.16.57-1.34.24-2.2-.09-4,.29-1.85.81-2.37,1.6-3.38.63-1.75.53-3.44.7-2.22,1.56-3.81.7-.76,2-1.66.42-.58.72-3,.3-.57-.08-1.3-.48-2.16,0-.48.11-1-.06-.47-.33-.35-.51-.23-.48-.1h-.21l.14-2.27,1.51-3.81.37-2.19-.26-1.41-.66-1.73-1.67-3.25-2.45-3.35-.55-1.68.77-2,1.36-1,1.9-.65,1.86-.06,1.27.73,3.32-2.37,1.15-.32V13.22l-19.33,6.49Z"/></svg>