<svg id="Alabama" xmlns="http://www.w3.org/2000/svg" viewBox="0 0 285.59 371.93"><defs><style>.cls-1{fill:#ccabd1;}</style></defs><title>state</title><path class="cls-1" d="M167.6,270.84l-.38-1-1-.78-1.41-.78-.64,0-.64.74-.27.74-.08.84.09.84.25.74-.46,0-1,.09-.46,0,.62,1.4.13.81-.21.71-.29.7.21.37,1.9,1.14,1.12-.29,2.16-1.16v-.48l-1.11-.55-.43-.44-.31-.69.65-.31,1.36-.4.64-.35-.33-.86-.11-1m-11.72,11.37-1.15-.44-2-1.41h-1l-.47,1.42,1.29.44,1.05.8.44,1.1-.51,1.3,1.92,1,1.06.25.46-.42.36-.71.77-.45.67-.73.1-1.54-.54-.21-2.49-.39m102.64-56.55-.67-1.92,0-.31,0-.35v-.29l-.18-.12-.81.06-.16-.06-1.15-2.13-.6-.75-.87-.27,1,3.36-.08,1.6-1.27.91,0-1.73-.43-2.06-.77-1.36-1.07.38.31.41.28.8.17.34-.77.48.43.59-.79.22-.88-1.39-.64.11-.11.59-.11,2.35-.15.8-.81-4-.51-.83-1-1-.72-1.12.4-1.07.64.14,1.87,1.64.7.41.94-.32.54-.74-.06-.9-.84-.77.6-1.79.63.2.64,1,.6.6,1.16-.46.36-1.09.22-1.25.69-.93-.67-.79-1.08-2.43-.29-.52-.74-.38-.8-.95-.36-1.23.61-1.23-.74-1.38-.82-1.25-.62-.68-.36-.28-.35-.11-.12-.2-.29-1-.36-.83-.13-.52-.22-.44-.4-.19-1.13.08-.21-.08-.31-.91-.92-.41-1.29-.82-.69-.19-.69.2-.55.58-.1.6,0,.65-.29.73-1.92,1.24-2.05-1-1.9-2.13-2.07-3.42L230.82,192l-.2-1.26.34-1.53.54-1.31,1.36-2.51.31-2.89-3-5.39-.61-3,2.79-2.29.93-.88.23-2.8-.51-2.3-1-1-1.42-.17-1.71.25-2.53,0-3.09-.77-2.93-1.37-1.69-1.3-.78-.82-.32-.89-.37-.78-.6-.55-.42.12-.29.56-.4.46-.77-.19-1.34-.88-.79-.69-.37-1-.23-4.26.28-1.21.67-1.38.78-1.32.4-1-.18-1-.91-1.44-.38-1.33.65-1.14,1-1.1.64-1.23-.1-.72-.43-.6-.51-.55-.34-.6-.1-.77q-.22-16.11-.43-32.21c-.13-10.75-.3-21.51-.43-32.26q-.13-11-.3-22l-.2-3.22-.26-.54-2.3-1.3-.86-.77-1.59-2.56-2.46-2.1-.36-.68L204,38.3l-.48-.89-1.73-2.08-2.55-1.8-3.45-3.34-.79-.5-1.64-.75-.61-.43-1.57-2.16-.7-.68-2.75-1.57-3-.59-2.67.76-1.89,2.51-.15,1,.08.72-.13.45-1.36.35-.69.35-.71.15-1.75-1.18-1.39-.15-1.44.23-1.22.4L169,30.49l-1.26,1-1,1.2-1,.8-1.37.15-2.72-.14-2.44.67L152.06,38l-.92,0-7.45-4.8-1-1.66-.33-1.7-.1-.49,0-2.73.65-4.87,0-2.38-.87-1.11L133.59,16l-.84.07-.76.48-.91,1.06Q122,30.84,113,44,104.3,56.67,95.6,69.27L90,77.44l-.88,3.45Q88,89.58,87,98.27l-.71,2.08-4.37,3.75-.79.38-1.16.78L79.44,107l-.13,1.73-.13.78-1.21.38-.69,1-1,2.95L74.78,117l-.22,1.6,1.2.69.79,1.63.28,1.74-.3,1.63-.84,1.12-2,1.39-.68.77.06.62.38.47.21.34.26.31.16.31.07.43-.13.29-.52.51-.14.25L72.78,134l0,1.28.69,1.14,1.31.75,1,.2.41.63-.36,2-1.16,2.6L73,144.44l-4.3,3.39L67.62,149l-.29.5-.1.84.18.48.31.49.25.84.08,1.7-.28,1.44-.67,1.16-1.1.87-.63.18H64.13l-.65.31L61.8,159.2l-3.2,1.54-.95.83-5.39,6.25L49.83,173l-.1,1.29.53,1.63.85,1.15,2.18,1.37,1,.92.49,1.49-.67,1-1.23.53H51.7l-1.18-.68-1.91-2-1.08-.61-1.28,0-1,.56-.72,1L44.09,182l-.1,1.58.18,3.51L44,188.56l-.41.69-1.12.85-.42.56-.11.71.09,1.48-.22.76-1,.87-.8-.92-2.49-6.75-.9-1-1.39-.26-1.3.37-.62.67-.51.89-1,1-.54.27-1.11.21q.79,15.45,1.6,30.9.82,15.91,1.65,31.83.86,16.09,1.69,32.17.81,15.52,1.64,31c.16,3,.31,6.09.49,9.14L37,326.45l0,1.16-.15,1.08-.1.37,0,.47,0,.67.16,1.11.07,1.28-.16.85-.54,1.87-.08.45,0,.53.07.59.23.87.29.63.38.63,1.72,2,3.5,5.27,2.15,1.42.34.4.26.55.2,1.09,0,.67-.07.6-.56,2.29-.08.85.05.46,1,1.88,3.48,4c.23-.78.47-1.57.71-2.35l-.12-.44,1.05-.12.79,1,.74,1.24.84.48.65-.64,1.62-4,1.07-2,.69-.7.93-.49-.79-.52.73-1.39.81-1.15L58,347.78l.08-1.83.62-1.79.8-1.56,1.76-2.33.6-.6.6-.15,1.66-.08,1.35-.6.93-.94.84-1.06,1.07-1,.46-.21.71-.08.35-.28.15-.35.23-1,.18-.41,1.07-1.42.66-.6.75-.4v-.48l-.62.09-.57.25-1.08.7L70.31,330l-.13-1.47.18-1.45.61-1.65.71-1,1-.77.84.09.13,1.63.87-.58,1.16-1.71,1-.33-.18.52-.25.52.8-.17,1.43-.71.84-.16.11-.49.26-2.37,0-.83-.72-2-1.15-.5-1.45.08-1.62-.19v-.57l1.67,0,.77-.28.59-.79-.08-.68-.26-1.07,0-1L79.18,311l1.44-3.21,1.22-.73L84.72,304l.55-.24.61-.09.73-.25,1.36-.73.58-.47,1-1.32.59-.64.69-.45.75-.09-.33.91-.51.77-.56.58-.51.36.76.12,1.85-1.54,1.21-.16-.64,2.16L90.25,307l-1,2.07,1-.11.86-.8.58-1.2.23-1.27.34-1.19.8-1.71.9-1.51.64-.59.22,1.59-3.69,7.9.45-.06.35-.24.24-.43.2-1.26.3-.24.4-.14.39-.3,2.28-3.14.24,1.07.61-.16.66-.85.39-1.06,0-1.38-.33-.9-.59-.56-.67-.4.39-.54.46-.36.52-.16.56.06.67.3.05.28-.23.45-.15.81.18.71.84.75.18.66-.08.79-.23.31-.28.22-.19.54-.16,1.77,0,1.27.33.58.56.49.15,2.37.63.85.29-.89.47-.86.6-.65.71-.26.18-.34.38-2-.12-.73-.52-1.39-.5-2.62-.06-2.71-.72-6.08-.72-3.06-1.07,1.36-.59.58-.62.17-.49-.28L97.2,292l-.06-.73.33-.79,3.34-3.87.84-.6.54-.25.64-1.08.7-.24.29.41-.5.9L102.2,287l-.53,1.65-.14,1.66.2,1.6.1,1.44.3.86,0,.87,0,.9.06,1,.2.83.39,1,.16.82.39,3.71.13.06h.26l.28.16.12.55-.08.21-.17.2-.13.32,0,.56.47,2.16.72,0,.8-1.31,1.3-3.91.15-1.16-.41-.55-.58.38-.75,1.81-.58.48.76-2.11.16-1.08-.13-1.05-.46-.4-.69-.34-.36-.56.54-1.09,5.15-8.35.75-.91.76-.48.8.1-.21.65-.62.73-.35.33-.95,2.77-.18,1,.23,1.24.56.43.64.32.46.91-.36-.13-.71-.16-.4-.23-.22.61-.09.44.07.42.24.57-1.15,1.84.07.51.67.8.95.93.85.46.8-.09.84-.74-.07,2.56.2.62.63-1.08.29-1.33-.12-1.28-.37-1.16-.56-1,.31-.48.1-.59-.1-.58-.31-.49.31-.47.28-.65.13-.68-.15-.55-.08-.53.29-.66.74-1.21.73-2,.51-1,.61-.7.28,1.28-1.65,3.06-.47,1.77.11.56.53.51.11.52-.06.38-.26.9-.08.5-.23.81-.28.7.07.72.85.91-.41.56.75,1.11v-2.53l.12-1.19.29-1.09h.35l.23,1.13.46,1,.41,1.12.09,1.6,1-1.25.86-2.24,1.72-6.71.38-1.07.59-.9.35.11.92-.21.71-.63-.4-1.86.62-.41.79-.37.39-.61.3-1.22h.56l.39.75-.27,1-1,1.23,0,.44,1,.16.27.45-.34,1-.91,1.68.91,0,1.39-.84.79-.22.6.39-.59,2.07.18,1,.64-.67,3.36-4.39,1-.08-.54,1.34-1.69,2.76-.2,1.94.29.15,1.08-.28.64-.27,2-1.3-.57-.6-.12-.8.23-.88.46-.87.49.24.36-.1.23-.45.08-.78,1.57.67.62-1,.25-1.48.43-.76,1.51-.22.87-.68.59-1.16.64-1.68-1.85.2-.13-.88.36-1.32-.29-1.15v-.48L142,278l.56-1.09.79-2,1-3.69.82-1.17,1.24-3.63.8-.5,1.15-.51,1-.73.45-1.14-.38-1.3-1.58-2.72-.13-.79.18-.91-.57-.61-.25-.58,1.18-.83,2.56-.74.72-.56,1.49-1.54.94-.53.8.19-.49,1.31.66.17,1.15-.56,1-.92-.78-.42-.34-.06,1.13-4.29.32-2,.31-.13.93,0,1.84.53.2,1.37-1.69,3.94-.11.49-.1,1.19-.13.48-.31.38-.66.41-.22.23-.38.88-.39,1.25-.12,1.23.51.87.64-.13.62-.79,1-1.68.55-.5,2.1-1.13.05,1.08,1,1.7-.3.44-.55-.1L161,257.1l-.36,0-.62.72-.72.61.31.61.35.88,0,.8-.53.35-.45-.17-.52-.72L158,260l-.79.58-.44,1.37-.49,2.86,1.61-.14,2-1.4,1.33.48,1.55,1.79,1.13.82.94-.29,1.85.16,5.11,4.55,1.6-.69-.64-.36-.51-.42-.41-.56-.31-.82.8.59.49-.23.13-.81-.29-1.14-.47-.46-.62-.13-.56-.3-.23-.94.22-.9.8-2.09-.06-.72-.48-.86-.64-1.81-.64-.8,1.4.4h1.29l1.2-.6,1.08-1.44.28.79.1.84v1.83l.23.37L176,259l.52-.93.28-.7,0-.61-.13-.27-.23-.17-.28-.3-.18-.47.08-.33.18-.34.11-.44-.13-1-1-2.43,1.58,0,1,.54.47,1.21-.18,4.18.2.93.77,0,1.47-.49-.21-1,1.36-1.66.4-1.57.94.85,1.14.3,2.46,0-.16-.27-.15-.28-.16-.29-.28-.26.91-1.55-.64-1-1.8-.86.31-1.45.77.1,1,.58,1,0-.05,1.28.28.83,1.79,2.11.16-.45-.05-1.08.14-1.16.86-1.89.46.4.2,1.74,0,2.18.13.56.31.24.84,0,.48-.18-.05-.45-.21-.52v-.44l.16-.52v-.45l.11-.4.49-.31.31.06,0,.4,0,.44.21.21,1.54.5.2,1.28-.24,1.73.28,2,.56,2.32.51,1.27.33-.24.87-.34-.38,1.14-.16,1,.2.86.69.77,2.28-3.75.29-.68L201,259v-.25l.54-.27.33.12.1.48.17.44h.55l.33-.33.23-.58.13-.65.07-.56-.16-.2-.58-2.1,0-.38-1.73-1-.71-.74.72-.35,1,.51h.53l.23-.74v-.8l.1-.61.28-.39.58-.13.18,5.1.08.64.21.34.29.26.36.38.56.44.15-.6-.14-1.45.12-1.26.37-1.32.61-1,.82-.39-.7,1.58-.48,2.2.13,2.05,1,1.1.15-1.93.82-3.47-.24-1.53.67.32.75.24.62-.25.26-1.13-.26-.89-1.1-1.66-.15-.92.33-.21.64-.11.64-.41.49-2.05.49-.51.61,0,.59.65.4-1,.51-.88.42-.12.2,1.21-.34,1.18-.6,1.26-.23,1,.57.73.23.32.15-.75-.15-.35,1.69-3.72L216,243l.23.59-.64,3.9.18,1.25.48.91.67.55.77.19,1.69-3.67.85-1,.51-.41.57-.13.29.36.18.7,0,.57.06.64-.06.36.06.24.56.32.41.09.51,0,.48-.11.34-.23.42-.17.66-.16.49-.26-.08-.48-.25-.68.1-.68.21-.68.13-.61.06-2.4-.41-.6-1.15.1,2.18-2.17.85-.17.35,1.75h.38l.51-.85.62.09.36.76L229.3,242l.87.35,1,.13,1-.11,1-.37-.75-.78-.08-1,0-1.19-.35-1.33,1.25.43.44,1.54.25,1.9.72,1.49.27-.77.35-.47.9-.94.15.2.51-.08.16-.4-.82-.78.59-1.57-.33-1-.67-.91L235.4,235l.59.6.65.4.69,0,.76-.54-.76-.49,1.61-.83,1,.69.16,1.42-.89,1.38v.58l1.05.58.73.79.79.64,1.23.11-.59-1.28v-.66l.39-.22.61,0,.13.14.89.68.46.19h1.56l-.28-.72-.13-.28.48-.47,1-.34.48-.25,3.12-3.53.51-1,.55-1.42.41.59.25-.46.44-1.4,0-.27.54-.11,1.18.18.56-.07.74-.61,1.9-2.34.43-.82-.12-.26m-70.1,32.19-.16-1.51-1.63-1.14-2.33.17-2.17,1.06L181,257.92l.64.68-.18.69-.64.53L180,260l-.47.38-.49.91L178,264l-.29,1.05,0,.93.42.4.82.24.4.5-.18.54-.84.32.54,1.21,1.89.94.64,1.06.26-.16.64-.26.25-.16.36,1.29.85-.18,1-.93.69-.95V269l-.72-.76-.59-1.08.34-1.82h.39l1.3,1.24,2.36-.17,2.33-1.09,1.25-1.52-.49-2.23-3.13-3.71"/></svg>