<svg id="Alabama" xmlns="http://www.w3.org/2000/svg" viewBox="0 0 473.91 371.93"><defs><style>.cls-1{fill:#ccabd1;}</style></defs><title>state</title><path class="cls-1" d="M452.65,312.17l.69-1.86.41-2.33,0-1.07-.4-3.1-.25-.47.08-1,.12-.63,0-.55L452,298.92l-.26-.71-.19-.9-.14-1.7.14-5.44-.36-1.78L450.3,287l-2-2.3-3.38-5.48-.38-.92-.11-.85,0-.75-.08-.63-.36-.65-.95-1.1-.33-.6.4-1.7-.05-1.79-.34-3.13-.4-1.66-1.84-2.65-.58-1.17-.12-1.82.7-2.94.21-1.9-.19-1.85-.82-3-.17-1.33.14-.85.53-1.4.16-.58.08-.93-.08-2.86.19-.88.82-1.17.31-1.36.21-.38.1-.38-.22-.53-.36-.37-.69-.2-.59-.44-.69-.19-.31-.23h.24l0-.63-.21-1.12-.72-1.33-.31-.77-.12-1.12.41-5.59-.05-1.7-.81-3.49v-1l.16-.85.19-.73.1-.65-.2-1.82-.88-4.15-.19-1.93.43-10.88-.22-.85-.52-.73-.52-.6-.29-.43,0-1.78.93-4.34v-1.25l-.57-1.46-.05-1.52.11-1.7-.07-2.07.07-.31.18-.42.16-.48,0-.55-.26-.45-.93-.78-.7-2.37-.34-3.06-.6-1.5-.79-1.34-.77-1.74-.72-3-.45-1.08-1.37-1.75-.21-.34-.06-.21L429,162l-.21-.08-.21-.17-.12-.38.33-.64v-.5l-1.5-4.24-.15-2L428,152l-2-2.42-.95-2.94-.65-3.23L421.8,137l-.91-3.13-.45-3.29v-3.6l.86-6-.28-1.37-.4-1.23-1-5.71.21-1,.71-1.58.27-1,.05-1-.32-1.39-.31-2.77-1.37-5.09.52-3.69,1.54-3.17,1.22-3.35-.5-4.23-1.34-3-.48-1.47-.43-3.41-1.72-4.73-.43-3.07-.31-.79-.4-.75-.34-.8-.47-2.94-.6-1.38-.46-1.44.18-2.14v0H18.66q.05,12.93.12,25.85.08,17,.16,33.9t.17,34q.09,17,.17,34t.16,34.15q.07,17,.18,34,.09,16.77.16,33.54.07,16.26.17,32.52H453.78l-1.15-6.24Z"/></svg>