<svg id="Alabama" xmlns="http://www.w3.org/2000/svg" viewBox="0 0 236.95 371.93"><defs><style>.cls-1{fill:#ccabd1;}</style></defs><title>state</title><path class="cls-1" d="M196.78,55.59l-11.09-6.74L174.64,42.1l-11-6.75L152.5,28.59l-11.06-6.77-11-6.78L119.3,8.27l.07.26L117.16,10l-2.51.15-1.12.43L112,11.92l-1.19.15-.59.41-.33.61-.59,1.46-.23.41-6,5.66-.83,2-.1,1L101,27.74l-2.65,6.52-5.8,7.87-1.45,1.2-.8.31-1.15.72-1.09.84-.47.72.07,1.81-.07.39-.39.16-4.59,5.8-2.08,1.71-2.47.68-1.65.71-2.68,1.78-2.5,2.32-1.18,2.33.26,1L71,65.8l1.28,1.82.1.59-.1.66,0,.55.43.23.66,0,.66.18.45.48.21.86.82,1.25,1.75,2L78.81,77l.43,2.82-1.11,2.54L76.57,83.4l-1.35,1.43-.56,3.55-.76,2.7-1.84,1.47-2.29.25-2-1-1,2.48L66,95.47l-.83.49-.52.57.13,1.22.43,1,.33.08L64,103.07l-.43,2,.36,1.84.43,1.48L64,109.46l-.1,1.43.43,4.64L63.8,117l.2,1.55.45,1.54.86,4.07,1.41.6,3.34-.65,5.67,1.81,1.91,3.89.83,11.39,1.11,2.73,2,3,2.48,1.73,4.39-1.65L90,149.44l1.56,5.64,5.83,5.18,1,1.39.36.86,3.76,5.37,3.5,4.31,6,5.17,2.84,3.12,1.18,3.16-1.39,2.84-3.23,2-3.7,1.21-2.84.39-1.06.57-3.89,3.5-1.13.55-4.22,1.34-1.72,1.12-4.39,4.94-1.53,1L83,205l-1.75,2-4.42,7.12L76.17,213l-1.51,2-1.94-.75L72.25,216l.73,2.72L74.66,221l-1.82,1.35-1.61,1.93-1.65,1.3L67.73,225l-.63.75H67l-.17.09-2.67.76-4.06,1.88-1.87.39-2.48.16-4.79,1.09-6.3,2.82-4.32,3-3.83,3.75-2.41,4.19-.16,4.16-.23.68-1.26.48-.72,1.06-.5,1-1.51,1.24-.43,1.77-.26,2-.33,1.41-.69.71-2.11,1.27-2.48,2.57-.09,1.11,1.22,1.77,3.76,4,.36,2-1.23,6.57-.26,2.76-.89-.5-.63-.68-.43-.82,1.09,4.46,2.6,3,3.4,2.37L43.71,301l.4.73.56.74.85.67.57-.09.69-.5.85-.43,1,.14,1.19,1.5.85,2.28,1.09,2.08,1.81.92H57.8l.82.63.9,2.76.92.63,1.58.67,4,3.22L67,318l.13.84-.36,1.78.24,1.21.85,1.29,1.58,1-.16.64,2-.09,1.29-.73,1.18-1.06,1.59-1.07,3.49-.85,2.34-.16,1.52.56.43,1.19-.07,1.09.13.8,1,.32,1.06-.14,1.92-.61.85-.14,4.49.11,1.84.57,1.78,1.28,2.11,4.7-.8,5.62L91.92,348.1l-.69,2.78-.36,2.93-.1,3-.5,1.75-.79,1.21-.17,1.07,1.46,1.35,1.16.29,1.25-.28,6.47-2.6,4.36-2.71,3.69-3.45,2.21-4-.19-1-.47-1.31.14-1.13,2.67-.75,1.15-.64.93-.83,1-2.25,2.6-3,.59-.93-.19-1.59-.69-.89-1-.14-1.16.66-.16-.49,0-.28-.1-.16-.52-.06,1-1.33,1.16-.63,1.22.13,1.16.94,5.28-11,1.26-1.8,2.5-1.34,4.65-6.41,3.17-2.14v-1l-6.11,2.06-1.42-.5-1.29-.82-1.45-.66-2-.08,2.08-2.47,3.07-.82,7.13.25v-.79l-.5-1.89,1.45-2.59,3.63-4.55,3.14,2-3,3.06-1.39,1.86-1,2.06v.79l3-1.09,6.54-4.16,3.45-1.44-.92-2.61-1.42-2.85-1.77-1.65-2,1,.12-1.84.59-2,.83-1.83.73-1.17,1.72-1.3,1.22.15,1.2.72,1.68.43,1.41-3.43.4-2.38-1-1.08-1.35-1.07-.56-2.55-.1-5.34,1,1,1.29.81,1.45.15,1.65-1,4.2,3,.36.72.19,1.46.59,1.14,1.52-.29.78-2.1-1.44-2.66-1.32-3,1.29-2.08,1.11-2.23,1.23-1,1.39-.64,1.55-1.16,1-1.4.92-1.63,1-1.34,2.94-1.42,1.39-2,2-4,.7-.83,1.41-2.09.64-2.12-1.59-1-1.77-1.91.56-4.3,1.68-4.68,1.48-3,2.08-2.57.17-1,0-2.82.4-2.27,1-1.72,2.6-2.44-1.09-.84L182.58,217l2.31-2.31,1.13-3.09-.4-2.11-2.27.57.47-2.27,1.41-.81,1.82-.25,1.72-.63,1.35-1.55.85-2-.23-1.48-2-.06v-.9l1.91-1.8,1.16,1,.59,2.78.16,3.39-.26,3.19-.69,2.34-2.17,5-1.75,23.76,1.61-3.18,1.82-14.94,1.45-4.74-.68-.9.85-2.37.63-6.55,2.31-5.48v-3.47l-1.06-2.9-2-1.16,2.18-3.89,3.86-12.12-.31-3.81,1.46-3.4,1.82-3.16.92-3.16-1.28-19.78-1-3.8-1.65-2-1.36,1,.36,3,1.29,3.28,1.28,1.85-2,.54-4.39-2.8-9.8-3.46-2.91-.36-5.71,1-1-.3-1.78-1.32-3.87-1.19-1.11-2.17.3-2.66,1.65-2.35-.83-.91.1-4.6-.1-.58.89-1.18,2-1.67,1-1.15,1.19-2.68,1.35-5.76,1.25-2.57,1-.93,2-1.31.84-.76.65-1.24.83-2.65.78-1.11,2.28-1.45.36,1.41-1.88,6,1.75.09,1.32-.43,1.06-.9,2-2.63,2.54-2,2.45-2.44.69-.93.36-1.24.06-2.07.28-1.64,1.05-2.59.93-3.84,4.65-7.59,4.09-10.71,1.15-6,.07-2.77ZM156.39,284.81l1,2.57-1.45,1.52-1.65,4.34-1.48,1-1.56-.78-.89-1.75-1-1.22-1.94.78,2.53,3.77,3.61.66,3.79-1.78,3.21-3.54,1.46-4,.49-.17.92-.67.33-.71-5.54-.79Zm27.85-39.43-1.65,3.37-.66,3.37L170.74,270l-1.11,3.49-.6,1.27-.16.69-.07,1.08,2.64-3.53,5.12-11,4.68-4.59,2.41-5.13,2-5.67.86-3.84-1.26,1Z"/></svg>