<svg id="Alabama" xmlns="http://www.w3.org/2000/svg" viewBox="0 0 473.91 371.93"><defs><style>.cls-1{fill:#ccabd1;}</style></defs><title>state</title><path class="cls-1" d="M391.76,249.81l-1.41.95-.92,1.57-.46,2,0,2.08h.7l1.76-4.3.11-1.62.35-.17.14-.17-.06-.15ZM461,162.55l-.7-.44-.87-.16v-.74l2.46-.75q-13.72-13.94-27.46-27.86Q421,119,407.58,105.27q-14.21-14.49-28.41-29Q371,67.9,362.79,59.52L361,58.9l-2.79-.51-3.43-.06-1,0q-19.34-.38-38.68-.84c-13.23-.31-26.46-.69-39.69-.92l-10.9-.22-1,0-3.63-.07-.7-.21-.57-.57-.19-.71,0-.76.35-11.5-.05-.73L258.3,41Q252.13,32.9,246,24.73l-.3-.36-.3-.16-.41-.06-.62.34L236.78,30l-.51.17-.49,0-.62-.51-.32-.49-.33-.54-.13-.54-.09-.49,0-.46.09-.41.13-.47,1.06-2.13.19-.58.05-.6,0-.59-.13-.55-.19-.45-.27-.44-.36-.4-.38-.36-.76-.3-1.17-.23c-12.81-.67-25.62-1.37-38.43-2q-20.18-1-40.36-2.09c-8.35-.44-16.71-1-25.07-1.3-2.48-.16-5-.27-7.45-.4l-6.93.64-.37-.14-.36-.24-.22-.26-.41-.65-.3-.36-.32-.32-.63-.06-.65.24-1.35.9-.6.56-.46.63-.49,1.65-.49.47-.7.24-3.3,0-.6.24-.7.63-.44.45-.49.25-.68.16-3.3.06L96.8,19l-4.71,1.54-3,1.6-.87.32-.7.1-1.09-.07-.76.06-.62.48-.29.62-.38,1.28-.65.65-1,.73-2.17,1.17-1,.71-.81.4-.48.1-.67-.24-.36-.4-.38-.94-2.95.64L47,36.69l-1.68,0,.06.13-.14,1.35-.54,1.3-.78,1.28-1.05.94-2.44.78-1.17.6-3.73,2.71-1,1.22-.81,1.6-1.32,3.53-.92,1.57-1.21,1.11-1.41.89-1.22,1.08-.75,1.61-.38.62-.13.84-.06.9-.19.9-.38.89-1.57,2-.87,4.68,2.9,4.09,8.36,5.45,3.09,1.51,2.17-.63.65.16.16,1.49.71,1.38,3.4,1.92,1.92,2.59,1.95,1.25,1.46,2.63,1.49,1.64,2.95,1.66,4.33-.14H65.1L69,96.7l1,2.89.46,3,1.25,3.57.84,1,5.23,8.12.73,2.49,1.73,9.42.52,1.54.62.49,1.51,2.06,2.16.9,1.17,1.05,1,1.25.71,1.1,1,3.06.77,1.55,2.13,1.16.79,1.22.94,3.06,1,2.6.7,2.87,1.14,1.24,1.47.54h1.84l1.46,1.48,1.6,2.33,2.16,2.46,2.85,1.92,3,1.35,3.52,2.33,3.87,3.11L122.6,172l2.49,3,1.14,4.93,1.49,2.16.78,2.43,1.3,3.2,1.85,2,2.14,1.45,2,.92,4.36,1.3,1.81.9,1.92,1.6,3.85,4.9,1.89,1.76,3.68,2.55,1.31,1.89-.65,2.36.46.56.78,1.68-1.45.24-.24.82,1.13,2.68-1.3.68.62,1.64,3.9,4.66.75.67.36-.54.43-.51,1,.14,1.09.43.62.35v.73l-1.24.67,1.57,1.22.65,1.28-.3,1.14-1.3.83,1.4,2.47,1.44,1.34,1.65.6,2.06.14.63.89.51,4.37.46,1.51,3.28,2.71,8.07,3.34,3.73,2.13,2.6,2.52,1.38.88,2,.34,1.14.79,1.14,1.83.86,2.22.33,1.85-.76,3.71v2.11l1.08.91,4.68,8.18.87,3,.27,1.68.11,1.62.51,1.65.91,1.51.54,1.73-.07,1.47-.57.74-.24,1.32-.35,1.14.24.49.43.3.55.73.43.84.18.73-.3,2.09-.48,1.64-.1,1.61.88,1.75,1.17,1.18,1.65,1.16,1.89.95,2.73.51.84.43.73.57.67.67,1.38,1.6.48.41.33-.08,2,1.08.49.4.32,1,.19,1.25.47,1,1.24.44,1.28.78.4,1.82-.09,3.38L224,327l1.38.45,1.11,1.28.74,1.89.19,2.28-.19,1.27-.71,1.47-.3,1-.16,1.18.16,2.82-.18.64-.87,1.85-.19,1.19.24.7,1.62,3.44,0,.35-.16.44-.08.6.27.78.4.48,1,.57.48.4,2.66,3.28.81.46,5.3-.44,2,.44,3.69,1.76.62.78.58,1.49,1.41,1.08,1.68.62,1.84.17.08,0-.54-1.51.14-1.32.65-1.14,4.17-5,.92-2,.33-2.65.46-.73,2.08-2.22.65-1.14.22-1.51.05-1.44.25-1.24.74-1,.24,4-3.14,6.76-.84,3.93,7.66-4.74,3-4.14,2.46-2.6.06-1.16-1.28-2.09-.84-1.06-1.08-.92-1.38-.3-1.65.77-2.82-5.07-.7-.83-1.41-.69,0-1.48,1-2.6-.87-2.71-1.73-4-1.2-3.89.73-2.47v-.73l-.7-1.16-1.32-3.12-1.11-1V307l1.73-.06.78.94.47,1.44.78,1.38,1.47.78,1.14.17.24.51-1.28,1.89.08,2.28,1.06,4,2.31,6,6.19,5.52,1.25.73,1-.3.41-2-.21-1.13-.9-1.72-.21-.84,0-7.36.38-1.43.89-1.28-.54-.33-.09-.35-.6.14-.27.14-.16-.22-.24-.84,2.44.17.54,1.86-1.71,7.77.49.59,3.26-1.48-1.2,6.76-.05,2.82.54,2.85,1,.46,3.54-1.76.67,0,1.46.21,1-.19,7.56-4.74,1-1.57-1.68-1.06.3-.13.27,0,.17-.14-.06-.56h.57l1.19.49,1-1.73.68-2.59.35-2.12h-.67l-.41.92-.7.78-1.41,1.3-1.11,1.14L285,326.54l-2.44,1.08-1.73.19,0-1.08,1.6-1.75,2.16-1.66,4-1.67.49-2L288,317.55l-2.36-.94-8.45-.68,2.19-.91,2.62-.57,2.73-.16,2.46.19v-.82l-1.24-.54-2.22-1.32-1.22-.26-1.05.1-1.68.46-1.08.08-8.12-1.54-1.65.9v-.82l0-.67.73-1,.89-.52h2.85l6.52,1,2.3-.3-.54-.94-.49-1.08-.3-1.18,0-1.28h.68l.65,1.38.7.84,3.41,3,1.11.3,1.21.06,1.73.4,1.44.87.81,1,.87.79,1.54.32,1.33-.64.81-1.6.3-1.95-.27-1.78,1.25.7.37,1.11.14,1.25.48,1.1,1.22.92.73-.22.7-.65,1.11-.37,6.61-4.82,1-.49.87-.56.62-.92.34-.94-.1-.24-.51-.17-4.25-3.84-1.11-1.38,1.35-.27,1.74,1.16,2.89,3.14,2.17,1.87,1.31-.37,1.27-1.19,2.14-.71,2-.32,4.25-1.44,4.84-.81.87-.81-.67-1.11-2.09-1.44v-.68l.84-.54,1,.09,2.24.45,2.33,0,1-.44,5.36-3.76,1.46-2.19.3-3.25h-.62l-.11.65-.27.07-1.3-.84-.54-1-.78-.78-3.24-.76-1.34-1.05-.91-1.43-.38-1.55,1.29,1.14,1.25.73.9-.13.38-1.42-.22-1.7-.84-2.73-.22-1.52.54-.3,3.22,2.15-.16-.38.11-.76.4-.73.63-.36,1.59,1.48L340.42,277l-.79,1.73.65.76,1.59.6,1,1.27.78,1.31,1,.6,2-.43,2.76-1.14,5-2.87,1.54-1.95,1.44-2.49,1.76-2.15,2.44-.88.46-.36.3-.78.41-.75.78-.36.67-.19,4.5-2.55.68-.81.67-1.65-1,.27-.87.46-.71.65-.49.87-1.11-1.74-.46-1.27.13-1.25L368,257l1.11-1.44,1.35-.6,2.89-1.87,1.7-.51.76,1.3.25.82,1.21,2.16.41,1.14L379,257l1.79-.73,2.05-.47,2.09-.17,2.32-.5.68-1.36L388,252l.65-1.92,1.81-1.62,4-1.79,1.38-1.46.24-2.33-1.62-.81-2-.54-1-1.46,1.9.22,2.05.5,1.65,1.08.65,1.85.57-.18.49-.3.41-.41.43-.6-1-1L398,240l.09-1,1.27-.44.74.35.73,1.87.78.81.71-1.71,1.16-1.08,1.34-.81,1.13-.92-1.27-.46-.51-.54-.68-2-.19-1.27.09-1.25-.24-.92-3.15-.84-2.16-1.22L396,226.75l-.73-2.09.27-2.29.76-2.33,1-2.16,4.09-5.8,1.86-1.78,2.06-.94V210l-1.06.95-3.31,3.9-2.38,5.06-.81,2.52.32,1.14,3.82.06,1.21.6,1,1.51.43,2,.11,3.92.7,1.58h.57l.08-2.55L408.4,218l.71-1.19-.71-.76,2.12-4.58q9-12.25,17.9-24.58l6.47-6.85,9.55-8.16L454.2,166l3.84-1.52,3.85-.24-.38-1Z"/></svg>