<svg id="Alabama" xmlns="http://www.w3.org/2000/svg" viewBox="0 0 473.91 371.93"><defs><style>.cls-1{fill:#ccabd1;}</style></defs><title>state</title><path class="cls-1" d="M466,187.82v-1.48l-.11-1.1-.48-.68-1.07-.23-.66-.44-1.74-2.11-.72-.7-5.95-3.63-.95-.21-.94-.5-1.48-2.2-2.28-1.38-.64-2.16-.17-5.36v.65l-1.23-3.2-2.16-2.21-6-3.88-2.22-1.93-1-1.34-1.07-1-2.12-1.18-.86-1.34.91-2.06.88-2L434,145l-.58-1.45-1.74-2.7-.58-1.07L429.76,136l-1.09-1.42L427,134l-1.62-.26-3.19-1.23-11.92-2.34-3.05-1.4-1.58-1.21-.87-1.22-2.37-4.72-.27-1.76-.21-4-.41-1.7-.67-1.33-2-2.5-.76-1.6-.36-2.1-.08-4.36-.33-1.07-.12-1.16,0-3.49-.53-3.23-.37-6.67.78-3.32,3.7-5.15,1.3-2.94-.12-3.56-1.71-2.16-6-2.48-.8-.67-.53-1-.31-2.63-.23-1-.35-1-1-1.94-.35-1-.21-1.11-.06-1.19.1-1.21,0-.13H50.88c-11,0-22.06,0-33.08.12l-.25.23.16.65.23.52.16.6,0,.69L18,58l0,.87,0,.79.35.9.33.53,1.28,1.45.55.77,1.19,1.39.27.38.16,1,0,4.93-.22,2.34-.19.33-.26.33-.38.23-.49.1-1-.13-.47.07-.18.44.06.65.58,1,.51.42.39.4.09.35-.21.34-.62.7-.23.41-.09.51.13.52.43.49.53.21.57.05,1.09-.06,1.59.28h.47l.72-.09.45,0,.39.21.29.36.18.45.23,1,.6,4.14.21,1,.21.72.08.62v.76l-.75,3.82-.27.66-.28.53-2.33,2.27-.13.44v.52l.29.55.25.35.12.28.06.44-.16.67-.45,1.3-.31.48,0,.11,0,.24,0,.33.11,1.87-.27,1.1-.26.6-1.3,1.46-.09.22-.1.65-.15,2.58-.16.74-.14.42-.25.23-.33.35-.15.41-.12.57-.06,1.25-.1.52-.17.37-.26.15-1.09.48-.25.16-.27.26-.26.35-.23.41-.17.48-.14.53-.18.49-.21.41L15.88,122l-.6,1.33-.29.89-.18,1.3.16.77.35,1L16.43,129l.64.78.56.54,3.72,2.82.62.61.55.66.21.37.08.38-.23.41-.76.64-.09.12-.21.38,0,.24.11.27,1.21.72.33.26.29.33.25.38.45.88.21.55.1.56-.06.77.06.59.33.52.39.26.49,1.14,0,3.33,3.09.52,1.67.59,1.19.93,1,3.9-1,4.15-.35,4,2.35,2.87.08,1.52,1,.84.74,1.23.41,1.59.13,2.17-.33,1.82L35,175.13l-.25,1.73.64,2.29,1,1.46,2.35,1.59L40,183.34l.77,1.61.12,1.77,0,1.93.27,2.08,2,2.7L46,195.18l2.53,2.09.8,3.72-.25.91-.68,1.82-.08,1.1.26.84,1.11,2.47.31.52,4.11,4.4.68,2.14L54.56,217l-.62,1.68-.33,1.77.09,1.26.09.53-.19.42-.72,1-.45.75-.18.71,0,4,.21,2.08.52,1.68,1,.7v.81l-.41,1.83.11,1.94L55,239.19l.88-.1,1.38-.89.6-.22.82.29.89.64.55.63-.1.29-.35.45-.41,1L59,242.51l-.15.88.42,1.12,1,.58,2.86.65.58,0,.45.24.45,1-.68,3.8v1.05l-1.65,5.9,1.13.64,3.15,1.08,1.21.18.66.84-1,1.81-1.5,1.67-.76.45-.54,3.91.06,1.52,1,1.16,3.13,1,.88.74-1.62.81.35,1.39.17,2.95.43,1.32-1,2.59-.41.61v.57l.31.21.14.27.12.37.29.47.37.7-.24.49-.42.5-.14.77.35,1.08.58.7,1.23,1.08.47,1v.88l-.28,1.93.14,1.23.87,2.26.21,2.29-.39,1.74-.54,1.7-.28,2.16.16,1.09.68,1.24.16.77L69.88,310l-1,1-.31.51-.21,1,0,1.26.35.72.41.61.18.88.77,1.51,3.66,1.57,1.34.94.68,2-.06,2-.25,1.52h.29l2.66,0,34.76-.26L148,325l34.89-.27,34.93-.27,35-.26,35-.27,35-.27c11.39-.09,22.77-.24,34.16-.24l.6,1.35.29.47,1.29.88.29.55,0,1.19.14.88.31.69.49.65.66.43,1.5.38,1.64,1.11.14.36.31,1.28.29.54.31.26.35.09.76,0,.44.18.18.42.12.51.21.45.62.5,1.4.63.6.43.43.63.21.64,0,.62-.18.61.6.88,2.53,2.57.87.62,2,.79.74.74,4.12-1.22.64-.93-.11-1.33-.39-2.43,0-1.56.43-2.81,0-1.62-.64-1.5-1.87-1.74-.27-.79.15-.9.66-1,.14-.63,1.23-1.59L384,324l3.13-1.41,2.14-.59,2.8-.28,2.76-1,2.43-1.76,1.79-2.67,1.36-3.69.43-2,.24-4,.31-1.46.72-1.41,1.22-1.81,6.92-8,1.23-3.31.27-4.33-.45-4.26-1.2-3.75-2-2.82-3.52-2.76-1-.39-1.42-.82-.8-2-.35-2.31,0-1.9.58-4,1.07-4,1.46-3.66,1.65-2.84,2.76-1.86,20-1.63,3-1L433,244.9l2.65-3.18,1.46-.62,6.94-1.27,2.92-1.16,1.3-1,.53-1.28.64-.6,3.07-1.77,1.05-1.12.35-1,.14-1,0-2.2-.14-.54-.25-.41-.12-.42,1-1.83.27-2,.67-2.07.93-1.86,1-1.41,1-1,2.92-2.35,1.13-.47,1.23-.83.89-2,1-4.19.51-5.75,1.21-3.27.37-4,.26-1.11-1.71-4.18Z"/></svg>