<svg id="Alabama" xmlns="http://www.w3.org/2000/svg" viewBox="0 0 473.91 371.93"><defs><style>.cls-1{fill:#ccabd1;}</style></defs><title>state</title><path class="cls-1" d="M398.77,295.8l-1.91,1.58-2.06,3-1.72,1.52.71,1.89,1.71,2.15,2,1.58,1.57.21.78-1.43.22-2.45-.11-5.31Zm-11.86,2.54-1.79-.7-1.65-1.52,2.51-1.48,1.32-1.3.07-1.62-1.32-2.5-1.83-.88-1.16,1.37-1.16,2-1.86,1,1.34-3.95-1.56-.39-6.92,2.94-3.78,3.95-1.65.9-1.61,1.24-3.41,6-1.53,2.08-2.32,1-8.14,0v1.25l1.53,1.15,2.42,3.22,1.32,1.37,2.32,1.42,1.3-.05,2.43-2.4,3-2,3.52-1.46,3.81-.94,17.88-.34,2.2-.6-1.24-8.56Zm68.89,12.07-2-7.31-.57-1.33-.71-.84-.94-.31-1.27.18,1.46,4.54-.9,3.69-4,6.7,2-.93L452.4,311l2.32-.86-.79,2.33-1.42,2.21-1.83,1.67-3.22,1-1.34,1.52-1,.43-1-.07-1.16-.83-1.19-.36-3.86-.14L427,319.29v1l13.73,4.78,7.06,1.22,7-.27,6.1-3.34-1.16-5.49Zm5.58-51.26-.45-.74-1-.39-1,4.39-5.12,13,2.42-.53,3.3-9.87,2.13-3.43-.08-1.37Zm2.88-35.73-5.64-20-3.1-4.79-6.93-8.05L446,188.67l-5.42-2.74-1.95-1.65-2.09-1-5.42.74-2.06-.93-1-.13-1.28,1-1.12,1.56-.45,1.6.35.8.75.59.85.5.65.54,2.88,4.28,1.83,1.12,2.22-.76v-1.26l-.64.06-1.95-.06,2.59-4.27,4.4,0,4.11,3.16L445.1,197l.37,1.93,2.32,8,.2,2.54-.2,8,1.43-1.85.71-5.26,1.76-1.1,1.23.63,1.2,1.34,1.61,1.22,2.43.28V214l-2.05.89-1.1.29-1.22,0,2.46,4.25,1,5.55-.75,5.57-2.69,4.3-1.91.87-4.52.78-3.63,2.58-11.48,3.2-6.61,3.86-3.93,1.52-5.13-.08-2.54-.62-.56-1.08,1.64-1,4.68-.05,1.91-.79-16-1.48-4.83-1.88L392.59,235,389,230.53l.18-4.33,1-4.51-.75-6.46-1.95-5.78-2.63-2.51-5,.48-2.36-.43-2.27-1.79-7.3-7.64,1.12-.7.93-.23,1,.23,1.24.7,1.18-8.06.94-1.22,1.2,1.07,1.23,2.48,1.5,4.68-.79.13-1.16.67-.65.26,1.28.86,1.31.39,1.34-.23,1.28-1,.75-1.15-.2-.46-.67-.51L377,189.31l-1-2.77.63-2.91-2.81-2.8-3.17-6-2.25-3.38-1.57-1.42-.61,0-.06-.52v-5.06l-.35-1.15-3.21-4.06L360,157l-2.79-1.79-6.06-1.7L348.09,151l-5.43-5.88-.08,2,.91,2.71,1.49,2.38,1.65,1,0,1-1,1.76-1.49.68-1.42-2.28-1.42,1.13-2.06,1.17-1.83.73-.83-.08-.33.63-.75-.08-.78-.5-.57-.58v-.72l1.35-1.35.37-.93-1.31-2.22-2.62.1-1.94-.71.68-4.65-3.07,1.86-1.2-.06-1.43-1.26-1.09-2.32.61-1.75,1.58-1,1.93-.18-.71-1.53-1-1-1.24-.6-1.41-.41,1.49-2.22,1.8,1,2.14,1.6,2.35-.39-1.3-.72-1-1.22L328.9,135l1.28-.5,1.72.68,2.07,2.71,1.86.2-1-1.64-.34-1.58-.38-3.76-1-2.75.12-1.48,1.3-2.26,2.47-1.48,3.44,4.19,3.14-1-1.61-1-1.69-1.43-1-1.81.42-2.11.82-.64,2,.21,1-.19.83-.61,2.54-2.4.56-.77.68-.65,1.08-.26,1.08-.44-.26-1-1.24-1.51-.53-1.72L347,111l-1.73,1.78-1.75.88.3-1.62.53-1.3.77-1,1.09-.81-1-1.17,2.15-1.6,6.47-2.72,14.66-3.26,1-1.16.71-1.51,1.16-1.56,1.49-1,.72.12.41.87,2.36.34.59-.36,1.35-1,1.08-1.34L380,92l.9-1h1.83V90L382,88.62l.37-1.54.18-1.25-1.26-.51-1.69-.13-1.08-.58L378,83.23l.23-2.5-3.44,1.78-1.57,1.24-1,1.57.26,4.56-.6,1.57L369.63,90l-.15-2.17-7.08-.69-2.27-3,1.23.08,1-.19L364.35,83l-7.18-3.48-2.69-2.89L354,71.24l1.39,1.33,3.78,5.71,1-1.28-3.7-11L355,63.89l-.64-1.49-.41-.56-.45-.14-1,.17-.33,0-2.69-1.3-1.2-.85-1.27-1.58,5.76.4,1.16-.4.23-1.51-1-6.09.11-1.2-4.52,1.15-2.65-.69-4.27-1.83-1.49-.26-1.16.05-12.31,5.48-1.39,1-.63.61L323,57.13l-.93,1-1.65,1.21-1.2.4h-1.42l-1.46-.29-2.16-.12-1.28.21-1,.39-.68.48-.67.6-1.16,1.43-.52.79-1,1.83-1.16,3.22-.53,1.16-1.3,1.47-1.49.7L301,72.3l-1.3.57-1,.66L297,75.72l-1.83,1.84L293.25,79l-1,.49-1.28.21c-13.07-.45-26.14-.85-39.2-1.3-13.63-.47-27.27-.89-40.9-1.36Q191,76.34,171.18,75.7q-13.49-.43-27-.9h-.26l-40-1.52L63.17,71.74,44.3,71l-2.09,2.74c-3.6,13.29-7.1,26.6-10.68,39.89Q26.39,132.81,21.27,152c-3,11.33-6.24,22.62-9.13,34l3.4,4.16,41,1.57,37.43,1.44,6.85.63.16,4.43,5.45-.54.71-3.89,17.4.27,2.95.92,1.65.28,1.08-.05,2.28-1.19q21,.38,42,.81l39.17.78c4.86.1,9.72.07,14.57.11l.08,1.83,40.28-.81,5.57-.11,6.57.09.15,2.31q.33,8,.67,16l.2,1.12.37.89,1,.28,2.4-.15,1,.21.45.62.26,1.93-.08,1.21-.1,1-.34,1.45,0,.81.19,1.7-.59,5.74,0,.91.23,1.06.67,1.29,1.46,1.95,2.06,1.6,1.46.81,1.24.42,2.32,1.91,4,6.83,1-2,.25-.8.72-1,1.69.4,2.79,1.2,1.2-.78.86-1.13,4-7.89,1.54-2.11,1.93-.8-3.13,7-6.93,11.82-2.13,6.66-.34,3.39-.1,4,.43,7.45,1.43,6.29-.08,1.23-.71,1.82.34,1.77,1.71,3.95,8.08-7.45,3.14-1.75-.56-.82-1.16-2.63,4.68.87,1.5-.87,0-3.45,1.65,2.09.71,2.55-.75,2.22L321,281.07l3.73,1.69,3.14-.86,5.65-4.29-.19.44-.15.72,1.75-.06,1.5-.88,2.88-2.41-.82-5,1.34-3.06,1.73-2.8.26-4.25,3.07,2.05.86.84.53,1.21.89,3.15.78.94,1.46-.14.15-1.93-.75-4.33,1.2.11,2.46-1,2.06-1.28-.12-.62v-.81l1-1.33,1.49-.27,1.46,2.41,2.32-2.83.89-2.84,1.24-1.75,3.37.39L365,249.92l-.18-2,.45-5.51,1.2-.3,2.61,1.41,4,3H374l.41-2.06,1-1.14,1.2.13.9,1.81-.56.23-1.24,1,.75,1.85-1,1.48-1.53,1.4-.79,1.61.16,2.35.63,2.74-.08,12.88-1.16,4.65-3,3.31,4-.33L381,275l3.84-.85L389,274l3.59-.76,3.11-1.72,2.61-3,3.89-6.8,1.3-1.38,1.53.44,1.85,3.09,1.34-.64,1.91-1.64,1.75-.41,4.2.43,2-.36,3.44-1.6,1.87-.34-1.27,4.25-.23,1.75,1.12-.92,2-3.3,1.08-1.28,1.28-.5,1.57-.35,4.08-2.07h6.13l20.08-3.6,5,1.3.82-11.32-.21-8.79-1-2.28L462,232l-2.91,1.8.49-2.28.48-4.84.68-2.24,1.68,1.95,1.83,1.53.57-.05.45-.15.41-.32.41-.54Z"/></svg>