<svg id="Alabama" xmlns="http://www.w3.org/2000/svg" viewBox="0 0 209.77 371.93"><defs><style>.cls-1{fill:#ccabd1;}</style></defs><title>state</title><path class="cls-1" d="M186.18,303.61l-2,.55.94-3.07-5.71-6.57-1.68-3.08-.09-.75.13-1.39.92-3.76.11-1,0-1.1-.32-1.79-.42-.9-.57-.65L174,277.79l-5.73-8.63-2.81-3.28-.62-1-.48-1-.38-1.41-.11-1,0-.87.14-.73.89-3.07.27-1.39-.11-2.09-.27-1.82,0-1.09.09-.78L165,249l.24-1.78,0-1.89.43-3.89c-.25-4.3-.47-8.59-.69-12.89q-1.12-21.42-2.27-42.83-1.16-20.93-2.19-41.87c-.69-13.72-1.44-27.44-2.15-41.16S157,75.14,156.22,61.38,154.8,33.8,154.09,20H154l-.88.42-1.46,1.78-2.77,4.48-1.72.85-2.26-.35-2.2-.8-7.63-4.84-1.67-.24-2.06.71-1.61,1.34-2.66,3.56-1.24,1.2-4,1-.92.85,2.39,1.25,1.46,1.58-.6,2.42-2.57,4.56-.41,1.33-.48,2.41-.48,1.36-3.71,5.72-.67,1.74-.17,2,.22,3h0l-1.53.56-.92,1.22-.32,3.37.68,3,1.23,2,.78,2L115,72.66q-4.19,6-8.36,12l-2.23,4.61-.37,3.2.91,2,1.27,1.75.64,2.29.35,1.85,2.82,7.34,1.13,1.78.61,1.31.05,1.25-.89,1.29-1.1.22H108.7l-.92.63-.65,2.46.3,2.28-.08,2.22-1.74,2.29-3.12,2.6-1.58,2.77-.81,1.12-2.36,1-8,5.07-1.46,1.33-3,3.9-1.72,1.21-2.2.37L77,142.61l-4.65.91L69,146.24l-2,4.57-.68,6.44.06,11.13-.51,4.85-1.34,4-3.87,7-.54,2,.41,1,.78.79.59.72-.19.93-6,8.53-1.35,2.62-.53,2.64-.2,2.77-.54,2.72-.75,2.46-1,2L46.53,218l-1.16,1.65-2.46,2-.57,1.31L42,227.32l-.8,5.2L40.49,235l-1.29,2.13-3.14,3.06L35.11,242l-.54,3.3-.68,21.33.35,4.72L34,274.15l-1.1,2.37L32,277.65l-.69,1.12L30.86,280l-.13,1.61.08.35.21.24.21.37.11.74-.19.73-.43.62-.62.68-.57,5.1V292l.57,3.22-.24,2.83-1.58,7-.38,5.69L27,312.82l-2.21.81-1.55.89-.62,2.18L22,322.09l-.7,1.77-.64,1.3-.46,1.45-.05,2.24.19,1.93.34,1.4.55,1.22.78,1.37,3.9,4.06,1.77,2.56.59,3.59v0h.19q11.07.38,22.14.74,21.14.67,42.28,1.41c13.68.47,27.36.86,41,1.36l.92-.15.72-.35,1.35-1,1.32-1.32,1.23-1.57.7-.47.94-.41,1.78-.54,1.07-.5.94-1.05.38-.83.83-2.31.7-1.32.38-.56.84-1,.48-.43.49-.34.72-.28.92-.15,1.55.08,1,.2h1l.86-.29,1.19-.87.67-.68,1.35-1.66.45-.44,1-.72,8.84-3.94.84,0,1.07.19,3.07,1.32,1.91.5,3.25-.83.21-2,.81-2.56,1.94-4.36,4.86-7.72.79-2,.37-.56.68-1.62.37-1.69-.48-.78Z"/></svg>