<svg id="Alabama" xmlns="http://www.w3.org/2000/svg" viewBox="0 0 473.91 371.93"><defs><style>.cls-1{fill:#ccabd1;}</style></defs><title>state</title><path class="cls-1" d="M463.28,296l-2.41-.46-.58-.78-.13-1.17.23-1.49.52-1.27.2-.71-.17-.32-1.57-1.61-.3-1-.72-1.15-1.45-1.78.86-1.68.06-.83-.56-.75-.88-.34-1.88-.14-.76-.4-.63-.88-.43-.92-.53-.83-.92-.64-.95-.06-1.05.16-.84-.13L448,276l.67-.49.47-.46.27-.48-.14-.26-.61-2-.84-1.27-.21-.53-.06-.49.08-1,0-.41-.38-1.09-.92-1.14-.47-1,0-.94.2-.79-.06-.74-.79-.77-1.24-.46-1-.2-.67-.63L442,259q.22-1.44.46-2.89l0-1.49-.5-1.48-1-.7-2.71-1.17-.57-1.12-.14-.65-.3-.45-.26-.54,0-.94.15-.71.23-.38.73-.76,1.07-1.65-.12-.57-.5-.92-.12-.81.21-1.6.4-1.26.29-1.29L439.2,236l-.64-1.68-.11-.91.21-1.43v-.65l-.35-.71-.91-.8-.43-.51-.26-.8.1-.57.31-.37.18-.36-.27-.52-.22-.35-.09-.27-.11-.2-.23-.16v-.42l.31-.45.72-1.93-.32-1-.13-2.19-.26-1,1.2-.6-.65-.55-2.32-.77-.71-.86,0-1.13.4-2.9.56-.33,1.12-1.24L437,209l-.49-.62-.9-.14-2.33-.8-.84-.47,1.23-4.38v-.78l.51-2.82-.34-.71-.33-.18-.43,0-2.12-.48-.71-.43-.31-.83.11-.65.23-.88.3-.77.26-.34.07-.22-.41-.46-.66-.47-.61-.22-.44.16-1,.66-.65.07-1.08-.83L426,191l.31-1.36V189l-.72-.52-.38-1.25-.15-1.54,0-2.94.14-.53.34-.56.53-.71.14-.32-.06-.39-.06-.94.25-1.31.46-1.25.18-1.35-.5-1.58-3-3.26-.23-.38-.83-1.83-.19-.62.06-.81.5-1.35.18-.67-.6-2.76-1.88-1.55-2.16-1.3-1.45-2-.2-1.54v-1.43l-.09-1.31-.57-1.19-.92-.84-1.74-1.18-.73-1.08-.47-1.69.18-1.28.43-1.16.25-1.35-.09-1.61-.31-1.18-.55-.92-.74-.62-.06-1.12-1.74-2.13.26-3,.7-3.08-.72-2.89-.88-.69-1.23-.44-2.29-.38-6.66-1.11-.88-.58-.56-1-.2-1.36-.46-1.12-2.14-1.65-.61-.82,0-.91.26-.58.32-.49.15-.64-.26-.54-.63-.37-.72-.22-.53-.07-2.15.14-.66-.14-.62-.36-.27-.38-.17-.49-.34-.68-.58-.86-.7-.77-.91-.55-4.65-.35-.95-.34-.54-.48-.36-.48-.49-.37-1.4-.28-1.14-.63-.51-.15-2.7-.09-1.22-.29-1.21-.61-1.1-.81-1.87-1.79-1.56-2-.89-.84-1.07-.55-1.3-.2-10.3,1.92-1.4,0-3.74-.92-1.15.27-2,1.09-1.22.08-.59-.23-1.06-.64-.65-.13-2.12.52-3.52-.83-1.28.3-.61.29-.58.38-.44.59-.17.94-.66,1.86-.2.34-.34.2-1.07.93-.56.3-1.39.13-1.4-.13-3.69-1.29-.61-.41-.21-.82-.54-.58-7.14-3.1-2.13-1.93L310.05,97l-.29-.07-.61,0-.31-.07-5.43-3.6-.4-.37-1-1.3-.17-.13H15.25q0,17.5.09,35c0,11.6.05,23.2.1,34.79s0,23,.09,34.53.07,22.9.09,34.35H118.82q0,16.95,0,33.9t0,33.79H465.59l-1.4-1.29Z"/></svg>