<svg id="Alabama" xmlns="http://www.w3.org/2000/svg" viewBox="0 0 473.91 371.93"><defs><style>.cls-1{fill:#ccabd1;}</style></defs><title>state</title><path class="cls-1" d="M455.63,71.66l-1.91-3.76-1-3.17L452,63.2l-.69-.84-.79-.75-2.29-.46-3.15-2L444,57.84l-.53-.47-3.9-.88-.56-1-.5-1.22-3.24-3.37-1.59-4.38-.47-2.41-.13-.35-14.77,0-34.45,0-33.38,0c-10.94,0-21.88.06-32.82,0l-2.29,2.73-2.65,1.22-13.47.21-7.51,1.46L288,49.35l-1.43.17-.9.5-1.57,2-2.28,1.85L267,56.48l-7.94,3.36-2.54.44-1,.67-1.67,1.67-1.42,1-1.51.68-.84.08-1.6-.32-.83,0-.56.15L245,65.51l-1.24.51-.62.08-2.8-.52-.47.11-1.31.67-.64.05-8.2-1.6-.56.15-1.45,1-.38.45-.2.57-2.56,1-3.88.81-.4.17-2.41,1.92-.28.09-.73,0-2.32.69-2.31-.29-.79-.35-.6-.09-1.79.1-.31,0-.6-.17L207,70.82l-.27,0-4.84,2.23-1.19.15-1-.73L199,70.87l-.43-1.36L198,68.37l-1.09-.93-2.58-.92-16.21-1.6-8,1.51L166,65.54l-1.54.3-2.25,1.3-3.73,3.15-2.18,1.38-9.72,3.74-4.06,1.25-.93.61-1.05.29L136.18,76l-4.59-.09L130,74.92l-2.77-.75-1.77-.92-.81,0-2.19.6L118.16,73l-1.34-.77-1.29-1-.94-1.08-.5-1.29-.34-1.73-.27-3,0-.86.23-1.49.05-.85-.22-.78-1.23-2.14,0-1.77.25-1.57.1-1.44-1-2.72-.44-3.53-.33-1.28-.76-1-.89-.74-.72-.87L108,40l-.73-1.74-1-1.6-1-1.21-1.38-1.13-1.69-1-1.78-.77-1.67-.3L98,31.78,96.1,30.33l-.72-.73-1.06-.29L90.89,30l-.93.72-1.51,2.06-.74.43H84.54l-5.78-1.07-.93-.8-.32-.63-2.86-4.23-.6-.54-.67-.21-1.1.16-.82.39L70,27.28l-.91.3-1.75,0-.71.33L67,28l.8.84L67,29.3l-4.92,1-.84,0L60.36,30l-1-1.61-.66-.59-.76.36-.9.64-2.07.2-1,.43.45.52.49.35.53.19.59.05.49.29,1.09,1.41.48.48v.49l-.69.17-.39.61-.13.9.08,1L56.24,35l0-1.06.07-1.15-.4-1.19-.72-.39-1.87.22-1-.63-1-1.13-1.4-1.22-1.53-.92L47,27.28l.12-.57.08-.23.14-.31-1,.33.29,1.7,2.63,6.24.73,3,.23,1.73L50.27,41l-.06,1.8-.28,1.67-.31,1-.24.44-1.32,1.4-.55.26-.51.35-.44.8,1.13,1.51.54,1.66.17,1.87-.14,4.48-.4,1.53-1.3,2.81,1.31.82,1.05,1.71.52,2.19-.1,2.42.35-.83.35-.53.46-.77.62-.2.81.57.31-.28.23-.11.24-.05.34-.13-.46.88-.62.44-.63.29-.52.46-.39.76-1.16,1.27q-.44,2.19-.9,4.37l0,1,.54.57,1.23,1.11L51.7,78l-.24,1.69.15,1.43.65.94,1.29.21v.58l-.92.73-.31.72-.33.25-1-.65-.88-.23-.76-1-.35-2-.17-2.43-.3.68-.24,2.5-.64,1.67,0,3.28.89,1.48,2,1.17-.73.95-.67,1.24-.9.82.29-2.36.11-.32-.25-.12-.17.44-.18.51L47.8,91q-.15,1.15-.27,2.3l-.45,1-1.13.4v.53l.77.09.85.38.54.57.09,1.85.06,2.15,0,.41-.14.44-.24.21-.25.14-.15.22c-.09,1.33-.19,2.66-.26,4l.11.8.12,1.78.12,1.13-.31,1.9-.41,1.84-1.08,1.71-.55,1.4-.09.75.59.84c-.2,1.94-.39,3.87-.55,5.81l-.51,1.82.28.33.11.45,0,1.31-.37.52-.41.38c-.05.67-.1,1.34-.14,2L43.52,132l-.71,1.32-.33,1.26.12,4.65.22,1.34.06,1.53-.35,3.52.13,1,.39,1-.05.78v.75l.56.87.64.13.6-.38.54-.11.45.93-.14,1.28-1.06-.36-1.2-.75-.57.09-1.53,9.81-.06,1.86.32,1.32,1,.61,1-.33.87.11.65,2-2-.94-1,0-.4,1.17-.13,1.49-1,4.51-.15.38-.45.68-.14.46,0,.44.29.69,0,.46-.37,2.82.21,4.78-.86,6.51L38.82,192l-.07.52v.58l.11.95.64,2.09.07.43-.26.78-.71.44-.15.63v3.1l-.15,1.24c-.58,4.07-1.11,8.14-1.65,12.21l-.91,3.18v1.63l.52,1.2.51-.94.51-1.8.51-1.33,1-.3,1.34.55,1.24.89.72.7v.47H39.67l-.42-.24-.11-.5,0-.52,0-.23-.8.22-.41.73-.28,1-.4,1.06-.6.83L35.31,223l-.63,1-.36,1.09-.42,3.51-.53,1.6-.14.86-3.37,10.1L28.93,243l.41.55,1.18-2.1,1.75-2.38,2-2.06L36,235.81l-.63,1.61-.08.71.17.36.36.41.36.54.44,1.79,2,2.77-.81.31-1.11-.17-1.07-.5L34.9,243l-.39-1.2v-1l-.13-.64-.77-.24-1.3.81L31,242.49l-.6,1.74.72.74-.27.57-.25.36-.35.16-.61,0,.29.83.1.88v1.9h-.38l-.83-.85-.25-4.05H28l-.51.49-1,.61-.51.75-.38.88-.09.53.12,1.09-.11,3.19-2.08,10.07L23,265.62,23,267.16l-.25,1.53-.61,1.19-.74,1L20.74,272l-4.46,11.15-1,.84.95.62.57.7.37.9.93,4.07.51.9.75-.69.53,1,.83,2.2.67,1.15.73.65.8.49.64.66.25,1.22.11,2.31.72,3.52c-.21,1.15-.42,2.31-.64,3.46L22.71,310,22.53,311l.09.83L23,314l.15,2.45,0,1.12-.13.89-.4,1.18-.27.58-.51.5.38.56.56.53L23,322l.53,2.68.18,1.63-.12.72.94.7.71,1.61,1.3,7.74.38.72.75.46,2.42,3,3.25,2.36.75,1.59H425.58q0-16,0-32.06,0-17.1-.05-34.19,0-16.27,0-32.53,0-16.6-.05-33.21l-.18-1v-.56l-.43-1.72.85-1.22,1.19-1,.61-1,.63-1.69.21-1.8.68-2.45.38-3.09.24-.82.24-.57.18-.59.08-.86-.39-1.59-1.49-2.56v-1.24l.56-.66.74-.12h.75l.59-.26.44-.76.22-.85.07-.9v-.86l.21-.41.38-.44.22-.55-.27-.69L431,182l-.94-.73-1.19-.65-.3-.41-.41-1-.11-.83,0-.85-.16-.67-.69-.27-1.22.23-1,.44-1,.25-1.11-.36-.46-.57-.32-.74-.4-.61-.71-.18-.74.29-.5.54-.45.65-.54.63-2.1-1.54-.88-1-.37-1.4.06-.78.26-1,.05-.78-.15-1-.72-1.54-.24-.88.18-1.74.6-1.5.42-1.37-.56-2,.36-.54.5-.44.25-.41.19-1,.46-.4.61-.18.59-.3.75-.91.73-1.29.54-1.43.46-3,.6-1.61,1.37-2.69,1.5-3.87.58-1.1,1-1.24,3.29-2.17,1-.91.77-.94,2.9-4.86,1.26-2.68.44-1.43.59-3.57.09-1.6-.12-.22-.27-.39-.26-.61-.13-.87.18-.78.43-.83,5.76-8.86,1.12-3,1-4.72.72-1.32.53-1.25.16-3.2.21-1.63.71-1.4,1.88-2.23.81-2.59,2.57-3.31.21-.76.25-1.63,1-2.6.3-.53,1.61-1.87.74-1.19.43-1.46,0-1.64Z"/></svg>