<svg id="Alabama" xmlns="http://www.w3.org/2000/svg" viewBox="0 0 473.91 371.93"><defs><style>.cls-1{fill:#ccabd1;}</style></defs><title>state</title><path class="cls-1" d="M135.93,176.43l.41.46.73-.15.86.19,1.21,1.79,1.24.23.57-.84.47-.46-.47-.23-.25-.38-.1-.61-.1-.46-.21-.38,0-.63-.6-.69.43-.2.29-.29.46-.64-.55-.62L140,171.3l-.29-2.71-.33-.54-.55-.58-.63-.45-.57-.19-.56.26-.07.65.05.85-.22.84-1,1.35-.09.53.07,1.19.26.9.39.69-.11,1Zm-14-68.31.83-.84.39-1.24-.12-1.37-.71-1.21-.86,1.07-.73-.14-.51-.95L120,102l.16-2.71-.1-1.54-.91-2.22-.57.18-1.31,1.41-.12.45-.25.68,0,.84.33.87-.82.54-.68,1.18-.31,1.47.27,1.48.91.61,1.28.26.85.54-.36,1.45Zm6.26,31-.23-.54-.15-1.79-.36-.57-.54,0-.11.69.23,1.56.33,1.11.74,1.63,1,1.27,1,0,.47-1.38-.22-2.08-.55-2.06-.81-2-.45-.39H128l-.58.46,1,1.1.58,1.61,0,1.27ZM127.08,93.5,127,94.63l.8,2.45.48.53h.64l.5-.14.34-.3.12-.85.37-.64.27-.36-.22-.35-.86-1.1-.15-.54-.36-.7-.71-.47-.64.38Zm-16.34-3.91v.84l.24.69.71,1.11.71.69.41-.63L113,91l0-1.16.3-.47.66.34,1,.94.31.8.25,1,.45.84.91.35,1.67-.11.73-.32.7-.68-2.72-4.73.26-.72,0-.42-.15-.5-.09-.94.25-.79.54-.21.54.29.24.7.14.92.79,2.33,1.38,2.43.58.7.57.3.68-.18.2-.47.05-.58.22-.5,2.43-1.73.36-.4.29-.81-6.29-3.76L118,83.17l-1.2.06-.63.25-2.72,3.45-.62.29-.47.32L111,89.08Zm15.2,34.36.65,2,.45.52.71.59.75.47.59.19.37.38,1.39,2.49,1.35-.92,1.2-.16.88.81.4,2-.83,4.63.29,1.21,1,1.54-.07,1.4.74,1.72,1,1.47.78.62.5.65.5.4.72.09.6-.38,1-1.2.69-.14.88.76.61,1.54.35,1.88.11,1.79.33.41.74-.16,1.23-.57.26.22.06.51.1.44h.36l.27-.24.19-.58.27-.38,1-1.9.32-.33.15-.39-.22-.87-.49-1.31-.35-1.93-.87-1.35-4.43-3.16-1-1-.91-1.2-1.18-.94-.56.95.07,1.88.71,1.83-.67,1.95-.76.51-.62-.93-.46-4.11L137,133l-.69-3.78-.54-1.86-.84-1.42-1.2-.57-.64-.19-1.32-.81-.74-.19-1.74.53-.79-.12-.76-1,3.24-.7.82-.66.16-1.07.1-1.53.31-.6.78,1.74.4-1.23.64-1.44.84-.75,1,.87.77,1,.89.41.87-.21.75-.86.08-2.35-3.46-2.92-.08-1.73-.22-.26-.09-.26-.11-.63-.52-.93-.54.29-.63.75-.79.42-1.44,0-.67,1.86-4.66,9.51ZM143,195l-.8.34-.42.85-.05,1.11.3,1.09,1.11-.94,1.78-1.91,2.44-1,.42,0-1.15-.87-1.06-.53-.91-.7-.72-1.41-.16-.83-.06-1.69-.12-.86-.41-.72-.5-.4-.25-.55.36-1.17-.87.42-1,1.09-.84,1.26-.35,1-.42,6.24-.19.5-.36.65-.22.79.24.88.5.74.44.43.4.05.38-.4.25-.65.11-.79,0-1.67.24-.48.57-.39,1.11-.54-.42-.57.94-.23.36.63-.13.86ZM107.25,61l2.43-1,.58-.72h-3.12l.07.41ZM454.78,303.73l-3-3.85-.31-.86,1.65-1.88.73-1.12.52-1.66v-1.69l-1.21-2.21-.64-4-.78-1.72-1.88-3.19-2.66-3.49-.41-1.24.22-1.46.85-2.57v-2.34l-.05-12.9,0-12.94,0-13,0-13,0-13.05,0-13.09,0-13.14,0-13.18,0-13.21,0-13.26,0-13.3,0-13.33,0-13.39,0-13.42,0-13.47,0-13.52H126.08l.67,1.37.54,1.5-2.58-.47-1.32.21-.7.9.31,1.47,2.77-.12.73,1.56-.23.43-.52.57-.52.72-.23.93.24,1.07.61.83,2.43,2.22.59.92.18,1.3-.24,2.06.5-1.09,1.07.62,1.06,1.37.48,1.16-.19.46-.78.86-.19.44.16.94.4.78.55.38.6-.36,1.68-3.07.91-1.32,1.07-.54,1.12.26,1.39.74,1.2,1.09.55,1.37-1.25,2.58-.23,1.43,1.27.62,0,.45.33,2.21.26.87.48.73.5.3.49.22.49.44.76,1.7.22,1.91-.41,1.57-1.15.65-1-.45-2.24-2-1.2-.47-1.15.28.62.74,2.26,1.6.7,1.19.52,1.21.33,1.38.18,2.26.13.82.15.53,0,.52-.45.78-.66.38-.77-.23-.73-.6-1.33-1.79-1-.67-.7.42v2.21l-.92-1.37-.91-2.18-1.12-1.34-1.5,1.13-.71.33-.94-.07-.75.15-.14,1,.44.42.79.18.76.54.34,1.51-.3.82-.55.54-.27.73.56,1.39.66.62.86.21.91-.13.83-.39.44-.52.9-1.52.4-.32.58.06.86.25.39.52-.84.89v.63l.76.73,1.11,2.25.62.48.93.08.83.25.72.44,1.32,1.46,1.67,1,1.89,1.73.33.5.23.58.13.92.23.44-.86,1.73-.18.86.27.86-.66.38-.5-.52-.49-.84-.65-.64-.9-.16-1.08.09-1.89.6-1.18,1.11-.64,1.67-.11,2,.4,2.12.88,2,1.16,1.43,4.72,3.58.52.52,1.07,1.79.64.53,1,0L147.66,136l-.84-1.32-.88-.57-.83-.35-1-.84-.89-1-.55-.79-.45-1.3-.21-1.51.16-1.26,1.15-.85-.16-1.73.26-.81.46-.19.43.22.36.34.28.21,2.32,1,.56,1.9-.11,2.59.31,3.12,1.24,2.72,1.82,2.07L155,141l.92-1,.79,0,.33.32.46.24.1.38-.26.31-.26.31-.36.39-.1,1.23-.21,1.08-1.13.71-.49.47-2,.45-.47.38-.4.45-1.12.86-.44.42-.23.66v.82l-.54,1.16-.16,1.31-.15,1.84-.73,1.38-1.66,1.43-.55,1-.42,1.13-.28,1.36-.1,1.64L146,163l.61.88.21,1.3.16,1.37-.2.93-.88,1.42-.36.73-.14.74-.24.57-.65.23-.21.36.31.78.55.78.53.36,2.51,1.14.8,1,.29,1.09-.06,1.33-.27,1.72-.57-.75-.6-1.19-.64-.87-.7.2-.75,1-.3.58.08.74,1.08,3.75.39.88.63,1.09.2,1v3.58l.33,1,1.53,2.14.47,1.09.09,1.52-.27,1.28-.62.87-1.83.53-1.08.53-1,.71-.72.76-.42.91.11.69.57.6,1,.68-1,1-.82.37-.86-.29-2.07-1.8-2-1.25-1-.87,0,3.08-.74,3-1.2,2.73-4.54,6.69-1.89,2-2.05,1.23-.22-.91-.53-.91-.7-.71-1.38-.64-.53-.82-.45-.94-.46-.7-1.06-.66-.31.46.07,1.28,0,.2-.55.44-.83.41-.79.12.4-.62.26-.69,0-.76-.31-.8-2.22,1.89-.5,1v1l.26,1.07,0,1-.69.83.44.9.4,1.16,0,.83-.83-.09-.57-.65-.42-1.81-.55-.91.34-.81.11-.88-.11-.87-.34-.81-.59,1.9-1.05,1.42-1.28.74-1.3-.12,1-.69.76-.88,2.49-4.81.26-1.18-.68-.31-1.27,2.23L114,214l-.32.1-4.74,3.61-1.11.53.6-1.34,1.08-.48,1.1-.27.64-.72-.21-1.16-1.08,0-1.29.59-.84.56.59-1.29,1.41-.7,3-.87,1.44-1.33.86-1.73,1.65-6.25.4-.6.89-.22.66-.28.88-.66,1.35-1.37.53-1.52.92-4.05.81-1.2-.31,1.16.25.6.47.42.38.59.3,1.15.09.63,0,2.28-.15,1.57L123.7,203l-1.09.52v1.93l.9,3.79,1.46,2.62,1.67-1.54,0-.5-.15-.58-.19-.47-.09-.18.19-.35.31-.43.25-.19V208l.33-.7.36-.37.07-.48-1.37-2.38-.3-1.15.25-1.17.87-1.42.22-.67.06-.82.11-.7.37-.29.5-.22.41-.5.39-.6.43-.48,2-1,.73-.78.42-1.54.29,2-.6,1.39-.84,1.16-.42,1.37-.47,1.09-.79.75-.16.76,1.42,1.1,4.36,2h.84l.65-1.69-.21-1.38-1.42-2.9,1-.31.75-.53.57-.82.42-1.16-1-1.77.25-1.83.75-1.95.44-2.11.45-1.56.73-1.75.09-1.45-1.47-.59-.42-1.11-.09-2.14-.56-1.38-1.84,1.19-1.19,1.13-1.3.92-2.89,1.4.31-.84,1.07-1.17.54-.87.47-1v-.18h-.43l-2-1.12-.47-.51-.33-1.12-.06-1.09.13-.92.3-.78.44-.68,2.12,4.64,1.51,1.81,1.39-.72-.42-.62.42-.57-2-8-.27-.54-.49-.61-.51-.39-.4-.54-.16-1,.53-.17,3.13,3.37.91-.51.84-1.19.5-1.35-.12-1,.95-.21,2.71.64.56-.15.18-.4.35-.51.29-.71-.05-1-.33-.65-.53-.5-.59-.34-.5-.17.79-1.3-.21-.85-.59-.71-.33-.84-.35-2.82-.06-1.23-.58-2-1.42-1.29-3.36-2.09.12.83,1.06,2,.22.6.95,4,.28,1.88-.25,1.22-1.19-.27-.27-.64.16-.75-.08-.63-1-.25-.59.27-.63.62-5.56,8.1-.51,1.3-.8,3.72-.36,1.09-.66.7-1.28.75L119.33,174l-3.49,2.35-.76.48L110.94,183l-2.29,5.49-.52.92-1.51,2.12-.63,1.24-.17,1.16,1.22,1.95,2.22,0,4.27-2,3.89-2.72,2.21-1,1.6.36-1.82,1.83-1.88,1.23-9.49,4.16-3.15.32-1.75-1.33.16-1.27,1.41-3.32.78-3.09,1-1.3,1.16-1.13.87-1.2,1.81-4.7.67-1.3,4.46-5.74.64-.59.7-.24.45-.44.34-1.92,1-1.24.58-1.83.8-1.93,1.28-1.11-1.07-2.4-.46-1.51,0-1.31.6-1.4.54.48.36,1.51.07,1.68,1-.86.18-1.54.06-1.61.66-1.1.38,3.06,0,2.46-1,5.34-.62,1.58,0,.91.93.4.65-.13.62-.38.47-.62.19-.88.14-1.36.36-1.6,1-3,.78-1.65,2.49-3.19.46-.88.42-1.57.48-.73.55-.14,1.67-.09.46-.34-.35-1-2.92-3.85-.25-.71-.17-1.78-.15-.66-.4-.48-1.07-.7-.45-.54-2.37-4.26-.35-1.22-.25-.54-.51-.63-.42-.83,0-1.17.39-.51,1.39-.78.53-.42-1.11-2h-1.39l-1.63.85-1.82.55-.67.45-.53,1.06-.22,1.25.26,1,2.26,2.49.67,1.22-.93,2.49-.72.86-1.07.13v-.62l1.12-.78-.22-1.6-.86-1.7-.81-1.07-.71-.31h-.63l-.45-.33-.17-1.34-.33-.76-.76-.23-.89,0-2.37.48-.37,1.09.5,3.35h-.62l-1.22-.56-.88-1.21.42-2-1.33-2.19-1.56-1.63-1.85-1-2.2-.34v-.63l.79-.23.77-.4.57-.66.21-1-2,1.3L99.65,133l-1.87.92-9.29-.56-1.13-.58,0-.36.49-.22.49-.21.53-.31-4,.57-1-.16-2.63-1-3.34.55-1.44.64-.91-.5-1.57-1.31L72,130l-4.07.36-8.44-.59-7.69-2.18-1.11-.52-1.8-2.56-1.15-.93-4.46-2.08-1.31-.27-2.51.32-1-.32L37.07,120l-.51-.34-4.08-1.09-2.17-1.92L21.18,112l-2.74-.82-3.09-.29-.1,1.27.44,1L17.3,115l1.34,1.09.23.31-.19.88-.84,1.29-.19.76v3.13l-.13.4-.49.63-.11.43.07.39.29.56,0,.46L17,128.14l-.48,1.27-.94.53-.14.69,1.88,4.18.06,3.06.29,3,.63,3.1.89,3.08,1.1,2.83,1.91,3.63.46.36,1.49.22.67.28.62.46,3.46,4,.77,1.49.78,2.78.51.95.64.49.71.22.58.41.51,2.88,2,4.78.32,1.38.61,6.76.75,3.29,1.39,12.44.45.43,1.24.27.61.47-.26.64,0,.93.2.84.49.36.76.18.4.48L43.55,204l1.1,3.46.66,3.25.66,6.61.77,3.63.21,1.8-.41,5.8-.16.93-.2.41,0,.93.12,1,.31.5.38-.3,1.83-2.35.34-.2.18-.27-.21-.56-.45-.73-.11-.38L48.35,226l-.53-1.26-.12-.6.55-1.22,1.31-.66,1.53-.21,1.26.12,1.15.6,1,1.06.68,1.43.25,1.7.66,1.05,1.5.13,2.82-.37v.56l-.13.17-.21.39,3.4-.26,1.75.14,1.33.74-4.23,1.26-4.16,2.09L56.49,234l-.83.37-1.2.14-.91.62-.38,1.21.22.86.88-.46.57.85.37.72,0,.71-.42.83-.4-.13-.76-.48-.9-.38L52,239l-.28-1.3-1.13-1.57.26-1-.8-1.79-1.11,1.09-.21,1,.92,3,.72,3.31.73,5.47.43,1.12.85.48,2,.17.9-.08.5.09.64.42.5.5.52.2.71-.51-.81-.61v-.5l2.92.65.74-.4.56-.78.45-.39h.57l.9.37L65,249.26l1.2,1.61,1.27,1.28,1.78.29-.7.92-1,.51-.95-.14-.41-1-.41-1.42-1-.35-1.9.38-1.89.82-.65,2,.38,2.4,1.17,2.1-.9-.22-1.54-1.18-1-.26.66,1.41,1.37,2.05.91,2,.25.37.19.54.08,1.06-.08.83-.24.64-.42.4-1.31.42-.21.68.11.89.26.88.23.36.37.36.41.27.31.11.18.17.09.86.12.41,1,.66,1.34.57.9.86-.33,1.55-.94-.91-2.42-1.74-.47-.72H60.4l-.17,2-.72,1.77-1.12,1.15-1.41.07-.85-1L55.46,274l-.81-4.18-.09-2.18L55,261.4l-.44-1.82-.71-1.36-.33-1.31.71-1.64-1.5.77-.25,3.13.87,13.54-.09,3.46-.6,2.54.37,1,0,.85L52.7,282l-.6,1.64-.46,1-.44.65.58.49.54,0,1.15-.51.31.06.21.26.25.1.42-.42-.15-.13-.17-.48-.11-.59,0-.42.92-.93,1-.16,1,.39.94.7L61,286.92l1.32.58,1.46-.13,1.05-.8,1-1L67,284.8l.68-.07,1.83.57.53-.16.79-.68,1.7-.59.5-.77.43-.31.86.91.3.7.15.71.26.53,3.34.82,7-1.28,1.64.22,1.36.79.57,1.6.37,1.46.9,1.13,4.4,3.56,1.07.59,1.57.22,1.29-.31,2.48-1.25,1.44-.11,3.54-.68,1.1.31.75.75,2,1.5.78.44,1.72.32,1.84.79,1.75,1.09,1.43,1.17,1,1.24,1,1.66.75,1.79.6,3.08.75.9.91.77.78,1,.34,1.33.45,3.65,1,2.81-.1,1.49-.26,1.63,0,1.84,1.27,2.22.23.8-.06.88-.24,1.55-.06.88.28,3.14.35,1.8.52,1.34,1,1.12,1.34,1.06,1.39.8,4.39.9,2.27-.62.83,0,1.83,1,2.87.78,1.68,1,4.74.09,4.53,1.66,1.09-.3,1-.63,4.2-1.29,10-3.87,2.25-1.43,3.85-3.26,2.33-1.34,1.59-.31,4.22.91,8.28-1.56,16.76,1.66,2.67.95,1.13,1,.56,1.18.44,1.41.75,1.68,1,.76,1.24-.15,5-2.3.29,0,1.18.06.62.17.31,0,1.85-.11.62.09.81.37,2.39.3,2.4-.71.76-.05.29-.1,2.49-2,.41-.17,4-.84,2.65-1.07.21-.59.39-.47,1.5-1,.59-.15,8.47,1.66.66-.06,1.36-.68.49-.11,2.89.54.64-.08,1.28-.53,2.21-1.33.59-.16h.86l1.65.34.87-.08,1.56-.71,1.47-1.06,1.72-1.72,1-.68,2.63-.46,8.21-3.47,15.27-2.73,2.35-1.91,1.62-2.06.93-.51,1.49-.17,3.89.18,2.84-.55,4.93-1,13.93-.22,2.74-1.26,2.37-2.82H456.1ZM119.62,204l.08-.82.8-.59.32-1.05-.63.46-.4.23-1,.47-.47.47h-.79l-.4.7-.16,1.17-.4,1.52v.71l.56.81.79.82.4.7.16.58.31,1,.16.7.32.35.8-.82.64-1.28V208l-.55-.93-.64-.93.08-1.05Zm-62.8,65.33.74.7,1.56,2.63.28-.84.11-.87V269l-.22-.69-1-.92-.32-1-.07-.34-.27-.71-.42.49-.37.57.27.72.08.73-.09.72Zm71.94-58.21-.71.11-.32.7-.32.81-.48.35-.48.35.24.82.24.11.79.82.48.35.47.35H129l.64-.46.72-.82.24-1.29.07-.81-.23-.94-.56-.35Zm1.9-127.34-1.52-2.54-.94-.38-.29,1.21.21.83.75.62,1.33,1.67,1,1.51.4.47,1.21,1.11.73.48.42-.21-.12-.87-.34-.84-.4-.72-.38-.53L132,85l-.84-.58Zm-27.36,7.64-1.07,1.34.19,1.72v.43l.42,2.53.68,2.57.3.63.55.83.54.52.74.47.77.33.62.13,1.19-.12.28.14.66.5.47.53.38.58.47.47.76.2.83-.14.63-.23.62,0,.81.42v-.58l-1-.45-.47-.34-.44-.42-1-2-.19-.22.2-1,.34,0,.46.2.57-.36.69-1,.13-.52-1.5-.69-1.14-2L109,95,107.91,94l-1-1.14-.47-1L105,91ZM116.78,79l-.16,0,.21.51.25.22-.11.08.19.14.4.19.12-.16-.17-.21.14,0,.3.3.68.12-.71-.9-.23.13-.5-.39.45-.32h.5l.7.17-.57-.51-.81-.18-.73.22,0,.31.2.11V79Zm-7.14,4.18-.72.58-.36.45,1.09.45.17.14.09,1.26.26.14,1.37-.9.25-.41v-.42l-.07-1.63-.27-.42-1.51.39Zm-5.3,6.31,1.82.32,0-.08-.15-.17-.17-.07-.4-.28-.63-.18-.83-.26-.31-.14-.62-.14,0,.33.77.34Zm-2.74-1.85.32-.23-.16-.45-.48-.23-.12-.19.43,0,.6.32h.4l.19-.38-.1-.37-.19-.25-.22,0-.5.45-.38,0-.71-.42-.11-.25-.39-.41-.9-.17-.44.33.19.56Zm29,2.81-1.07.12-.4.18,1,.88,1,.43-.05-.75-.19-.57Zm2.53-6.86-.25-.22-.7.1-.46-.11.5.5,1.36,1.09.48-.33.08-1.26-.23-.48-.42-.32.06.21.13.7-.14.13Zm-.83,15.06,1.09,0,1.22-.56.46-.06.52.41.33-.06,0-.63-.17-.73-2.52-1.88-.87-1.28-.4-.16-.24.65,0,.74.17.36-.23,2Zm-8.27,1.9.12-.31-.14,0-.25-.26.11-.53.13-.24-1.81-.08-.52.45-.32.42,0,.27.49.47.21.34.22.18.13.43-.19,1.07.19.08.08-.06.14-.37.76-.7Zm-10.92-4,1.88.64.35-.3.05-.51.09-.29.19-.2.28-.08.35,0,.23,0,.18-.11.29-.26.28-.79-.19-.6-.48-.06-.36.08-.2.22v.37l-.21.14-.23-.35,0-.44-.06-.17-1.06-.22-.55-.43-1.83.7-.67,0-.08.33.27.28.67.12.23.15.62.91,0,.26-.23.13Z"/></svg>