<svg id="Alabama" xmlns="http://www.w3.org/2000/svg" viewBox="0 0 236.95 371.93"><defs><style>.cls-1{fill:#ccabd1;}</style></defs><title>state</title><path class="cls-1" d="M199.23,241.92l-.5-2.14.15-.68.63-.91.15-.64v-2.37l-.28-.74L198,233.27l-.52-.65-.28-1-.39-2.16-.46-1L195,227l-.67-.41-.33-.29-.27-.48.16-2.22,2.92-2.86,0-2.5-1-2-.21-1,.47-1.18.81-.86,2.74-1.31.17-.25c0-10.48.07-21,.11-31.44s.07-20.68.12-31q.07-16.61.13-33.22,0-15.34.11-30.68c0-4.69,0-9.39,0-14.08l-2.55-3.69-.77-1.9-1.08-4.44-1.35-3.11L194,52.74l-.25-1.13-.4-1.16-.23-.47-.3-.4-1.6-.72-.24-.32-.2-.37-.43-.46-.41-.56-.2-.7-.09-.66-.24-.59-1.53-3-.72-2.1-.44-2.39-.16-4.61.06-.69.16-.49.21-.3.19-.37.39-6,0-.54-31.91-.31-31.82-.3L92,23.85l-31.46-.3h-1.5l-.59,1.34.56.87,1.38.76.7.68.68.87,1.44,1.25,3.89,2.52,1.4,1.43.8,2.08v-.42l.11,3.48.42,1.4,1.48.9,1,1.43.61.33.62.14L77.41,45l.47.46L79,46.79l.43.29.69.15.31.44.07.71v1l.14.83,1.11,2.71-.17.72-.24,2.57-.79,2.12L80.23,62l-.65,2.72L79,66l-.8.54-.73.3-1.9,1.52-.65.65-.63.92-.6,1.21-.44,1.35-.18,1.31L72.44,75l.08.27.16.27.09.35v1.43l-.09.63-.23.64-.68.73-2,1.15-.42.39-.35.83-.84.64-1.9.75-4.5.82-.95.41L59.08,86.4l-.93.85-1.94.65L43.23,89l-1.79,1.21L40.37,92l-.95,2.37L38.72,97l-.37,2.59v1.23l.23,1.5.52,1.27.92.54.64.25L43,106.19,44.26,108l.78,2.43.3,2.76L45.15,116l-.8,2.15-4.49,5.22-.79,1.17-.47.92-.2.95-.16,2.62-.28,1.3-.88,2.4-1.16,1.73-1.58,1.14-1.79.63-1.81.18-1.39.38-2,.92-1.82,1.14-.8,1-.09.41-.43.63-.1.59.18.51,1.22,1.13.41,1,0,1.05L25.63,147v1l.25,1.58.07.87-.41.61-2.68.79h0l-1.41,1.27-1,2.65-.7,3-.31,2.42,0,2.74,1.2,9.74.24.89.61.95.77.95.27.41.2.42.15.46.06.53,0,1.44-.38,1.72,0,.68.2.4.6.69.29.78,1.24,1.18.28.6.11.62.08,1.38.56,2,.9,1.46,11.36,10.41.71.87.53,1.09.22,1.25.28.8.68.69L51,214.09l1,1,1.06,1.41,1.16,2.16.52,1.26.31,1.14.05.78L55,223.43l0,.79.24.71.81,1.26.18.63-.19.64-.35.67-.19.72.28.77.35.7.25,1,.05,1-.21.72,2,4.32,1.4,1.77,1.87.71,2-.92,2.85-3.76,2.3-.5.87.35,1.55,1,.84.21,1.06.11,2.3.68,4.47,2.54,1.8,1.5.74,1.54-.34,1L81.26,245l-.86,1.3-.65.56-.59.63L79,248.94l.23,2.33,0,2.38-.77,1.81-2.28,3.68-2.31,6.42-2.18,3.58L71,271l-.18,2.14.41,2.65.24.9.28.69.3.59.38.54,2.5,2.16.29.53,1.27,1.32.29.51.33.87.79.68,1.68,1,1.18,1.2,1.1,1.43,1.23,1.19,1.61.51L87.19,292l.69.44,1.69,0,2,.59,1.54,1.19,2.58,2.71,1.07.72,2.79,1.2,1.11.77,1.11,1.59,1.3,3.12,1,1.19,4.4,2,1.19,1.07-.33.7.15.93.32,1,.17,1-.12,1-.22,1-.12,1,.16,1.15.95,2,1.24,1.82,1.07,2,.46,2.38-.79,2L111,328.2l-1.33,1.6,0,2.19.24.23.89.33.39.21.72.6-.08.73.14.95.36.93,1,1.85,1.81,2.54.65,1.61-.31,1.63.74.86,2.27,1.87,1.83.78h.53l.23-.58-.13-.86-.32-.47-.41-.33-.4-.48-.5-1.27.31-.55.83-.13h1.07l.29.28.2,1.35.15.5.42.39.93.57.35.39.23.61.11.63.18.59.41.49.51.13.56-.15.53-.23.43-.1.9.4-1.56-1.81-.82-1.37-.12-1.48,1-1.74,1.55-1.76,1.55-2.85.46-.61,1.57-1.31,1.88-.83,2.1-.26,2.21.43,12.4,6,3.25,2.14,1.8.54,1.67-.28,1.35-1.34,1-2.28,0-1.81-.8-1.71-1.36-2-1-1.88-.42-2.07.21-2.22.87-2.39.47-.76.6-.6.75-.4.95-.13,2,0,.76-.21,2.66-1.51,8.33-1.51,1.46-.93.36-1.62-1-2.46-1.34-1.43-.24-.32-.75-1.55-.3-1.08.29-1.36.58-1.26.52-.76,2.55-2.19.7-.76.48-1.28v-1.14l.19-.75-1.06-.44-.87-.09-.33-.12-.16-.27v-.27l.18-.12,1.31.09.69-.05.48-.25-.29-.64-2.22-2.13-.75-1,2,.39h.45l.72-.38.14-.42-.14-.55-.11-.79-.27-1.16v-.7l.43-.3.21-.39,0-.87-.17-.94-.19-.57.55-.68-.62-1.41.56-.25.76-.14.8-.35.76-.51.63-.56-.67-.62-1.42.15-.74-.36,1.06-.76,1-1,.44-.32,1-.24.43-.25.47-1-.56-.65-.87-.49-.46-.55-.15-.37-.32-.36-.31-.44-.12-.63L179,277l.31-.4.39-.34.4-.51.33-.92.24-.92.42-.71L182,273l0,.36.43.66.48.31.36-1.08.3-.47.35-.42.33-.18.18.24.12.56.19.55.43.25.31-.28.12-.64.07-.74.15-.52.29-.62.4-1.31.36-.63.37-.28.88-.32.32-.19.69-.87.69-1.22.23-1.16-.68-.68v-.43l1.37-.44,1.43-.75.39-.33.48-.58.33-.28.41,0,.27.26.24,0,.32-.63,0-.68-.76-1.21-.16-.9.22-.87.46-.65.59-.48.58-.36h-.28l.18-.12.16-.16.15-.23.13-.3-.22-1.16.38-1.15.68-1,.73-.62.47-.08h.61l.55-.11.23-.42,1.42-4.24-.58-2.27Z"/></svg>