<svg id="Alabama" xmlns="http://www.w3.org/2000/svg" viewBox="0 0 473.91 371.93"><defs><style>.cls-1{fill:#ccabd1;}</style></defs><title>state</title><path class="cls-1" d="M439.58,225l-1.6,3.48-.05.33,0,.51h.36l1.28-2.16.61-1.37.3-1.54H440Zm16.48-38.2c-4.35.6-8.71,1.16-13.06,1.73l-.37.35-.85,2,.52.25-.67.71-.87.31-1.74.37-1.33.8-1.26,1v.41l1.36-.22,1.5.36,1,.77.16,1-.35.52v.6l.26.63.44.59-.55.13-1.24-.22-.4.1-.31.69v.77l.25.73.49.56-3.15.42-.58-.3-.6-.51-.6-.09-.6.9,1.07,1.07,0,.91-.72.85-1.12.87v.5l1.15,0,.09.39-1.87,2.06-.07.6.33,1-1.23,0-1,.2-.79.55-.56,1.07.79,1-.61.4-1.16.25-.91.63.66.49-.1.56-.53.6-.73.63,2.19.91-1.25.69-1.1,1-.76,1.43-.17,1.92,1.12-.54.5.41-.08.71-1.48.76-.63.94-.38,1.2-.16,1.14h.4l.12-.43.21-.08.3.05.08-.05,0,.65-.35.85-.62.79-.86.46.26.85-.31,1.26-1.05,2.46.49-.2.3-.07.71.27-.93.85-.8,1.48-.11,1.58,1.12,1.2v.41l-.25.91,1.34,2.08.4,1.36.29,1.51.69.46.84-.35.66-1,.14-.6.25-2.37.24-.68.52-.68.5-.33.24.29-.22,2.84.37.79,1.27-.6-.27-.74-.21-1.49-.25-.55.52-1.2.33-1.57.46-6,.2-.76.28-.74,1.13-1.59.45-.82.1-.49-.1-.56-.08-1.09.23-.79,1-1.43.23-.52.66-.46L439,222l-.41-.72L438,221l-.78-.14-.73-.25.51-1,.86-1,.84-.42.38.84.2,1.16.5.77.59.65.49.83,1.05-1.05,1.09-1.38.94-1.55.59-1.52-.84-.53.24-1.78.76-2,1-2,.64-2.42,4.39-8.76,2-2.24.4-1.07-.55-1.34,1-.38.14-.34-.22-.49-.17-.8,0-1.67.09-1.05.26-.78.77-.64.86-.35.67-.62Zm-31,81.33L424,262.67l-1-1.72-1.26-.12-1.48.47-1.72,0-2.14-.86-2.7-.26-5.07-1.94h-1.86l-1.08,1.26.11,1,.58.38.26.4-.75,1.14-.13.73.41.86,1,1.38-.88-.17-.89-.55-.54-.75.12-.77-1.13-.71-1.43-.43-1.5-.09-1.4.26-1.14.69-1,.83-1.15.68-1.43.13V264l1.52-1.1.75-.74.31-.63-.29-.9-.51-.78-.11-.68.91-.61v-.46L394,256.32l-.73-.66-.36-.25-.46-.16-.69-.08-.32-.25.08-.4.15-.14.52-.38v-.41l-3.21-.9-.84-.51-.36-.92,0-4.09-.73-3.89-.36-.71-.74.28-1.49,1.86-1.05.14-1-.71-1.75-2-.76-.42H375l-1.05-.43-2-1.49-1.2-.31-.45-.62-.24-1.32-.49-1.27-1.18-.48L368,236l-1.61,1.39-.63.31-.47-.45-.38-.67-.34-.35H360l-3.44-1.34L356,235l-.24-.21-.53-.13-.51-.35-.18-.86,1.47-1.37.84,1.06.78.36,2.25,0,.29.12.94.6.56.14.53,0,1.83-.69.49,0,.46.22.53.54.13.41.39.89.39.66.2-.31.33-.44,1.67-1.36.58-.3.69.19.46.53,1.55,2.59.49,1.18.66.7,1.24-.14,1-.77.58-.66.26-.63v-1.79l.21-.68.5-.52.23,1.23-.07,1.53.09,1.31.68.53.74.22,2,.93.92.22.41.23.25.59.2.67.25.55.53.38.27-.4.18-.66.29-.45,1-.27,2.22-.21.77-.44,1.11.86.89,1.45.35,1.76-.49,1.88.37.45.64.93,1.08,1.21,1.18.88.93,0,4.71,4.18.67,1,.59,2.63.74.25.85-.4,1.5-1.34.77-.42.91-.16,1.31,0,1-.4.69-1,.46-1.32.25-1.42,0-1.89-.6-.42-2.16.53-.88-.38.69-.82,1.19-.79.62-.29-.35-1-1-1-1.55-1.05-.25.76-.57-.16-.62-.63-.35-.63,0-.62.09-.85.14-.69.13-.16-.65-.83-.92-.08-2.27.41-1.11-.24-1.27-.61L394.41,238l-3.52-3.07-3.12-3.74-1.15-2.09-.77-1.09-1.67-1.09-2.27-4-.49-.28-.58-.21-.51-.27-.22-.39,0-.76.12-.68.27-.47.49-.18,2.75,2.75,1.59,3,1,1.46,1.22.63.83.61,3.23,5.25.41.35.66.14.51.22.51.94,1.56.57,2,1.61,1,.35,4.24-.94.25-.39-.27-.88-.49-.93-.42-.54-.46-.13-1.73.13v-.41l1.52-.57.27-.14-.11-.66-.27-.26-.39-.14-1.43-1.09-.25-.53.26-.73.51-.39.56,0,.59.17.53.27-.15-.56-.26-.58-.4-.49-.61-.2.69-1.64,1,.88,1.62,3,1,.31.77-.34.64-.09.14,1,2.16,2.77.46.88h.34l.15-2L410,228.7l.07-2.08-.42-1.18-.6-.26h-.63l-.54-.44,0-.71.5-.71.72-.58.6-.31V222l-1.53-1.53-.74-.13-.32,1.42-.52.7-1.14-.5-1.8-1.37-1.12-.23-.84-.54v-.6l1.43-.47,2.49-.25.93-.33.94-.79-2.19-.74-2.25-.24-2-.67-1.28-2-.8.37H398l-3.27-.68-.86-.5-.67-.79-.79-1.5-.47-1.21-.1-.52-.07-.16-.29-1.93-.38-.49-1.45-1.5-.57-.31-2.38-.45,0-.26.08-.88,0-.23-.25-.08-.23,0H386l-.56-.46-1.26-.41-.23-.31-.48-.88-.26-.17-.45-.51-1.27-2.28-.26-.68-.12-1.31-.39-.6-1.67-.65-.66-.43-.86-.71-.72-.9-.54-1.49-.51-.35-.61-.31-.51-.41-.51-.68-.11-.39-.48-3.81-.22-.41-1-1.05-.22-.36-.63-.66-3.78-1-.51-.49-.35-.53-.19-.66,0-.88-.2-.52-.41,0-.67.34-1.79-.27-.93-.44-.38-.71.42-.67,1,.06,2.38.61.8.42.6,1,.52,1.11.49.8.54-.08,2.38.48.83.51.64.66,1,1.61,1.5,3.68.47.46,2.12,1.64.74,2.13,3.25,1.73.74,2.14,2,3.24.63.67.7.36.73-.09.66-.69-.06,1,.26.65.43.39.49.27.63-.62.35.31.22.67.26.52,1.58,1.26.24.41.41,1.34,1.9,2.4.6,1.1,0,.78.38,1.26.63.8.81-.09.6-2.46.52-.92.68,1.09.12.6.39.85.41.53.2.08.26-.35.59.46.55.67.22.35,3,1.13,1.5.27.88-.93-.7,0-.18-.46-.76-1-.18-.66.25-.46.47-.25.3-.41-.28-.92.5.21.63.14.62,0,.42-.31-.07-.78-1.68-1.43-.42-.8.14-.27.35,0,.36.1.24-.1.36-.91.21-.68,0-.61-.23-1L405.76,200l-.37-1.34.51-.6.85.46,1.67,1.78,1,.11.55-.9.21-1.58,0-2.89-.38-.75-.91-.71-1.08-.6-4.9-1.86-2-1.4-2.59-1-.55-.36.39-.1.39-.25.3-.11-.45-.49-.52-.42-.58-.34-.65-.17-1.9.41-.27-.17-.08-.91-.07-.25.66-.69.15-.91-.72-.87-1.81-1.26-1.25-1.2-.22-.34,0-1.42-.14-.49-.45-.19-.63.09-1.1.36h-.65l-.4-.21-.37-.33-.43-.3-.61-.13-.53.41-1.27.76-1.28.34-.6-.79-.31-.85-.81-.49-1.06-.22-1.09,0-2.14-.39-2.62-1-2.06-1.2-.74-1.67.12-.4.17-.4,0-.52-.39-.55-.49-.33-.51-.24-.43-.29-2.4-2.57-.24-.15-.5-.41-.3-.42.31-.2,1,.07.49-.07.38-.2.49-1v-1.15l-.29-1.07-.4-.74-1.26-.74-1.26.59-1.42,1-2.59.83-1.77,1.29-1,.3-3.48.46-2.24-.71-2.54-.25v-.46l.59-.14,1.79.14.58-.25-.14-.55-.62-.8-.39-.74L351.14,160l-.61-.85.85-.46.66.44,1,1.42L352.6,158l.62-2.94.8-2.52.14-1.28v-.5l.43-.19,1-.69-.27-.34-.21-.43-.26-.21.71-.69.6-1,.42-1.16.16-1.05.35-1,.75-.55h.74l.35.63.09,1.14.26.51.54,0,.89-.45.68-.48.53-.66,0-.67-.85-.51-.38-.71,0-.82.54-.65.9-.19-.14.88.28.5h.39l.37-1.3.41-.09.53,0,.53-.24,1.07-.75.87-.28.58-.6.21-1.67,0-7-.06-.33-.28-.79-.2-.4-1-1.51h0l-.49-.64-2-1.69-.28-.36-.62-.83-.6-.48-1.64-.34-1.79-.64-.76-.15-.73-.38-.36-.9-.23-1.09-.33-.94-1.16-1.25-1.56-.86-1.71-.49-4.71-.47-1.24-.71-1.91-1.95-.8-.74-.71-.91-.3-1.05.4-1.16,1.75-1.57.8-1,.18-1.4-.59-1.07-1.05-.47-1.2-.34-1-.69-1-1.74-.58-.54-2.41-.59-2.27-.92-1-.19h-2.71l-1-.49c-1.78,4.28-3.64,8.53-5.38,12.82l-.47-.4q-12.28-10.08-24.69-20l-.8-.64-.74.4-.76,1.2-.28.67-.11.56v.69l.31,2.07,0,.71-.09.8-.1.41-.24.71-.76,1.31-1.65,2.36-.17.3-.13.32-.05.33v.6l.07.29.07.73,0,.4-.07.4-.35,1.09-.1.41-.07.41,0,.37.05.35.23,1,0,.32,0,.33-.1.27-.25.37L291.83,112l-2.13,1.68-2.11,2.54-.88,1.46-.12.27,0,.24.05.26,0,.26v.27l-.3.56L285,121.27l-.35.3-.46.28-.87.3-.55.11-.46.18-.28.26-.33.56-.56,1.21-.37.58-.32.3-.41.3-1.23.55-.42.1-.33,0-.27-.07-.22-.18-.17-.23-.14-.27-.16-.25-.17-.16h-.28l-.28.19q-3.18,4.67-6.35,9.34l-.29.34-.31.21-.38-.11c-1.91-1.34-3.83-2.66-5.73-4l-.3,0-.27.24-2.25,3.06-.38.63-.24.55-.08.35-.16.4-.23.47-.95,1.33-.24.54-.13.43-.56,3.84-.08.26-.25.3-.4.34-.8.49-.56.43-.53.55-.48.76-.24.5L254,147l-.49,2.25-.1.19v.12l-.13.45-.77,2.34-.31.68-.35.61-4.14,5.76-.24.24-.28.17-.4,0-11-3.67-.15-.08-.07-.05.07-.26.22-.53,0-.24,0-.21,0-.13-.13-.3-2.07-3.77-.16-.23-.17-.16-.12-.09-4.46-1.66h-.32l-.35.28-.3.53-.33,1.16-.11.66,0,.54,0,.36,0,.38-.11.38-.24.5-1,1.41-.05.17-.14,1-.05,2.84-.13.38-.24.42-.87,1.15-.29.6-.54,2-.23.36-.54.35-1.05.39-.21.24-.18.36-.21.61-.3.56-.53.71-.27.47-.11.63.07.41.24.66.07.29,0,.35-.13.43-.25.42-.9.94-1.19.8-.52.46-1.16,1.48-2.5,2.3-.18.31-.11.36v.52l.14.69-.09.42-1.19,3.8q-1.49,2.94-3,5.87l-11,12.57-.08.22-.45,1.55-.18.47q-1.73,3.23-3.45,6.48l-.25.69,0,.24,0,.16.12.14.67.65.59.39,1.52.79.24.25.16.36.05.6-.12.41-.2.34-.49.44-1.12.71-.88.42-.35.22-.39.31-.55.58-.25.46-.13.42v.31l.05.31.14.27.21.22.61.41.21.3v.71l-.2.39-.24.28-6.5,3.69-1.61,1.43-.32.22-.28.08-.27,0-.3-.06-.22-.12-.21-.22-.15-.27-.09-.31,0-.34V225l0-.23-.09-.27-.18-.26-.52-.12-.39,0-1.26.13-1.25.42-4.82,2.27-4.79,2.9-.25.11-.42.09-.19,0-.15-.11-.16-.17-.11-.25-.13-.24-.22-.17-.27-.13-.92-.19-.24-.16-.11-.23,0-.52-.09-.19-.17-.14-.17-.06-1.49-.34-.47,0-.53.07-.73.27-.41.28-.29.3-.2.31c-.08.24-.16.48-.24.72l0,.38,0,.38.1.31.79,1.43,0,.39-.07.46-.35.69-.3.4-.28.28-3.51,2.08-.38.08-.3-.06-.74-.65-.41-.07-.52,0-1.47.74-.47.15-5.53.71L144.55,239l-.6.16-.14-.08-.13-.11-.12-.18-.2-.49-.15-.24-.21-.22-.42-.37-2.79-1.78-.25-.2-.31-.35-1-1.53-.22-.24-.34-.21-.45-.09-.67,0-.45.27-.26.28-.14.29-.38,1.1-.22.48-.33.52-.64.74-.42.35-.39.21-2.13.23-.8.23-.45.22-.35.23-2.77,3-.41.29-.36.15-1.26.1-3.25-.3-.65-.18-1.32-1-1.9-1-.25-.22-.47-.47-.7-1.1-.19-.24-.24-.23-.28-.21-.3-.16-.47-.16-1.17-.13-.74,0-.67-.08-.21,0-.62-.38-.47-.47-.2-.25-.14-.27-.49-1.26-.15-.28-.19-.25-.5-.42-2.55-1.8-.22-.23-.17-.28-.11-.31,0-.37v-.39l.19-1.61,0-.38,0-.35,0-.35-.11-.31-.13-.28-.17-.23-.18-.21-1.91-1.23-.22-.22-.1-.28v-.3l.12-.31.17-.23,1.29-1,.1-.2.08-.28.07-.35v-.38l-.08-.35-.14-.31-.16-.23-.46-.49q-10.3,8.71-20.61,17.4l-1.29.88q-6.86,3.36-13.7,6.76l-2.62,1.79-1,1-.45.63,0,.42.19,1,.09,1.49-.05.4-.09.38-.15.35-.17.31-.22.25-.55.36L59,255.23l-1.27,1-.52.55-.28.53,0,1.09,0,.35,0,.73-.1,1-.08.33-.11.34-.14.34-.2.29-.22.25-.8.44L48.81,265H46.54l-.35.1-.31.21-1.07,1.13-1,2.14-.37.57-.63.69-.14.22,0,.25.1.62,0,.34-.11.32-.28.23-.47.22-5.47.85-5.46,1.85-2.12,1.19-.69.59-.4.22-.58.19-5.1.52-4.71,1.72-.36,0-1,.49-2.36,2,32.43.17,31.13.16,27.94.14.42-.18,1.15-1,.48-.13.47,0c4.39.19,8.77.36,13.16.53l.36.73.19.19.36.11c10.42.14,20.85.21,31.27.31q16.89.17,33.78.32l30.35.3,33.68.32,30.79.3q16.52.17,33,.32c10.63.09,21.26.22,31.89.31l31.89.31,33.05.32,9.6.08-.17-.63-.27-.51-.22-.56,0-.9,1.67,2.6,2.48,0-.08-.13-.4-3.63.69-6.82.27-.66.59.07.63.41.37.4.31.72,1.15,4.71.26.49.63.83.19.53V283l-.19.71-.1.76.27.88.72,0h.76L430,282.6Zm1.26,15.75-.89.59.37.74-.06,0,.87,0h.94l-.28-1.75Zm36.72-98-.35,0-.21.39L461.23,188l-1,1.52-.38.76-.72,2.24-.38.52-.27.69-.46.43-.6.2-.67.07-.16.25.31.58.76,1-.49.24-.55.15-.56.08-.59,0v.51l1.74-.11,1.51-1.35,1.26-2,3.64-7.86Zm-29.62,50.5-.28,1.43-.48,1.28-1,.71h-.39v.41l1.77-.14.88-1,.27-1.67,0-2.21h-.36Z"/></svg>