<svg id="Alabama" xmlns="http://www.w3.org/2000/svg" viewBox="0 0 353.59 371.93"><defs><style>.cls-1{fill:#ccabd1;}</style></defs><title>state</title><path class="cls-1" d="M310.21,91l-.85,0-1.3.3-.46-.14-.81-.45-.67-.2h-.68l-.86.2-3.81,1.59-.69-.09-2.29-1.29-.58-.49-.5-.63-2-3.51-.47-.59-1.81-.81-2.24-.06-11.21,1.52-.28-.09-.21-.17-.26-.1-.44.12-1.15.55-.4,0-.77-.29-.45-.52-.5-.4-.93.08-3.47,1.09-1.88,0-1.38-.95-.39-1L266.18,83l-.36-.79-.44-.42-.4-.19-.33-.3-.26-.72,0-.53.42-.67-.12-.55L263.45,78l-1.89.41-3.27,1.88-.77.55-1.64.81-5.1,3.63-1.32,1.43-1.46,1-3.43.4-2.41,1.22-.7-.24-.71-.47-.86-.26-3.37.3-.48-.25.08-.47.21-.58-.06-.57-.33-.43-.3-.12-.81,0L232,85.86l-.92-.81.8-1.46-1.23-1.77-.64-.65-.81-.44-3.35-.5-4-1.86-.7-.47-.63-.65-.61-.84L219.37,75,219,73.49l-.52-1.23-1-.7-3.24-.2-4,.6-.86.46-.83,1.2.07,1.17L209,76l0,1.2-.49.59-.93.57-1,.38-.69,0-.49-.57-1.29-2.85-1.27-1.77-.43-1-.18-1.38V68.81l-.27-.93-.63-1.31L200,65.85l-1.68-.06-3.33.49-.77-.2-1-.2-.58-.85.32-1.34.75-.4,1.71-.44.74-.31-.11-1-.7-1-3-.72-6.09-1.81-2.75-1.88-.93-.31-10.68-.74-4.91.9-1.21.62-1.32.39-.09.61.06.83-.29.89-1.21.87L160,60.5l-1.28.69-.62-.29-5.4.85-.84-.17-1.18-1.39-1-4.26-1.5-1.1-13.73-.92-.72-.31-.06-.3-.13-1.22-.1-.43-.27-.4-.35-.37-.36-.29-.33-.17-.73-.12-6.45.77-1.52-.22-2.84-1.28-3.69-3-.5-.65-.35-1-.09-.95,0-1.09q0-2.1,0-4.2l-3.11-12.37-.44-1.16-.29-1.19.2-2.6-.17-1.09-.36-1.32-.29-2.4-.45-.94-.66-.55-2.69-1.61-2.16-.62-4.63.13L98.78,12q0,10.48,0,21l-.1.62-.25.36-.33.14H19.46l-.12,1.41.3,1,.39.91q.16,1,.31,1.94l.23.53.26.49.2.52.28,2L22.46,46l.28,2.25.32,1,.89,2L24.27,54l-.8,2.21-1,2.09-.34,2.43L23,64.11l.2,1.83.21.92,0,.64-.18.63-.47,1-.14.69.67,3.77.26.81.18.91-.57,4v2.38l.3,2.17.6,2.06,1.68,4.22.43,2.13.62,1.94,1.34,1.6-.56,1.36.1,1.3,1,2.8v.33l-.21.42.08.25.14.11.14.05.1.06,0,.14.14.23.91,1.16.3.72.48,2,.51,1.15.52.88.39,1,.23,2,.47,1.56.61.52.17.3v.36l-.1.32-.12.27,0,.21,0,1.36-.07,1.13,0,1,.38,1v.82l-.61,2.86v1.18l.19.28.34.4.34.48.15.56-.28,7.18.13,1.27.58,2.73.13,1.2-.07.43-.13.48-.1.56v.66l.53,2.31,0,1.12L34.75,148l.08.74.2.51.48.88.14.74,0,.41h-.16l.2.15.45.13.39.29L37,152l.24.24.14.35-.07.25-.14.25-.2.9-.54.77-.13.58.06,1.89-.06.61-.1.38-.35.93-.09.56.11.88.54,2,.13,1.22-.14,1.25L36,167l.08,1.2.39.77,1.21,1.75.26,1.1.23,2.06,0,1.18-.26,1.13.21.4.62.73.24.43.05.41v.49l.07.56.25.61,2.23,3.62,1.32,1.51.57,1,.24,1.18-.09,3.59.09,1.12.12.59.17.47.88,1.5v.36l-.08.42-.05.64.17.31.26,2v.7l-.27,1.54-.45,1.23v1.31l.76,4.12-.24.57-.13.21-.14.29-.1.28-.34,3.35-.26.95-.77,1.43-1.16,2.71-.14.25-.3.44-.37.39-1,.84-2.79,1.64-.39.35-.89,1-1.45,1.06-.35.29-.29.34-.47,1.15-.16,1.16,1,1.37,1.9,2.21.78,1.27,1.4,3.31.85,1.62.77.69,3,.33,1.63.51,1.12.83.42.48.91.79.38.41,1.06,2.05.26.55.19.17q0,11.54,0,23.08V338.6H249l.21-1.24.07-.67-.05-.7-.23-1.36,0-.7.16-1.66,0-.56-.28-1.41v-.48l.47-2.87v-1l-.11-1-.13-.49-.24-.4-.54-.64-.2-.38-.15-.45-.08-.45,0-.46.09-1.55,0-1.22-.18-1.29-.16-.6-.25-.52-.39-.42-.51-.33-1.65-.63-.3-.7-.88-1.14-.29-.75-.07-.4-.09-.35-.16-.3-.25-.26-.47-.23-1.41-.11-.33-.1-.28-.16-2.18-1.82-.22-.1h-3.72l-.48-.14-.48-.26-4.45-4.07-1.5-.7-.76-1-2.89-5.72-1.45-2.5-5.86-5.42-2.05-.78-4.48-.77-.51-.26-.41-.45-.33-.59-1-2.31-1.11-1.44-1.3-1.06-1.35-.52-6-1-1.67-1-.17-.34-.18-.51-.23-.46-.68-.46-2.7-2.76-2.37-1.56-1-.93,1.59-3.37.25-1.46,0-.65-.23-1.74.12-.59.54-.92.12-.34-.17-2.32-.35-2.3-.92-2.43-.25-1.2.52-.51.78-.29.5-.76.22-1.07-.06-1.22-.66-1.82-.18-.28.08-.64.24-1.14,0-2.42.16-1,.32-.89.53-.67.6-.51.5-.62.47-2.25,1.11-1.87.17-1-.18-1-.55-.86-.7-.74-.66-.88-.29-.8-.56-2.1-.45-.83-1.47-.58-1.93,0-1.68-.4-.7-1.92.26-4.15.14-.92.35-.66,3.33-3.26,1.07-1.63-.17-1.6,1.54-3,1.07-1.37,1.2-.57.7-.18,2.06-1.32,1-.16.32-.18.18-.24.46-.76,0-.16.15-.12.21-.26.31-.26.36-.12h1.59l.57-.31.86-1.45.57-.5.68,0,1,.22.86,0,.37-.47.17-.76.43-.74.52-.61.48-.36.75-.16c0-10.34,0-20.67,0-31v-1l.09-.18.17,0,.56.21.69.06.66,0,.56-.15.2-.14.14-.17.08-.15.1-.24.18-1.42.07-.34.13-.29.16-.23L213,164l.23-.11.63-.17.2-.15.14-.21.32-.94.31-.51.62-.47.51-.26-.11-.23.73-1.77,1.81-1.68,3.51-2.31,2.27-2,1.45-.52L228,151l2-2.4,1.31-.58,2.19-1.69.22-.34.4-.85.19-.31.4-.22.52-.19.45-.33.21-.66.42-.66,2.73-1.43,19.15-21,2.43-1.1,6.06-5.88,9.95-5.44,5.25-1.73,1.93-.25.66-.22,1.58-1,7.77-2.49,13.14-6.82.7-.61,1.23-1.44,1.07-.52.64-1.08.46-.24,1.13.42.64.05.34-.34h-.47Z"/></svg>