<svg id="Alabama" xmlns="http://www.w3.org/2000/svg" viewBox="0 0 473.91 371.93"><defs><style>.cls-1{fill:#ccabd1;}</style></defs><title>state</title><path class="cls-1" d="M458.31,163.92q-2.08-15.87-4.15-31.74V132q0-16.25,0-32.51H13.59v.14q0,16.24,0,32.49H140.26l30.92,0q0,14.16,0,28.31c0,10.94,0,21.88,0,32.82q0,15.19,0,30.39c0,10.75,0,21.5,0,32.25l.85-.08,2.36-.34.81.25.48.28,1.17.21.51.34,8.87,8.52,1,1.56.67.72,1,.31,3.18.31,1-.31.37-.29.6-.7.47-.31.46-.12,2.53.36,2,1.11,1.1.44,1.24.12.79-.39.42-1,.31-3.15.53-.73.79,0,1,.7.25.39.14.44.24.46.45.45.45.21.53.13,1,.06,1.06.4.51,1,.32,1.15.5,1,1.61,1.45.91,1.1-.21.51-.19.75.14,3.43.2,1,.9.73,1.18.24,2.45-.11,1.07.16,2,.6,1.05.16,1.12-.19.84-.36.83-.2,1.18.27,4,2.59,1.05.39,6.6,1.43.62.34,3.52-1.46,1.18-.23.64,0,1.72.37.59.33.84,1.51.36.34.67.48,1.75,2,.79.48,2.64,0,1.27-.23.28-.58.77-1.05.64-1.15.82-.91,1.34-.37,7,.9L267,284l2.47-.9,1.34-.2.83.73,0,1.66-.2,1.88.26,1.35.1,2.08,2,1,2.59.52,1.86.65.53-.14.39.51.1.65-.33.73.36.69v.6l-.36,1.3-.11.65-.1.39-.12.93.51.62,1.19.63,2.23.73,2.31-.4,2.06-1.26,4.52-4.55,1.84-1.49,2.06-.68,2,1,.46,1.05,0,2.34.48,1.18.78.46,3.38-.24,1.18.22.78.45.42.81.14,1.3.33,1.45.83.53,3.42-.22.59-.2.41-.29.23-.22.56-.34.26-.28.17-.26.29-.64.11-.2.84-.56.64.17,1.4,1.26.29-.41.93-1.62.17-.47.23-.29.29-.21.65-.26.33-.2.67.48.59.6.4.72.14.77-.25,1-1,1.58-.23,1.07.26,1.52.72,1.67,1,1.41,1.24.79,1.66-.06,1-1,.47-1.62.12-1.83.21-.68,1-.59.24-.45-.2-.64-.42-.31-.37-.43-.08-1,1.87.5,1.16-.31.81-1.06.82-1.72.12-1.52,0-.82.39-.48.28-.16.29-.14,1.8-.33H333l.5.1.72.31.37.29.25.3.23.64.33,1.77.25.62.33.51.63.66.25.19.38.12.5,0,1.88-.26.44.08.54.27,1.37,1,.28.16.45.09.57,0,1-.13.54-.15.39-.19.24-.2.18-.25.17-.26.14-.29.68-2,.33-.53.23-.22.26-.15.55,0,.71.19,1.3.52.43.45.14.37-.57,1.18-.1.31V301l.08.31.15.28.2.24.65.7,2.16.67,1.15.59.29.26.17.46.12.59.2.5.38.2,3.57-.19,1,.19,1.23,1.5,1.49,2.35,1.57,1.49,1.45-1,.29-1.31v-.95l.33-.56,1.38-.19,2.24.25.95-.11,1-.62.51-.83.93-2.17.51-.43.57-.14,1.07-.59.52-.14h2.69l.75-.09,1.76-.76,1-.68.81-.44.37,0,.23-.46.56-.59.65-.39.54.16.56.57,3,1.89.6.16,1.48-.25.31-.44.31-.29.42-.14.28.43.3.3.35.14.58-.41-.22-1.79.36-.4,1.72.06.79-.11.55,0,.34-.4.53-.42.59-.33.53-.14,1.24-.66.17-.14.87.33.4,0,.7-1.21.59-.54.7.26.68.58.67.35.59.48.41,1-.5.9.67.37h1.66l0,.11.12.22.22.29.11.28.28-.11.31-.26.23-.14.5.05.4.14.34.28.34.43.58-.08,4.39.14.45-.06.34-.17.21-.16.13-.27,0-.49.16-.58.37,0,.59.35.56-.34.48-.18.4-.27.31-.49.6.34.3-.68.08-1.1.31-1,1-.8.87-.14L426,295.9l.6.39.28.37.2.45.29.36,1.64.4.92.64,1.67,1.7.84.58.81.27,1.81.06.39.11.42.29.33.34.14.31.14,1,.33.38.46.2.51.37.28.39.76,1.36,2,1.94,3.44.6,1.34.42.64,0,.74.34.84,1.47.91.46.45.56.29.12.37-.06.6-.29.34,0,.74.16.73.23.6.37.39.53,1.38-.23,1.12.11-.17.23-.17.36.78.4,2.48.86V314l1,.48,1.34,0,.28.07q.15-6.88.3-13.76.34-15.84.68-31.68.36-17.06.73-34.11.33-15.43.65-30.87l-1.18-8.93C461,184.8,459.68,174.36,458.31,163.92Z"/></svg>