<svg id="Alabama" xmlns="http://www.w3.org/2000/svg" viewBox="0 0 351.89 371.93"><defs><style>.cls-1{fill:#ccabd1;}</style></defs><title>state</title><path class="cls-1" d="M304.48,323.78l-.58,2.45-3.3,2.68-.7,2.34.14.47.57,1.49.2.69.06.66-.06,2,.65,6,.5.26.5-.69.23-1.53-.43-2.33,0-1.19,1-2.14.65-2.78.24-2.28.59-2.55.16-1.9,0-1.6ZM343,241.6l-1.15-.34H341l-.67-.3-.06-.18-.06,0-1.34-.12-1.23-.45-1-.8-.43-1.08-.46-.57L333,236.49l-1.46-.32-3.87.32-.59-.33-1.94-2.4-.35-.29-.72-.41-.29-.36-.2-.57.06-.44.12-.32,0-.25-1.19-2.51-.18-.51.14-.87.63-1.35.13-.47-.11-2.06.11-.87.22-.76.52-1.07.14-.93-.14-1.66-.54-1.38-.81-.93-1-.33-2-6.47.06-2.47-.29-1.33-.93-.57-.9-.32-.34-.76-.14-.91-.24-.7-.35-.29-1.49-.79-.24.06-.36-.3-1-1.17-.49-.49-.54-.42-.61-.31-2-.37-1.38-.7-1.21-.84-.85-.86-.65-1.28.08-1.17.35-1.2.22-1.53-.14-.53-.31-.61-.4-.53-.31-.22L305,188l.26-.83.18-1,.42-.54.05-1.07-.39-1.27-.67-1.1-.37-1.21-.08-1.19-.2-1.22-.63-2.19-3.42-6-.79-.67v-1.54l.55-2.71-.24-1.35-.63-1.62-.83-1.34-.83-.58-1.46-.25-1-.64L293,157.9l-2.72-1.55-5.89-2.44-2.39-2-.33-1.1-.37-3.19-.46-.65-1.51-.1-1.2-.44-1-1-1-1.8.95-.61.22-.83-.48-.93-1.14-.89.9-.49v-.53l-.45-.26-.8-.31-.75-.1-.31.38-.26.39-.55-.49-2.85-3.4-.46-1.2.95-.5-.82-2,.18-.6,1.06-.18-.57-1.23-.33-.41.48-1.72-1-1.38-2.68-1.86L266,123.27l-2.81-3.57-1.4-1.17-1.32-.65-3.18-.95-1.44-.67-1.56-1.06-1.35-1.46-.95-2.34-.57-1.78L250.31,108l-.83-3.6-1.82-2.17-3.24-3L241.59,97,239,95.28l-2.17-1-2.07-1.4-1.58-1.8L232,89.39,231,88.3h-1.34l-1.07-.39-.83-.91-.51-2.1-.74-1.9-.69-2.23-.57-.89L223.65,79l-.56-1.13-.73-2.23-.52-.8-.75-.91-.85-.77-1.58-.65L217.56,71l-.46-.35-.37-1.12-1.27-6.88-.53-1.82-3.81-5.93-.61-.72-.91-2.61-.33-2.19-.75-2.11-2.83-1.81h-4.57l-3.16.1-2.15-1.21-1.09-1.2-1.07-1.92-1.42-.91-1.41-1.89L188.33,37l-.52-1-.11-1.09-.48-.12-1.58.46-2.25-1.1-6.1-4-2.12-3,.63-3.42,1.14-1.44.28-.65.14-.65,0-.65.09-.61.28-.45.55-1.17.89-.79,1-.65.88-.81.68-1.14,1-2.57.59-1.16.76-.89,2.72-2,.85-.44,1.78-.57.77-.69.57-.93.4-.95.1-1,0-.1q-16.95.25-33.9.45c-11,.13-22,.31-32.94.45l-14.17.19-16.9-.85-.48-.19H23.29c1.94,10.63,3.61,21.31,5.45,32,2,11.36,3.89,22.72,5.85,34.08Q37.32,85.35,40,101.12c1.92,11.19,3.89,22.37,5.81,33.56Q48.64,151,51.5,167.32l.25,1.44-.18.73,2.17,5.71-.2,2.28.06.71.22.61.33.56.42.5,1.34,1.47.38.53-.56.75.26.77.61.8.55.91.39,2.77.68,1.62,0,1-.16,1.38.41.76.8.53.51.63-.38,1,4.6,6,.77,1.3.28,1,.31,2.53L66,206.9l.69,1.13.57,1.16.08,1,0-.25v.59l0-.33-.12,1-.44.87-.28.77.36.89-1.46,1.58.24,1.44,1.3,1.28L70.1,220l.63.51.42.91.29.05.3.16.14.57-.18.63-.47.44-.6.22-.57,0,.38,1-.2.76-.51.6-.59.37-1.18-.51-1,.26-.24.65,1.07.7-.79.6-1.11.51-1.1.36-.91.14-.46.29-.45.73-1.07,2.57-.12.67,0,1.93-.16,1L61,237.54l-.22,1.78.49,1.76L61,243l-.09.29-.57,1.17-.28.38L58.18,248l-1.3,3-.54,2.63-.33,1-.1.39-.06.48-.44,1.68.46,1.58,1.85,8.74.54,1.3L60.57,272l.59,1.46.14,1,0,2.14.14.59.59,1.56.14,1.07-.4,1.86L61,283.08l-.37,1.62.65,2.23-1.4,1.88-.48,2.84-.39,6-.32.69-.84,1.23-.22.79.12.61.61,1.52.14.78-.35,2.79.1,1.22.77,1,1.34.68,1.82,2.51,1.62,3.26.85,3.66.63.83.12.8-.22.64-.41.49-.2.33-.14.26.06,1,.29.36,1.17.82.41.42.38.85.53,2.34.57.57.91,1.84.49,1.81.08,3.28,1,5.1,3,3.18.59-.09,2.12.14.43,0c11.14.75,22.29,1.55,33.43,2.29s22.11,1.54,33.17,2.28,21.82,1.48,32.73,2.24q17.13,1.19,34.27,2.35,16.18,1.07,32.35,2.22c2.46.17,4.93.35,7.39.5l.14.12v.24l-.2.49-.28.5-.12.29v.32l.08.32.36.63,1.58,2.06.29.49.32.68.1.35,0,.36,0,.39-.06.42-.33,1.12-.18.91,0,.45,0,.38.14.69,1,2.87.38.67.25.28.36.24.47.16.63,0,3.1-.35.45.07,1.25.4.34,0h.29l1.84-.51.35-.18.26-.3.13-.61,0-.48-.14-2.23,0-.48.18-1,1.34-4.82.91-5.14,0-.89-.08-.77-.1-.38-.29-.59-1.29-1.82-.31-.69-.22-.72-.14-.61-.06-.9,0-.44.47-1.76.08-.5,0-.45-.22-1.92,0-.75.1-.35.14-.34.2-.3.8-.79.2-.37.1-.44.14-.82.2-.27.34-.09.69.22.56.07.6-.11.28-.24.22-.36.08-.37.07-.52v-.16l.1-.5.18-.31.33-.3.57-.16.52,0,.93.05.41,0,.52,0,.59.14,1,.63.51.4.91.51,6.1,2.51.6-.07.61.05,1,.26.65.46.44.41.67.41,1,.44,3.22,1,.73.08.7-.12.48,0,.9.57.68.3,2.77.63h.63l2.17-.66,1.21.34.5.11-.08-.95.44-1.94.16-1.73-.29-.89-.79-1-.34-.72-.09-1,0-1-.28-.76-1-.4v-.54l.75,0,.72.08.67.2.61.3-.05-1-.3-.51-.33-.46-.22-.76.05-.35.32-1.06.07-.43.42-1,2.06-2.33.77-1.17-.88-.38-2.36,0-1.38-.65v-.59l3.17-.59,1.06-.77.39-1.59-.57-1.28-2.68-2.81-1-1.44,1.71.57,1.66,1.45,1.36,1.76.85,1.52h.42l1.26-5.42.13-2.06-1.43,1.29-.41.89,0,1.54-.72-.61-1.54-1.65-1.92-.85-.22-1,.58-.57,2.39,1.29.31-1.08-.11-1.55-.54-3.09.12-1.2.69-.85,1.44-.22.5,1-.2,3.64,0,.89.59.45,1.54.12,1.25-.93,1.62-2.1,2.39-3.9,1.27.75.95-1.15.46-1.8-.14-1.26-1-1-2.88-2.16-1.11-.42-2.49-.24-3-.73-2.7-1.15-1.7-1.57.83-.51.61.12,1.34.89,1.46.68,7,1.5,2.61,0,.69-.59-.27-1.6-.81-1.19-2-2.07-.41-1.25-.06-1,.18-.11.55-.48.54-.25.37.37.22.74.07.77.14.77.4.79.51.61.53.24.83-.2.18-.51,0-.72.18-.75,4.67-6.9,1.24-2.7-2.37.08-2,1-3.81,2.63.57-1.23.7-.91.3-.76-.61-.83-.1.18-2-.18-.39-.16-.46-.39-.42-.51-.33-.54,1.08-.33,1.17-.56,1.25-.16,1.32.79,1.19.32,1.27-.83,1.91-1.94-.83-1-1.63-1.58-.78-1.13,1.53.06,1.15.59.85.93.59,1,.71,2.83.46.41.39-.3.32-.72,1.58-5,.33-1.94-.14-1.7-.95-1-1.09.25-.53.95.77.91v.53l-4.17.53-1.34,0,2.69-2.85.18-1.42-2-1.57-2.05-.57-.87-.53-.28-1.09.46-.53.89.16,1,.57.67.63,1.62,1.07,2.21.37,3.52-.08.91-.4.95-.9,2-2.66.77-2,.65-1.07-.36-.05-1.07.05-1.4-1.32-.38-.27-3.7-.57.85-.93,2.67-.72-.08-.73-1.36-1-.44-.77.68-.68.86,0,.58.65.41.87.4.65,1.13.49,3,.59,1.17.79,1-.08,1.51-1.09,2.29-2.33-1.72-.38-.91-1.32-.11-1.42.69-.67.39-.3.29-.63.46-.57.91-.1,0,.29.26.7.48.74.61.41,3.3-2.49,1.25-1.62Z"/></svg>