<svg id="Alabama" xmlns="http://www.w3.org/2000/svg" viewBox="0 0 425.59 371.93"><defs><style>.cls-1{fill:#ccabd1;}</style></defs><title>state</title><path class="cls-1" d="M357.32,291.1l-1-.61-.26-.3-.35-.3-.88-.54-1.1,1-.26,1.25.3,3.56,1-.6.71-1.92.6-.39.48.35.34.77.54.78.94.39-.36-1.16-.21-1.21ZM368,277.9l1.1-2,.56-1.36-.36,0-1.17,1.68-.75,1.36-.39.8-.6.87-.73.86L366,280l1.34-1.27Zm-46.17,54.66-.45.3-.37.6.71.07,1.08-.69.11-.45-.71.08Zm43.15-43.32,3.38,3,1.05-2.86-.06-.56-.48.09-.74.32-.77.16-2.27-.56Zm18.47,23.21,2.21-2.53.27-.45-.34.11-.17.12-3,3.45.52-.26Zm5.4,27.79-.74-1.14-.88-.58-1.06-.15-1.32.17.28.86.24.32-1-.06-1.14-.33-1-.65-.39-1-3-.88v-.52l.82-.24.71-.32.56-.47.45-.74-.78-.3-.27-.71-.26-.91-.69-.9-.26.19-.73.41-.22-1-.42-.61-.49-.51-.39-.78-.28.22-.76.35.07-1,0-.82-.15-.5-.35,0-.06-.28,0-.21-.11-.13-.34,0-.67,1.49L373,329.71l-1.27.52-.93-.24-.28-.62-.24-1.58-.43-.65-.82-.39-.63,0-.6.22-1.53.24-1.1.39-.59.09-.82-.2-1.05-.78-.63-.17-.33-.26.09-.58.45-.6.77-.26h.8l.61-.09.47-.34,0-.43-1.81-.33-.76.16-.6.41h-.45l-.45-.35-.6-.06-.71.15-.22-.26-1.49-.79h-1.62l-4.35.91-1-.07-.8-.36-.35-.86.37-.16.8-.12.71-.57.17-1.37-1.17.58-.34-.6.26-1.19.75-1.15v-.56l-1.31-.11-2-1.14-1.19-.45.17-.28,0-.09.35-.26-1.06-.44-1.83.19-1.71-1.1-2-.67-.71-.52-.41-.84-.43-1.86-.39-1-2.07-2.46-.41-1,.22,0,.73,0-.49-.8-.74-.41-1.77-.5,2.54-.49,6.06,1.64,1.42-.58-1.87-1.9-.13-.39,0-.15,0-.41-1.49-.63.69-.42.31-.1-1-.84-1.92-1.14-.65-.93,2.18.69,3.56,2.27,2,.47,2,.13,2.29.5.82.58.86.86,1,.71,1.27.13v-.58l-2.46-2.2-1.08-.65.32,0,.31-.06.36,0,.5.11-.86-1-1.49-.07-1.69.19-1.44-.24-.84-.91-.5-1.4.17-1.55,1.17-1.34.67-.16,1.6.24.71-.08.88-.43.39-.39.77-1.51,1-1.1,1.12-.92.67-1.09-.32-1.46,1,0,.9.33.76.49.6.61.79,1.49.52.51.93,0-.17.57-.16,1.16-.13.57.69-.58.69-1.62.6-.6h.53l1.71.45.75.06-.94-.6-.59-.91-.43-1-.58-.95.41-.56.52-.59.71-.43.91-.11-.24-.35-.13-.27-.2-.26-.43-.26.47-.2,1.51-.88-2.05-.86-.47-.35-.48.56-.43.3-1.1.35v-.62l1.43-1,.56-.75-.22-.88-.62-.16L361,280l-.82.62-.41.63h-.45l0-.39-.13-.07.11-.06-.5-.35L357.79,279v-.52l2-1.14.48,1.38,1.4-.28.85-1.27-1.19-1.6-1-.28-2.07.37-.93-.09-.94-.56.19-.26.71-.3.54-.56v-.71l-.28-.65-.12-.69.41-.86,1-.56,2,.17,1-.24.88-.76.15-.65-.48-.51-1-.33-.54.17-1.55,1.1-.43.45h-.45l-.17-.32,0-.07h-.08l-.26-.19v-.63h.56v-.52l-.56-.32-1.64-.71-.8-.15-.39-.47-.41-.14-.52.31-.22.5.07,1.05-.13.45-.39.69-.26.6-.3.53-.54.52-.77.43-1.52.39-.71.28-1,.88-.41,1v3l-.32,1.81-.82,1.83-1.14,1.53-1.25.93-1.59.39-1.69,0-1.61-.6L338,281.61l-1.72-2,.25-.95,1.06-1.4.17-.52-.58-.37-2.55,1.14-1.12.37-2-.07-1.23-.32-.77-.85-.74-1.63-.52-1.58-.11-1.33.39-1.25,1-1.27,1.57-.83,2,.07,1.88.8,1.38,1.38.8-.73,0-.75-.26-.8.22-.89.63-.43,2.16-.75.3-2.08.76-1.05,1-.82,1-1.45-.78-.49-1.27-1.47-1-.39-2,.58-.26.56.41.41.59.17h.25l.07-.43.36-.22.39.13.19.51-.17.67-.37.41-1,.69-.39.13-1.1-.18-.45,0,0,.3-1,2-.22-.5-.3-.3-.28-.19-.19-.22.47-.8.82-2.18.76-1-.54-1.14h-.52l-.25,1.12-.43,1.08-.65,1.06-1.6,2.09-.19.71-.2.35-.67,0-1-.37-1.15-.6-1-.77-.39-.86-.24-1.25-.59-.48-1.68-.32-1.4,2.7-2,2.28-5.05,3.63-1.46.67-1.51.36-4.92.43-3,.95-1.7-.06-4.58-1.27L297.07,268l-5.33-.5-3-1.19-2.5-2.22L284.89,261l.33-3.84,1.72-2.61,5.39-4.7,1.87-2.5,2.7-4,1.68-1.79,1.69-1.16,2.42-.28,3.36.5,3.47.94,2.72,1.14,3.37,2.87.62.28.31.82,1.55,3.17.68.9,3.28.58.79-.11,1.36-.39.8-.08,1.6.56,2.61,2.22,1.57.16,2.52-.85,1.38.22.58,1.45-.1.8-.19.58,0,.54.34.69.54.34,1.49.45.52.37,1.18-.5,1.17,0,2.41.45,1.27-.35,1.17-.53,1-.11.77,1-.84.41-.45.15h-.71l1.23,1.05,2.24-.63,2.12-1.42.77-1.06-.5-.58-.9-.28-.88.33-.59.86-1.68-1.94-2.13-5.14-1.41-2.46.13-3.45-.34-1.43-2.1-3.27-.49-1.34-.07-.72.1-1.48,0-.72-.22-.61-1.21-2.24-2.05-1.44-1-2.61-1.19-.84-2.33-.91-1.12-1.17-1.92-4.07.93-1.75-.59-1.47-1.12-1.29-.7-1.27.1-1.51.54-1.84,1.37-3-.45-1.59.65-1.45,1.81-2.18,1.14-4.92,1.7-3.11.95-3,.5-3-.24-1.26-22.35,0h-118l5.72-4.74-.45-2.18L198.48,179l-.84-2.37.07-.82.77-1.47.19-.92.18-.33.32-.93.13-.94-.37-.43-1-.62-1.15-1.47L196,167l.1-1.36,1.1-.59,1.72-.15,3.45.15,1.54-.34.9-1,.48-1.31,1-5.5.69-.78.15-.75.13-1.69-.13-.5-.93-1.78-.75-1-.31-.65-.34-3.71,1.7-2.5,5.11-3.69.08-.58.36-.93.07-2,1.38-7.37.1-1.71.3-1.49,2.25-4.07.93-3.19.68-1.49,1.12-1.49,1.25-.8,3.08-.68,1.4-.52,1.4-1.1,3.37-3.91.47-.71.71-1.77.59-.75.71-.47,2.27-.71,2.61-1.92,1.64-2.94,0-3.12-2.22-2.54,0-.59,0-.86.27-.88.67-.67,3.95.15,2.5-4.33L245.91,81l3.32-3.3v-.58l.58-.28.26-1.23-.5-1.34-1.66-.63-2.55-.39-1.2-.47-.5-.63L243,68.72l-1.66-1.6-2.24-.95-2.44-1.46-.89-1.23-.26-1.4.15-3.54.16-.82.32-1,.22-1-.15-1-.54-.67-1.77-1.12-.73-.62-.85-1.21-.62-1.42L231.33,48l-.13-1.88.77-1.23,1.83-.36,2-.09,1.35-.37,1.17-1.81L238,40.75l-1.31-1-3.6-.61-.91-.73L232,37.1l.56-3.43,1.18-4.16.71-.86.93-.5,1.1-1.2,1-1.53.71-1.52-1.4-1.77-.93-.86-.92-.36-1.15-.15-1.23-.41-1-.65-.39-.83.1-2.85-1,.07q-15.74,0-31.47,0l-33.29,0c-9.93,0-19.85,0-29.78,0q-17.06,0-34.12,0c-9.79,0-19.58,0-29.37,0q-17.85,0-35.7,0l-15.23,0c0,10.29-.07,20.59-.07,30.88q0,15.94,0,31.88c0,8.18,0,16.35,0,24.52l.07.18.16.32.39.45,1,.73.48.27.91.71.34.41,1.5,2.76.25.32.3.26.33.22,2.39,1.21.65.53,1.42,1.49,1,1.29.65,1.14.34.8.31.84.52,1.08L36,121.39l.19.77.5,3.3.28,1,.25.67.26.26.22.27.17.33.07.43,0,.5-.34,1.36-.11.77-.13,2.39-.11.71-.1.47-.3.61-.3.88,0,.61,0,.64.26.83.19.5.45.77.71,1,2,2.17.63.52.36.24.41.22,1.77.54.43.17.34.24.24.35,0,.45-.22.46L44,146l-.09.11h0l-.78.51-.22.34,0,.41.16.69.15.36.22.39.28.23.34.17.86.24.41.18.3.25.24.52.19.71.19,1.35.22.74.24.55.73,1L48.45,156l1,.67.13.24,0,.28-.93,1.18-.22.35-.3.75L48,160l-.09.58.15.91.24.52.33.39L50.45,164l.8.86.24.35.19.41.15.48.15.69.18.58.24.43.39.63.1.45.3,2.27.15.45.19.3.22.22.21.17.16.07.22,0h.26L56,172l1.31.33.39,1.4-.19,3.78-.17.84-.69,1.14-.15.94,2,3.15,1,.9.31.63-.28.85-.58.4-2,.61-.67.1L55.2,188l.62,1.92L57,191.73l.53.62.57,1.1-.11.37-.45.88-1.12,1-.65.71-.27.89.08.93.37,1.62.08.94,0,1-.1.75-.41,1.4-2.65,4.89-.59,4-.71,1.21-2.5,2-.6,1.31-1.06,4.19-.15.88-1.42.41-1.12,1.05L44,225.43l0,1.67.22.43.58.39.2.39.07,1.63L45,230l.91,2.52.09.67-.19,1.58-.56,1.15-1.77,2.2-1,1.89-.24,1.61.28,3.72.51,1.29,1.1,1,1.06,1.2.34,1.9-.22.84-.69,1.66-.13,1,.17.84.71,1.23.15.56.17,1.55.26,1.21L46,261l-.47,1.92-.93,1.65-.13.78.56,1-4.29,4.87-1.49,2.63v0l.6.07,1.18.49.35,1.21L41,281l-3,6-1.17.28-4.62.32-.67.86.19,1.95.71,3.49,1.83,2.54,1.42,1.06,1.49-.43,1.16-.92,2.31-1.1,1-.87,2.42-1.35,3.39-.59,6.17,0,7.39.16,1.88-.78,1.32.33,3.23-.35,1.53.65,1.53-.82,4.21-.75,3.82-.18,4,.69,8,2,4.9,2.27,8.89,2.93,3.73,3,2.67,1.48,7.64,3.28,12.18,2.74,2.55-.65.75.45.74-.45,1.68.9,11.09,2,2.18-.06,2.11-.56,5.35-2.85,2.11-.51,4.53.43,2,0,.94-1-1.49-.51.43-.83.88-.45,2.22-.5-.88-.82-1.7,0-1.77.54-1.12.84h-.56l-.43-1.44-2.05-4.27.89-.32,2.16-1.45-.65-.39-.62,0-.67.22-1.74.32-1.06.82-.54.19-.67-.71-.71-1.67-.56-1.92-.26-1.49,1.55,1,.39.11.41-.33.61-1.15.25-.24,1.23.35.54.86-.17,1-.91.75,1,0,.88-.65,1.66-1.72,1-.58,6.29-2.31.71-.54.45-1.12-.13-.74.13-.36,1.29-.11.82.35.76.6.84.22,2-1.49.93,0,3.4.51.84.52.54.84.17,1.12-.24,1.45-.56-.26-.65-.95-.57-.54-.8.71-.71,1.58-.26,1.57.52.71.24.6.07,1.19.6.86,1.85-.37,2.72-1.57,1.27-.51,6.84-.39,1.69.19,1.74.73.54,1.1-.24,3.65-.34,1.94-.41,1.43.32.79,1.92.13.85-.21,1.61-.71.78-.18.6.39.13.9,0,1.06.22.77.78,1.48.28,1.93-.3,1.68-1,.86,1.81.39,3-.48,3-1,1.7-1.21,1,.76-.11.76-.56.8-.35.86.39.56.87.19,1.78.08,1.75.47,3.1,1.31,1.64,1.06.3-.88.88-1.61.3-.86-.17-.26-.28-.69-.12-.88.32-.79,2.1-1.73.39-1.18-.71-1.94,1.19.06,1,.41.6.76.24,1.12-.24,1.34-.67.79-.82.59-.76.68-.91,1.88-.32,2.22.37,2.22,1.1,2,.48.32.95.28.36.3.15.53-.1,1.38.19.6.82.74,2.31,1.36,4,3.43.84,1.82-1.27,2.13v.52l.35.22.34.53.34.39-.67.67-.73.47-1.57.56,0-.93-.3-.67-.53-.43-.78-.24.69-1.1.3-1.23,0-2.81-2.18.66-1.72-1-.88-1.66.3-1.4-1.72.17-.86.93-.61,1.34-.84,1.49-1.1.82-1.38.33-1.27-.37-.73-1.3.84,3.72,3.14,2.82,4.13,1.85,7.65,1.29.84.35,1.7,1.53.69.39,1.19.09,1-.17.65-.65.24-1.25.5-.39,1.14.09,1.19.43.66.77-.77.17-.52.43-.25.69,0,.93,2.07-.78,2,.48,1.85,1.21,3.35,3.13.76-.14.24-.32,0-.39.24-.29,1.64-.82.33-.76-.48-1.32,1.29.5,1.2.82,1.23.48,1.31-.6.53,1.55-.79.53-1.19.35-.6,1,.89.07,2.56.86.54,0,.54-1.2,1.18,0,1.12.57.43.34.58-.19.3-.41.24-.41,1-.48.07-.69-.11-.75.16-.54.82-.28.82.19.39.71.45,1.08v-1.37l.51-3.22-.17-.15-.34-.37.62-1.92.39-.88.5-.6.69.84.56.89.56.33.71-.91-.93-1.25.45-.86.8-1,.13-1.53-1.68-.26-.35-.26,0-.93.35-.45.56-.06.69.26.15-.78.42-.43.62-.09.82.16v.62l-1,.52.71.37,2.53.82.86-.41.69-.71.71-.15,1,1.27,1.7-1.94.59-1.08.22-1.29.34-1.25.71,0,.63.56.07.37.41.45,1.44,2.42.43,1.12v4.59l1.75-2.33.25-.85.11-1.11.37-.74.6-.43.91-.24v.52l.11,1,2.7,3,.68,1.47.28.41.6-1,.52-1.36.09-.63.73.13.48.8.24,1,.07.88-.11,1-.32,1.19-.07,1-.26.89-.48.88-.3.86.28.78,1.55,1.47.47.71.22,1,0,1.06-.13.82-.45.45,1.08.39,2.24-1,3.75-2.39,1.2-.41,1.23-1,1-1.17,1.05-.82.41-.57,1.67-3.21.47-1.34-2.4.32-1.18-2.37.37-2.5,2.2-.06-.8-1.4.6-.71,1.21.22,1,1.38,1.45-.6v-.58l-1.19-.63-1-1-.65-1.34-.17-1.55.6.19.43.37.3.51.22.62.09-2.21-.09-.67-.24-.54-.32-.43-.43-.43,0-1.38.24-.8.61-.5,1.12-.48-1.67-1.55-1.7-1.08-1.84-.6-2.09-.19-.71-.17-.73-.43-3.13-2.91-.68-.52-.43.45-.33.09-.31-.33-.38-.73h.69l.6-.13,1.14-.5v-.58l-.5.07-1.49-.07.45-1.15,1.1-1.42.43-.84,1.1,1,1.7,2.55,1.19,1.1.54-.63-1-.62.24-.48,1-.19,1.23.19,1.37.63,8,5.32,2.15.76,2.48-1.06,2.27,2.35,1.2.43.52-1.87.11-1.15.33-.21.54.26,1.73.41.17.51-.33,1-.15,0-.33.3-.34.45-.17.44v.53l.15.28.17.15.13.17.15.39.28.56.39.52.45.24,1.55-.87.84-.19.36.78-.21.56-.39.5-.21.58.33,1,.22-.41.19-.17.24-.18.39-.39.43,1.17.24,1-.09.91-.58,1-.82.69-1.23.67-2.52.91,10.16.91.86-.28,2-1.81,1.06-.52.8.74,0,.78-1.2,1.92,1.23,1.08.41,1.31.66,1.12,1.92.45,2,.17,4.29,1.6-.71-1.75.8-.76,1.51,0,1.4.71-1.36.6-.62,0,4,7.33,1.54.58.56.52-.41.94,0,.63.79,2.24.74.67,1.67-.32,1.72-1,.91-1.32,0-1-.41-1.75-.13-1,.24-.91.49-.53.5,0,.24.84-.09,2.05.16,1.06.48.58.63-.24.19-1,0-1.06.13-.6,1.08.09-.15,1.64-.67,1.92-.52.91-1.27,2.85-.67.33-1.64.34-.64.52,0,.48.13.84v1l-.36.84L362,356.73l-.48.82-1.31,1.06-.41.47-.19.76-.26,2.63,1.6-.45,1.29-1.12,3.43-5.07.45-1.1.17-1.06.65-1.32,1.53-.52,1.69-.23,1.17-.48.36-.65,0-.54-.19-.58-.13-.8.15-.84h.37l.76.52.56.69,1.81,3.19.39,1,.48.91,2.2,2.76.77.56,1-.48L378.35,354l.22-1.51,2-2,.92-1.18.39-1.12.32.65.36.43.85.69,0-1-.22-.91-.39-.82-.45-.71,1.19,0,.82.54.43.94,0,1.26,1-1,2.07-4.16-4.83-.12-.69.12.16-1,1-1.16,1.31-1,1-.28-.06.5.06.65v.57h.54l.34-.85.52-.17,1.57.45-.52-.82L388,341l-.67-.13v-.63Zm-23.5-71.31,1.49-.3.07-.17.28-.39.41-.41.51-.17.24.1.21.24.31.22.56.07,0-.17.24-.41.39-.43.5-.17.54.22.3.51.21.59.22.39,1,1.37.49.2.47-1,1,.31.69-.66.33-1.18-.07-1.38h-.45l-.24.56-.32.43-.43.41-.54.36-.06-.39-.39-.8.22-1.17-1.27-.59-1-.71,1.06-1.57,2.06-2.16,1-.73,1-.54v-.58l-1.12.3-1,.86-1.42,1.7L371,263.13l-1,.53-1.12.39.53,1.47-.6.45h-1l-.47.08-.35.59-.79.43-1,.28-.86.13.45,1.12Zm-6.79-7.87-.11-.48-.48.22-.47.78.6.26ZM319.22,334l-1,1.16-1.83.67-1.66.88-.45,1.84h.5l1-1.08,2.53-1.31,1.49-1-.54-.58.54-.56Zm53.22-56.63-2,.43-1.32.52L368,279.36l.1.39.67-.28.78-.25,1.37-.24H372l.37-.2-.24-.39V278Zm.93,40.07,1.36,0,1.49-.35,1.21-.75.43-1.28-.09-.25,0-.22-.1-.11-.35.07-.36,1.2-1.08.73Zm-183.5-9.64-1.79-.16-2.2-.47-.09-.18-2.2-1-1.87-1.84-1.14-.75-4.08-.93-.89.08-.3.28-.73,1-.41.35-1.81.58-1.42.13-1.38.43-1.7,1.46-.09,1.17,1.19,1.12,7.44,3.23.75.75.76.33,4.18,2.78,2.82-.51,1,0,.52-.24.15-.6,0-1.14.39-1.4,1-.84,2.65-1.49.67-1.23-.45-.67Zm201.18-4,.08.1.69-.58.33-.36-.41.26ZM247.44,351.45l.15,0-.91-.34Zm.15,0,2.1.79h2.58l-1.7-.49Zm155.28-77-1.06-1.55-.57-2-.77-1.78-1.6-1,1.08.88.71,1.27.71,3,.5.63-.35,1,.3,1.35,1,2.29-.45.52,0,1.34,0,4.38-.43,1.44-2.15,4.33.3.48.13.5,0,.48-.09.45,1.81-3.45.63-1.87.73-6.92ZM395,299.59l2.63-3.54,1.12-1.86L394,300.41Zm-83,17.57.33.54.28.24.27.17h.41l.37-.26.58.11.48.54.26.71.41.36,1.08-.15.39.06.28-.29,0-.6-.14-.21-.13.15,0-.24-.07-.45-.13-.07-.06.37-.26.12-.51.17-.67-.32-.74-.88,0-.28.76.09.26-.37L315,316l-.7-.34-.8-.22-.58-.26-.33-.32-.56-.35-1.51-.56-1,.1-.65-.1-.65,0-.47.43.06.78,1.27,1.51.71.39,1-.25,1.05-.18.39.07-.17.07Zm-17.55,32.3-.6.21-.57.33-2,1.7,4.57-1.7v-.62h-.71ZM268.89,351l-.36,0-1.21-.08-.24.24-.54.34-.93.15-.62-.22-.22-.3h-.41l-1.53.65-.37.39-2,.48.16.52h1.14l5.58-1.36,1.21-.5.91-.6.13-.2-.47.28Zm17.14,1-.82-.48-1.75-.69-4.29-.9-.08.45,3.49,1.43,3.23.75h.5l0-.29Zm-2.15-15.52.48-.48.47-.6-.07-.78-.84.34-.54,1.86.07,1.17.19-.93Z"/></svg>