<svg id="Alabama" xmlns="http://www.w3.org/2000/svg" viewBox="0 0 262.6 371.93"><defs><style>.cls-1{fill:#ccabd1;}</style></defs><title>state</title><path class="cls-1" d="M191.2,366l-.12.26,1.71-.23.94-.28h-.84Zm-6.25-3.22-.78,1.25-1.55.43-3.35-.13v.51l2.06-.08.85.28.59.8.44-.55.48.55-.31.33-.34.43-.27.21.23.27.17.15.21.08.31.05,1.06-2.21.21-.81,0-.76.17-.21.35-.21,0-.38Zm36,3.07,2.13.4,2.28.1.45-.5-4.86-.55ZM246.5,10.17l-2.08-1.44-1.55-2.25-1.12-3.14c-11.73,0-23.46,0-35.19,0q-17.09,0-34.17-.06c-11.2,0-22.41,0-33.61,0s-22.22,0-33.34,0l.19.34,2,2.36-.08,3.3-2.16,2.66-3,1.93L95.2,16.57l-.74,1,.26,1.34.74,1.53.33,1.44-.93,1-.59.68L92.91,24l-1.44-.08-1.23-.77-.79.25L88.52,25l-1.1,2.73L86.87,31,88,36.32l-.67,6.55,0,2.67-.51,2.27-2.06,2.26-2.35,1.29L81,51.91l-2.69.31-.72-.06L77,51.87l-.8-.61-.29.4,0,.7.21,1.1.57,1.45.12,1-.23.63-.89,1.44-.21.78-.29.34-.63-.13-1-.48-.85,0-.42.13-.28.46-2.48,5.66-.82.64-1,.38-3.18,2-.85.82.06,2.17L68.35,73l.15,3-.82,1.37-1,.6-1.27.16-1.51,0-1.46.25-3.58,1.85-3.44.74-.53.55.24,1.06.64.54.86.34.89.51,1,2.1-.93,1.88-1.21,1.72.4,2.63.72,1.23.4,1.45-.82,1.63-.65.28-1.72.08-.74.15-.63.48L52,98.87l-.42.29-.59.55-2.5,3.39-1.17.85-1,.52-.19.71,1.27,1.3,2.66,1.3,1,1,.27,1.91-.57,1.61-1.1.76-1.42.25H46.73l-1,.59.28,1.25,1,1.27,1,.57,1.21.43,1.27,1,2.16,2.22.08,1.38.05,2.23-.22,2.26L52.21,128l-2.38,3.13-.7,1.64.91,1.48.68.13,2,.74.85.7.35.93.05,3.8.72,2.54.16,1.32-.4,1.34-.84.51-1.34.38-1.25.53-.55,1c-.15,3.48-.3,7-.43,10.45l.34.73.87.58,1.08.36,1,.13.81.32.82.76L56.2,163l-.63,1.33-.91,1.34-1,1.06-.82.44-.63.76-1,3.65-.5,3,.19,1.12.8.64,3.16.54,1.15.91.28,1.34-1,1.59-1.19.33-1.76.08-1.61.32L50,182.57l.11,1.65.34,1.44.55,1.25.74,1.06.64.55,1.55,1,.48.59.13.89-.19.91-.28.85-.14.72-.13,3.11.23,1.23.78,1.08L57,200.16l2,.84,1.46,1.4.57,3,.44.55,1.06.42,2.24.34,1.45.55.44,1.17-.23,1.08-.51.25v.51L63,213.17l-2,4.81-2.2,3.8-3.47-.13-.59.59-.24.78,0,.76,0,.52,2,2.23,0,2.74-1.44,2.58-2.29,1.68-2,.63-.62.41-.52.66-.63,1.55-.41.63-3,3.43-1.23,1-1.23.46-2.71.6-1.1.7-1,1.3-.6,1.3L36.86,249l-2,3.58-.27,1.3-.09,1.5-1.21,6.47-.06,1.78-.32.82-.07.51-4.49,3.24-1.49,2.2.3,3.26.27.57.66.85.82,1.57.11.43-.11,1.48-.13.66-.61.68-.87,4.83-.42,1.15-.79.84-1.35.3-3-.13-1.51.13-1,.51-.09,1.2.66,1.51,1,1.29.89.55.33.38-.12.83-.28.82-.16.29-.17.81-.68,1.29-.06.72.74,2.08,2,2.39.4,1.91-5,4.16H125.85l16.09,0,.21,1.1-.44,2.59-.84,2.67-1.49,2.73-1,4.32-1.59,1.91-.57,1.27.4,1.4-1.21,2.67-.48,1.61-.09,1.33.62,1.12,1,1.13.52,1.29-.82,1.54,1.68,3.57,1,1,2,.8,1,.74.87,2.29,1.8,1.27,1.06,2,.19.53,0,.63-.09,1.3.06.63.43,1.17,1.84,2.87.3,1.25-.11,3,1.23,2.16,1.87,4.51,1.47,1.7.52-.76.78-.28.79.25.44.51.15-.21H156l.69.46,1,.08.91-.36.55-.72.55.46.19.17-.34.42.44.55.82-.61.24-.55.06-.63.19-.78,1.08-1.32.27-.78-.46-1,5.82-3.33.63-.68.15-.87,0-1.43-.32-.23-1.52-.07-.55-.21.05-.63.65-.74.81-.63.66-.27,1.38.3,2.07,1.58,1.18.64-1,.5-.56.68.16.59,1.12.27.85-.12,4-1.21,4.05-1.12,4.56-1.51,1.08-.13.86-.21,2-1,.87-.3,3.94.15,2-.17,1.06-.95-7.88-1.06v-.46l1,0,.91-.26,1.55-.72,5.24,1.44,6.67,5.08,2,.29,3.16-.33,2.9-1.17,1.18-1.81h.49l.23.85.85.67.42,1.55.61.38.77.13h.84l1.72.44,1.19.8,1.1.45,1.45-.62.46-.55.27-.52.39-.4.84-.15.65-.4.05-.83-.05-.85.28-.4,0,0c-.53-11.54-1.13-23.08-1.66-34.62s-1.09-22.86-1.65-34.29-1.09-22.74-1.64-34.11l-.43-9c1.38-11.51,2.59-23,3.9-34.56s2.57-23,3.85-34.52q1.83-16.45,3.67-32.9l3.75-33.85q2-17.88,3.93-35.76,1.87-16.94,3.71-33.89c.87-8.06,1.77-16.11,2.64-24.17l.08-1.25Zm-33.1,354.57-1.4-.66-1.42-.87-2.08-.42-2.16.06-1.6.51v.46l12.84,2,.63-.27.55-.31-1.38-.49Z"/></svg>