<svg id="Alabama" xmlns="http://www.w3.org/2000/svg" viewBox="0 0 473.91 371.93"><defs><style>.cls-1{fill:#ccabd1;}</style></defs><title>state</title><path class="cls-1" d="M425.83,204.71l-.8.61-.35.51-.32.42-2.16,1.47-5.27,5.53-6,9.7-.73,1.84.45,1.19.56-1.66,6.34-10.65,2.84-3.16.94-.67,1.14-.58,2.57-2.77,1.38-.87,1.06-1.71-.71.27Zm29.34-62.15-.33-.3-.33-.24-.72-.32-.36-.26-.44-.2-.47-.09-.45.12-.41.36.11.3.33.29.29.33.41.71,1.49,1.68.41,1,.22,1.19.35,1,.79.44,1-.06.17-.29,0-.65.47-1.15-1.77-2.26-.62-1Zm-21.09,53.26-.29.19-.17.58-.39.44-.38.34-.17.32-.34.89-1.58,1.67-.5.69h.32l.79-1.19,3.79-2.68.2-.07.18,0,.17-.09.18-.22-1.15-.63Zm9.54-5.13-2.74,1.88-1.39.56-1.18-.35-.45,1.65-.36.74-.59.64,5.6-3.84,4.66-1.65,1-.94.82-.48.32-.3.29-.45-1.47.85Zm-4.72-86.27.09.91.2.89,1.06.41h2.1l.51-.18V106l-.21-.56-.15-.61,0-1.74,0,0h-.91l-.83,0-.35.41h-.61l-.26-.42-2.37,0,.34.53Zm5.7,1.3.38,2.17.74,1.52.17,1.1.71,1.54.17.85.32,4.14.35,1.73-.09,0-.17.09-.07.22.17.35.69.77,1.44,2.85.53,2.08.72,1.86.53,1.92-.21,1.56v.44l.38,1,.24,1.15.36,1,.76.66.6-.47.51.36.38.83.22,1-1.21.38-.44-.11-.42-.67-.2,1.1.5.75.79.29.66-.41h.32l3.5,4.8.76,1.66.14,2.23.3,1.15,1.14.69.06.5v.57l.14.44.35.22,1,.42.41.24L460.66,147l-.51-2.62-7.7-14.78-2.2-6.5L448.76,120l-.23-1-.09-1.51-.23-1.32-.77-2.57-2.11-10.44v-.06h-.72l-.69,0,0,.08,0,.35Zm5.31,52.77-.52-1.15v-.46l1.23-.12,1.27.05.2-.43,0-1.33-.23-.89-.71-1.14-.14-.59.22-.95.45-.84.38-.91v-1.15l-.21-.44-.88-1.3,0-.85-2.43-3.92-1.47-1.76-1.74-1.23,0,.62-.14.58-.23.51-.33.48h.62l.56.14.52.28.47.45-1,.51-1.07-.21-1.09-.47-1.07-.27.29.79.45.85.57.67,1,.48.16.43-.12.42-.44.19-.32-.09-1.24-.68-1-1.43-.76-.77-.33.21-.4.45-1.71,1.18-.38.56v7.73l-.25,2.12-1.85,5h-.31l-.24-.45-.14-.36,0-.28,0-.19-1.44.28-1.41.11-1.21-.53-.88-1.59h1.22l1.66.64,1.54.3.88-.94-.32-.19-.52-.74-.25-.78.53-.38.29-.33-.24-.75-.48-.76-.44-.4h.36l-.75,0-.84-.2-.82-.34-.59-.43-.39-.67h.6l1.38.47,1.49-.39.27-1.63-.62-1.81-1.14-1V146l1.11-.21.91-1,.7-1.32.45-1.37-.73.16-1.76.66.41-2.19.56-.59,1.13.63.09-1-1-.95-1.41-.71-1.22-.3-4.9.39-4.55,1.29-1.15,1,.45.67,1.07.62.68.8-1.32-.06-2.16-1-1.1-.21-.57.25-.44.39-.38.19-.36-.41v-.38l.14-.54.06-.63-.21-.64-1.68-.52-2.71.56-2.69,1.09-1.67,1.06h-.38l-1.34-.39-7.08,0v-.47l1.78-2.51.32-.9-.79-.15-.17-.52,0-.74-.14-.76-.4-.53-.45-.44-.39-.56-.32-1.78-.72-1.44-.17-.7,0-4.17.21-1.32.48-1.12.84-1.19.83-.8.3-.53.1-.83-.18-.59-.92-1.07-.32-.72,1.13.42,1,.68.45,1.11-.47,1.74-.39.6-.75.87-.27.65-.69,2.83.27,1.66,1.19,2.82.73,3.45,1,1.1h1.18l.86-1.48.47.53,1.46,2.28.62.31,1,.06,1.75-.14,1.23-.32,1.68-.77,1.62-1.09,1.1-1.27-.53,0-.17,0V133l.83-.47,5.14-.81v-.47l-1-.23-1.42-.65-1.3-.82-.56-.66-.26-.5-1.84-1-.36-.47-.39-.65-.67-1.46.89.6.91.85.89.55.83-.23.86,1.36,1.42.91,5.38,2.41,1.24.27,1.27-.24v-.4l-.94-.86-1.78-2.53-.59-.54-.47-.17-.5-.44-.42-.56-.23-.56,0-.86.35.06.79.8,1.43,1.15.47.19.33.33.87,1.46,1.6,1,.5.21.51.06,1.62-.06v-.39H431v-.47l1.85-.19.6-.21,1.13-.71.32-.44-.57-.2-.6-.33-.5-1.48-1.26-.67-.53-.76-.82-1.5-.71-.79-1-.84-1.14-.68-1.15-.29-.15-.34.26-.76.45-.74.48-.34.67.18V118l-.36.45-.45.28,2.71.8.82.46,1,.91.89,1.06.42.32.94.26.41.33,1.24,1.92.88.91,1.06.38,1.06.16,3.63,1.15V127l-.75-.3-.73-.53-1.31-1.31.66-.4-.07-1-.36-1.21-.42-2.38-.48-.54-.57-.44-.45-1,1,.07.77.44,1.38,1.21-.7,1.2.27.54.74.33.73.53.17.41,0,.91.11.41.29.33,1.15,1,.62,1,.3.71.13.63-.13.5-.22.52-.09.56.26.61,1.3,1.84.87,1,.86.44,1-.38-.24-1.12-.7-1.39-.41-1.22-.21-1-2.75-7.34-.18-.8-.36-1-1.66-2.57-.45-1,.27-2.9-.1-1.7-.65,0-.41,1.27-.32.74-.18,0,.11.65.19.5.32.47.46.54-1.06-.72-1.29-1.65-.62-1.53.9-.46-1.1-.72-1.12-1.06-.87-1.25-.42-1.31v-1l.3-1.22v-.77l0-.14q-17.89-.19-35.77-.33c-11.93-.1-23.86-.24-35.78-.35s-23.86-.25-35.78-.34-23.86-.24-35.78-.35-23.85-.25-35.78-.35-23.86-.25-35.78-.34-23.86-.24-35.78-.35-23.85-.25-35.77-.35l-1.16,0-.35-.11-.18-.18-.34-.7-2.42,4-.45,1.29.08.3.74,1.54,0,.57-.82,2.32-1.33,2.66-.18.59,0,.44.09.28.55,1.09.69,1,.14.29.09.33-.1.18-.25,0-1.58-.21-2.71-.91h-.26l-.26.1-4,2.68L134.54,119l-.21.29L129.17,129l-.41.53-.52.46-.48.24-.83.74-.5.32-.44.19-.37,0-.41-.06-.77-.21-.33-.16-.29-.19-.23-.19-.2-.25-.09-.27-.08-.32,0-.3-.06-.3-.1-.29-.17-.2-.21-.17-.29-.12-.3-.06-.71,0-.33-.06-.29-.14-.48-.37-.27-.09h-.2l-.27,0-.58.27-1.58,1.15-.29.13-1.09,0-.43,0-1.28.64-1.82.5-.48.2-.83.44-.91.7-1.79,1.88-.53.72-.67,1.49-.22.41-.94,1.22-.38.41-.33.29-.22.15-.24.12-2.36,1.48-.45.21-.32.06h-.35l-.33-.09-.3-.17-.26-.19-.2-.24-.18-.24L100,139l-.29-.82,0-.36,0-.36.08-.49.32-.77.07-.27v-.2l-.07-.18-.85-1.2-.21-.21-.38-.07-.48.1-2.46,1.22-1.22.46L91,137.8l-.08.08-.1.18-.08.24,0,.91-.09.29-.15.27-.6.68-.25.53-.12.36-.3.47-.3.21-.33,0-.27-.09-.53-.46-.73-.51-.65-.29-.44-.1h-.54l-.79.16-.41.19-.3.25-.17.27-.14.28-.1.35-.06.35,0,.35.06.33.08.3.44,1v.32l-.12.38-.59.74-.17.29-.11.63-.09.32-.28.56-1.27,1.9-1.32,1.54-.41.27-.32.09-.74-.19-2.13-.2-.61-.17h-.27l-.29.11-2.68,1.39-1.78.53-.41.18-.32.21-1.26,1.25-.52.32-1.29.48-.39.21-.3.22-.17.23-1.09,1.07-1.06,1.45-.33.16h-.39L63,158.7h-.45l-.53.09-.46.24-.75.7-.56.62-.68.55-2.77,1.18-.45.31-.33.3-.53.63-1.15,1.1-.36.28-.32.16-3.37.68-.36,0-.35-.11-.27-.18L49,165l-.21-.21-.38-.13-.5,0-1,.33-.57.09H45.9l-.3-.07-.33-.06h-.33l-.33.08-.5.17-.18,0h-.2l-1.81-.16-.33,0-1,.25-1,.38-1.21.74-.8.64-.5.28-.42.19L35,167.9l-.85.3-.44.26-.32.27-.83,1.69-.24.32-.41.44-.35.21-2.15.76-.45.26-.38.3L27.38,174l-.17.29-.1.24,0,.25V175l.22.82,0,.31-.06.37-.09.32-.15.3-.89,1.29-.15.3-.21.64-.07.34-.08,2-.24.52-.42.57-1,1-.5.41-.36.24-.2,0H21.58l-2.76.31h-.74l-.35-.06-.24-.13-.24-.18-.4-.41-.32-.13h-.42l-.8.25-.41.22-.32.25-.91.88-.61.72-.3.6-.11.27-.09.48q-.64,6.89-1.24,13.79c11.65-.13,23.3-.33,35-.47,9.32-.11,18.64-.19,28-.38l15-5,1.65-.36.21.53.2.22.38.13.27-.06.45-.22.56-.39,1.21-.65.56-.41.37-.36.21-.71.16-.35.35-.27.42,0,.61,0,.39-.06.48-.18,1.69-.89,2.63-.86.37-.06,1.84,0,.38-.09.27-.14.24-.25.39-.35.33-.14h1.84l.39-.13.28-.26.27-.92.26-.35.33-.31.76-.5.37-.13.35,0,.18.18.17.2.23.37.12.14.2.13.21.08,3.87-.36c1.39.07,2.77.13,4.16.22l1.39.06c11.71.68,23.43,1.25,35.15,1.83,7.16.35,14.32.74,21.48,1.12l.65.13.42.17.21.2.2.23.15.25.1.25.07.31v.33l0,.33-.11.32-.59,1.19-.07.26,0,.23,0,.26,0,.27.07.3.18.3.18.28.35.28.27,0,.29-.09,4.23-3,.35-.19.23,0,.17.09.17.2q3.43,4.56,6.88,9.1l.18.38,0,.41-.2,6.43,0,.42.1.4.32.32.39.12,2,0,.58,0c11.65.21,23.3.54,35,.78,5,.1,9.94.22,14.91.32l.56,0,1.92,0,1.56.28,1,.35Q263.2,226,275.72,238.79q12.28,12.52,24.59,25l5.67,5.75,1.42-.43v.37l-.24.23-.45.65,4.51-1.68,3.22-.86,1.19-.74.51-1.76h.39l.28,1.15,0,.5-.25.45,1.73.43,4.14-.93,1.32.27.66.32,2.83-.09,1,.11,4.61,1.3.88.1.74-.26.46-.5,1.89-2.95,1-2.27.2-.81-.06-2.12.1-1,.33-.86-.53-1.48-.55-4.4v-1.72h.32l.8,2.67,1,2.4-.41,1.77.42,4.86-.74,1.81v.37l.18.47-.08.55-.42,1.13,1.59-1.71.92-3.31,1-6.79.38-1,1.15-2.27.6-2,.83-.94,1.62-1.49,2.8-4.3,3.17-3.72,6.79-5.72,4.1-2.27,2.65-.77.83-.3.46-.29-.15-.19-.27-.22V229l.61-.66-.39-.68-.9-.56-.92-.21-.41-.28-.55-.64-.47-.69-.18-.5.24-.54.5-.3.47-.05.23.26.41.14.86-.2.74-.74.08-1.53-.29-.83-.52-.85-.63-.44-.65.38-.33-1-.38-3.23.56.83.56.13.53-.13.45,0,.65.47.35.5-.15.35-.85,0v.37l.83.67,1.95,2.5.36.69-.52,1.15-2.24,1.72L366,226l1.83.44.27.24.18.06,1,1,.94-.18,1.27-.88.62-.19,1.42-.8,2.66-3.5,1.54-.78.23-.23-.45-1.11,0-.41.44-.06.32.35.29.42.33.19.57-.33.47-.67.3-.94.07-1.07-.22-.29-.37-1.07,0-.92.92.17v.24l.32,1.45,1.12,1.7-.88.66v.69l.48.38.56-.23.48-.33,7.4-2.21,1.66-1.09,9.93.84-.3-.78L400.43,215l-.39.36-.42.26-.47.15-.82,0,.76-1.08,1.1-.94,1.27-.66,1.26-.26.72.62.21,1.42.09,1.63.36,1.23,1.28.77.55-1.34.33-5.28.42.14.72,1.05,1.12,1-.86.87.24,1,.89.78,1.09.38,1.14,0,.51-.15.46-.33.26-.52-.09-.44-.16-.37V215l.35-.5.36-.28.36-.22.36-.27,1.71-2.16.82-.74.3-.36.32-.61.14-.58,0-1.06.18-.47h.32l.06.35.23.59.09.33,2-.91.44-.37.55-1-.11-.52-.33-.39-.11-.62.3-1,.42-.09.6.22.81,0,.58-.37.72-1,.48-.35v-.47l-1.21-.76-.68-1.13-.79-1-1.59-.47.41.94L421,201l.17,1-.5.15-1.1.08-1.09.38-.5,1.1-.45-.12-2.24.71-.83.05-.29-.17-.26-.23-.14-.37,0-.51.24-.63.33-.11.4,0,1.33-.71.27-.35-.29-.58-.92-1.3.06-.56.26-1,.06-.61-.11-.22-.48-.77-.11-.28-.25-.12-.59.85-.6,1.17-.33.87v.75l0,.85,0,.91-.32.89-.7-1-.77-.48-.79-.13h-.74l-1,.38.1.87,1.1,1.73.27,1.21-.8-.29-1.2-.84-.89-.5-.06-.24-.28-.55-.41-.58-.48-.37-.61,0-.54.2-1,.7L403,203l-.87,1-.89.83-1.37.52-.5.61-.37.11-.25-.15-.21-.3-.24-.43-1.78-1.28-2.48-.79-2.31-.42-2.11-1-1.85-2.49-1.18-2.64-.82-1.16-1-.5-.09-.65-2.18-3.6,1.84.83,2.4,3.48,1.89.8.68.4,2.3,2.58,1.42,1.16,1.77,1,1.6.32,2.23-.12,2-.71.85-1.42,1.12-.86,2.27-1.3,1.81-1.35-.27-1,1.59-.59,1.1-1.18.29-1.57-.85-1.77-.72.45v.4l.22.14.25.21.25.13-.82.45-.56-.17-.5-.42-.6-.33-2.15-.16-.68-.24.58-.64.79-.39.84-.18.79-.06.38-.21.45-.47.62-.43.86-.15,1.41.59.71.12.3-.53-.27-.56-.62-.42-1.21-.56v-.4l2.55.57,1.17,0,.47-.8.17-.65.51-1.08-.12-.42-.77-.9-.33-.59-.15-.65-1.23-.1-4.64-1.54-4.22-1L399,176.49l-3.07-.77-.77-.49L393.6,174l-2.11-1.25-2.1-.53-1.61.9-.44-1.95-.5-.77-1-.31-.59-.32-.53-.77-.82-1.91,1.94,1.67,1,.67,2.3.57,2.45,1.41,1.43.42,2.63.35,1,.51,1.06,1.07,1.16.56,2.77-.73,1.49.38.25-.38.32-.24.39-.15.47-.09-.14,1.42,1.09,1,1.48.3,1.07-.56-.19-.45-.29-.35-.41-.26-.51-.21.16-.27.11-.23.14-.2.29-.17v-.38l-.33-.22-.33-.29-.72-.84.18-.32.51-1.36-.32-.6-.43-.54-.57-.41-.79-.21,2.13-1.36,1.07-.45,1.38.11,2.38.65,1.17,0,1.33-.27-.77,1.73-.86.44-2.57-.41-1.31.29-.23.71.55.85,1,.72v.4l-.77.64.71.67,2.16.86-.2.39-.15.24-.24.14-.45.09.64,1,.7.6,1.81.91-.17-.44-.22-.38-.31-.29-.36-.21.39-.59.53-.26.59.07.59.38,1.12-2.13-.42-1.18.54-.47.82.3.42,1.15.08,2,.21,1,.45.51v.45h-2.1l.22.66.3.13.38-.06.45.17.74.57.32.64.83-.4.24-.88-.17-.89-.37-.39,0-.46v-.88l.41-.51,1.17.59.42.65.71,1.63,1.56,1.06.59.14.26-.68.17-.67.34-.24.37.12.55,1.16.91.27,3.46.11.41-.33.65-.85.59-.42,2-.63.74-.06v-.4l-.56-.91.26-1.41.77-.89,1,.64-.38.44.5.39.33-.07.18-.5.06-.88.25-.49.5-.44.29-.56-.37-.88,1.3-.45.32-.21.3-.47,0-.32-.15-.3,0-.38-.14-.41.08-.36,1-.18.24-.14,2.94-3.06.14-.6,0-1,.06-1.1.41-1,.43,1.43.59,1.21.88.53,1.26-.55.12.2.09.2.06.21,0,.26-.36.07-.68.3v.47h1.57l.68-.13.57-.32.09-.39-.06-.56,0-.5.47-.21.46-.09.32-.21.22-.28.73-1.32-.08-.65Zm-113,110.65-.5-.53-.79-.07-.77.46-.4,1,.29.63.74.41.84.32.57.36.4-.54,1-3.69-1.09,1.38Zm6.45-17-.64,1.48-.38,1.78-.53,1.57.73-.76.72-1.45,1-2.89.14-.06h.14l.09-.06v-.3Zm122.4-90.56-1-3.25q-.12-1.33-.26-2.66l-.41-1.66-.67-1.5-.89-.83-.47.32.32,1.19.87,2.14.09,1.22,1.3,4.6.32,2.59,0,1.48-.15.68-.71,1.39-.18.71v.73l.26,1.21.07.68-.12,1.39-.5,2.27-.22,2.36-.62,3.07-.32.77,0,1.9-1.38,1.1-3.55,1.29-3.21,1.68-.22,0-.08-.17,0-.23-.15-.1-.28.12-.11.29,0,.3-.07.18-.23.25-.14.3-.22.24-.5.05-.46.27-.45.44-.13.39.52.18.42-.13.7-.56.29-.11.82-.22L456,187l1.09-.19,1.95-.89,1.62.07.5-.07,1-.67.5-1,1.27-4.76,1-10.55,1-4.87Zm-98.32,68.54-2,1.18-.92.27-.92.25-6.61,4.35L355.08,238l-1,2,.83-.94,5.3-4.71.71-.3,1.68-.42,4.17-2.24,1.33-1.15.15-.08.15,0,.1-.08,0-.32ZM410,222l-.64-.69-.54-.42-3.52-1.27h-1.06v.43l.59.39,2.59.92,1.88,1.42.22.23.73-.33Zm-18.19-2.81-8,1.46-1.42.58-.9,1,13.95-3.29,1.31-.14,6.17.42v-.42l-2.67-.77Z"/></svg>