<svg id="Alabama" xmlns="http://www.w3.org/2000/svg" viewBox="0 0 333.59 371.93"><defs><style>.cls-1{fill:#ccabd1;}</style></defs><title>state</title><path class="cls-1" d="M317.58,41.78q0-14.14,0-28.28H12.18v65q0,13.14,0,26.27V189q0,14.88,0,29.76v84.11q0,13.23,0,26.45,0,14.42,0,28.84v.27h42V345.57l0-.42V331.86l7.19,0c8.71,0,17.43.07,26.14.07s17.43.07,26.14.07,17.52.06,26.29.06l.57.23.67.65-3-3.13-.66-.43-.7-.12-.58-.33-.46-.52-.36-.69.38-.43-1.24-1.82-.38-1L134,323.1l-.27-1.25-1.06-2.13,0-1,13.36,0H174l28.05,0h56.1l28,0h28.05c0-6.71.06-13.42.09-20.12q.08-14.51.13-29c0-8.85.1-17.69.13-26.54q0-14.48.13-29c.05-9.52.08-19,.14-28.55.05-8.87.06-17.73.11-26.6q.08-14.33.13-28.66.05-14.5.13-29,.06-13.59.12-27.17c0-9.32.06-18.64.13-28l0-1.12,2.12,0Z"/></svg>