<svg id="Alabama" xmlns="http://www.w3.org/2000/svg" viewBox="0 0 417.59 371.93"><defs><style>.cls-1{fill:#ccabd1;}</style></defs><title>state</title><path class="cls-1" d="M271.41,328.5l.34,1.31.23.63.3.5.13.29.32,1.69.26.64.64,1.16.21.68.3,2.32.25.78.47.78.2.49.53,6.16.2.53.25.17.21-.53,0-.52L276,344l-.39-.91-.06-.61,0-1.29-.1-.68-.39-1.21-.23-1.8-.17-.66-.24-.38,0-.36-2.82-9.36-.9-5.29-.21-7.75.18-.6-.39.45-.15,1.43-.21.63.21.54,0,.57-.19,1.14.05.6.25,1.1.22,2.84-.06,1.06-.26,1,.81,1.2.11.24,0,.12.13.24,0,.17-.06.11-.27.07-.06.12,0,.25.06.22.11.19.18.18-.2.22Zm7.65-34.63-.21.8-.17.32L277.54,296l-.74.9-1.48,3.24h-.17l-.2-.33-.3-.22-.64-.26.13.48.15.35,0,.29-.42.32.09.6-.49.8-.61.81-.3.61-.05.35-.5,1-.12.42-.23,1.25-.83,2-.45,3.34-.21.51.25.15.19-.09.3-.48.44-1,.57-2.51,1.59-4.28,2.51-4.88,3.42-5,.29-.32-.23-.27Zm5.76-8.84-.34-.15-.34.17-.2.34-.14.3-.2.22-.37.09-1.58,2.72v.15l.52.14v.19l-.17.34-.13.19-.8.87-1,1.46-.36.93.23.55.16-.59.38-.59,1-1.13,1.11-1.68,2.39-2.69.08-.28,0-.69.08-.3-.07-.25Zm12.11-8.12-.13,0-.18.07-.24.06-.1.13,0,.65,0,.25-.33.56-.33.17-1-.1-.59.08-.35.2-.55.58-1.25.57-.21.16-.26.31-1.14.61-.26.54-.22.19-1,.62-.32.13-.44.07-.87.29-.55.06-.45.23-.12.54.09.57.2.35v.19l-.31.31-.3.5-.22.57-.09.54h.2l.21-.52.32-.45.75-.71,1.45-1.07.68-.73,2.55-1.34,1.49-1.28.85-.56.89-.23,2-1,0-.13.23-.35.07-.24,0-.26,0-.81Zm2.55-1.91L298,276.35v.23l.53-.06.45-.31.69-.7.66-.18.21-.29.57-.43.21-.13,0-.07.09-.08.11,0,.21,0v-.21l-1.16.33Zm40.23-27.55,0-.18-.1,0,0,0,0,.19v-.21l0,.09v.09l0,.05-.13,0v.21l.47.08.07.38-.18.42-.27.19-.05,0-.6.16-.13.16-.22.47-1.14.91-.1.14-.41,0-.32.09-.2.22-.07.43-.32.44-2,1.25-1.11,1-.51.56-.33.67h.18l.47-.61,3.91-2.79,1.21-.45,4.08-3.35-1.68-.61Zm35.4-52.83-.37-.34-.72-1.17.05-.35.26-.42.06-.31.07-1.4-.14-.52-.49-.12-.53.14h-.1l-.08,0-.06,0L373,190l-.08-.08-.07-.11-.05-.17-.12-.84,0-.17-.14-.23-.09-.16-.07-.21-.05-.26-.05-.18-.07-.15-.09-.13-.3-.32-.69-.59-.12-.14-.09-.2-.06-.33,0-.21.05-.18.12-.28.08-.13.34-.44v-.11l0-.09-.37-.25-.42-.46-.27-.37-.09-.2-.08-.28-.07-.5L370,182l-.09-.19-.11-.09-.15-.07-.32-.09-.12-.06-.11-.09-.08-.15-.05-.14-.06-.25,0-.15.08-.12.29-.19h0l0,0,.07-.09.08-.17,0-.17-.09-.13-.13-.09-.16-.06-.66-.2-.15-.08-.14-.09-.23-.19-.73-.8-.26-.37-.17-.29-.07-.18-.1-.31,0-.24,0-.23.11-.32.11-.23,0-.17,0-.27,0-.89,0-.29.13-.5v-.18l0-.16-.06-.12-.08-.1-.1-.1-.09-.25-.1-.37-.19-1.22-.07-.29-.7-1-.19-.4-.11-.31-.13-.3-.24-.42-.37-.48-.53-.55-.24-.2-.89-.45-.12-.08-.11-.1-.09-.12-.55-1-.13-.15-.34-.26-.18-.1-.37-.27-.14-.17-.06-.12,0-.07V132.29l0-3.84,0-3.84,0-3.84,0-3.86,0-2.1v0l-.25-.11-.41-.2-.78-.59-.5.25-.56,0-.53-.14-.92-.53-.41.15-.35.32-.37.17-1.31-.67-.46,0-.28.38-.19.52-.28.28-.54-.3-.57.29-.5-.1-.19-.31.34-.34v-.2l-.68.1-.66-.19-.49-.47-.2-.67-.27-.59-.46-.11-.14,0-.69,0-.5-.25v.22l-1.28-.44L346,111l.09-.18.09-.12-.58-.06-.71.12-.2-.27-.31-.19-.38-.12-.38-.08-.17,0-.31.15-.19,0-.15-.06-.23-.29-.47-.24-.43-.76-.38-.18-.33,0-.69-.22-1.77-.31-1-1-.39-.7-.14-.2-.27-.19-.24-.1-.17-.2-.07-.49-.07-.16-.17-.17-.21-.15-.2-.06-.94,0-.42-.14-.43-.3-.86-.88-.47-.33-.85-.21-.15-.19-.11-.23-.14-.19-.31-.2-1.78-.61-.45.07-.51.41-.16.49,0,.57-.15.35-.31-.17-.16.25-.21.14-.25.09-.29.18-.3-.18H326l-.08.3v.25l-.07.14-.11.08-.18.09-.23,0-2.26-.07-.3,0-.18-.22-.18-.14-.21-.07-.26,0-.12.07-.16.13-.14.06-.05-.14-.11-.15-.06-.11v-.06h-.86l-.34-.19.26-.46-.21-.51-.3-.25-.34-.18-.35-.3-.36-.14-.3.28-.36.62H318l-.45-.17-.09.08-.64.34-.27.07-.3.17-.27.22-.17.21-.28,0-.41.06-.89,0-.18.21.11.92-.3.21-.18-.07-.15-.15-.14-.22-.22.07-.16.15-.16.23-.76.13-.31-.08-1.54-1-.29-.29-.28-.08-.34.2-.29.31-.12.24-.19,0-.42.22-.5.36-.91.39-.38,0H305.1l-.27.07-.55.3-.29.07-.27.22-.48,1.12-.26.42-.51.32L302,108l-1.15-.13-.71.1-.17.29v.49l-.15.67-.75.54-.81-.77-.77-1.21-.63-.77-.5-.1-1.84.1-.2-.1-.11-.26-.06-.3-.09-.24-.15-.13-.59-.31-1.11-.34-.34-.36-.1-.12-.08-.14,0-.16v-.18l0-.16.29-.61-.07-.19-.22-.23-.67-.27-.37-.1h-.28l-.13.08-.12.12-.17.27-.35,1-.07.15-.09.14-.09.13-.12.1-.2.1-.28.08-.52.07h-.29l-.23,0-.14-.08-.71-.53-.28-.14-.23,0-1,.13-.26,0-.2-.06-.13-.1-.32-.34-.17-.26-.13-.32-.17-.91-.12-.33-.13-.15-.19-.15-.37-.16-.26-.05h-.23l-.93.17-.15.07-.14.08-.2.25,0,.42-.06.78-.42.89-.42.54-.6.16-1-.26,0,.5.19.22.22.16.11.33-.12.24-.52.3-.11.35-.06.94-.24.83-.51.52-.86,0-.64-.41-.53-.73-.37-.86-.13-.78.12-.55.51-.82.13-.53-.07-.4-.21-.37-.3-.31-.35-.24-.17.1-.34.14-.15.1-.12.15-.09.24-.48.83-.15.21-.72-.65-.33-.09-.43.29-.05.11L272,105l-.09.13-.13.15-.29.17-.12.11-.21.15-.3.1-1.76.11-.43-.27-.17-.75-.07-.67-.22-.42-.4-.23-.61-.11-1.74.12-.4-.24-.25-.61,0-1.21-.24-.54-1-.5-1.06.35-.95.77L259.21,104l-1.06.65-1.19.21-1.15-.38-.61-.33-.27-.32.06-.48,0-.2.05-.34.19-.67v-.31l-.19-.35.17-.37,0-.34-.2-.27-.27.07-1-.34-1.34-.27-1-.52,0-1.07-.13-.69.1-1,0-.86-.42-.38-.69.1L249,96l-.83.1-3.62-.46-.69.19-.42.47-.33.59-.4.54-.14.3-.65.12h-1.36l-.41-.25-.9-1-.35-.25-.18-.18-.43-.78-.3-.17-.88-.19h-.33l-.61.12-1.81.75L234,95.7l-3.4-.73-.54-.2-2-1.33-.61-.14-.43.11-.43.18-.57.1-.54-.08-1-.31-.55-.08-1.26.06-.61-.12-.46-.37-.1-.53-.07-1.77.1-.39.11-.26-.47-.57-.83-.74L220,88l-.17-.59-.26-.49-.55-.21-.52,0-.27-.06-.23-.11-.23-.23-.12-.24-.07-.23-.13-.2-.5-.36-.41,0-.27.38-.16,1.62-.21.5-.41.2-.64-.06-.57-.23-1-.57-1.3-.19-.24.06-.24.16-.31.36-.19.15-.5.16-1.64-.16-.5-.16-.34-.37-.53-.8-4.57-4.39-.27-.18-.6-.11-.25-.14-.42-.13-1.21.18-.44,0V17.82H118.47l-1.13,0,0,.6v1l0,4.66,0,4.64,0,4.63,0,4.63,0,4.63,0,4.61,0,4.6,0,4.6,0,4.59,0,4.58,0,4.57,0,4.57,0,4.55,0,4.56,0,4.54L117,93l0,4.53,0,4.51,0,4.52,0,4.5,0,4.5,0,4.49,0,4.48,0,4.48,0,4.47,0,4.46v4.45l0,4.45,0,4.44,0,4.44v4.43l0,4.42H19.34l0,.54.57,1.14.14.67.08.74.2.55.66,1-.2.23.19.37.25.28.31.17.37.07.35.23,1.61,1.68.53.13,1.2-.11,1,.4.9.9.73,1.13.51,1.06.7,2.16.32.56,1.13,1.35.27.48.11.32,0,.18,0,.15.17.21.94.54.28.39.62.27,1.14.33.92.56.51.2.68.08.45.17,1.17.81.34.31.18.28.2.53.18.29.52.3.32.24v.11l.46.16.5.39,2.08,2.44.19.58.26.4,2.05,1.34L46,192l.2.13.66.76.55.42.48.28.41.33.33.61.35,1.11.26.45.68.33.93,1.11,2.2,1.7,1.06,1.35.34.29.8.21,1.55.76L57,202l.14.18.17.17.29.13h.14l.11-.07.18-.24.1,0,.29.11.17,0,.19.1.26.46.27.1h.28l.21.09.12.2,0,.34.09-.05.12.08.35.4.18-.23,1.26,1.5.51.22.5.11.58.28.53.41.34.48.07.32,0,.35.06.34.18.27.27.09.86.12.18.11.16.35.81.94.32.55.06.31.06.66.07.31.45.27.1.16v.19l-.15.35,0,.21L68,213l.27.42.06.31,0,.46,0,.2,0,.16.23.35.2.21.36.22.16.21.06.26,0,.36.06.31.15.13L70,217l.39.76.34.86.33.62.2.14.47.24.26.26.53,1.11.39.48.08.7,0,1.13-.12.72-.38,1.12-.08.62.07.74.5,1.71v.27l-.06.49.05.3.11.17.35.43.08.15.11.32.51.62.38,1.45.11.26.5.57.48.38.36.47.24,1.3.48.9.18.44.05.44v.32l.12.3.38.42,1.28.9.39.37.08.2.09.29.13.26.17.12.2.08,2.2,1.4.29.42.49-.26.75,0,.69.2.43.55.65.48.23.1.18.16.48,1.1.89,1,.59.49.93.46,1.29,1.44,1,.58,2.46.85,1.73.36,1.89.12.28.09.25.22.14.31-.22.69.18.17.32.1.26.12,1.27,1.08.8.45,2.38.58.74,0,.21,0,.23.18.1.2.07.22.16.26,1.38,1.37,1.16.65.33.11.24.17.76.73.39.15.31-.18h0l.23-.29h0l.24-.06.33.54.16-.1.4-.13-.17.65.39.24,1.63,0,1.47.41,1.06.16.69-.35.37-.82.12-1.06.26-.08.11.08.16-.55.13-.3.22-.19,1.08-.58.23-.18.23-.33.74-1.55.32-.3.18-.18.61.33.14-.26,1.23-.93.73-.14.3-.13L122,251l-.65-.43-.21-.29,0-.37.37-1.2v-.58l.05-.32.17-.21.32-.27.15,0h.16l.2,0,.23-.13h0v-.13l-.21-.45,0-.18.26-.41v-.37l-.1-.35-.06-.35.05-.42.14-.29.18-.28.86-2.29.24-.19.15-.24-.14-.42h0l.26-.13.06-.11-.15-.39.33-.16.17-.19.26-.52v-.07l.44-.84.11,0,.13-.43.79-1.4.08-.34,0-.27.07-.23h0l.21-.21.2,0,1,0,.48-.11,1-.54.5-.19.1.05.13.32.14.07.18,0,.08-.07h0l0-.06h0l.28-.23.22-.39.21-.07,2.95.22h0l0-.1.66-.95.09-.31.06-.83.1-.29.21-.21.33-.07.3-.12.26-.57h0l.26-.15.51.14.35.35.35.26.48-.12.14.56.37.19,1,.1,1.26.67.31.27,1,.42,2.57-.28.72.18.42-.41.42.13.38.32.36.19.26,0,.25-.05.23-.1.18-.17.22-.12.27,0,.53.18h.91l.31-.21h.18l.08.32.23.18,4.39.63,1.41-.18.42-.15.29-.32.11-.59.09-.14.2.06.19.22.1.29-.06.16-.25.54-.09.25.58.15.43-.25.42-.36.52-.18.23.08.18.41.26.15.31,0,.29,0,.28-.09.24-.13-.11.39.07.4.19.38.44.69.18.56.33.74.18.29.23.22.34.18h.72l.23.15,0,.49-.23.66,0,.46.3.12.47-.43.67-.38.67-.08.4.38,0,.81-.24.93.1.42.27.28.3,0,.28.08.24.18.51.65.79.42,1.81.57.81.29.22.53.1.89.1.43.16.32.23.3.27.25.29.19,2,.9.64.57.53.69.21.18,1.29.62.54.41.35.45.57,1.06-.21.65.21.42,1.43,1.17.07.17.14.2.3.08.34,0,.25.1.22.41L182,257l.53,1.22.1.64-.24.66.19.19.11.26,0,.32,0,.41.15.21.33.24.32.33.15.49.08.12.4.2.14.1.08.24-.17.38.09.22.18.1h.39l.18.1.11.17.15.32.11.15.16.31.68,3,.35.68,1,1.3,0,.53.31.23.63.3.27.21.12.3,0,.73,0,.34.37.63.55.37,1.12.45h0l-.77.41h0l-.14.23,0,.34.2.24.22.19.1.17.13,1.12.25,1.08.78,1,.42.69v.49L192,280l.26.59.47.51.46.33.76.14.18.07.08.25.05.43.1.41.23.17.44.09,2.65,1.34.5.51.21.66,0,.42.08.21.37.42.38.33.2.06v.16l-.08.21v.19l.17.52.19.4.26.38.39.47.4.15.57.13.34.23-.31.45.26.44.42.55.47.46.43.2.06.14-.11.31-.23.47.09.34.21.17.26.14.21.27,0,.29-.08.66,0,.3.13,0,.36.3.32.34v.17l.67.14.35.32.23.4.33.39.25.15.48.15.19.12.11.26.06.36.09.31.21.13.46.74.15.13h1l.17.16.27.52.11.13h.3l.57-.32.34-.09.26.14.33.58.17.14.46.14.54.26.54.5.21.46v1.22l-.08.7,0,.32.16.13.42,0,.21.12.11.25.1.43,0,.13,0,1.13-.07.37-.25.7-.08.6-.14.4,0,.32-.1.29-.44.49,0,0-.18.32.76.3.18.11,0,.09.05.24.07.11.31.16.08,0,.38.46.29.5.19.54.06.58-.1.58-.39,1.31-.06.61.06.14.12.17.12.22,0,.28-.06.26-.54,1,.49.68.11.17.41.33.24.1h.23l.22.05.17.24.07.33v.62l.12.33.25.26,1.08.87.3.4.86,1.06.39.5.45.47.39.51.38,1.31.34,1.44,1.09,3.19.08.49.19,1.5.17.71.65.27.7.18.33.41.31.85.06.38-.12.34L224,336l-.18.38.06.33.57.47.52.08.5-.06.54,0,.13.09.18.27.16.05.18,0,.46-.19.66,0,.23.17.24.47.42-.42,1,.73.62-.13.26.18.26.07.23-.06.17-.18h0l.3.18.21-.06.19-.12h.25l.14.12.41.49.94.59.28.36-.11.5.37,0,.35,0,.32.13.27.26-.34.41,0,.15.24,0,.22.06.55.54.3.19.35.07,1.6-.62.78.42.85.21.77.31.56.69.35-.44.08-.1.74.25.87.5.75.21-.22.61v.3l.31.11h.72l.17.21.63.95.25.3,2.11,1.08,1,.3.95,0,1.28-.34.53.13.23.72.26.13.57-.19.85-.45.37,0,1.56.22,1.72-.2h2.06l.53.15.05.46.37.1,2.36.15.54.12.5.24.51.41.27.39.22.48.28.41.79.35,1.21,1.25.49.33.43.18.46.08.58,0,.18.21.15.47.28.43.58.11.11-.11h0v-.17l.05-.15h.21l.18.15.09.22.11.19.27.09.54-.25,0-.58-.19-.68-.08-.55.11-.17.62-.45.47.34.63-.19.15-.14.34-.33.08-.49.36-.09,1.3.09,1.8-.15,0-.26-.09-1.34L277,348l-.23-.81-.35-.06-.29.19-.11.44-.05.54-.1.47-.2.32-.25.19-.66.31-.15.15,0,.14-.08,0-.29-.14-.14-.12-.1-.19-.13-.49,0-.41.32-.72,0-.53.38.17.29-.06.18-.28.1-.45-.32-.13-.34-.07-.74,0-.33-.05-.26-.14-.19-.14-.15-.05-.33-.35-.13-.81,0-.89.13-.63-.38-.62-.13-.26,0-.35.1-.25.17-.21.09-.23-.16-.34L272,341h-.18l-.19.1-.25.06-.23-.29v-.63l.16-.64.25-.29.16-.12-.12-.23-.2-.13-.11.16-.06.1-.13.14-.19.11-.18,0,0-.19.24-.61v-.25l-.17-.06-.58-.05-.19-.07-.15-.37,0-.41-.14-.32-.49-.12-.34,0-.07-.11.07-.28.08-.85.14-.45,0-.27-.93-.31.72-.21.24-.21.15-.4.07.16.19.27.09.21-.17-1-.61-2-.28-2-.65-1.94-.18-1.32-.13-.5-.22-.45-.34-.32-.43-.14h-.37l-.3-.09-.2-.38v-.41l.06-.61.13-.56.19-.29.29.13,1.2,1.12.32-.58-.36-.39-1.07-.49-.31-.36-.24-.43-.15-.54-.07-1.3.05-.33.29-.13,1.51-.1.37-.29v-.5l-.33-.76.31-.31-.18-.42-.27-.37,0-.16.42,0,.42-.16.34-.25.2-.37-.07-.38-.19-.48-.07-.41.25-.17.11-.24,0-.53v-.56l-.06-.33.32-.13.18-.33,0-.41-.15-.39-1.8.56-.52.36-.51.23-.67,0-1.34-.32-.59-.24-.41-.27-.44-.23-.68-.09-1.33.09-.61-.17-.37-.57.66,0,.64.15.64.06.65-.23.3-.39-.13-.32-.4-.12-.54.24-.06-.11,0-.09,0-.21.55-.28-.33-.62-1-1h.38l-.28-.62-.93-.93-.1-.73.85.58.68.67,2.17,3.12.09.28v.26l.1.19.36.07.3-.05.15-.14,0-.2-.09-.2.5-.74.25-.11.17.43.43-.38.21-.13.3-.11-.2-.42.34-.2.62-.62.52-.23-.12.57,0,.58.1.35.22.1.19,0,0-.11.19.15.13,0V309l-.22.26-.19.11-.29,0-.53,0,.09.12.05.11.07.1.15.1-.33.3-1,.52.51.36.38-.12.58-.65,1.75-.72.29-.21.08-.68,1.12-3.13.38-.46.09-.31.09-.6.46-1.34.83-1.55.09-.25.07-.67.08-.34.14-.25.32-.41.26-.48.09-.48-.21-.39-2.4-1-.42-.41-.7-.87.19-.22-.1-.32.23-.86-.13-.48-.2.27-.31.13h-.33l-.26-.18-.87.2-.63-.1-.48-.42-.44-.73.45-.18.11,0,.22.06.08.14,0,.13,0,.07.15,0,.22.11.2.05.15,0,.07-.28.15-.09.75-.06,1.52.06.7-.19-.08.2,0,.13-.06.11-.19.17.67-.05,1.1-.48.64-.08.46.14.39.33.35.46.3.51h-.55v.22l.7.09.61-.46,2.12-3.06,1-1.8,0,.09v.09l0,0,.14,0,.45-.91.18-.25.28-.29.06-.14,0-.19,0-.42.17-1.18-.09-.35-.28-.24-.19.1-.11.05,0,0,0,.09.1.15-.43.52-1.32.54-.28.5,0,.39-.14.41-.18.35-.21.22-.31.13v-.14l.12-.29v-.32l-.26-.44-.38-.34-.5-.21-.6-.07-.24-.29.51-.68,1.12-1.12-.43-.14-.11-.3.11-.33.23-.26.33-.06.38.12.21.23-.18.32.74-.19,1-.44,1-.6.43-.65h.17l.18.44-.15.93.18.32-.09.15-.09.11-.09.09-.1.07,1,.32.3-.13.38-.61.29-.63.15-.53-.08-.43-.36-.32.64-1L283,281h.32l0,.45-.27.51-.16.55.39.57-.38.5-.25.5-.31,1.11.46-.2.88-.23.42-.3,1-1.3.45-.48,1-.6.28-.39-.52-1.15.11-.55.27-.52.17-.54-.39-.76-.8-1-.52-.85.43-.4.38.21.56.42.51.24.22-.31-.08-.48-.21-.34-.65-.55-.25.11-.07-.19.08-.29.23-.23.22-.13.23.22.49.75.12.11.3.17.13.12.05.2,0,.29.06.25.14.11.49,0,.25.17.09.35.06,1.12.15.48.29.27.44-.14.48.38,2.95-1.66.43-.13.92-.57.53-.13,1.94-1-.08-.73-.78-.69-1-.38-.81.23-.29.25-.46.26h-.43l-.19-.51.24-.05,1.42-.7-.22-.57-.14-.24-.19-.22-.18-.15-.56-.26-.79-.54-.32-.11-.27.28-.21,0-.24-.32v-.22l.15-.74,0-.32-.07-.31-.11-.22-.77-1-.23-.48-.11-.54,0-.77.31.17.13.11.11.16.35-.2.37,0,.36.11.33.25.22.29.08.19,0,.23.11.42,0,.24v.21l0,.19.13.22.13,0h.37l.16.08.29.1.33-.1.28,0,.11.25.23.74,1-.71.23.58-.17.6-.41.12-.49.05-.42.39.83-.13.94-.38,1.57-1-.91-.27-.37-.25.09-.43.09-.27-.07-.23-.09-.21,0-.24.1-.13.18-.12.17-.18.07-.29-.08-.24-.21.09-.23.2-.2.06-.18-.25-.2-.46-.14-.54,0-.45h.17l.1.26.49.79.1-.12.26-.15.16-.14.39.41.15.47-.06.45-.27.35.13.29.79.78.16.3v.21l.11.07.46-.14.56-.35.72-.88.57-.27-.17.41.6-.38.37-.16.42-.06.55,0,.18.11-.11.31-.62,1-.14.34.14.23.55.08.37-.06.35-.12.39-.08.46,0v.21h-.17l-.42.36-1.24.14-.48.25-.11.47.58,0,1.29-.37,1.6-.75.55-.11.36-.14,1-.6.53-.09.51.28.17.5-.1.47-.29.22-.58.12-3.89,2-.91.67-.65.8.83-.38,1.74-1.08,1.56-.52,1.65-1.31,2.78-.65,1.76-.88,3.19-2.12-1,.1-1,.4-3.72,2.13-.08.08-.17.05-.19,0-.13-.05-.11-.18,0-.11.07-.12,0-.51.11-.29,0-.31-.17-.37,3.65-1.34,1-.11,1.26.08,1.21-.09,1.19-.3,1.17-.55,3.1-2,1.85-1.31.47-.18.61-.07.31-.2,1.45-1.27,1.47-1.64.76-.43,2-1.55.21-.39.05-.42,0-.52-.21-1.29,0-.66L331,253l-.34-.8-.21-.25.47.24.43.06.35.17.23.58.74-.43.63-.48L335,250l0-.09,0-.25,0-.09.08,0,.23,0,.08,0,.55-.41.25-.26.12-.39h.19l.43.35.42-.25.31-.59.12-.67.21-.61.51-.15.56.15.41.3.08-.13.08,0,.09,0,.11,0-1.21-.55-.35-.06L338,246l-.75-1.28,0,.06v.1l0,0h-.06V245l.12.11v.23l-.7,0-.11-.42,0-.51-.46-.34v-.21l.39-.13.38-.19.32-.3.2-.43-2-.62-.89-.57.22-.83.29-.3.41-.54.15-.52-.89-.46-.15-.53.16-.57.5-.37-.12-.29-.17-.12-.24,0h-.29l-.29-.07-.23-.18-.41-.5.13-.14,1.62,0,.85.52.82.74.82.38.87-.59.43-1,.29-1,.21-.29.48-.28,1-.4.63-.35.22-.06.21.14.12.59.23.13.5.13.12.33v.48l.2.56-.23.68-.34,1.48-.37,1.12-.49,1-.34.47-.28.13-.38.06-.3.1,0,.25.2.27.28.12.33,0,1.41-.21,4-1.17.49,0,.43.19.43.4.53.21.4-.3.25-.23,0,.43-.18.56-.34.26-.48.06-1.36-.07-.24.07-.31.2-.82.86-.2.13-.28.13-.31.1-.64.12-.7.37-2.19,2.15-.23.42.12.3.63.12.56-.26,1.39-1.67,1-.72,8.63-3.92,3.23-1.21,2.29-1.29.8-.36,1.13-.35.61-.06,3.28.06.8.23.31,0,.43-.54-.43-1L364,234.3l-.64-1.14.21-1.12,2.13-3.06.26-.57.11-.57.32-.15.7,0,.54.05h0l.55-1,1.59-1.81-.21-.37,0-.29.34-.61.18-.71,0-.5L370,222l-.06-.57-.05-.21-.26-.46-.06-.31,0-.35.26-.62.08-.31-.12-.71-.39-.44-.41-.38-.19-.48-.1-1.38.09-.6.38-.7.65-.82.21-.42.07-.58,0-.25-.34-.94,0,0,0-.61-.07-.14-.21-.14-.08-.16v-.62l.24-.55.41-.39.53-.15.06-.33.39-1.55.22-.48.93-.74.26-.45.22-1.49,1-1.81.15-.52,0-.28v-.38l0-.35-.14-.6,0-.34.1-.33.24-.26.42-.37.17-.33,0-.14-.21-.41-.2-.23-.43-.68-.23-.71.4-.33.25,0,.74-.23.21-.15.11-.31Z"/></svg>