<svg id="Alabama" xmlns="http://www.w3.org/2000/svg" viewBox="0 0 346.86 371.93"><defs><style>.cls-1{fill:#ccabd1;}</style></defs><title>state</title><path class="cls-1" d="M169.13,331.87l-.9-.36-.14-.13-.46-.32-.27.23-.32.15-.36,0-.4-.18.33,1,.7.74.94.46,1.07.16.94-.32-.25-.71ZM167,306.18l.29-.39,0-.52-.11-.05-.76-.6-.23-.1-.33,0-.43.25-1.12,1-.23.09-.32.07-2.51-1.14-.59-.06-1.22.07-.5-.11-1.56-.83-.77,0-.23,0-.19.13-.29.24-.17.24.16.1.49.1.38.27.32.38.3.43-.38.89.72.68,1.18.43,1,.13,6.36-1.3Zm14.86,18v0l-.17.11-.31.08-.09.08.07.13.12.3.1.18h0l0,0,.29-.59v-.27ZM153,306.66l-.33-.79,0-.89-.45.38-.5.21-1.73.1-.34.13-.32.18-.44.17h-.63l-1.21-.24-.54.25.54.5.66.77.55.8.23.64.26.36.62.43.7.28.51-.1.3-.24h.28l.33.08.47.05.3-.08,1.51-1,.37-.38.2-.53.06-.84-.84.22Zm-8.18-1.61-.27-.18-.31-.14-.34-.14-.2-.25-.18-.3-.3-.26-.12.65-.38.23-.87.07-.54.39-.07.37.23.09.38-.38.83.37.76.14,1.77,0-.16-.35Zm26.53,1.18-.41-.07-.24-.14-.35-.1-.29,0L170,306l.08.11.49.23.27,0,.4.05.39-.09,0-.11ZM323,295.65v-.46l-.92-.6-.34-.37-.28-.24-.49-.26-2.4-1.75-.43-.51-.15-.13-.57-.37-.14-.12-.23-.25-.12-.09-.11,0-.14,0h-.37l-.19-.05-.15-.16-.11-.23-.09-.41,0-.33v0l.16-.52.13-.51-.29-.35,0,0-.14-.71-.31-.34-.38-.3-.34-.57,0-.23,0-.82,0-.28-.09-.15-.13-.15-1.88-3.86-.78-.12-.61-.38-.36-.66-.05-1-.11-.43-.23-.56-.33-.48-.41-.21-.46-.16-.2-.42c-.11-1.45-.23-2.89-.33-4.34-6.52-6.09-13.07-12.15-19.5-18.33s-12.62-12.15-18.92-18.23-12.69-12.28-19-18.44l-1-1q-9.78-9.11-19.52-18.25-9.21-8.63-18.38-17.3L207.84,176q-10.08-8.87-20.15-17.77t-20-17.77q-6.88-6.12-13.74-12.26c-.07-8.85,0-17.71,0-26.56q0-12.36,0-24.72,0-13.78,0-27.56,0-13.62,0-27.25,0-3.53,0-7.06H32.49l.33.69.12.4,0,.42-.13,3.55-.21.66-.71,1.47-.79,1v.24l1,.4L33.57,25l1.15,1.28.09,1.09,0,.59.38.93.33.85.24.38.11.21,0,1,0,.36.18.37.24.29.28.22.3.16-.39.68.17,1.21L37.08,37,37,38.11l-.57,2.2-.25,2-.64,2.6L35,46.23l-.34,1.43-.46.56-.07.63,0,.7.14.48,0,.53.93,1.5.29.8,0,.88-1.73,5.64-1.27,2-.3.82.53-.29.48-.67L34.44,59l.16-.12,1.17.14.32-.14.27.21.12,0L36,60l-.53.32-.63.13-.76.28-.39.49L33,62.71l-.32.32-.05,1.51-.27.73L31.66,65l-.41-.39v-.13l.17-.76.1-.29-.87,1.17-.49.91-.39,1.17.06.11.11.17.05.16-.12.07-.11,0-.09.09-.07.13-.07.42-.8,1.5-.23.56-.54,2-.06.63-.13.57-.27.62-.19.61.09.51.43.78.86,2.28.19.95-.34,1.74.08.89.46.42.42.2,3.83,3.45,1.58,1,.55.52,1.12,1.66.07.26.08.85.13.32.22.13.7.25.27.14.91.87,4.12,6.06.15.62.14,1.64.29.85.22.47.18.21.33.13.17.31.12.38.17.34.18.61-.08,2.6.81,2.17-.11.35-.42.35-.32.82L44.58,111l-.29,2.57-.44,1.31.54,1.32,0,.67.26.26.22.5.31,1,.34,1.68.29.79.47.33L47.33,124l0,.38,0,1.24.06.38.28.74.06.39-.12.93-.31.47-.39.37-.38.64.12,1.1.82,1.24,2,2.21L51,135.35l.26.37.26.55.6.57,1.1.78.89.9L59,145.06l1,.87,3.48,1.83.86.92.73,2.16.71.72,0,1.82.34.56,0-.24,0-.75,1.67,1.14.52.59.12.29.14.69.11.3.8,1,1.36,2.22,1.16,1.38.46.77.19.87-.51-.72-.73-.67L70.7,160l-.29-1-.3-.6-1.5-1.56-.57-.47.87,2.15.09,1-1,3.59-.8,1.44-.19.56.77.05.21-.05.22-.13,0-.09v-.1l.32-.48.17-.32.23-.31.4-.31-.2-.12-.13-.14-.28-.49.24-.09.2-.14.18-.21.17-.3.51,1.11.81.69,1.85.92.16.14.38.3.31.43.27,1,.34.3.7.36.36.33.72,1,.36.19.3-.25.15-.48-.11-.56,1.61,1.34.85.93,1,.71.41.39.52.38.69.21.65-.06.4-.39,0-.65-.34-.51-.19-.44.39-.41.23.55.37.2.27-.17-.07-.58-.32-.51-.89-.75-.37-.47.19-.09.24-.27.16-.14-.29-.37,0-.41.28-.33.82-.29L83,165l-.77-.51-.22-.71,0-2.08-.16-1,1.12,0,.76-.19.56-.52.51-1,3.05,1.74.5.63.13.33.32.28.42.18.93.19,1.46.65h.57l.37-.09.32-.23,1-1,.18-.24.13-.3.19-.73.09-.23.3-.24.5-.28.55-.21.42,0,.5.37,0,.48-.53,1.17,1.31.4,1.44.1-.22.43-.14.16-.23.14.35.13.48,0,.5-.13.43-.2,0-.38.34-.06,1,.17.4,0,1.09-.22.59-.32.62-.75.87-1.44h.18l-.13.86-.27.68-.41.54-.55.43-.3.1-.33.06-.32.11-.24.25-.1.33,0,.32.14.23.22.09,1.29-.21L105,163l.29-.39,0-.49.07-.27.41-.49.2-.12.18,0,.19.12.22.06.14-.06.22-.33.14-.08h.67l.51.13.41.25,2,1.67.5.18.31.27.49.61.39.6v.27l-.48-.2-.59-.47-.52-.59-.27-.49-.5.1-.66-.31-1-.79-.12-.25-.05-.3-.11-.27-.3-.18-.3,0-.24.17-.19.19-.15.1-.66,0-.3.1-.13.3,0,.31-.06.37-.09.32-.12.13-.27,0-.29.13-.23.2-.1.25.14.09.86.28-.58.3-.6-.06-1.17-.46-3.49-.37-1.39-.47-3.51-.43-.65.2-1.33.87-.68.2-.57-.2-1.08-.87-.62-.2-.65.11-.44.3-1.36,1.38-.3.15-.39,0-.3-.08-.29-.13h-.22l-.22.83-.34.57-.45.44-.46.12.76,1.25,1.15.53,1,.7.27,1.73-.4,1.36v.79l.52.35.6.09,1.49.56.56.33-1.18.5.16,0,.43.22-.19.54.25.1.74-.14.36.23.18.29.55,1.41,1.22,4.19.38.76.45.53h.7l.19.06.13.16.18.3,0,.17,0,.25V184l.11.09.22,0,.47.24-.41.36-.58.15-.63-.05-.56-.23-.34-.44-.31-.63-.33-.47-.4,0-.31-.25-.31-.32-.32-.19-.62.28-.16-.27-.12-.42-.14-.31-.41-.26-.32,0-.2-.16-.07-.64-.2-.13-1,.16-.31,0-.49-.71-.21-.19-.24-.08-.51,0-.25-.11-.36-.35-.07-.26,0-.31-.22-.44,0-.36.19-2.3.08-.33.2-.19.44-.17h-.45l-.14-.18v-.29l0-.29-.39-1.49-.28-.37-.61-.12-1.23,0-.6.15-.43.3-.49,1.43.18,1.57.38,1.56.12,1.41-.18.65-.5,1.08-.1.86.18,1.61.34.32.36.06h.36L83,183l.44.65.3,1.56.34.65.39.59.28.74.17.79.08.73-.14,1.56-.3,1.42,0,1.34.66,1.33.86.71.38.46.16.69.3.42,1.84,1.42,1.63,2.13.89.88,2.2,1.35.57.23.64.09.67-.14.63-.24.57,0,.48.42,1-.61.84-.08.79.44.78,1,1.67,3.2.69,1-.59,2.2.25.13.24.05.25-.05.26-.13.11.26,0,.24,0,.23-.1.25-.68-.21-.43,0-.22.36-.15,1.73-.24.73-.34.67-.41.54-.58.32-.47-.27-.46-.45-.57-.2-.46.26-.39.59-.53,1.34.48.16.38.28.33.18.28.26.12.48-.13.32-.55.08-.13.31.09.63.71,1.71.3,1.52.07,1.53,0,.29.36,1,.09.43,0,.25.06.21.21.33.3.25.32.14.25.22.1.49.13.36.31.36.36.27.87.24,2.76,1.86.84.92,1.45,2.44.48,1.3.35.63.45.27.68.09.57.25.47.38.36.47.29.55.25.67.18.75.07.8.17.71.41.52,1,.88.69,1,.38.46,1,.54.34.81.3,1.54,1.1,2.15.61.1,1.66.88,1,.18.84.9.86,1.69,1,1.16.82,1.1.79.76.83.57,2,.31.73.34.34.43.2.51.25,1,.22.39.57.76.21.51-.46.29-.42.07-.17-.23.26-.59-.21-.22-.79,2.28,0,1.27.08.57.28.55.74.67,1.72.7.75.54.13-.17.49-.17.6-.09.45.06.24.18.55.56.25.13.5.19.23.17.26,1.08.14,1.22-.09,1.36-.19,1.38-.87,2.2-.11.81.13.3.85.75.22.27.17.27.12.31.07.38,0,.81-.44,1.37-.11.8.37.52.3.62.22.66-.09.91-.25.63-.25.48-.19.56-.29,1.11-.26.57.18.4.36.36.74.23.86.24.68,0,1.06.87.83,1.17.68,1.35,1.24,0,2.72-.6,4.29-.27,1.39.12,1.21.49,1.47-.44,1.68.59,3,1.49.53-.1.64-.26.63-.16.47.2.38.31.66.4.71.32.52.06.34-.24.24-.32.27-.28,1.43-.32.63.19.7,0,.35,0,.32.14.65.57,1.84.83,1,.31,3.47,3.09.39.18.68,0,.32.07.29.18.11.3v.37l.09.32.38.21-.15.41.1.46.25.49.3.43.11.22.09.43.1.17.13.1.28.06.17.11,1.28,1.16.75.42.91.05-.42-.1-.25-.09-.2,0-.14-.3,1,.18,2.4,1.47,2.88.83,1.43.15,1.13.48.52.49.52-.31.58-.25,4.18-.49.41,0,.29.14.22,0,.32-.14.44-.25.72.16.86.58.9.8,1.1,1.71.67,1.59.59,1.28.18.62.05.52,0,1.13-.23.47-.4.48-.13.57.58.76.19.11.3.1.33,0,.27-.14.32-.08.29.31.28.4.29.2.29.08.33.14.34.09.32-.08.15-.21,0-.28V316l.2-1,.16-.21.38-.08.22-.09.25-.14.26-.06.71.52.47,0,.58-.1.78.06.54.24,3.92,3.91,1,.8,3.42,1.75,1.38,1.11,1.19,1.54.58.34,1.28.78.47.35,1.67,1.77,2.66,1.88,4.17,5.68,1.53,3.25.56,1.75.07.63.26.42.75,3.46v.55l-.28.68-.34.36-.23.36,0,.73.72,1.1.09.49,0,.7-.21,1.51.06.35.28.61.12.43.13-.3.15-1.08.29-.38.38-.18h.19l.51.12.5.26.64.29.32.29.47.67.4.78.11.6-.22.29-.34-.08-.22-.45-.41-.67-.32-.63-.35-.31-.06-.45-.54-.22h-.41l-.28.37-.22.34h.82l.63.45.48.79.51,1,.09.86-.09.79.17,1,.21.25h0l26.45-2.36,26.45-2.36c5.32-.48,10.65-1,16-1.43l0,0,.11-.43,1.09-.8,3,.62,1.22-.28.28-.51,0-.61,0-.63.11-.59.37-.45,1.07-.74.33-.44.08-.74-.46-2.18,0-.43.07-.33v-.33l-.12-.43-.8-1.17-1-.55-2.61-.19L307.4,339l-.86-1.21.1-1.19.44-1.28.15-1.48-.29-2-.2-.46-.9-1-.06-.51.28-1,.34-.37.11-.29-.17-.37-.23-.27-.3-.43-.13-.4.27-.18,1.41-.1.71-.21.52-.39,1.07-2,.27-.84.29-.36.57-.57.39-.51.09-.23.11-.46-.16-.75v-.46l.26-.21.09-.16,0-.39,0-.74.14-.84.31-.49.34-.39.19-.51-.31-.63-.12-.38.15-.17.1-.19,0-.4,0-.41-.1-.18-.36-.37-.11-.83v-.88l-.05-.53.52-.43.23-.32,0-.3-.56-.66-.23-.38-.1-.41.18-.77.45-.47,1.14-.75.47-.47.45-.56.34-.67.24-1.47.3-.65.46-.48,1-.33,2.94-2.09.56-.15.91-1.18,1-.95.91-.7.24-.47ZM200.93,327l-2.47-1-.47-.11-1.91-1.18-.77-.2-.68.09-.23.48.33.45.66.37.74.25.55.08.76.2.27.5.06,1.44.16.76.26.6.41.39.63.14.28-.07.72-.35.28-.07.4.1,1,.6.57.09.45-.18.12-.47-1.7-2.51Zm-1.3,18.51-1.08-1.4L197.17,343l-.58-.62-.42-.91-.17-.24-.2-.34-.16-.37-.07-.32-.13-.3-.32-.09-.39-.06-.35-.16,0,.79.44.89.54.84.52,1.28,1.09,1.53.52,1.2.63.55.72.42.54.23.29,0,.21-.08.18-.11.21-.06.79,0,.36-.06.33-.19-1.34-1ZM67.53,175.63l-.15.19.06.1,0,.07,0-.07v0l0,.07.11-.35,0,0Zm16.32-6.15,0,.11h-.13l-.07.16,0,.3h0l.19.09.23-.06.16-.44h0Zm1.6,1.46.11.44,0,0h0l.35.4,0-.12h0l-.18-.09.06-.6h0v0Z"/></svg>