<svg id="Alabama" xmlns="http://www.w3.org/2000/svg" viewBox="0 0 367.89 371.93"><defs><style>.cls-1{fill:#ccabd1;}</style></defs><title>state</title><path class="cls-1" d="M146.72,25l1,.11.89.37.79.71L149.12,25l.25-.85.54-.63.58-.56V21.77l-.86-.15-2.09.75-2.67.64-.68.43-.84,1.33.43.45Zm-9.44,9.68-1.08,1.64,0,1.29L137,38l2.38-1.76,3-.8.73-1.28-1-.15.54-.94L144,32l1.32-.51,1.42-.14.82-.48.08-.84-.86-1.26L145.7,29l-3.06,1.55-.63.67-.63,1ZM347.22,141.49l-1-.08-1,.42-.95.11-.68-1-.57-.64-.46.58-.31,1.19-.13,1.18.22,2-.18.69-.78.76.53.34.68,0,1.33-.3,3.36.52-.25-.75-.14-.3.53-1.18.44-1.33,0-1.26ZM320,186.71l-1-1.08L317.46,183l-1.67-1.41-1.22.75-1.09.93-1.22-.84-2.08,2.24-.82.61.3-1.3-1.35-.1-1.5.89-1.36,1.28-.92,1.07-1.93,3.07-1.73,3.66.48,1.14-.59,1.23-.89,1.15-.47.87-.6.65L295,200.6l-2.39,1.8-1.16,1.25-.49,1.29-.49,1.76-1.17.79-1.44.09-1.28-.32-.93-.63-1.08-1-.58-1,.56-.44L285,202l.2-1.66.28-.67.37-.53.51-1,.37-.29.16-.34-.32-1.15,0-.43.37-1.79.32-.71.57-.84,1.19-1.06.58-.7.27-.82.09-.84.27-1,.35-.9.38-.72,2.95-3.46.95-2.06-.61-2.16,1.56-2,2.47-1,4.8-1.09,1.16-.52.93-.68.65-1,.22-1.61,0-1.62,0-.84.19-.64,1.43-2.22.16-.48-2.91-1.2-.9-.74-.11-.35-.3-.53-.54-.74-1.25-1.29-.81-1.05-.38-.72-.06-.53.24-2.42.21-1,1-3.07,1.35-3.07.44-.64.81-.91.26-.47,0-.4-.07-.38-.35-.68-.44-.7-.33-.41-.32-.24-.38-.06-.33.1-3.94,2.12-.38.09-.41,0-.46,0-1.22-.38h-.42l-.36.11-.63.38-.42.08-.52-.11-.81-.56-.33-.46-.14-.49.07-.46.63-1.63.11-.5,0-.62-.14-.94,0-.63.14-.45.23-.29,1.78-1.35.25-.28.22-.32.41-.7.3-.76.11-.41,0-.26v-.51l-.44-2.37-.49-1.56.05-.69.25-.31.37-.12.33-.16.27-.24.21-.46.13-.62,0-1-.11-.58-.18-.45-.92-1.54-.38-.81,0-.56.13-.42.57-.5.24-.26.14-.44,0-.22-.09-.24-.31-.45-.74-.8-.67-.9-.54-.49-1.28-.92-.27-.27-.62-.95-.23-.28-.3-.23-.35-.22-.42-.12-2.34-.21-.89-.26-.34-.21-.29-.24L287,114l-.65-.88-.14-.12-.24-.1h-.3l-1.11.35-.86.11-.44,0-.9-.22-.8-.34-.81-.47-.41-.39-.52-.72-.14-.55,0-.51.14-.41.21-.38,1.17-1.58.2-.37.19-.44,0-.69-.21-.57-1.38-3.11-.43-.53-.49-.32-.83-.31-.35-.21-1.4-1.14-.39-.16h-.43l-.8.14-.45,0-.46-.06-.88-.34-1-.55-.43-.17-.44-.08-1.87,0-.92-.16-.31-.13-1.36-1.11-.49-.29L266,97l-1.12.33h-.44l-.52-.1-1.84-1-.41-.16-.39,0-.33.12h-.46l-.52-.15-.89-.69-.57-.34-.56-.2-.43-.06-.41,0-.36.11-.66.38-.37.1-.43,0-.4-.1-.39-.05-.35.09-1.17.93-.46.06-.62-.15-1.82-1-1.22-.39-.83-.44-.56-.19-.49-.06-.41.07-1.13.43-.45,0-.53-.12-.4-.37-.38-.17h-.36l-.79.15-.42,0-.69-.09q-7.59-4.31-15.13-8.69c-10.57-2.89-21.12-5.84-31.68-8.77-7.31-2-14.63-4-21.94-6.11l-.3-.35-.16-.4-.43-1.56q-1.88-4.48-3.76-9l-.67-.95-.7-.82L166.1,57l-.54-.18-.52-.06-.63-.22-.44-.34-.51-.53-.49-.2-1-.21-.3-.36-.53-1.12-.38-.21-.37.05-.93.6-.41.15-.44,0-.6-.1-.37-.24-.22-.32-.24-.8-.27-1.47.17-.38-1.39,1-1-.05-2.3-1.34-3.9-1-4.94-2.92-4-3.93-1.09-.73.37.31,1.06,1.29-.58-.06-.59.09-.54.22-.47.32v.49h1.85l-1,1.5-1.41,1.07-6.41,2.73-1.57.34-1.4-.75.62-1.53.92-1.54,3.43-4.21.31-.91-.26-.78-.41-.75-.22-.77.11-1.34.33-1.67.63-1.42,1-.6.92-.78,1.34-3.54.89-1.08L137,28l-.16-.29,1.25-.66-.15-.63-.69-.59-.41-.52-.2-1.5-.56-.51-1.61.13-.28-.22-.11-.52,0-.55-.12-.32-.49-.28-.45-.18-1.09-.12-.38.24-.22.56-.16.58-.17.33-.51.23-.57.15-1.13.1-.45-.08-.81-.33-.36-.08-.52.14-.33.32-.22.34-.22.21-2.32,1.11-.61.49-.24.48-.08.55-.16.45-.45.18-1.06,0-.48.14-.48.3-.84,1.76-.7.57-1.06-.69.09-.46,0-.18-.06-.14,0-.33-1.06,1.14-1.2.49-.72-.46.4-1.7-1.54.37-2.67,2.42-4.2,2.74-2.6,2.52-.73-.64L99,36.83l-4.26.65L82.77,42l-7.85,1.26-1.28-.07-3.39-1.79-.84-.28-.91-.53-1.28-1.23-1.15-1.44-.37-.78-.71.36-.87.66-.43.71-.44,1.31-.19.3-.28.21-.87.24-.32.15-.27.25-.22.32-.19.4-.1.48-.25,2-.14.34-.12.21-.19.24-.29.2-.77.21-.92.07-1-.08-.77-.29-.24,0-.12.26Q56,62,56,78.35q0,6,0,12l-1,.22-.67.5-.73.85-.6,1L52.69,94l-.52.66L51,94.57l-1.35-.3-1-.06-.79.69-1.2,2-.79.43H43.66l-.51.17-.43.36-.3.37-.21.16-.06.23-.64,1.06-.25.33-.44.24-1.4.23-2.88,1.85-1,.25-1.68.8-1.49,1.91-2.16,4.15.24,2.24L29,114l-4.66,4.55-.49.93-.19,1.28-.37,5.79,1,2.69,2.35.56,2.69-.06,2.06.81L32,131.7l.78,2.93.41,1.11.92,1.23,1,1,.76,1.2.25,1.45L35.86,142l-1.56,2.61-.65,3.14-.69.87-.84.71-.75.93-.44,1.25L30.7,153l-.06,3.38-.33,1.59-.11.9.25.39.92,2.54.08,1.71L31.13,165l-.7,1.06-1.09.4-.73.72.35,1.67,1.28,3.39.49,3.21.24,3.24-.17.48-.75,1.28-.17.82.33,2.43,0,.91-.35,2-2.22,4.71,1.44,1.3,3.31,2.18,3.77,3.86,1,.64.33.64.26.71.24.47,2.33,1.46,8.35,1.4,1.89.73,1.82,1.48,1.56,2,1.38,3.22.46.83.57.63.72.36,6.25,1.07,2.87,1.09L74.35,223l2,3.5,4,8,1.06,1.43,2.09,1,6.21,5.69.67.36.67.19H96.3l.31.14,3,2.54.39.22.46.14,2,.16.65.32.35.36.22.42.13.49.09.56.4,1,1.23,1.6.41,1,2.3.88.71.46.54.59.35.73.22.84.26,1.79,0,1.71-.12,2.17,0,.64.11.63.21.63.28.52.75.89.33.56.18.68.16,1.45v1.4l-.65,4,0,.67.4,2,0,.78-.22,2.32,0,1,.32,1.9.08,1-.09.93c-.11.61-.21,1.22-.32,1.83l-.08.93,0,.92.16.86.27.81.74,1.49.27.74.17.78.24,2,.41.77.62.51,4.63,1.91,1.32,1.66.09,2.74-1,2.26-2.85,4-.6,2.55.29,5.13.41,2.48,0,2.69.09.89.26.82.06,3.36.27,1.61.59,1.24,1.54,1.92.52,1,.32,1.31.16,3.1.21,1.35,1.83,3.63.67.94,1.22.93,2.35,1.08,9.17,1.8,2.46.95,1.25.19,1.27.42.84,1.09,1,3,.44.82,1.34,2.08.45,1.12-.13.82-.68,1.55c11,0,22.1.21,33.14.31l33.65.32,33.18.32,33.41.32,18.84.18-.32-5.57.13-.71.2-.79.1-.79-.42-1.26-.08-.94v-1l.08-.7.47-1.35,1.14-2.33.56-4.91-.06-1.33-.63-1.6-2.23-3-.52-1-.2-.75-.16-5.94-.45-1.7-.87-1.6L292,321l-.4-1,.26-1.29,1.11-2.6.13-.59,0-.9-.24-.41-1-.9-.24-.71.23-1.66.39-1.15.18-1.17-.43-1.77-.48-1.3-.22-.84-.06-2.62,1.53-5.57.37-2.25,3.42-6.81.79-2.95-.56-2.37.27-1.76.58-1.44,3.31-6,1.36-3.46L302,269l.3-.77-.06-.22-.24-.55.46-.76.18-.69,0-.73-.19-.85-1.19-2.14-.11-.35-.39-.83,0-1.91.46-5.68.19-.74.95-1.63.14-.68.16-1.85.4-1.54,2.82-6.56.82-1.27.79-.68,3.07-1.63,1-1,.95-1.28.68-1.47.27-1.59-.33-1.2-2.2-3.12-.4-2.6.13-.86.49-1.47.29-1.16.76-1.59.17-.78.11-1.72,1.54-8.42,1-3.28,1.38-2.78,2.58-3.31.52-1.48.77-1.26.18-.39.06-.85.19-.89,1.68-4.95.06-1.66-1.07-.72ZM128,21.16l.77-1,.43-1.05L128.38,18l-.62.77L126.22,20l0,.74.87.8Zm11.84,4.41,1.06-.59.52-.54-.08-.78-.76-1.29-.37-.29-1-.48-.51-.35-.22.65-.22.54-.29.5-.36.5,1.65,1.39ZM340.4,153.15v-.62l.2-.65.27-1-.38-.25-1.36.26-1.63,0-.64-.31-.73-.75-.38.52-.2.53-.1.6,0,.71-.2.42-.46.15-.49.07L334,153l-.92,3.37-.14,1.06-.41.71-1.81.7-.41.69-.38.8-.86-.06-1-.38-.72-.11-.73.71-.57,1.21-.39,1.46-.24,2.49-.27.74-.73,1.16,0,.3.08.93,0,.27-.24.07-.62-.14-.24.07-3.15,4-1.32,2.7-.7,3.2.38,3,1.35,2.86,2,1.85h2.21l.86-.74,2.63-3.6.38-.74.27-1.46.26-.62.51-.49,1.17-.57.52-.54-1.27-1.37.7-2.38,2.43-4,.49-1.6.37-.7.6-.28.38.15.49.27.43.13.18-.26-.06-1.41.09-.3.33-.69.3-.24.41,0,.41-.15.38-.62-2.07-2.12-.52-1,.73-.32.7.11,1.51.73-.16-.72L337,160l-.11-.74.1-.77.65-2.39-.22-.47-.43-.45-.1-.37.75-.26.53.16,2.06,1.39.69-1.55-.35-.72ZM157,16.37l-.24-2.63.15-.29.13-.21.09-.24v-.39h-1.67L154.3,14l-.64,2.27-.2,2.56,2.29-1Z"/></svg>