<svg id="Alabama" xmlns="http://www.w3.org/2000/svg" viewBox="0 0 429.59 371.93"><defs><style>.cls-1{fill:#ccabd1;}</style></defs><title>state</title><path class="cls-1" d="M413.8,287.71l-1.19-.53-.57.14-.71.3-.74.2-.67-.18-.55-.65-.23-.78-.14-.83-.3-.81-.47-.51L407,283.3l-.55-.51-.2-.66-.26-1.79-.39-.37h-1.41l-1.1.17-.41.74.66,1.68.53.64.55.44.42.62.18,1.14-.3.77H404l-2.43-1-3-2.48-1-1.14.41-2.16-.87-2.14-2.39-3.37-1.38-2.46-.48-1.23-.19-1.25.1-1-1-.8-.51-.28-1.18-.44-.33-.3,0-2.91,1.76-2.12,2.11-2.08,1-2.7-.61-3.15-1.42-2.6-1.64-2.41-1.26-2.62L389.6,244l.16-1.38.3-1.28.16-1.28-.23-1.34-.42-1.39-.2-1.24.44-.92-1.58-1.42L382.4,231l-1.33-1.58-1.72-4.14-1.47-2.11-1.47-1-3.7-1.6-1.42-1L367.88,216l-2-1.57-2.71-.78-2.23,0-.93-.59-3.29-2.85-2.13-.67L352.93,208l-1.45-1.9-1.57-1.59-2.23-1.34-1-.9-.44-1.15-.4-.68-1.68-1.75-.39-.71-3.31-2.86-.5-.71-.41-.78-.37-.92-.32-1.19-.55-3.5.25-2.83.9-2.41,2.89-4.75,3.07-8.5,3-4.89,1-2.4.05-3.15-.31-3.08.16-1.89.78-.83.87-.75,1.14-1.72,1-1.93.44-1.37-1-2-2.39-2-5.92-3.36-3-.9-1.4-.15-1.12-.28-2.05-1.35-1.15-.46-3,.66-3.77,5-2.61,1.22-2.48-.95-1.85-2.35L319,134.86l.28-.95-.07-1.28-.34-1.27-.46-.93-.37-1,.25-.95.46-.89.25-.84-.24-.84-1.08-1.67-.32-.94,0-1,.11-2.13-.08-1-.41-1.51-.69-1.67L314.77,113l-1.41-1.86L312,109.84,298.15,99.61l-.9-.92-.37-1.05L296.59,96l-.71-1.45-.94-1.16L279.89,79.57l-1.19-1.93L278,75l-.1-1.83-.14-.82-.37-.79L275.69,70l-.39-1-.8-.92-.27-.53-.05-.9.5-2.28,0-1.91-.09-.71-.2-.61-.27-.56-.36-.55-1-1.26L272,57.5l-.32-1.19L270.06,43.4l0-3.63.41-3.21.92-4L272.82,29l1.86-1.68h0l-.63-.64L272.33,26l-.75-.54L269.4,23.3l-.51-.76L269,22l0-.54-.18-.55-.37-.54L268,20l-1.21-.54-.53-.42-.18-.39-.1-.44-.16-.36-.37-.15-.66,0-.3-.07-.26-.22-.25-.46-.27-1.11-.12-.3-1.42-1-1.3-.33-.57-.37-.42-.56-.27-.59-.12-.76,0-1-.25-.47-1.11-.76-.25-.41-.51-1.17c-10.67,0-21.35.15-32,.23l-34.56.27-34.56.27L119,9.22l-32.42.25L49,9.76c-11.22.09-22.43.22-33.65.26h-.25l-.32,2,.28,2,.78.73,1.18.23,1.44.53.92.9.07.85-.23.92.05,1.09.55,1.16,1.06,1.32.45,1.27,0,.47-.09,1.15.08.57.24.62,1,1.48.71,2.37.16.31-.32.56-.55.53-.78.57.39,1,1,.15,1.22-.18,1.1.07,1.06.74.62,1,.5,1.06.73,1,.89.46,2.18.17,1,.4.65.87-.07,1-1,2,1.68,2.06.83,1.33.35,1.15,1.82,1.87.19.36-.22.83-.61,1.48-.27,1.73L36,53.54l.67.89,2.8.54,1.05.58q2.52,2.31,5,4.64l.77,1.21.68.2.76.12.54.25.39.66.23.65.29.58.53.47.51.16,1.25.14.69.28.65.49,1.6,1.87,1.26.62,1.42-.37,1.24-.83,1.8-1.59.91-.5,1-.22,1.41-.06.78.4.41.93,0,1.07-.51.78L65,68.62l2.64,1.6.57.8-.06.8-.29,1.52-.06.89.21,1,.45.55.33.54-.14.88-1,1L66.41,78l-2.89-.87-.5.26-.32.64-.18.78-.18,1.9-.35.49-.51.25-.66.45-1.91,1.93-1,1.32-.41,1.33.07,1.68-.06.86-.21.64-.67.44-1.59.1-.45.23L54.56,92l.69,1.56,1.08,1.2,1,.47.37.59,1.33,2.76.59.89.48.3,1.1.51,2.51,1.82.23.47.32,1.23.28.42,2.64.58-.53,1.41.46,3.08,1.31,3.08,2.06,1.41.58.74.07,1.63.25,1.63,1.15.74,1.21.37,2.66,1.77,1.33.54,1.86-.08.88.1.6,0,.3,0,.3.23.14.68.2.14,1.42.12,1,.38.12.65-.85.92.07.12v.22l.08.27.26.1v56.85q0,18.4,0,36.81v68.73q0,18,0,36.06H351.48l.06.17.13.16.3.61.6,1.67.16.24.25.23.3.18.21.21.11.27,0,.34.07,1.19.06.4.08.4.16.32.25.28,2,1.23.29.23.26.26.23.29.17.32.12.34.09.4v.43l0,.46-.39,1.75,0,.46.29,2.19,0,.39-.07.37-.14.36-.14.32-.23.32-.25.24-.28.23-.32.16-1.53.48-.28.2-.21.27-.13.34-.23,1.47-.14.37-.18.36-.21.28-.29.23-1.88,1.06-1.37.56-.76.22-.32.16-.6.41-.25.26-.22.32-.14.36-.1.37-.08.66-.09.4-.14.39-.16.35-.23.31-.26.21-.32.18-.34.14-1.2.28-.32.14-.29.21-.23.27-.41.61-.71.79-1,1.69-.57.75-2.12,4.12-.19.71,0,.32.09.3.37.1,4-.09c11.49-.27,23-.63,34.48-1h.34l.1,0,.48-2.54,1.84-3.06.25-1.22.4-.7,1-.72,1.15-.61,1-.23.53-1.35-1.58-3-3.25-4.78,1.07-.37,5.58-.21.74-.19.6-.47.23-.83-.61-.47-1.49-.5-1.14-1.07-.89-1.52-.14-1.37,1.15-.59,1.56,0,1.41-.2,1.1-.74.64-1.62-.2-1.68-1.33-3.07.11-1.15.4-1.38-.49-1.08-.24-.31-.55-.63-.53-.94.49-2.6,2-.85,2.05,1,.78,3-.46,1.6-.57,1.49.1,1.09,1.56.43.77-.41,1-1,1.34-1.67c.17-.42.32-.84.48-1.26l.95-3.48.17-1.15.87-2.78.59-1.29.37-.43.67-.37,1.43,1.32,1.45,1.7,1.58,1.49,1.88.63,1.61-.86,1.26-2,1.49-4.28,2.38-5.18.46-2-.09-1.66-.9-2.62-.23-1.56.25-.88.53-.78.59-.66.31-.49.09-.73-.09-2.37.39-3.24Z"/></svg>