<svg id="Alabama" xmlns="http://www.w3.org/2000/svg" viewBox="0 0 473.91 371.93"><defs><style>.cls-1{fill:#ccabd1;}</style></defs><title>state</title><path class="cls-1" d="M432.22,106.47l-.38-.79-1.52-3-.54-.59L428.47,101l-.6-.69-1.62-1.2-2.35-.73-4.39-.48-1.11-1-1.23-2.33-2-4.78L414,87.94l-2.74-3.19-1.47-2,.23-1.67.68-1.66.41-.49.51-.42L413.74,77,415,75.53l.57-.51,4-2.37,1.49-1.21.54-.56.44-.63.2-.36L424,66l1.12-2.06.37-1.37.49-4.84.15-.41.2-.42.18-.3.34-.82H13.59q0,3.51,0,7c0,11.14.12,22.29.16,33.43,0,10.93.12,21.86.16,32.79l0,1H12.13q0,9.71.06,19.41.06,16.42.1,32.83.05,17.32.1,34.65.06,16.33.1,32.66,0,17,.11,34H319.89l.18.15,1.11,1.39.42.39,5.82,3.86.33.08.65,0,.31.07,2.31,1.59,2.29,2.07L341,296.5l.57.62.23.89.66.44,4,1.39,1.5.13,1.49-.13.6-.33,1.14-1,.36-.21.22-.37.7-2,.18-1,.47-.63.62-.41.66-.31,1.38-.33,3.78.88,2.28-.56.7.14,1.13.68.64.25,1.31-.08,2.18-1.17,1.23-.29,4,1,1.51,0,11-2.06,1.39.21,1.14.59,1,.9,1.67,2.19,2,1.92,1.18.87,1.3.65,1.31.32,2.89.1.54.16,1.23.68,1.5.3.52.4.39.51.58.52,1,.36,5,.38,1,.59.76.83.62.92.36.73.18.53.29.41.67.38.7.15,2.31-.15.57.08.77.24.67.39.28.58-.16.69-.35.53-.28.63,0,1,.65.89,2.29,1.77.49,1.2.21,1.45.6,1,.95.62,7.14,1.2,0-2.64-.39-.91-.31-.2-.26-.42-.05-.47.05-.61-.08-.45-.16-.43-.36-.7-.2-.3-.23-.26-.26-.2-1-.57-.08-.22,0-.19.16-.3.07-.1.6-.51.18-.33-.07-.31-.16-.29-.44-.52-.49-.49-3-2.24-.45-.43-.51-.62-.88-1.37-.28-.78-.13-.61.14-1,.23-.71.47-1.06.85-1.26.17-.33.14-.39.11-.42.13-.38.18-.33.21-.28.21-.21.2-.13.87-.38.21-.12.13-.29.08-.41.05-1,.09-.46.12-.33.26-.28.2-.18.11-.33.13-.59.12-2.05.08-.51.07-.17,1-1.16.21-.48.21-.87-.08-1.48,0-.26,0-.19,0-.09.25-.38.36-1,.13-.53-.05-.35-.1-.23-.2-.28-.23-.43v-.42l.1-.35,1.85-1.8.22-.42.21-.52.59-3v-.6l-.06-.49-.16-.57-.17-.76-.47-3.29-.18-.82-.15-.36-.23-.28-.31-.17-.36,0-.57.07h-.37l-1.26-.23-.87,0-.46,0-.42-.16-.34-.39-.1-.42.07-.41.18-.33.49-.56.16-.27-.07-.28-.31-.32-.41-.33-.46-.82,0-.52.14-.35.38-.06.8.1.39-.08.3-.19.21-.26.15-.26.18-1.86,0-3.92-.13-.81-.21-.3-.95-1.1-.44-.62-1-1.16-.27-.42-.28-.72,0-.63,0-.69.13-.83,0-.55-.13-.48-.18-.41-.13-.51.2-.19,7.86-.09V142q0-17.66,0-35.33Z"/></svg>