<svg id="Layer_1" data-name="Layer 1" xmlns="http://www.w3.org/2000/svg" viewBox="0 0 137.25 121.34"><defs><style>.cls-1{fill:#fff;}.cls-1,.cls-2,.cls-3,.cls-4,.cls-5{stroke:#582c83;stroke-linejoin:round;stroke-width:2px;}.cls-1,.cls-2,.cls-5{stroke-linecap:round;}.cls-2{fill:none;}.cls-3{fill:#7edef3;}.cls-4{fill:#bfeff9;}.cls-5{fill:#ccabd1;}</style></defs><title>demographics-icon</title><path class="cls-1" d="M34.57,133.28a66,66,0,1,1,77.87.21" transform="translate(-5.45 -13.15)"/><path class="cls-2" d="M50.89,133c-9.31-12-15.33-31.25-15.33-52.91,0-36.44,17.05-66,38.09-66s38.09,29.54,38.09,66c0,21.94-6.18,41.37-15.69,53.37" transform="translate(-5.45 -13.15)"/><line class="cls-2" x1="68.2" y1="1" x2="68.2" y2="120.34"/><line class="cls-2" x1="134.17" y1="66.88" x2="2.22" y2="66.88"/><path class="cls-2" d="M125.13,38.86c-13.38,7.38-31.51,11.92-51.48,11.92s-38.1-4.53-51.48-11.92" transform="translate(-5.45 -13.15)"/><path class="cls-3" d="M85.75,133.49v-7.57a7.08,7.08,0,0,1,2-4.81c2.36-2.08,16.75-10.41,16.75-10.41v-6.48s-3.17-3.83-3.54-5.5c-.44-2,0-16.21,0-16.21s.17-5.07,4.13-7.42a18.23,18.23,0,0,1,8.55-2.21h.14a18.23,18.23,0,0,1,8.55,2.21c4,2.35,4.13,7.42,4.13,7.42s.44,14.22,0,16.21c-.37,1.68-3.54,5.5-3.54,5.5v6.48s14.39,8.34,16.75,10.41a7.08,7.08,0,0,1,2,4.81v7.57Z" transform="translate(-5.45 -13.15)"/><path class="cls-4" d="M6.45,133.49v-7.57a7.08,7.08,0,0,1,2-4.81c2.36-2.08,16.75-10.41,16.75-10.41v-6.48s-3.17-3.83-3.54-5.5c-.44-2,0-16.21,0-16.21s.17-5.07,4.13-7.42a18.23,18.23,0,0,1,8.55-2.21h.14A18.23,18.23,0,0,1,43,75.08c4,2.35,4.13,7.42,4.13,7.42s.44,14.22,0,16.21c-.37,1.68-3.54,5.5-3.54,5.5v6.48S58,119,60.38,121.11a7.08,7.08,0,0,1,2,4.81v7.57Z" transform="translate(-5.45 -13.15)"/><path class="cls-5" d="M41.5,133.49v-8.69s0-3.5,2.31-5.53c2.72-2.38,19.25-12,19.25-12V99.85S59.43,95.45,59,93.53c-.51-2.29,0-18.63,0-18.63s.19-5.82,4.74-8.52a20.94,20.94,0,0,1,9.82-2.54h.16a20.94,20.94,0,0,1,9.82,2.54c4.55,2.7,4.74,8.52,4.74,8.52s.51,16.34,0,18.63c-.43,1.93-4.06,6.32-4.06,6.32v7.45s16.53,9.58,19.25,12c2.31,2,2.31,5.53,2.31,5.53v8.69Z" transform="translate(-5.45 -13.15)"/></svg>