<svg id="Layer_1" data-name="Layer 1" xmlns="http://www.w3.org/2000/svg" viewBox="0 0 73.61 125.62"><defs><style>.cls-1{fill:#02bfe7;}.cls-1,.cls-2,.cls-3{stroke:#582c83;stroke-linejoin:round;stroke-width:2px;}.cls-2{fill:#7edef3;}.cls-3{fill:#ccabd1;stroke-linecap:round;}</style></defs><title>diseases-icon-01</title><g id="layer1"><path id="path4388" class="cls-1" d="M53.13,19.42" transform="translate(-36.97 -11.94)"/><path id="path4388-2" data-name="path4388" class="cls-2" d="M94.36,19.6s5.15,3-3,18.82c-3.48,5.82-9.8,14.77-17.6,25.7l14.4,20.7c8.45-12.56,15.72-23.91,18.95-30.69C115.54,36.56,97,22.22,94.36,19.6Z" transform="translate(-36.97 -11.94)"/><path id="path4388-3" data-name="path4388" class="cls-2" d="M59.23,84.52,38,114.75l14.43,21.8s12.12-17.38,21.38-30.68Z" transform="translate(-36.97 -11.94)"/><path id="path4388-4" data-name="path4388" class="cls-3" d="M56.17,38.23c6.3-2.38,13.16-4.09,17.87-4.06S85.29,36,91.38,38.41h0c8.13-15.79,3-18.82,3-18.82l-2.8-1.83A35.16,35.16,0,0,0,74.37,13,32.33,32.33,0,0,0,55.19,18l-2.06,1.39s-3.48,7.3,3,18.82Z" transform="translate(-36.97 -11.94)"/><path id="path4388-5" data-name="path4388" class="cls-2" d="M53.13,19.42C50.48,22,32,36.38,40.36,53.94s54.8,82.43,54.8,82.43l14.43-21.8S65.51,53.88,56.17,38.23C49.65,26.71,53.13,19.42,53.13,19.42Z" transform="translate(-36.97 -11.94)"/></g></svg>