<svg id="Layer_1" data-name="Layer 1" xmlns="http://www.w3.org/2000/svg" viewBox="0 0 141.55 85.57"><defs><style>.cls-1{fill:none;}.cls-1,.cls-2{stroke:#582c83;stroke-linecap:round;stroke-linejoin:round;stroke-width:2px;}.cls-2{fill:#7edef3;}</style></defs><title>health-behavior-prevention-icon</title><path class="cls-1" d="M107.86,89.08l7.6-16.14s2.13-5.29,8.72-3,2.29,12.52,2.29,12.52Z" transform="translate(-2.23 -31.93)"/><path class="cls-2" d="M95.9,75.72c-2.9,6.15-9.3,4-9.3,4L61.95,71.17a12.07,12.07,0,0,0-6.45-.56c8.73,12.71,27.09,22.11,27.09,22.11s27.34-14,31.17-30.92-5.12-24.32-5.12-24.32-4.75-6.57-15.19-3.93S82.59,49.42,82.59,49.42,82.17,36.2,71.73,33.56s-15.19,3.93-15.19,3.93-4.86,4-5.88,12.9L91.92,66.17S98.89,69.38,95.9,75.72Z" transform="translate(-2.23 -31.93)"/><path class="cls-1" d="M18.63,103.17s4.17-3.52,11.78-.65S75.69,115.3,75.69,115.3s8.9,2.69,15,0,44.92-17.21,44.92-17.21S145,95,142.28,85.92c-1.53-5-7.87-5.18-7.87-5.18a14.75,14.75,0,0,0-5.58.91L93.48,94.17a11.15,11.15,0,0,1-7.7-.28C81.52,92.23,54.71,83,54.71,83s-5.29-2.13-3.15-8.63a5.42,5.42,0,0,1,3.94-3.81" transform="translate(-2.23 -31.93)"/><path class="cls-1" d="M50.66,50.39l-2.16-.83s-11.13-4.17-19.2.83S3.23,67.65,3.23,67.65" transform="translate(-2.23 -31.93)"/></svg>