<svg id="Layer_1" data-name="Layer 1" xmlns="http://www.w3.org/2000/svg" viewBox="0 0 144.87 112.03"><defs><style>.cls-1{fill:#ede1ee;}.cls-1,.cls-2,.cls-3{stroke:#582c83;stroke-width:2px;}.cls-1,.cls-2{stroke-linecap:round;stroke-linejoin:round;}.cls-2{fill:none;}.cls-3{fill:#bfeff9;stroke-miterlimit:10;}</style></defs><title>health-risk-factors-icon</title><path class="cls-1" d="M68.9,129.5l23.58-24.73S122.65,78,126.86,61a36.57,36.57,0,0,0-4.7-29s-5.51-12.32-26.43-12.49S68.89,37.15,68.89,37.15,63,19.31,42,19.47,15.61,32,15.61,32a36.57,36.57,0,0,0-4.7,29c4.22,17,34.38,43.79,34.38,43.79L68.87,129.5Z" transform="translate(-1.37 -18.47)"/><polyline class="cls-2" points="1 57 34.67 57 47.16 34.6 67.51 72.71 83.81 44.82 92.08 56.82 118.14 56.82"/><path class="cls-3" d="M121.23,56,144.72,99.1a3.66,3.66,0,0,1-.06,3.86,3.91,3.91,0,0,1-1.42,1.41,3.82,3.82,0,0,1-1.95.52h-47a3.82,3.82,0,0,1-1.95-.52A3.87,3.87,0,0,1,90.94,103a3.66,3.66,0,0,1-.06-3.86L114.37,56a3.9,3.9,0,0,1,1.44-1.5,3.86,3.86,0,0,1,4,0A3.9,3.9,0,0,1,121.23,56Z" transform="translate(-1.37 -18.47)"/><circle class="cls-2" cx="116.43" cy="76.13" r="0.61"/><line class="cls-2" x1="116.43" y1="68.87" x2="116.43" y2="53.66"/></svg>