<?xml version="1.0" encoding="UTF-8" standalone="no"?>
<!DOCTYPE svg PUBLIC "-//W3C//DTD SVG 1.1//EN" "http://www.w3.org/Graphics/SVG/1.1/DTD/svg11.dtd">
<svg version="1.1" xmlns="http://www.w3.org/2000/svg" xmlns:xlink="http://www.w3.org/1999/xlink" preserveAspectRatio="xMidYMid meet" viewBox="0 0 354 60" width="354" height="60"><defs><path d="M233.92 332.88L200.26 337.65L239.65 337.65L239.65 265.69L200.26 265.69L233.92 269.88L233.92 269.88L233.92 332.88Z" id="c18BLEemBw"></path><path d="M230.25 304.34C230.25 306.46 229.29 308.17 228.1 308.17C226.91 308.17 225.95 306.46 225.95 304.34C225.95 302.22 226.91 300.5 228.1 300.5C229.29 300.5 230.25 302.22 230.25 304.34Z" id="a2LtDdPR"></path><path d="M279.64 308.14C279.64 309.49 279.64 316.29 279.64 328.52L274.74 328.52C274.74 317.08 274.74 310.73 274.74 309.46C274.89 306.94 273.99 304.47 272.26 302.64C270.4 300.93 267.93 300.05 265.41 300.2C262.54 300.1 259.75 301.16 257.67 303.14C255.67 305.2 254.48 307.91 254.3 310.78C254.3 311.96 254.3 317.87 254.3 328.52L249.44 328.52L249.44 295.51L254.3 295.51C254.3 299.85 254.3 302.26 254.3 302.75C257.7 295.4 265.81 296.06 267.09 295.31C270.51 295.12 273.85 296.36 276.31 298.73C278.64 301.29 279.84 304.68 279.64 308.14Z" id="bLnGjr16o"></path><path d="M295.09 292.22C295.09 292.5 295.09 293.91 295.09 296.43L304.55 296.43L304.55 300.47L295.09 300.47L295.09 328.52L290.26 328.52L290.26 300.52L286.01 300.52L286.01 296.43L290.26 296.43C290.26 294.26 290.26 293.06 290.26 292.82C290.21 290.72 290.72 288.66 291.74 286.83C292.65 285.21 294 283.88 295.63 283C297.23 282.14 299.02 281.7 300.84 281.71C303.39 281.73 305.87 282.55 307.93 284.05C307.73 284.44 306.1 287.59 305.9 287.99C304.45 286.91 302.7 286.33 300.89 286.31C299.35 286.28 297.87 286.85 296.75 287.92C295.61 289.05 295 290.61 295.09 292.22Z" id="bujpduokN"></path><path d="M335.67 303.38C337.12 306.01 337.86 308.97 337.81 311.97C337.86 315 337.13 317.99 335.67 320.65C334.28 323.14 332.22 325.19 329.72 326.57C324.31 329.4 317.85 329.4 312.43 326.57C309.93 325.2 307.87 323.14 306.48 320.65C305.03 317.99 304.29 315 304.35 311.97C304.3 308.96 305.03 306 306.48 303.36C307.86 300.87 309.93 298.84 312.43 297.48C317.86 294.69 324.3 294.69 329.72 297.48C332.22 298.84 334.29 300.89 335.67 303.38ZM310.75 305.71C309.72 307.66 309.21 309.83 309.25 312.02C309.21 314.24 309.72 316.43 310.75 318.39C311.71 320.21 313.17 321.73 314.96 322.75C318.77 324.85 323.4 324.85 327.21 322.75C329 321.73 330.46 320.21 331.42 318.39C332.45 316.43 332.96 314.24 332.92 312.02C332.97 309.82 332.45 307.64 331.42 305.69C330.45 303.89 328.98 302.4 327.19 301.39C323.38 299.29 318.77 299.29 314.96 301.39C313.18 302.4 311.72 303.9 310.75 305.71Z" id="c2S0tyB13R"></path><path d="M361.88 295.33C361.88 295.82 361.88 299.76 361.88 300.25C358.85 300.07 355.88 301.09 353.61 303.11C351.45 305.18 350.16 308 350 310.99C350 312.16 350 318 350 328.52L345.13 328.52L345.13 295.51L350 295.51C350 299.85 350 302.26 350 302.75C350.98 300.52 352.6 298.63 354.64 297.3C356.82 295.97 359.33 295.29 361.88 295.33Z" id="a4bfvLOZK4"></path><path d="M421.69 308.14C421.69 309.49 421.69 316.29 421.69 328.52L416.82 328.52C416.82 317.08 416.82 310.73 416.82 309.46C416.97 306.93 416.09 304.46 414.38 302.6C412.58 300.89 410.16 300 407.69 300.12C404.67 300.04 401.76 301.3 399.75 303.56C397.76 306.02 396.74 309.13 396.89 312.3C396.89 313.38 396.89 318.81 396.89 328.57L391.97 328.57C391.97 317.1 391.97 310.73 391.97 309.46C392.12 306.94 391.24 304.47 389.55 302.6C387.76 300.86 385.32 299.93 382.82 300.05C379.8 299.99 376.9 301.24 374.88 303.49C372.84 305.93 371.8 309.05 371.95 312.22C371.95 313.31 371.95 318.73 371.95 328.5L367.14 328.5L367.14 295.51L371.95 295.51C371.95 299.97 371.95 302.45 371.95 302.95C372.9 300.59 374.59 298.6 376.76 297.28C379.14 295.96 381.82 295.29 384.54 295.33C387.28 295.22 389.99 296.01 392.24 297.57C394.33 299.15 395.79 301.41 396.37 303.96C397.19 301.32 398.9 299.04 401.21 297.52C403.68 296.04 406.51 295.28 409.39 295.33C412.75 295.13 416.04 296.37 418.43 298.73C420.72 301.31 421.89 304.69 421.69 308.14Z" id="bCPSVo8Er"></path><path d="M451.76 323.44C447.82 328.75 440.89 328.22 439.68 328.75C437.64 328.8 435.62 328.34 433.79 327.43C432.16 326.62 430.79 325.37 429.84 323.82C428.91 322.26 428.43 320.48 428.45 318.66C428.36 315.98 429.57 313.43 431.71 311.81C434.36 309.97 437.53 309.06 440.75 309.2C441.47 309.2 445.09 309.2 451.6 309.2C451.6 308.05 451.6 307.41 451.6 307.29C451.73 305.15 450.91 303.06 449.36 301.59C447.48 300.13 445.13 299.41 442.76 299.58C438.97 299.74 435.32 301.05 432.3 303.34C432.1 302.98 430.46 300.09 430.26 299.73C432.29 298.37 434.48 297.27 436.77 296.43C439.02 295.69 441.38 295.33 443.75 295.39C447.12 295.13 450.47 296.15 453.12 298.24C455.39 300.42 456.61 303.47 456.47 306.62C456.47 308.07 456.47 315.34 456.47 328.43L451.69 328.43C451.73 325.77 451.75 324.1 451.76 323.44ZM451.69 317.11C451.69 316.84 451.69 315.53 451.69 313.16C445.53 313.16 442.1 313.16 441.42 313.16C433.04 313.16 433.88 317.95 433.04 318.48C432.98 320.19 433.75 321.83 435.11 322.88C436.71 324.03 438.65 324.61 440.62 324.5C443.15 324.58 445.65 323.89 447.78 322.53C449.72 321.27 451.11 319.34 451.69 317.11Z" id="a39qcPKyaA"></path><path d="M469.63 326.42C467.96 324.47 467.14 321.93 467.34 319.37C467.34 318.11 467.34 311.83 467.34 300.52L462.6 300.52L462.6 296.58L467.34 296.58L467.34 287.86L472.16 287.86L472.16 296.58L482.62 296.49L482.62 300.52L472.16 300.52C472.16 311.3 472.16 317.28 472.16 318.48C472.04 319.98 472.43 321.47 473.27 322.71C474.11 323.63 475.33 324.11 476.58 324.02C478.46 323.96 480.29 323.36 481.84 322.3C481.98 322.69 483.08 325.85 483.21 326.24C481.03 327.81 478.43 328.68 475.75 328.75C473.47 328.86 471.26 328.02 469.63 326.42Z" id="c2gWPJsLH"></path><path d="M494.9 286.03C494.92 286.93 494.59 287.8 493.98 288.46C493.39 289.1 492.55 289.46 491.68 289.44C490.82 289.46 489.99 289.11 489.4 288.48C488.79 287.81 488.46 286.94 488.5 286.03C488.47 285.15 488.79 284.28 489.4 283.63C489.99 283 490.82 282.65 491.68 282.67C492.55 282.65 493.38 283 493.98 283.63C494.59 284.28 494.92 285.14 494.9 286.03ZM489.33 328.52L489.33 295.51L494.14 295.51L494.14 328.52L489.33 328.52Z" id="c8ZmOL2yef"></path><path d="M532.77 303.38C534.22 306.01 534.95 308.97 534.9 311.97C534.96 315 534.23 317.99 532.77 320.65C531.38 323.14 529.32 325.19 526.82 326.57C521.4 329.4 514.94 329.4 509.53 326.57C507.03 325.2 504.96 323.14 503.58 320.65C502.13 317.99 501.39 315 501.45 311.97C501.4 308.96 502.13 306 503.58 303.36C504.96 300.87 507.03 298.84 509.53 297.48C514.95 294.69 521.39 294.69 526.82 297.48C529.32 298.84 531.39 300.89 532.77 303.38ZM507.85 305.71C506.82 307.66 506.31 309.83 506.35 312.02C506.3 314.24 506.82 316.43 507.85 318.39C508.81 320.21 510.27 321.73 512.06 322.75C515.87 324.85 520.5 324.85 524.31 322.75C526.1 321.73 527.56 320.21 528.52 318.39C529.55 316.43 530.06 314.24 530.02 312.02C530.06 309.82 529.55 307.64 528.52 305.69C527.54 303.89 526.08 302.4 524.29 301.39C520.48 299.29 515.87 299.29 512.06 301.39C510.28 302.4 508.82 303.9 507.85 305.71Z" id="c67ZoWWggR"></path><path d="M572.43 308.14C572.43 309.49 572.43 316.29 572.43 328.52L567.53 328.52C567.53 317.08 567.53 310.73 567.53 309.46C567.68 306.94 566.78 304.47 565.05 302.64C563.19 300.93 560.72 300.05 558.2 300.2C555.33 300.1 552.54 301.16 550.46 303.14C548.46 305.2 547.27 307.91 547.09 310.78C547.09 311.96 547.09 317.87 547.09 328.52L542.23 328.52L542.23 295.51L547.09 295.51C547.09 299.85 547.09 302.26 547.09 302.75C550.49 295.4 558.6 296.06 559.88 295.31C563.3 295.12 566.64 296.36 569.1 298.73C571.43 301.29 572.63 304.68 572.43 308.14Z" id="bsvgYI6YY"></path><path d="M29.34 328.36L29.34 311.32L11.25 311.32L11.25 328.36L0 328.36L0 284.5L11.16 284.5L11.16 302.58L29.24 302.58L29.24 284.5L40.39 284.5L40.39 328.36L29.34 328.36Z" id="c84LqtXJd"></path><path d="M79.79 312.33C79.79 313.25 79.79 313.94 79.79 314.38C77.42 314.38 58.44 314.38 56.07 314.38C56.5 316.19 57.51 317.81 58.94 319.01C60.39 320.12 62.19 320.7 64.02 320.63C65.5 320.64 66.97 320.34 68.33 319.76C69.74 319.15 71.02 318.28 72.09 317.18C72.66 317.74 77.2 322.22 77.77 322.79C75.98 324.72 73.78 326.22 71.33 327.18C68.68 328.23 65.86 328.75 63.01 328.72C59.72 328.79 56.47 328.06 53.53 326.58C50.91 325.23 48.74 323.15 47.29 320.58C45.78 317.81 45.02 314.69 45.09 311.54C45.03 308.38 45.79 305.26 47.31 302.49C48.77 299.92 50.92 297.82 53.53 296.43C56.36 294.96 59.51 294.22 62.7 294.28C68.21 294.23 72.44 295.81 75.38 299C78.52 304.66 79.99 309.1 79.79 312.33ZM62.83 301.86C61.11 301.81 59.44 302.47 58.2 303.67C56.88 305.03 56.03 306.78 55.79 308.66C57.15 308.66 67.99 308.66 69.34 308.66C69.44 306.82 68.79 305.02 67.55 303.67C66.3 302.43 64.59 301.77 62.83 301.86Z" id="bt1lHk1S9"></path><path d="M114.25 306.36C114.25 307.83 114.25 315.16 114.25 328.36L103.63 328.36C103.63 326.02 103.63 324.73 103.63 324.47C102.55 325.9 101.12 327.02 99.47 327.72C97.54 328.5 95.46 328.88 93.38 328.84C90.28 329.01 87.24 327.96 84.91 325.91C82.82 323.93 81.67 321.15 81.78 318.26C81.6 315.39 82.8 312.61 85 310.76C87.82 308.8 91.2 307.84 94.62 308.03C95.22 308.03 98.18 308.03 103.52 308.03C103.52 307.73 103.52 307.57 103.52 307.54C103.6 306.07 103.02 304.65 101.93 303.67C100.51 302.63 98.77 302.13 97.01 302.26C95.38 302.29 93.77 302.53 92.2 302.98C90.36 303.49 88.59 304.19 86.9 305.08C86.6 304.37 84.15 298.67 83.85 297.95C86.37 296.75 89.01 295.79 91.71 295.08C94.25 294.43 96.85 294.1 99.47 294.1C103.36 293.84 107.21 294.98 110.32 297.32C112.95 299.57 114.4 302.91 114.25 306.36ZM103.58 316.89C103.58 316.69 103.58 315.69 103.58 313.89C99.49 313.89 97.21 313.89 96.76 313.89C95.49 313.81 94.23 314.11 93.14 314.76C92.29 315.41 91.83 316.45 91.91 317.52C91.85 318.64 92.31 319.72 93.16 320.45C94.16 321.22 95.41 321.6 96.67 321.52C98.26 321.55 99.82 321.11 101.15 320.25C102.37 319.5 103.25 318.29 103.58 316.89Z" id="a241ng5It"></path><path d="M120.99 328.36L120.99 281.86L131.85 281.86L131.85 328.36L120.99 328.36Z" id="ieLl2JlMq"></path><path d="M152.28 328.84C149.33 328.98 146.43 327.98 144.18 326.06C142.03 324 140.89 321.11 141.07 318.14C141.07 317.14 141.07 312.18 141.07 303.23L136.37 303.23L136.37 296.14L141.07 296.14L141.07 286.76L151.92 286.76L151.92 296.09L160.76 296.09L160.76 303.32L151.92 303.32C151.92 311.26 151.92 315.66 151.92 316.55C151.92 320.16 154.62 319.8 154.92 320.16C156.39 320.07 157.83 319.68 159.15 319.02C159.37 319.78 161.08 325.79 161.29 326.55C159.98 327.29 158.57 327.84 157.11 328.21C155.54 328.63 153.91 328.84 152.28 328.84Z" id="e1sOFX1ICo"></path><path d="M200.3 307.07C200.3 308.49 200.3 315.58 200.3 328.36L189.45 328.36C189.45 317.38 189.45 311.29 189.45 310.07C189.54 308.37 188.96 306.69 187.84 305.4C186.72 304.2 185.13 303.54 183.48 303.6C181.55 303.52 179.69 304.36 178.47 305.86C177.2 307.5 176.56 309.54 176.66 311.61C176.66 312.72 176.66 318.28 176.66 328.28L165.81 328.28L165.81 281.86L176.66 281.86C176.66 292.84 176.66 298.94 176.66 300.16C177.74 298.24 179.34 296.68 181.29 295.66C183.38 294.62 185.67 294.09 188 294.1C191.34 293.96 194.58 295.24 196.92 297.63C199.25 300.2 200.47 303.6 200.3 307.07Z" id="a2VY3uZ94x"></path><path d="M18.92 366.63C17.99 367.6 16.84 368.34 15.57 368.78C14.15 369.3 12.65 369.55 11.14 369.52C9.87 369.54 8.63 369.22 7.52 368.6C6.49 367.99 5.67 367.08 5.15 365.99C4.57 364.76 4.27 363.41 4.25 362.05C4.23 361.28 4.27 360.5 4.38 359.73C4.43 359.35 4.9 356.28 4.96 355.9C5.22 353.12 6.32 350.49 8.1 348.34C9.73 346.57 12.07 345.63 14.47 345.79C16.34 345.7 18.15 346.42 19.44 347.78C20.68 349.42 21.29 351.45 21.16 353.49C20.86 353.49 19.35 353.49 16.64 353.49C16.64 352.74 16.64 352.31 16.64 352.23C16.44 349.75 14.46 349.92 14.22 349.66C11.97 349.56 10.51 351.01 9.84 354L9.6 355.19C9.27 357.92 9.08 359.43 9.04 359.73C8.91 360.6 8.86 361.47 8.88 362.34C8.84 363.27 9.12 364.18 9.68 364.92C10.21 365.48 10.95 365.78 11.72 365.76C12.7 365.71 13.65 365.41 14.47 364.87C14.52 364.59 14.79 363.16 15.28 360.6L12.05 360.6L12.66 356.99L20.38 356.99C19.6 362.13 19.11 365.34 18.92 366.63Z" id="b2HQh9DjAD"></path><path d="M56.66 364.51L50.51 364.51L48.49 369.25L43.53 369.25L54.56 346.1L58.74 346.1L61.78 369.25L57.06 369.25L56.66 364.51ZM52.18 360.62L56.34 360.62L55.69 352.5L52.18 360.62Z" id="e2kHJJnhXm"></path><path d="M103.52 350L97.97 350L94.62 369.25L90.05 369.25L93.39 350L87.97 350L88.62 346.12L104.21 346.12L103.52 350Z" id="aaAxvtP02s"></path><path d="M139.71 359.25L132.66 359.25L131.59 365.38L139.95 365.38L139.26 369.25L126.37 369.25L130.36 346.1L143.26 346.1L142.57 349.99L134.25 349.99L133.29 355.41L140.36 355.41L139.71 359.25Z" id="c4nuOsiFjp"></path><path d="M181.54 360.58L185.94 346.12L190.52 346.12L182.92 369.27L178.33 369.27L177.86 355.68L173.15 369.27L168.54 369.27L168.2 346.12L172.68 346.12L172.5 360.58L177.38 346.12L181.24 346.12L181.54 360.58Z" id="b1vgpF8q8o"></path><path d="M223.61 364.51L217.46 364.51L215.44 369.25L210.48 369.25L221.51 346.1L225.69 346.1L228.73 369.25L224.01 369.25L223.61 364.51ZM219.13 360.62L223.29 360.62L222.65 352.5L219.13 360.62Z" id="aiPujDfnV"></path><path d="M261.01 356.46L266.19 346.12L271.29 346.12L262.57 361.09L261.16 369.27L256.53 369.27L258.03 360.64L254.59 346.17L259.39 346.17L261.01 356.46Z" id="a1say1qGWz"></path><path d="M129.45 37.11L110.86 39.75L132.62 39.75L132.62 0L110.86 0L129.45 2.32L129.45 2.32L129.45 37.11Z" id="dEyinYMPs"></path><path d="M127.42 21.35C127.42 22.52 126.89 23.47 126.24 23.47C125.58 23.47 125.05 22.52 125.05 21.35C125.05 20.18 125.58 19.23 126.24 19.23C126.89 19.23 127.42 20.18 127.42 21.35Z" id="b856jxg06"></path><path d="M154.71 23.45C154.71 24.2 154.71 27.95 154.71 34.71L152 34.71C152 28.39 152 24.88 152 24.18C152.08 22.79 151.59 21.42 150.63 20.41C149.6 19.47 148.24 18.98 146.85 19.06C145.26 19.01 143.72 19.59 142.57 20.69C141.47 21.83 140.81 23.32 140.71 24.91C140.71 25.56 140.71 28.83 140.71 34.71L138.02 34.71L138.02 16.47L140.71 16.47C140.71 18.87 140.71 20.2 140.71 20.47C142.59 16.41 147.07 16.77 147.77 16.36C149.66 16.26 151.51 16.94 152.87 18.25C154.15 19.67 154.82 21.54 154.71 23.45Z" id="a1NbMOEje9"></path><path d="M163.24 14.66C163.24 14.81 163.24 15.59 163.24 16.98L168.46 16.98L168.46 19.21L163.24 19.21L163.24 34.71L160.57 34.71L160.57 19.24L158.22 19.24L158.22 16.98L160.57 16.98C160.57 15.78 160.57 15.12 160.57 14.99C160.54 13.83 160.83 12.69 161.39 11.68C161.89 10.78 162.64 10.05 163.54 9.56C164.42 9.09 165.41 8.84 166.42 8.85C167.82 8.86 169.19 9.31 170.33 10.14C170.22 10.36 169.32 12.1 169.21 12.32C168.41 11.72 167.44 11.4 166.45 11.39C165.6 11.37 164.77 11.69 164.16 12.28C163.53 12.9 163.19 13.77 163.24 14.66Z" id="b6TVqAcPf"></path><path d="M185.66 20.82C186.46 22.27 186.86 23.91 186.84 25.56C186.87 27.24 186.46 28.89 185.66 30.36C184.89 31.73 183.75 32.87 182.37 33.63C179.38 35.19 175.81 35.19 172.82 33.63C171.44 32.87 170.3 31.74 169.53 30.36C168.73 28.89 168.32 27.24 168.35 25.56C168.33 23.9 168.73 22.26 169.53 20.81C170.3 19.44 171.44 18.31 172.82 17.56C175.82 16.02 179.37 16.02 182.37 17.56C183.75 18.31 184.89 19.44 185.66 20.82ZM171.89 22.11C171.32 23.18 171.04 24.38 171.06 25.59C171.04 26.82 171.32 28.03 171.89 29.11C172.42 30.12 173.23 30.95 174.22 31.52C176.32 32.68 178.88 32.68 180.98 31.52C181.97 30.95 182.78 30.12 183.31 29.11C183.88 28.03 184.16 26.82 184.14 25.59C184.16 24.38 183.88 23.17 183.31 22.1C182.77 21.1 181.96 20.28 180.97 19.72C178.87 18.56 176.32 18.56 174.22 19.72C173.23 20.28 172.42 21.11 171.89 22.11Z" id="dlnB5Xwma"></path><path d="M200.13 16.37C200.13 16.65 200.13 18.82 200.13 19.09C198.46 18.99 196.82 19.56 195.57 20.67C194.37 21.82 193.66 23.37 193.57 25.02C193.57 25.67 193.57 28.9 193.57 34.71L190.88 34.71L190.88 16.47L193.57 16.47C193.57 18.87 193.57 20.2 193.57 20.47C194.11 19.24 195.01 18.19 196.14 17.46C197.34 16.73 198.72 16.35 200.13 16.37Z" id="ah8KE6GA9"></path><path d="M233.17 23.45C233.17 24.2 233.17 27.95 233.17 34.71L230.48 34.71C230.48 28.39 230.48 24.88 230.48 24.18C230.56 22.78 230.08 21.42 229.13 20.39C228.14 19.45 226.8 18.95 225.44 19.02C223.77 18.98 222.16 19.67 221.05 20.92C219.95 22.28 219.39 24 219.47 25.74C219.47 26.34 219.47 29.34 219.47 34.74L216.76 34.74C216.76 28.4 216.76 24.88 216.76 24.18C216.83 22.79 216.35 21.42 215.42 20.39C214.43 19.43 213.08 18.92 211.7 18.98C210.03 18.95 208.43 19.64 207.31 20.88C206.19 22.23 205.61 23.95 205.7 25.7C205.7 26.3 205.7 29.3 205.7 34.7L203.04 34.7L203.04 16.47L205.7 16.47C205.7 18.94 205.7 20.31 205.7 20.58C206.22 19.28 207.15 18.18 208.35 17.45C209.67 16.72 211.15 16.35 212.65 16.37C214.16 16.31 215.66 16.75 216.91 17.61C218.06 18.48 218.86 19.73 219.18 21.14C219.64 19.68 220.58 18.42 221.86 17.58C223.22 16.76 224.79 16.35 226.38 16.37C228.23 16.26 230.05 16.95 231.37 18.25C232.63 19.68 233.28 21.55 233.17 23.45Z" id="b5t8F10oBz"></path><path d="M249.78 31.9C247.6 34.84 243.78 34.54 243.11 34.84C241.98 34.86 240.86 34.61 239.85 34.11C238.95 33.66 238.2 32.97 237.67 32.11C237.16 31.25 236.89 30.26 236.91 29.26C236.85 27.78 237.52 26.37 238.7 25.47C240.17 24.46 241.92 23.96 243.7 24.04C244.1 24.04 246.1 24.04 249.69 24.04C249.69 23.4 249.69 23.05 249.69 22.98C249.77 21.8 249.31 20.64 248.45 19.83C247.42 19.02 246.12 18.63 244.81 18.72C242.72 18.81 240.7 19.53 239.03 20.8C238.92 20.6 238.02 19 237.9 18.8C239.03 18.05 240.23 17.44 241.5 16.98C242.74 16.57 244.05 16.38 245.36 16.4C247.22 16.26 249.07 16.82 250.53 17.98C251.78 19.19 252.46 20.87 252.38 22.61C252.38 23.41 252.38 27.43 252.38 34.66L249.74 34.66C249.76 33.18 249.78 32.27 249.78 31.9ZM249.74 28.4C249.74 28.26 249.74 27.53 249.74 26.22C246.34 26.22 244.45 26.22 244.07 26.22C239.44 26.22 239.91 28.87 239.44 29.16C239.41 30.11 239.83 31.01 240.58 31.59C241.46 32.23 242.54 32.55 243.63 32.49C245.03 32.53 246.4 32.15 247.58 31.4C248.65 30.7 249.42 29.63 249.74 28.4Z" id="baKh016eN"></path><path d="M259.65 33.55C258.73 32.47 258.27 31.07 258.38 29.65C258.38 28.96 258.38 25.49 258.38 19.24L255.77 19.24L255.77 17.06L258.38 17.06L258.38 12.25L261.05 12.25L261.05 17.06L266.83 17.01L266.83 19.24L261.05 19.24C261.05 25.19 261.05 28.5 261.05 29.16C260.98 29.99 261.2 30.81 261.66 31.5C262.13 32 262.8 32.27 263.49 32.22C264.53 32.19 265.54 31.86 266.4 31.27C266.47 31.49 267.08 33.23 267.15 33.45C265.95 34.31 264.51 34.8 263.03 34.84C261.77 34.89 260.55 34.43 259.65 33.55Z" id="c2lCHclzIg"></path><path d="M273.61 11.24C273.62 11.73 273.44 12.22 273.1 12.58C272.77 12.93 272.31 13.13 271.83 13.12C271.35 13.13 270.89 12.94 270.57 12.59C270.23 12.22 270.05 11.74 270.07 11.24C270.06 10.75 270.24 10.27 270.57 9.91C270.89 9.56 271.35 9.37 271.83 9.38C272.31 9.37 272.77 9.56 273.1 9.91C273.44 10.27 273.62 10.75 273.61 11.24ZM270.53 34.71L270.53 16.47L273.19 16.47L273.19 34.71L270.53 34.71Z" id="hPttsRAaO"></path><path d="M294.53 20.82C295.33 22.27 295.73 23.91 295.71 25.56C295.74 27.24 295.33 28.89 294.53 30.36C293.76 31.73 292.62 32.87 291.24 33.63C288.25 35.19 284.68 35.19 281.69 33.63C280.31 32.87 279.17 31.74 278.4 30.36C277.6 28.89 277.2 27.24 277.22 25.56C277.2 23.9 277.6 22.26 278.4 20.81C279.17 19.44 280.31 18.31 281.69 17.56C284.69 16.02 288.24 16.02 291.24 17.56C292.62 18.31 293.76 19.44 294.53 20.82ZM280.76 22.11C280.2 23.18 279.91 24.38 279.93 25.59C279.91 26.82 280.19 28.03 280.76 29.11C281.29 30.12 282.1 30.95 283.09 31.52C285.19 32.68 287.75 32.68 289.85 31.52C290.84 30.95 291.65 30.12 292.18 29.11C292.75 28.03 293.03 26.82 293.01 25.59C293.03 24.38 292.75 23.17 292.18 22.1C291.64 21.1 290.83 20.28 289.84 19.72C287.74 18.56 285.19 18.56 283.09 19.72C282.1 20.28 281.3 21.11 280.76 22.11Z" id="a2t66BJ8h"></path><path d="M316.44 23.45C316.44 24.2 316.44 27.95 316.44 34.71L313.73 34.71C313.73 28.39 313.73 24.88 313.73 24.18C313.81 22.79 313.32 21.42 312.36 20.41C311.33 19.47 309.97 18.98 308.57 19.06C306.99 19.01 305.45 19.59 304.3 20.69C303.19 21.83 302.53 23.32 302.44 24.91C302.44 25.56 302.44 28.83 302.44 34.71L299.75 34.71L299.75 16.47L302.44 16.47C302.44 18.87 302.44 20.2 302.44 20.47C304.32 16.41 308.8 16.77 309.5 16.36C311.39 16.26 313.24 16.94 314.6 18.25C315.88 19.67 316.54 21.54 316.44 23.45Z" id="b54jx7OGzh"></path><path d="M16.45 34.62L16.45 25.2L6.46 25.2L6.46 34.62L0.24 34.62L0.24 10.39L6.41 10.39L6.41 20.38L16.4 20.38L16.4 10.39L22.55 10.39L22.55 34.62L16.45 34.62Z" id="c1HP53JO22"></path><path d="M44.32 25.76C44.32 26.27 44.32 26.65 44.32 26.89C43.01 26.89 32.52 26.89 31.21 26.89C31.45 27.89 32.01 28.79 32.8 29.45C33.6 30.07 34.59 30.39 35.61 30.35C36.42 30.35 37.23 30.19 37.98 29.87C38.76 29.53 39.47 29.05 40.06 28.44C40.38 28.75 42.89 31.23 43.2 31.54C42.21 32.61 41 33.44 39.64 33.97C38.18 34.55 36.62 34.83 35.05 34.82C33.23 34.86 31.43 34.45 29.81 33.64C28.36 32.89 27.17 31.74 26.37 30.32C25.53 28.79 25.11 27.07 25.15 25.32C25.11 23.58 25.54 21.86 26.38 20.33C27.18 18.91 28.37 17.75 29.81 16.98C31.37 16.17 33.12 15.76 34.88 15.79C37.92 15.77 40.26 16.64 41.88 18.4C43.61 21.53 44.43 23.98 44.32 25.76ZM34.95 19.98C33.99 19.95 33.07 20.31 32.39 20.98C31.66 21.73 31.19 22.7 31.06 23.74C31.81 23.74 37.8 23.74 38.54 23.74C38.6 22.72 38.24 21.73 37.55 20.98C36.86 20.29 35.92 19.93 34.95 19.98Z" id="eVmmCVs61"></path><path d="M63.35 22.47C63.35 23.28 63.35 27.33 63.35 34.62L57.48 34.62C57.48 33.33 57.48 32.61 57.48 32.47C56.89 33.26 56.1 33.88 55.19 34.27C54.12 34.7 52.97 34.91 51.82 34.89C50.11 34.98 48.43 34.4 47.14 33.27C45.99 32.17 45.36 30.63 45.42 29.04C45.32 27.45 45.98 25.92 47.19 24.9C48.75 23.82 50.62 23.29 52.51 23.39C52.84 23.39 54.48 23.39 57.42 23.39C57.42 23.22 57.42 23.13 57.42 23.12C57.47 22.31 57.15 21.52 56.55 20.98C55.76 20.41 54.8 20.13 53.83 20.2C52.93 20.22 52.04 20.35 51.17 20.6C50.16 20.88 49.17 21.27 48.24 21.76C48.07 21.36 46.72 18.22 46.56 17.82C47.95 17.16 49.41 16.63 50.9 16.23C52.3 15.88 53.74 15.7 55.19 15.69C57.33 15.55 59.46 16.18 61.18 17.47C62.63 18.71 63.43 20.56 63.35 22.47ZM57.45 28.28C57.45 28.17 57.45 27.62 57.45 26.62C55.19 26.62 53.94 26.62 53.69 26.62C52.99 26.58 52.29 26.75 51.69 27.1C51.22 27.46 50.96 28.04 51.01 28.63C50.98 29.25 51.23 29.85 51.7 30.25C52.25 30.67 52.94 30.88 53.64 30.84C54.52 30.86 55.38 30.61 56.12 30.14C56.79 29.72 57.27 29.05 57.45 28.28Z" id="a2lJbrZO6Q"></path><path d="M67.07 34.62L67.07 8.93L73.07 8.93L73.07 34.62L67.07 34.62Z" id="glMvi8KmG"></path><path d="M84.36 34.89C82.72 34.96 81.12 34.41 79.88 33.35C78.69 32.21 78.06 30.61 78.16 28.97C78.16 28.42 78.16 25.68 78.16 20.74L75.57 20.74L75.57 16.82L78.16 16.82L78.16 11.64L84.16 11.64L84.16 16.79L89.04 16.79L89.04 20.79L84.16 20.79C84.16 25.17 84.16 27.61 84.16 28.09C84.16 30.09 85.65 29.89 85.82 30.09C86.63 30.04 87.42 29.82 88.15 29.46C88.27 29.88 89.21 33.2 89.33 33.62C88.61 34.02 87.83 34.33 87.02 34.54C86.15 34.77 85.26 34.88 84.36 34.89Z" id="b9FRkUET"></path><path d="M110.88 22.86C110.88 23.64 110.88 27.56 110.88 34.62L104.89 34.62C104.89 28.56 104.89 25.19 104.89 24.52C104.94 23.57 104.62 22.65 104 21.94C103.38 21.27 102.5 20.91 101.59 20.94C100.52 20.9 99.5 21.36 98.82 22.19C98.12 23.09 97.77 24.22 97.82 25.36C97.82 25.98 97.82 29.05 97.82 34.58L91.83 34.58L91.83 8.93L97.82 8.93C97.82 15 97.82 18.37 97.82 19.04C98.42 17.98 99.31 17.12 100.38 16.55C101.53 15.98 102.8 15.69 104.09 15.69C105.93 15.62 107.72 16.33 109.01 17.64C110.3 19.06 110.98 20.94 110.88 22.86Z" id="b1KGzCPuU"></path><path d="M10.69 55.75C10.18 56.29 9.55 56.7 8.84 56.94C8.06 57.23 7.23 57.37 6.4 57.35C5.7 57.36 5.01 57.19 4.4 56.84C3.83 56.51 3.37 56 3.09 55.4C2.77 54.72 2.6 53.98 2.59 53.23C2.58 52.8 2.6 52.37 2.66 51.95C2.69 51.74 2.95 50.04 2.98 49.83C3.13 48.3 3.73 46.84 4.72 45.65C5.61 44.67 6.91 44.16 8.23 44.25C9.27 44.19 10.27 44.6 10.98 45.34C11.66 46.25 12 47.37 11.93 48.5C11.76 48.5 10.93 48.5 9.43 48.5C9.43 48.08 9.43 47.85 9.43 47.8C9.32 46.43 8.23 46.53 8.09 46.38C6.86 46.33 6.05 47.13 5.68 48.78L5.55 49.44C5.36 50.95 5.26 51.78 5.24 51.95C5.16 52.42 5.13 52.91 5.15 53.39C5.13 53.9 5.28 54.4 5.59 54.82C5.88 55.12 6.29 55.29 6.72 55.27C7.26 55.25 7.78 55.08 8.23 54.79C8.26 54.63 8.41 53.84 8.68 52.43L6.9 52.43L7.23 50.43L11.5 50.43C11.07 53.27 10.8 55.04 10.69 55.75Z" id="bfNifOGoI"></path><path d="M31.54 54.59L28.14 54.59L27.02 57.2L24.29 57.2L30.38 44.42L32.69 44.42L34.37 57.2L31.76 57.2L31.54 54.59ZM29.06 52.44L31.36 52.44L31 47.95L29.06 52.44Z" id="auZe2qx7r"></path><path d="M57.42 46.57L54.36 46.57L52.51 57.2L49.98 57.2L51.83 46.57L48.83 46.57L49.19 44.43L57.8 44.43L57.42 46.57Z" id="f2kPJk0niJ"></path><path d="M77.41 51.68L73.52 51.68L72.93 55.06L77.54 55.06L77.16 57.2L70.04 57.2L72.25 44.42L79.37 44.42L78.99 46.56L74.4 46.56L73.87 49.56L77.77 49.56L77.41 51.68Z" id="aJMrzMaNl"></path><path d="M100.52 52.42L102.95 44.43L105.48 44.43L101.28 57.21L98.74 57.21L98.48 49.71L95.89 57.21L93.34 57.21L93.15 44.43L95.63 44.43L95.53 52.42L98.22 44.43L100.35 44.43L100.52 52.42Z" id="c5CbMKKFB"></path><path d="M123.76 54.59L120.36 54.59L119.24 57.2L116.51 57.2L122.6 44.42L124.91 44.42L126.59 57.2L123.98 57.2L123.76 54.59ZM121.28 52.44L123.58 52.44L123.23 47.95L121.28 52.44Z" id="d5iKHj8NF8"></path><path d="M144.42 50.14L147.27 44.43L150.09 44.43L145.28 52.7L144.5 57.21L141.94 57.21L142.77 52.45L140.87 44.46L143.52 44.46L144.42 50.14Z" id="a5mlNuDcrG"></path></defs><g><g><g><use xlink:href="#c18BLEemBw" opacity="1" fill="#ffffff" fill-opacity="1"></use><g><use xlink:href="#c18BLEemBw" opacity="1" fill-opacity="0" stroke="#000000" stroke-width="1" stroke-opacity="0"></use></g></g><g><use xlink:href="#a2LtDdPR" opacity="1" fill="#ffffff" fill-opacity="1"></use><g><use xlink:href="#a2LtDdPR" opacity="1" fill-opacity="0" stroke="#000000" stroke-width="1" stroke-opacity="0"></use></g></g><g><use xlink:href="#bLnGjr16o" opacity="1" fill="#ffffff" fill-opacity="1"></use><g><use xlink:href="#bLnGjr16o" opacity="1" fill-opacity="0" stroke="#000000" stroke-width="1" stroke-opacity="0"></use></g></g><g><use xlink:href="#bujpduokN" opacity="1" fill="#ffffff" fill-opacity="1"></use><g><use xlink:href="#bujpduokN" opacity="1" fill-opacity="0" stroke="#000000" stroke-width="1" stroke-opacity="0"></use></g></g><g><use xlink:href="#c2S0tyB13R" opacity="1" fill="#ffffff" fill-opacity="1"></use><g><use xlink:href="#c2S0tyB13R" opacity="1" fill-opacity="0" stroke="#000000" stroke-width="1" stroke-opacity="0"></use></g></g><g><use xlink:href="#a4bfvLOZK4" opacity="1" fill="#ffffff" fill-opacity="1"></use><g><use xlink:href="#a4bfvLOZK4" opacity="1" fill-opacity="0" stroke="#000000" stroke-width="1" stroke-opacity="0"></use></g></g><g><use xlink:href="#bCPSVo8Er" opacity="1" fill="#ffffff" fill-opacity="1"></use><g><use xlink:href="#bCPSVo8Er" opacity="1" fill-opacity="0" stroke="#000000" stroke-width="1" stroke-opacity="0"></use></g></g><g><use xlink:href="#a39qcPKyaA" opacity="1" fill="#ffffff" fill-opacity="1"></use><g><use xlink:href="#a39qcPKyaA" opacity="1" fill-opacity="0" stroke="#000000" stroke-width="1" stroke-opacity="0"></use></g></g><g><use xlink:href="#c2gWPJsLH" opacity="1" fill="#ffffff" fill-opacity="1"></use><g><use xlink:href="#c2gWPJsLH" opacity="1" fill-opacity="0" stroke="#000000" stroke-width="1" stroke-opacity="0"></use></g></g><g><use xlink:href="#c8ZmOL2yef" opacity="1" fill="#ffffff" fill-opacity="1"></use><g><use xlink:href="#c8ZmOL2yef" opacity="1" fill-opacity="0" stroke="#000000" stroke-width="1" stroke-opacity="0"></use></g></g><g><use xlink:href="#c67ZoWWggR" opacity="1" fill="#ffffff" fill-opacity="1"></use><g><use xlink:href="#c67ZoWWggR" opacity="1" fill-opacity="0" stroke="#000000" stroke-width="1" stroke-opacity="0"></use></g></g><g><use xlink:href="#bsvgYI6YY" opacity="1" fill="#ffffff" fill-opacity="1"></use><g><use xlink:href="#bsvgYI6YY" opacity="1" fill-opacity="0" stroke="#000000" stroke-width="1" stroke-opacity="0"></use></g></g><g><use xlink:href="#c84LqtXJd" opacity="1" fill="#ffffff" fill-opacity="1"></use><g><use xlink:href="#c84LqtXJd" opacity="1" fill-opacity="0" stroke="#000000" stroke-width="1" stroke-opacity="0"></use></g></g><g><use xlink:href="#bt1lHk1S9" opacity="1" fill="#ffffff" fill-opacity="1"></use><g><use xlink:href="#bt1lHk1S9" opacity="1" fill-opacity="0" stroke="#000000" stroke-width="1" stroke-opacity="0"></use></g></g><g><use xlink:href="#a241ng5It" opacity="1" fill="#ffffff" fill-opacity="1"></use><g><use xlink:href="#a241ng5It" opacity="1" fill-opacity="0" stroke="#000000" stroke-width="1" stroke-opacity="0"></use></g></g><g><use xlink:href="#ieLl2JlMq" opacity="1" fill="#ffffff" fill-opacity="1"></use><g><use xlink:href="#ieLl2JlMq" opacity="1" fill-opacity="0" stroke="#000000" stroke-width="1" stroke-opacity="0"></use></g></g><g><use xlink:href="#e1sOFX1ICo" opacity="1" fill="#ffffff" fill-opacity="1"></use><g><use xlink:href="#e1sOFX1ICo" opacity="1" fill-opacity="0" stroke="#000000" stroke-width="1" stroke-opacity="0"></use></g></g><g><use xlink:href="#a2VY3uZ94x" opacity="1" fill="#ffffff" fill-opacity="1"></use><g><use xlink:href="#a2VY3uZ94x" opacity="1" fill-opacity="0" stroke="#000000" stroke-width="1" stroke-opacity="0"></use></g></g><g><use xlink:href="#b2HQh9DjAD" opacity="1" fill="#ffffff" fill-opacity="1"></use><g><use xlink:href="#b2HQh9DjAD" opacity="1" fill-opacity="0" stroke="#000000" stroke-width="1" stroke-opacity="0"></use></g></g><g><use xlink:href="#e2kHJJnhXm" opacity="1" fill="#ffffff" fill-opacity="1"></use><g><use xlink:href="#e2kHJJnhXm" opacity="1" fill-opacity="0" stroke="#000000" stroke-width="1" stroke-opacity="0"></use></g></g><g><use xlink:href="#aaAxvtP02s" opacity="1" fill="#ffffff" fill-opacity="1"></use><g><use xlink:href="#aaAxvtP02s" opacity="1" fill-opacity="0" stroke="#000000" stroke-width="1" stroke-opacity="0"></use></g></g><g><use xlink:href="#c4nuOsiFjp" opacity="1" fill="#ffffff" fill-opacity="1"></use><g><use xlink:href="#c4nuOsiFjp" opacity="1" fill-opacity="0" stroke="#000000" stroke-width="1" stroke-opacity="0"></use></g></g><g><use xlink:href="#b1vgpF8q8o" opacity="1" fill="#ffffff" fill-opacity="1"></use><g><use xlink:href="#b1vgpF8q8o" opacity="1" fill-opacity="0" stroke="#000000" stroke-width="1" stroke-opacity="0"></use></g></g><g><use xlink:href="#aiPujDfnV" opacity="1" fill="#ffffff" fill-opacity="1"></use><g><use xlink:href="#aiPujDfnV" opacity="1" fill-opacity="0" stroke="#000000" stroke-width="1" stroke-opacity="0"></use></g></g><g><use xlink:href="#a1say1qGWz" opacity="1" fill="#ffffff" fill-opacity="1"></use><g><use xlink:href="#a1say1qGWz" opacity="1" fill-opacity="0" stroke="#000000" stroke-width="1" stroke-opacity="0"></use></g></g><g><use xlink:href="#dEyinYMPs" opacity="1" fill="#ffffff" fill-opacity="1"></use><g><use xlink:href="#dEyinYMPs" opacity="1" fill-opacity="0" stroke="#000000" stroke-width="1" stroke-opacity="0"></use></g></g><g><use xlink:href="#b856jxg06" opacity="1" fill="#ffffff" fill-opacity="1"></use><g><use xlink:href="#b856jxg06" opacity="1" fill-opacity="0" stroke="#000000" stroke-width="1" stroke-opacity="0"></use></g></g><g><use xlink:href="#a1NbMOEje9" opacity="1" fill="#ffffff" fill-opacity="1"></use><g><use xlink:href="#a1NbMOEje9" opacity="1" fill-opacity="0" stroke="#000000" stroke-width="1" stroke-opacity="0"></use></g></g><g><use xlink:href="#b6TVqAcPf" opacity="1" fill="#ffffff" fill-opacity="1"></use><g><use xlink:href="#b6TVqAcPf" opacity="1" fill-opacity="0" stroke="#000000" stroke-width="1" stroke-opacity="0"></use></g></g><g><use xlink:href="#dlnB5Xwma" opacity="1" fill="#ffffff" fill-opacity="1"></use><g><use xlink:href="#dlnB5Xwma" opacity="1" fill-opacity="0" stroke="#000000" stroke-width="1" stroke-opacity="0"></use></g></g><g><use xlink:href="#ah8KE6GA9" opacity="1" fill="#ffffff" fill-opacity="1"></use><g><use xlink:href="#ah8KE6GA9" opacity="1" fill-opacity="0" stroke="#000000" stroke-width="1" stroke-opacity="0"></use></g></g><g><use xlink:href="#b5t8F10oBz" opacity="1" fill="#ffffff" fill-opacity="1"></use><g><use xlink:href="#b5t8F10oBz" opacity="1" fill-opacity="0" stroke="#000000" stroke-width="1" stroke-opacity="0"></use></g></g><g><use xlink:href="#baKh016eN" opacity="1" fill="#ffffff" fill-opacity="1"></use><g><use xlink:href="#baKh016eN" opacity="1" fill-opacity="0" stroke="#000000" stroke-width="1" stroke-opacity="0"></use></g></g><g><use xlink:href="#c2lCHclzIg" opacity="1" fill="#ffffff" fill-opacity="1"></use><g><use xlink:href="#c2lCHclzIg" opacity="1" fill-opacity="0" stroke="#000000" stroke-width="1" stroke-opacity="0"></use></g></g><g><use xlink:href="#hPttsRAaO" opacity="1" fill="#ffffff" fill-opacity="1"></use><g><use xlink:href="#hPttsRAaO" opacity="1" fill-opacity="0" stroke="#000000" stroke-width="1" stroke-opacity="0"></use></g></g><g><use xlink:href="#a2t66BJ8h" opacity="1" fill="#ffffff" fill-opacity="1"></use><g><use xlink:href="#a2t66BJ8h" opacity="1" fill-opacity="0" stroke="#000000" stroke-width="1" stroke-opacity="0"></use></g></g><g><use xlink:href="#b54jx7OGzh" opacity="1" fill="#ffffff" fill-opacity="1"></use><g><use xlink:href="#b54jx7OGzh" opacity="1" fill-opacity="0" stroke="#000000" stroke-width="1" stroke-opacity="0"></use></g></g><g><use xlink:href="#c1HP53JO22" opacity="1" fill="#ffffff" fill-opacity="1"></use><g><use xlink:href="#c1HP53JO22" opacity="1" fill-opacity="0" stroke="#000000" stroke-width="1" stroke-opacity="0"></use></g></g><g><use xlink:href="#eVmmCVs61" opacity="1" fill="#ffffff" fill-opacity="1"></use><g><use xlink:href="#eVmmCVs61" opacity="1" fill-opacity="0" stroke="#000000" stroke-width="1" stroke-opacity="0"></use></g></g><g><use xlink:href="#a2lJbrZO6Q" opacity="1" fill="#ffffff" fill-opacity="1"></use><g><use xlink:href="#a2lJbrZO6Q" opacity="1" fill-opacity="0" stroke="#000000" stroke-width="1" stroke-opacity="0"></use></g></g><g><use xlink:href="#glMvi8KmG" opacity="1" fill="#ffffff" fill-opacity="1"></use><g><use xlink:href="#glMvi8KmG" opacity="1" fill-opacity="0" stroke="#000000" stroke-width="1" stroke-opacity="0"></use></g></g><g><use xlink:href="#b9FRkUET" opacity="1" fill="#ffffff" fill-opacity="1"></use><g><use xlink:href="#b9FRkUET" opacity="1" fill-opacity="0" stroke="#000000" stroke-width="1" stroke-opacity="0"></use></g></g><g><use xlink:href="#b1KGzCPuU" opacity="1" fill="#ffffff" fill-opacity="1"></use><g><use xlink:href="#b1KGzCPuU" opacity="1" fill-opacity="0" stroke="#000000" stroke-width="1" stroke-opacity="0"></use></g></g><g><use xlink:href="#bfNifOGoI" opacity="1" fill="#ffffff" fill-opacity="1"></use><g><use xlink:href="#bfNifOGoI" opacity="1" fill-opacity="0" stroke="#000000" stroke-width="1" stroke-opacity="0"></use></g></g><g><use xlink:href="#auZe2qx7r" opacity="1" fill="#ffffff" fill-opacity="1"></use><g><use xlink:href="#auZe2qx7r" opacity="1" fill-opacity="0" stroke="#000000" stroke-width="1" stroke-opacity="0"></use></g></g><g><use xlink:href="#f2kPJk0niJ" opacity="1" fill="#ffffff" fill-opacity="1"></use><g><use xlink:href="#f2kPJk0niJ" opacity="1" fill-opacity="0" stroke="#000000" stroke-width="1" stroke-opacity="0"></use></g></g><g><use xlink:href="#aJMrzMaNl" opacity="1" fill="#ffffff" fill-opacity="1"></use><g><use xlink:href="#aJMrzMaNl" opacity="1" fill-opacity="0" stroke="#000000" stroke-width="1" stroke-opacity="0"></use></g></g><g><use xlink:href="#c5CbMKKFB" opacity="1" fill="#ffffff" fill-opacity="1"></use><g><use xlink:href="#c5CbMKKFB" opacity="1" fill-opacity="0" stroke="#000000" stroke-width="1" stroke-opacity="0"></use></g></g><g><use xlink:href="#d5iKHj8NF8" opacity="1" fill="#ffffff" fill-opacity="1"></use><g><use xlink:href="#d5iKHj8NF8" opacity="1" fill-opacity="0" stroke="#000000" stroke-width="1" stroke-opacity="0"></use></g></g><g><use xlink:href="#a5mlNuDcrG" opacity="1" fill="#ffffff" fill-opacity="1"></use><g><use xlink:href="#a5mlNuDcrG" opacity="1" fill-opacity="0" stroke="#000000" stroke-width="1" stroke-opacity="0"></use></g></g></g></g></svg>