<svg xmlns="http://www.w3.org/2000/svg" viewBox="0 0 353.87 60.06"><defs><style>.cls-1{fill:#00adee;}.cls-2{fill:#5b2b82;}.cls-3{fill:#ad90bf;}.cls-4{fill:#8fa0ae;}</style></defs><title>Asset 4</title><g id="Layer_2" data-name="Layer 2"><g id="Layer_1-2" data-name="Layer 1"><polygon class="cls-1" points="129.34 2.32 129.34 37.15 110.73 39.79 132.51 39.79 132.51 0 110.73 0 129.34 2.32"/><ellipse class="cls-1" cx="126.12" cy="21.37" rx="1.19" ry="2.12"/><path class="cls-1" d="M152.78,18.27a7.14,7.14,0,0,1,1.84,5.2V34.74h-2.71V24.2a5.06,5.06,0,0,0-1.37-3.77,5.16,5.16,0,0,0-3.79-1.35,5.91,5.91,0,0,0-4.28,1.63,6.63,6.63,0,0,0-1.86,4.22v9.81h-2.69V16.49h2.69v4q1.88-4.06,7.07-4.11A6.79,6.79,0,0,1,152.78,18.27Z"/><path class="cls-1" d="M164.08,12.29a3.11,3.11,0,0,0-.92,2.38V17h5.23v2.23h-5.23V34.74h-2.67V19.26h-2.35V17h2.35V15a6.44,6.44,0,0,1,.82-3.31,5.45,5.45,0,0,1,2.15-2.12,6,6,0,0,1,2.88-.71,6.74,6.74,0,0,1,3.92,1.29l-1.12,2.18a4.74,4.74,0,0,0-2.77-.93A3.23,3.23,0,0,0,164.08,12.29Z"/><path class="cls-1" d="M182.31,17.58a8.31,8.31,0,0,1,3.29,3.26,9.5,9.5,0,0,1,1.18,4.75,9.6,9.6,0,0,1-1.18,4.8,8.42,8.42,0,0,1-3.29,3.27,10.31,10.31,0,0,1-9.56,0,8.35,8.35,0,0,1-3.29-3.27,9.66,9.66,0,0,1-1.18-4.8,9.55,9.55,0,0,1,1.18-4.76,8.25,8.25,0,0,1,3.29-3.25,10.44,10.44,0,0,1,9.56,0Zm-8.16,2.16a6,6,0,0,0-2.33,2.39,7.21,7.21,0,0,0-.83,3.49,7.3,7.3,0,0,0,.83,3.52,6,6,0,0,0,2.33,2.41,7,7,0,0,0,6.77,0,6,6,0,0,0,2.33-2.41,7.3,7.3,0,0,0,.83-3.52,7.2,7.2,0,0,0-.83-3.5,6,6,0,0,0-2.34-2.38,7,7,0,0,0-6.76,0Z"/><path class="cls-1" d="M196.09,17.48a7.45,7.45,0,0,1,4-1.09v2.72a6.3,6.3,0,0,0-4.57,1.58,6.55,6.55,0,0,0-2,4.36v9.69h-2.69V16.49h2.69v4A6.93,6.93,0,0,1,196.09,17.48Z"/><path class="cls-1" d="M231.36,18.27a7.22,7.22,0,0,1,1.8,5.2V34.74h-2.69V24.2a5.16,5.16,0,0,0-1.35-3.79,5,5,0,0,0-3.7-1.37,5.68,5.68,0,0,0-4.39,1.9,7.13,7.13,0,0,0-1.58,4.83v9h-2.72V24.2a5.2,5.2,0,0,0-1.34-3.79A5,5,0,0,0,211.67,19a5.75,5.75,0,0,0-4.39,1.9,7,7,0,0,0-1.62,4.83v9H203V16.49h2.66V20.6a6.51,6.51,0,0,1,2.66-3.13,8.53,8.53,0,0,1,4.3-1.08,7,7,0,0,1,4.26,1.24,6.12,6.12,0,0,1,2.28,3.53,6.61,6.61,0,0,1,2.68-3.56,8.48,8.48,0,0,1,4.52-1.21A6.56,6.56,0,0,1,231.36,18.27Z"/><path class="cls-1" d="M249.79,31.93q-2.18,2.94-6.68,2.94a7,7,0,0,1-3.26-.73,5.33,5.33,0,0,1-2.18-2,5.41,5.41,0,0,1-.77-2.85,4.55,4.55,0,0,1,1.8-3.79,8.15,8.15,0,0,1,5-1.44h6V23a4,4,0,0,0-1.24-3.15,5.32,5.32,0,0,0-3.65-1.11,10.25,10.25,0,0,0-5.78,2.08l-1.13-2A16.92,16.92,0,0,1,241.5,17a11.5,11.5,0,0,1,3.86-.58A7.43,7.43,0,0,1,250.54,18a6.05,6.05,0,0,1,1.85,4.63l0,12.06h-2.64Zm-2.2-.5a5.12,5.12,0,0,0,2.16-3V26.25h-5.68q-4.63,0-4.63,2.94a2.94,2.94,0,0,0,1.14,2.43,4.77,4.77,0,0,0,3.05.9A7,7,0,0,0,247.59,31.43Z"/><path class="cls-1" d="M263.05,34.87a4.52,4.52,0,0,1-3.38-1.29,5.36,5.36,0,0,1-1.27-3.9V19.26h-2.62V17.08h2.62V12.26h2.67v4.82l5.78-.05v2.23h-5.78v9.93a3.62,3.62,0,0,0,.61,2.34,2.26,2.26,0,0,0,1.83.72,5.42,5.42,0,0,0,2.91-.95l.76,2.18A7.42,7.42,0,0,1,263.05,34.87Z"/><path class="cls-1" d="M273.13,9.92a1.85,1.85,0,0,1,.51,1.33,1.88,1.88,0,0,1-.51,1.34,1.67,1.67,0,0,1-1.27.54,1.65,1.65,0,0,1-1.26-.53,1.89,1.89,0,0,1-.5-1.35,1.87,1.87,0,0,1,.5-1.33,1.65,1.65,0,0,1,1.26-.53A1.68,1.68,0,0,1,273.13,9.92Zm-2.57,24.82V16.49h2.66V34.74Z"/><path class="cls-1" d="M291.29,17.58a8.31,8.31,0,0,1,3.29,3.26,9.5,9.5,0,0,1,1.18,4.75,9.6,9.6,0,0,1-1.18,4.8,8.42,8.42,0,0,1-3.29,3.27,10.31,10.31,0,0,1-9.56,0,8.35,8.35,0,0,1-3.29-3.27,9.66,9.66,0,0,1-1.18-4.8,9.55,9.55,0,0,1,1.18-4.76,8.25,8.25,0,0,1,3.29-3.25,10.44,10.44,0,0,1,9.56,0Zm-8.16,2.16a6,6,0,0,0-2.33,2.39,7.21,7.21,0,0,0-.83,3.49,7.3,7.3,0,0,0,.83,3.52,6,6,0,0,0,2.33,2.41,7,7,0,0,0,6.77,0,6,6,0,0,0,2.33-2.41,7.3,7.3,0,0,0,.83-3.52,7.2,7.2,0,0,0-.83-3.5,6,6,0,0,0-2.34-2.38,7,7,0,0,0-6.76,0Z"/><path class="cls-1" d="M314.67,18.27a7.14,7.14,0,0,1,1.84,5.2V34.74h-2.71V24.2a5.06,5.06,0,0,0-1.37-3.77,5.16,5.16,0,0,0-3.79-1.35,5.91,5.91,0,0,0-4.28,1.63,6.63,6.63,0,0,0-1.86,4.22v9.81h-2.69V16.49h2.69v4q1.88-4.06,7.07-4.11A6.79,6.79,0,0,1,314.67,18.27Z"/><path class="cls-2" d="M16.22,34.65V25.23h-10v9.42H0V10.4H6.17v10h10v-10h6.16V34.65Z"/><path class="cls-2" d="M41.68,18.42a10.45,10.45,0,0,1,2.44,7.37c0,.51,0,.89,0,1.13H31a4.79,4.79,0,0,0,1.59,2.56,4.36,4.36,0,0,0,2.81.9,6,6,0,0,0,2.38-.48,6.56,6.56,0,0,0,2.08-1.43L43,31.57A9.64,9.64,0,0,1,39.44,34a12.1,12.1,0,0,1-4.6.85,11.08,11.08,0,0,1-5.24-1.18,8.34,8.34,0,0,1-3.45-3.32,9.94,9.94,0,0,1-1.22-5,10,10,0,0,1,1.23-5A8.56,8.56,0,0,1,29.6,17a10.48,10.48,0,0,1,5.07-1.19Q39.24,15.77,41.68,18.42ZM37.35,21a3.46,3.46,0,0,0-2.61-1,3.53,3.53,0,0,0-2.56,1,4.83,4.83,0,0,0-1.33,2.76h7.49A3.79,3.79,0,0,0,37.35,21Z"/><path class="cls-2" d="M61,17.49a6.21,6.21,0,0,1,2.17,5V34.65H57.3V32.5A5.66,5.66,0,0,1,55,34.3a8.56,8.56,0,0,1-3.37.62,6.56,6.56,0,0,1-4.68-1.62,5.53,5.53,0,0,1-1.73-4.23A5,5,0,0,1,47,24.92a8.53,8.53,0,0,1,5.32-1.51h4.92v-.27A2.69,2.69,0,0,0,56.36,21a4.12,4.12,0,0,0-2.72-.78,10.34,10.34,0,0,0-2.66.4,14.5,14.5,0,0,0-2.93,1.16l-1.69-3.94a24.72,24.72,0,0,1,4.35-1.59A17.45,17.45,0,0,1,55,15.71,9,9,0,0,1,61,17.49ZM55.93,30.17a3,3,0,0,0,1.34-1.86V26.65H53.5a3.5,3.5,0,0,0-2,.48,1.75,1.75,0,0,0-.68,1.53,2,2,0,0,0,.69,1.62,2.9,2.9,0,0,0,1.94.59A4.42,4.42,0,0,0,55.93,30.17Z"/><path class="cls-2" d="M66.9,34.65V8.94h6V34.65Z"/><path class="cls-2" d="M86.87,34.57a10.46,10.46,0,0,1-2.67.35,6.44,6.44,0,0,1-4.48-1.54A5.59,5.59,0,0,1,78,29V20.76H75.4V16.84H78V11.65h6v5.16h4.89v4H84v7.31q0,2,1.66,2A6.16,6.16,0,0,0,88,29.49l1.18,4.16A9.35,9.35,0,0,1,86.87,34.57Z"/><path class="cls-2" d="M108.88,17.66a7.23,7.23,0,0,1,1.87,5.22V34.65h-6V24.54a3.64,3.64,0,0,0-.89-2.58,3.13,3.13,0,0,0-2.41-1,3.41,3.41,0,0,0-2.77,1.25,4.81,4.81,0,0,0-1,3.18v9.22h-6V8.94h6V19.06a6.27,6.27,0,0,1,2.56-2.49,8.26,8.26,0,0,1,3.71-.86A6.53,6.53,0,0,1,108.88,17.66Z"/><path class="cls-3" d="M10.46,55.81A4.61,4.61,0,0,1,8.61,57a6.7,6.7,0,0,1-2.45.41,3.92,3.92,0,0,1-2-.51,3.31,3.31,0,0,1-1.31-1.44,5.26,5.26,0,0,1-.5-2.18A8.23,8.23,0,0,1,2.42,52l.32-2.12A7.67,7.67,0,0,1,4.48,45.7,4.37,4.37,0,0,1,8,44.29a3.55,3.55,0,0,1,2.75,1.1,4.76,4.76,0,0,1,.95,3.16H9.2l0-.7q-.11-1.37-1.34-1.42Q6,46.35,5.44,48.83l-.13.66L5,52a8.27,8.27,0,0,0-.09,1.44,2.26,2.26,0,0,0,.44,1.43,1.49,1.49,0,0,0,1.13.46A3.05,3.05,0,0,0,8,54.84l.45-2.36H6.66l.34-2h4.27Z"/><path class="cls-3" d="M31.33,54.64h-3.4l-1.12,2.62H24.07l6.1-12.8h2.31l1.68,12.8H31.55Zm-2.48-2.15h2.3L30.79,48Z"/><path class="cls-3" d="M57.24,46.62H54.17L52.32,57.26H49.79l1.85-10.64h-3L49,44.47h8.62Z"/><path class="cls-3" d="M77.25,51.73h-3.9l-.59,3.39h4.62L77,57.26H69.87l2.21-12.8h7.13l-.38,2.15h-4.6l-.53,3h3.91Z"/><path class="cls-3" d="M100.38,52.47l2.43-8h2.53l-4.2,12.8H98.6l-.26-7.51-2.6,7.51H93.19L93,44.47h2.48l-.1,8,2.7-8h2.13Z"/><path class="cls-3" d="M123.64,54.64h-3.4l-1.12,2.62h-2.74l6.1-12.8h2.31l1.68,12.8h-2.61Zm-2.48-2.15h2.3L123.11,48Z"/><path class="cls-3" d="M144.32,50.19l2.86-5.72H150l-4.82,8.28-.78,4.52h-2.56l.83-4.77-1.9-8h2.65Z"/><path class="cls-4" d="M163.82,57.26l1-6H163.8l.16-.91H165l.11-.81a2.7,2.7,0,0,1,.8-1.62,2.38,2.38,0,0,1,1.7-.6,4,4,0,0,1,.82.11l-.14,1a3.83,3.83,0,0,0-.62-.08,1.31,1.31,0,0,0-1,.37,1.69,1.69,0,0,0-.46,1l-.1.68h1.42l-.16.91H166l-1,6Z"/><path class="cls-4" d="M171.51,50.27a2.48,2.48,0,0,1,1.48.47A2.66,2.66,0,0,1,173.9,52a3.9,3.9,0,0,1,.2,1.76v.14a4.61,4.61,0,0,1-.6,1.81A3.5,3.5,0,0,1,172.26,57a3,3,0,0,1-1.66.42,2.48,2.48,0,0,1-1.48-.47,2.61,2.61,0,0,1-.9-1.24,4,4,0,0,1-.2-1.73A4.68,4.68,0,0,1,168.6,52a3.58,3.58,0,0,1,1.24-1.32A3,3,0,0,1,171.51,50.27Zm-2.34,3.68a4,4,0,0,0,0,.83,2,2,0,0,0,.45,1.19,1.34,1.34,0,0,0,1,.46,1.83,1.83,0,0,0,1.05-.28,2.37,2.37,0,0,0,.81-.91,3.82,3.82,0,0,0,.42-1.35,6,6,0,0,0,0-1,2.11,2.11,0,0,0-.46-1.21,1.37,1.37,0,0,0-1-.47,1.87,1.87,0,0,0-1.51.7,3.45,3.45,0,0,0-.77,1.88Z"/><path class="cls-4" d="M179.23,51.44l-.54-.06a2,2,0,0,0-1.74,1l-.84,4.88H175l1.19-6.87h1.11l-.17.8a2.05,2.05,0,0,1,1.72-.93,2.11,2.11,0,0,1,.55.1Z"/><path class="cls-4" d="M181.55,50.39l-.15.77a2.69,2.69,0,0,1,2.09-.89,2.12,2.12,0,0,1,1.11.3,1.47,1.47,0,0,1,.63.81,2.84,2.84,0,0,1,2.28-1.1A1.82,1.82,0,0,1,189,51a2.47,2.47,0,0,1,.36,1.79l-.75,4.51h-1.14l.75-4.53a2.4,2.4,0,0,0,0-.6q-.12-.86-1.13-.88a1.73,1.73,0,0,0-1.14.39,1.81,1.81,0,0,0-.66,1.06l-.78,4.56h-1.15l.76-4.52a1.45,1.45,0,0,0-.21-1.08,1.12,1.12,0,0,0-.92-.39,1.88,1.88,0,0,0-1.71,1l-.87,5h-1.15l1.19-6.87Z"/><path class="cls-4" d="M193.37,57.39a2.47,2.47,0,0,1-2-.95,3.26,3.26,0,0,1-.61-2.36l0-.27a4.57,4.57,0,0,1,.61-1.87,3.52,3.52,0,0,1,1.22-1.27,2.84,2.84,0,0,1,1.55-.41,2.18,2.18,0,0,1,1.66.71,2.89,2.89,0,0,1,.66,1.84,5.18,5.18,0,0,1,0,.83l-.07.53H191.9a2.32,2.32,0,0,0,.31,1.59,1.46,1.46,0,0,0,1.26.68,2.45,2.45,0,0,0,1.88-.91l.66.56a3,3,0,0,1-1.11,1A3.15,3.15,0,0,1,193.37,57.39Zm.73-6.16a1.68,1.68,0,0,0-1.24.48A3.42,3.42,0,0,0,192,53.2h3.34l0-.1a1.88,1.88,0,0,0-.26-1.33A1.21,1.21,0,0,0,194.1,51.23Z"/><path class="cls-4" d="M201.41,51.44l-.54-.06a2,2,0,0,0-1.74,1l-.84,4.88h-1.15l1.19-6.87h1.11l-.17.8a2.05,2.05,0,0,1,1.72-.93,2.11,2.11,0,0,1,.55.1Z"/><path class="cls-4" d="M202.71,57.26h-1.14l1.69-9.75h1.15Z"/><path class="cls-4" d="M207.06,55.53l2.44-5.14h1.27l-4.08,8a2.47,2.47,0,0,1-2.18,1.65,3.71,3.71,0,0,1-.69-.12l.1-1,.3,0a1.5,1.5,0,0,0,.94-.24,2.25,2.25,0,0,0,.7-.87l.41-.79-1.19-6.72h1.2Z"/><path class="cls-4" d="M219.37,56.78l1.38,1.33-.88.72-1.61-1.54a4.46,4.46,0,0,1-.94.1,2.86,2.86,0,0,1-1.53-.42,2.73,2.73,0,0,1-1-1.2,4.58,4.58,0,0,1-.4-1.77,8.43,8.43,0,0,1,.17-1.91,6.46,6.46,0,0,1,.71-2,4.67,4.67,0,0,1,1.21-1.44,3.61,3.61,0,0,1,2.32-.75,3,3,0,0,1,1.55.43,2.7,2.7,0,0,1,1,1.2,4.62,4.62,0,0,1,.4,1.77,6.74,6.74,0,0,1,0,1.06l-.08.54A5.12,5.12,0,0,1,219.37,56.78Zm1.19-5.19a3.14,3.14,0,0,0-.44-1.95,1.68,1.68,0,0,0-1.41-.71,2.41,2.41,0,0,0-1.52.46,3.46,3.46,0,0,0-1.1,1.44,7.42,7.42,0,0,0-.54,2.43l0,.41a4.09,4.09,0,0,0,.17,1.37,1.88,1.88,0,0,0,.63,1,1.77,1.77,0,0,0,1.05.35,2.4,2.4,0,0,0,2-.84A4.86,4.86,0,0,0,220.41,53,11.25,11.25,0,0,0,220.56,51.59Z"/><path class="cls-4" d="M226.9,56.58a2.65,2.65,0,0,1-2,.81,1.71,1.71,0,0,1-1.46-.7,2.7,2.7,0,0,1-.35-1.85l.74-4.44h1.15l-.74,4.46a2.93,2.93,0,0,0,0,.55,1.14,1.14,0,0,0,.27.72.93.93,0,0,0,.67.28,2.06,2.06,0,0,0,1.9-1l.86-5H229l-1.19,6.87h-1.08Z"/><path class="cls-4" d="M230.8,57.26h-1.14l1.19-6.87H232Zm.95-9.37a.63.63,0,0,1,.49.17.66.66,0,0,1,.19.49.68.68,0,0,1-.68.69.63.63,0,0,1-.49-.17.62.62,0,0,1-.18-.48.72.72,0,0,1,.19-.5A.67.67,0,0,1,231.75,47.89Z"/><path class="cls-4" d="M235.58,56.44a1.75,1.75,0,0,0,1.11-.36,1.71,1.71,0,0,0,.65-1h1.09a2.45,2.45,0,0,1-.52,1.18,3,3,0,0,1-2.38,1.11,2.44,2.44,0,0,1-1.45-.45,2.51,2.51,0,0,1-.87-1.21A4,4,0,0,1,233,54l0-.32a4.57,4.57,0,0,1,.58-1.77,3.34,3.34,0,0,1,1.19-1.22,3,3,0,0,1,1.63-.41,2.33,2.33,0,0,1,1.73.72,2.5,2.5,0,0,1,.65,1.77h-1.07a1.65,1.65,0,0,0-.37-1.09,1.31,1.31,0,0,0-1-.44,1.83,1.83,0,0,0-1.49.67,3.5,3.5,0,0,0-.74,1.92l0,.17a5.55,5.55,0,0,0,0,.84,1.91,1.91,0,0,0,.42,1.17A1.35,1.35,0,0,0,235.58,56.44Z"/><path class="cls-4" d="M241.81,54.09l-.9.81-.41,2.36h-1.15l1.7-9.75h1.15l-1,5.83.71-.71,2.44-2.23h1.49l-3.16,2.93,2.17,3.94h-1.26Z"/><path class="cls-4" d="M256.07,57.26h-1.19l.74-4.27H251.1l-.74,4.27h-1.19L250.77,48H252l-.69,4h4.51l.69-4h1.2Z"/><path class="cls-4" d="M261,57.39a2.47,2.47,0,0,1-2-.95,3.26,3.26,0,0,1-.61-2.36l0-.27a4.57,4.57,0,0,1,.61-1.87,3.52,3.52,0,0,1,1.22-1.27,2.84,2.84,0,0,1,1.55-.41,2.18,2.18,0,0,1,1.66.71,2.89,2.89,0,0,1,.66,1.84,5.18,5.18,0,0,1,0,.83l-.07.53h-4.49a2.32,2.32,0,0,0,.31,1.59,1.46,1.46,0,0,0,1.26.68,2.45,2.45,0,0,0,1.88-.91l.66.56a3,3,0,0,1-1.11,1A3.15,3.15,0,0,1,261,57.39Zm.73-6.16a1.68,1.68,0,0,0-1.24.48,3.42,3.42,0,0,0-.84,1.49H263l0-.1a1.88,1.88,0,0,0-.26-1.33A1.21,1.21,0,0,0,261.74,51.23Z"/><path class="cls-4" d="M269,57.26a1.55,1.55,0,0,1,0-.36l0-.36a2.81,2.81,0,0,1-2,.85,2.05,2.05,0,0,1-1.48-.57,1.74,1.74,0,0,1-.52-1.41,2.11,2.11,0,0,1,1-1.7,4.07,4.07,0,0,1,2.35-.61h1.2l.08-.55a1.26,1.26,0,0,0-.24-1,1.15,1.15,0,0,0-.9-.37,1.77,1.77,0,0,0-1,.29,1.23,1.23,0,0,0-.56.8h-1.16a1.84,1.84,0,0,1,.47-1.07,2.73,2.73,0,0,1,1.06-.72,3.41,3.41,0,0,1,1.34-.24,2.27,2.27,0,0,1,1.67.65,2,2,0,0,1,.5,1.66l-.56,3.4,0,.49a2.37,2.37,0,0,0,.08.69v.11Zm-1.8-.89a2,2,0,0,0,1-.26,2.64,2.64,0,0,0,.85-.76l.25-1.42h-.87a3.29,3.29,0,0,0-1.66.34,1.26,1.26,0,0,0-.65,1,1,1,0,0,0,.23.8A1.07,1.07,0,0,0,267.18,56.37Z"/><path class="cls-4" d="M273,57.26h-1.14l1.69-9.75h1.15Z"/><path class="cls-4" d="M277.86,48.73l-.29,1.66h1.25l-.16.91h-1.24l-.72,4.28a1.55,1.55,0,0,0,0,.31.49.49,0,0,0,.54.5,3.22,3.22,0,0,0,.56-.06l-.09.95a3.17,3.17,0,0,1-.84.11,1.2,1.2,0,0,1-1-.5,2,2,0,0,1-.27-1.32l.7-4.25h-1.21l.16-.91h1.21l.29-1.66Z"/><path class="cls-4" d="M281.16,51.23a2.66,2.66,0,0,1,2.08-1,1.67,1.67,0,0,1,1.43.66,2.62,2.62,0,0,1,.35,1.83l-.75,4.5h-1.15l.76-4.51a2.38,2.38,0,0,0,0-.58,1,1,0,0,0-1-.91,2.11,2.11,0,0,0-1.82,1.1l-.85,4.89H279l1.69-9.75h1.15Z"/><path class="cls-4" d="M289.39,57.26,291,48h2.4a3.34,3.34,0,0,1,1.95.56,3.11,3.11,0,0,1,1.17,1.56,4.83,4.83,0,0,1,.21,2.22l-.06.46a5.22,5.22,0,0,1-1.57,3.22,4.55,4.55,0,0,1-3.24,1.2ZM292,49l-1.26,7.24h1.17a3.3,3.3,0,0,0,2.28-.84,4,4,0,0,0,1.22-2.3,7.45,7.45,0,0,0,.15-2,2.42,2.42,0,0,0-.65-1.54,2.12,2.12,0,0,0-1.5-.58Z"/><path class="cls-4" d="M301.74,57.26a1.55,1.55,0,0,1,0-.36l0-.36a2.81,2.81,0,0,1-2,.85,2.05,2.05,0,0,1-1.48-.57,1.74,1.74,0,0,1-.52-1.41,2.11,2.11,0,0,1,1-1.7,4.07,4.07,0,0,1,2.35-.61h1.2l.08-.55a1.26,1.26,0,0,0-.24-1,1.15,1.15,0,0,0-.9-.37,1.77,1.77,0,0,0-1,.29,1.23,1.23,0,0,0-.56.8H298.4a1.84,1.84,0,0,1,.47-1.07,2.73,2.73,0,0,1,1.06-.72,3.41,3.41,0,0,1,1.34-.24,2.27,2.27,0,0,1,1.67.65,2,2,0,0,1,.5,1.66l-.56,3.4,0,.49a2.37,2.37,0,0,0,.08.69v.11Zm-1.8-.89a2,2,0,0,0,1-.26,2.64,2.64,0,0,0,.85-.76l.25-1.42h-.87a3.29,3.29,0,0,0-1.66.34,1.26,1.26,0,0,0-.65,1,1,1,0,0,0,.23.8A1.07,1.07,0,0,0,299.94,56.37Z"/><path class="cls-4" d="M307.5,48.73l-.29,1.66h1.25l-.16.91h-1.24l-.72,4.28a1.55,1.55,0,0,0,0,.31.49.49,0,0,0,.54.5,3.22,3.22,0,0,0,.56-.06l-.09.95a3.17,3.17,0,0,1-.84.11,1.2,1.2,0,0,1-1-.5,2,2,0,0,1-.27-1.32l.7-4.25H304.7l.16-.91h1.21l.29-1.66Z"/><path class="cls-4" d="M312.85,57.26a1.55,1.55,0,0,1,0-.36l0-.36a2.81,2.81,0,0,1-2,.85,2.05,2.05,0,0,1-1.48-.57,1.74,1.74,0,0,1-.52-1.41,2.11,2.11,0,0,1,1-1.7,4.07,4.07,0,0,1,2.35-.61h1.2l.08-.55a1.26,1.26,0,0,0-.24-1,1.15,1.15,0,0,0-.9-.37,1.77,1.77,0,0,0-1,.29,1.23,1.23,0,0,0-.56.8h-1.16a1.84,1.84,0,0,1,.47-1.07A2.73,2.73,0,0,1,311,50.5a3.41,3.41,0,0,1,1.34-.24,2.27,2.27,0,0,1,1.67.65,2,2,0,0,1,.5,1.66L314,56l0,.49a2.37,2.37,0,0,0,.08.69v.11Zm-1.8-.89a2,2,0,0,0,1-.26,2.64,2.64,0,0,0,.85-.76l.25-1.42h-.87a3.29,3.29,0,0,0-1.66.34,1.26,1.26,0,0,0-.65,1,1,1,0,0,0,.23.8A1.07,1.07,0,0,0,311,56.37Z"/><path class="cls-4" d="M322.33,57.39A3,3,0,0,1,320.8,57a2.76,2.76,0,0,1-1-1.2,4.5,4.5,0,0,1-.41-1.77,8.43,8.43,0,0,1,.17-1.9,6.5,6.5,0,0,1,.72-2,4.59,4.59,0,0,1,1.25-1.45,3.6,3.6,0,0,1,2.27-.71,2.73,2.73,0,0,1,2.13.94,3.88,3.88,0,0,1,.84,2.47,9.06,9.06,0,0,1-.14,1.7A7,7,0,0,1,326,54.9,4.77,4.77,0,0,1,325,56.38,3.64,3.64,0,0,1,322.33,57.39Zm3.24-5.8a3.21,3.21,0,0,0-.44-1.94,1.67,1.67,0,0,0-1.42-.71,2.41,2.41,0,0,0-1.52.46,3.46,3.46,0,0,0-1.1,1.44,7.42,7.42,0,0,0-.54,2.43l0,.41a3.23,3.23,0,0,0,.44,1.95,1.65,1.65,0,0,0,1.4.73,2.45,2.45,0,0,0,2-.87,4.92,4.92,0,0,0,1-2.52A11.31,11.31,0,0,0,325.57,51.59Z"/><path class="cls-4" d="M329.78,50.39l-.17.87a2.71,2.71,0,0,1,2.11-1,1.71,1.71,0,0,1,1.43.67,2.62,2.62,0,0,1,.34,1.82l-.75,4.5H331.6l.76-4.51a2.39,2.39,0,0,0,0-.58,1,1,0,0,0-1-.91,2.16,2.16,0,0,0-1.82,1.1l-.85,4.89H327.5l1.19-6.87Z"/><path class="cls-4" d="M335.76,57.26h-1.14l1.69-9.75h1.15Z"/><path class="cls-4" d="M338.88,57.26h-1.14l1.19-6.87h1.14Zm.95-9.37a.63.63,0,0,1,.49.17.66.66,0,0,1,.19.49.68.68,0,0,1-.68.69.63.63,0,0,1-.49-.17.62.62,0,0,1-.18-.48.72.72,0,0,1,.19-.5A.67.67,0,0,1,339.83,47.89Z"/><path class="cls-4" d="M343,50.39l-.17.87a2.71,2.71,0,0,1,2.11-1,1.71,1.71,0,0,1,1.43.67,2.62,2.62,0,0,1,.34,1.82l-.75,4.5h-1.15l.76-4.51a2.39,2.39,0,0,0,0-.58,1,1,0,0,0-1-.91,2.16,2.16,0,0,0-1.82,1.1l-.85,4.89h-1.15L342,50.39Z"/><path class="cls-4" d="M350.75,57.39a2.47,2.47,0,0,1-2-.95,3.26,3.26,0,0,1-.61-2.36l0-.27a4.57,4.57,0,0,1,.61-1.87A3.52,3.52,0,0,1,350,50.68a2.84,2.84,0,0,1,1.55-.41,2.18,2.18,0,0,1,1.66.71,2.89,2.89,0,0,1,.66,1.84,5.18,5.18,0,0,1,0,.83l-.07.53h-4.49a2.32,2.32,0,0,0,.31,1.59,1.46,1.46,0,0,0,1.26.68,2.45,2.45,0,0,0,1.88-.91l.66.56a3,3,0,0,1-1.11,1A3.15,3.15,0,0,1,350.75,57.39Zm.73-6.16a1.68,1.68,0,0,0-1.24.48,3.42,3.42,0,0,0-.84,1.49h3.34l0-.1a1.88,1.88,0,0,0-.26-1.33A1.21,1.21,0,0,0,351.48,51.23Z"/></g></g></svg>