<?xml version="1.0" encoding="UTF-8" standalone="no"?>
<!DOCTYPE svg PUBLIC "-//W3C//DTD SVG 1.1//EN" "http://www.w3.org/Graphics/SVG/1.1/DTD/svg11.dtd">
<svg version="1.1" xmlns="http://www.w3.org/2000/svg" xmlns:xlink="http://www.w3.org/1999/xlink" preserveAspectRatio="xMidYMid meet" viewBox="0 0 360 60" width="360" height="60"><defs><path d="M132.45 37.11L113.86 39.75L135.62 39.75L135.62 0L113.86 0L132.45 2.32L132.45 2.32L132.45 37.11Z" id="a28RiJrn0m"></path><path d="M130.42 21.35C130.42 22.52 129.89 23.47 129.24 23.47C128.58 23.47 128.05 22.52 128.05 21.35C128.05 20.18 128.58 19.23 129.24 19.23C129.89 19.23 130.42 20.18 130.42 21.35Z" id="a31ntn8kyf"></path><path d="M157.71 23.45C157.71 24.2 157.71 27.95 157.71 34.71L155 34.71C155 28.39 155 24.88 155 24.18C155.08 22.79 154.59 21.42 153.63 20.41C152.6 19.47 151.24 18.98 149.85 19.06C148.26 19.01 146.72 19.59 145.57 20.69C144.47 21.83 143.81 23.32 143.71 24.91C143.71 25.56 143.71 28.83 143.71 34.71L141.02 34.71L141.02 16.47L143.71 16.47C143.71 18.87 143.71 20.2 143.71 20.47C145.59 16.41 150.07 16.77 150.77 16.36C152.66 16.26 154.51 16.94 155.87 18.25C157.15 19.67 157.82 21.54 157.71 23.45Z" id="b44Lqthh8"></path><path d="M166.24 14.66C166.24 14.81 166.24 15.59 166.24 16.98L171.46 16.98L171.46 19.21L166.24 19.21L166.24 34.71L163.57 34.71L163.57 19.24L161.22 19.24L161.22 16.98L163.57 16.98C163.57 15.78 163.57 15.12 163.57 14.99C163.54 13.83 163.83 12.69 164.39 11.68C164.89 10.78 165.64 10.05 166.54 9.56C167.42 9.09 168.41 8.84 169.42 8.85C170.82 8.86 172.19 9.31 173.33 10.14C173.22 10.36 172.32 12.1 172.21 12.32C171.41 11.72 170.44 11.4 169.45 11.39C168.6 11.37 167.77 11.69 167.16 12.28C166.53 12.9 166.19 13.77 166.24 14.66Z" id="c3imMDfMKo"></path><path d="M188.66 20.82C189.46 22.27 189.86 23.91 189.84 25.56C189.87 27.24 189.46 28.89 188.66 30.36C187.89 31.73 186.75 32.87 185.37 33.63C182.38 35.19 178.81 35.19 175.82 33.63C174.44 32.87 173.3 31.74 172.53 30.36C171.73 28.89 171.32 27.24 171.35 25.56C171.33 23.9 171.73 22.26 172.53 20.81C173.3 19.44 174.44 18.31 175.82 17.56C178.82 16.02 182.37 16.02 185.37 17.56C186.75 18.31 187.89 19.44 188.66 20.82ZM174.89 22.11C174.32 23.18 174.04 24.38 174.06 25.59C174.04 26.82 174.32 28.03 174.89 29.11C175.42 30.12 176.23 30.95 177.22 31.52C179.32 32.68 181.88 32.68 183.98 31.52C184.97 30.95 185.78 30.12 186.31 29.11C186.88 28.03 187.16 26.82 187.14 25.59C187.16 24.38 186.88 23.17 186.31 22.1C185.77 21.1 184.96 20.28 183.97 19.72C181.87 18.56 179.32 18.56 177.22 19.72C176.23 20.28 175.42 21.11 174.89 22.11Z" id="dxKWxhy1P"></path><path d="M203.13 16.37C203.13 16.65 203.13 18.82 203.13 19.09C201.46 18.99 199.82 19.56 198.57 20.67C197.37 21.82 196.66 23.37 196.57 25.02C196.57 25.67 196.57 28.9 196.57 34.71L193.88 34.71L193.88 16.47L196.57 16.47C196.57 18.87 196.57 20.2 196.57 20.47C197.11 19.24 198.01 18.19 199.14 17.46C200.34 16.73 201.72 16.35 203.13 16.37Z" id="a3MNbJnxk"></path><path d="M236.17 23.45C236.17 24.2 236.17 27.95 236.17 34.71L233.48 34.71C233.48 28.39 233.48 24.88 233.48 24.18C233.56 22.78 233.08 21.42 232.13 20.39C231.14 19.45 229.8 18.95 228.44 19.02C226.77 18.98 225.16 19.67 224.05 20.92C222.95 22.28 222.39 24 222.47 25.74C222.47 26.34 222.47 29.34 222.47 34.74L219.76 34.74C219.76 28.4 219.76 24.88 219.76 24.18C219.83 22.79 219.35 21.42 218.42 20.39C217.43 19.43 216.08 18.92 214.7 18.98C213.03 18.95 211.43 19.64 210.31 20.88C209.19 22.23 208.61 23.95 208.7 25.7C208.7 26.3 208.7 29.3 208.7 34.7L206.04 34.7L206.04 16.47L208.7 16.47C208.7 18.94 208.7 20.31 208.7 20.58C209.22 19.28 210.15 18.18 211.35 17.45C212.67 16.72 214.15 16.35 215.65 16.37C217.16 16.31 218.66 16.75 219.91 17.61C221.06 18.48 221.86 19.73 222.18 21.14C222.64 19.68 223.58 18.42 224.86 17.58C226.22 16.76 227.79 16.35 229.38 16.37C231.23 16.26 233.05 16.95 234.37 18.25C235.63 19.68 236.28 21.55 236.17 23.45Z" id="a18ifq84WS"></path><path d="M252.78 31.9C250.6 34.84 246.78 34.54 246.11 34.84C244.98 34.86 243.86 34.61 242.85 34.11C241.95 33.66 241.2 32.97 240.67 32.11C240.16 31.25 239.89 30.26 239.91 29.26C239.85 27.78 240.52 26.37 241.7 25.47C243.17 24.46 244.92 23.96 246.7 24.04C247.1 24.04 249.1 24.04 252.69 24.04C252.69 23.4 252.69 23.05 252.69 22.98C252.77 21.8 252.31 20.64 251.45 19.83C250.42 19.02 249.12 18.63 247.81 18.72C245.72 18.81 243.7 19.53 242.03 20.8C241.92 20.6 241.02 19 240.9 18.8C242.03 18.05 243.23 17.44 244.5 16.98C245.74 16.57 247.05 16.38 248.36 16.4C250.22 16.26 252.07 16.82 253.53 17.98C254.78 19.19 255.46 20.87 255.38 22.61C255.38 23.41 255.38 27.43 255.38 34.66L252.74 34.66C252.76 33.18 252.78 32.27 252.78 31.9ZM252.74 28.4C252.74 28.26 252.74 27.53 252.74 26.22C249.34 26.22 247.45 26.22 247.07 26.22C242.44 26.22 242.91 28.87 242.44 29.16C242.41 30.11 242.83 31.01 243.58 31.59C244.46 32.23 245.54 32.55 246.63 32.49C248.03 32.53 249.4 32.15 250.58 31.4C251.65 30.7 252.42 29.63 252.74 28.4Z" id="a20No4TB7"></path><path d="M262.65 33.55C261.73 32.47 261.27 31.07 261.38 29.65C261.38 28.96 261.38 25.49 261.38 19.24L258.77 19.24L258.77 17.06L261.38 17.06L261.38 12.25L264.05 12.25L264.05 17.06L269.83 17.01L269.83 19.24L264.05 19.24C264.05 25.19 264.05 28.5 264.05 29.16C263.98 29.99 264.2 30.81 264.66 31.5C265.13 32 265.8 32.27 266.49 32.22C267.53 32.19 268.54 31.86 269.4 31.27C269.47 31.49 270.08 33.23 270.15 33.45C268.95 34.31 267.51 34.8 266.03 34.84C264.77 34.89 263.55 34.43 262.65 33.55Z" id="b2XZPrfliH"></path><path d="M276.61 11.24C276.62 11.73 276.44 12.22 276.1 12.58C275.77 12.93 275.31 13.13 274.83 13.12C274.35 13.13 273.89 12.94 273.57 12.59C273.23 12.22 273.05 11.74 273.07 11.24C273.06 10.75 273.24 10.27 273.57 9.91C273.89 9.56 274.35 9.37 274.83 9.38C275.31 9.37 275.77 9.56 276.1 9.91C276.44 10.27 276.62 10.75 276.61 11.24ZM273.53 34.71L273.53 16.47L276.19 16.47L276.19 34.71L273.53 34.71Z" id="f4ir81v1kM"></path><path d="M297.53 20.82C298.33 22.27 298.73 23.91 298.71 25.56C298.74 27.24 298.33 28.89 297.53 30.36C296.76 31.73 295.62 32.87 294.24 33.63C291.25 35.19 287.68 35.19 284.69 33.63C283.31 32.87 282.17 31.74 281.4 30.36C280.6 28.89 280.2 27.24 280.22 25.56C280.2 23.9 280.6 22.26 281.4 20.81C282.17 19.44 283.31 18.31 284.69 17.56C287.69 16.02 291.24 16.02 294.24 17.56C295.62 18.31 296.76 19.44 297.53 20.82ZM283.76 22.11C283.2 23.18 282.91 24.38 282.93 25.59C282.91 26.82 283.19 28.03 283.76 29.11C284.29 30.12 285.1 30.95 286.09 31.52C288.19 32.68 290.75 32.68 292.85 31.52C293.84 30.95 294.65 30.12 295.18 29.11C295.75 28.03 296.03 26.82 296.01 25.59C296.03 24.38 295.75 23.17 295.18 22.1C294.64 21.1 293.83 20.28 292.84 19.72C290.74 18.56 288.19 18.56 286.09 19.72C285.1 20.28 284.3 21.11 283.76 22.11Z" id="c2Lu9LBr3h"></path><path d="M319.44 23.45C319.44 24.2 319.44 27.95 319.44 34.71L316.73 34.71C316.73 28.39 316.73 24.88 316.73 24.18C316.81 22.79 316.32 21.42 315.36 20.41C314.33 19.47 312.97 18.98 311.57 19.06C309.99 19.01 308.45 19.59 307.3 20.69C306.19 21.83 305.53 23.32 305.44 24.91C305.44 25.56 305.44 28.83 305.44 34.71L302.75 34.71L302.75 16.47L305.44 16.47C305.44 18.87 305.44 20.2 305.44 20.47C307.32 16.41 311.8 16.77 312.5 16.36C314.39 16.26 316.24 16.94 317.6 18.25C318.88 19.67 319.54 21.54 319.44 23.45Z" id="f1oCbYcM6E"></path><path d="M19.45 34.62L19.45 25.2L9.46 25.2L9.46 34.62L3.24 34.62L3.24 10.39L9.41 10.39L9.41 20.38L19.4 20.38L19.4 10.39L25.55 10.39L25.55 34.62L19.45 34.62Z" id="c6m0oVk1f"></path><path d="M47.32 25.76C47.32 26.27 47.32 26.65 47.32 26.89C46.01 26.89 35.52 26.89 34.21 26.89C34.45 27.89 35.01 28.79 35.8 29.45C36.6 30.07 37.59 30.39 38.61 30.35C39.42 30.35 40.23 30.19 40.98 29.87C41.76 29.53 42.47 29.05 43.06 28.44C43.38 28.75 45.89 31.23 46.2 31.54C45.21 32.61 44 33.44 42.64 33.97C41.18 34.55 39.62 34.83 38.05 34.82C36.23 34.86 34.43 34.45 32.81 33.64C31.36 32.89 30.17 31.74 29.37 30.32C28.53 28.79 28.11 27.07 28.15 25.32C28.11 23.58 28.54 21.86 29.38 20.33C30.18 18.91 31.37 17.75 32.81 16.98C34.37 16.17 36.12 15.76 37.88 15.79C40.92 15.77 43.26 16.64 44.88 18.4C46.61 21.53 47.43 23.98 47.32 25.76ZM37.95 19.98C36.99 19.95 36.07 20.31 35.39 20.98C34.66 21.73 34.19 22.7 34.06 23.74C34.81 23.74 40.8 23.74 41.54 23.74C41.6 22.72 41.24 21.73 40.55 20.98C39.86 20.29 38.92 19.93 37.95 19.98Z" id="b2mYigSi2p"></path><path d="M66.35 22.47C66.35 23.28 66.35 27.33 66.35 34.62L60.48 34.62C60.48 33.33 60.48 32.61 60.48 32.47C59.89 33.26 59.1 33.88 58.19 34.27C57.12 34.7 55.97 34.91 54.82 34.89C53.11 34.98 51.43 34.4 50.14 33.27C48.99 32.17 48.36 30.63 48.42 29.04C48.32 27.45 48.98 25.92 50.19 24.9C51.75 23.82 53.62 23.29 55.51 23.39C55.84 23.39 57.48 23.39 60.42 23.39C60.42 23.22 60.42 23.13 60.42 23.12C60.47 22.31 60.15 21.52 59.55 20.98C58.76 20.41 57.8 20.13 56.83 20.2C55.93 20.22 55.04 20.35 54.17 20.6C53.16 20.88 52.17 21.27 51.24 21.76C51.07 21.36 49.72 18.22 49.56 17.82C50.95 17.16 52.41 16.63 53.9 16.23C55.3 15.88 56.74 15.7 58.19 15.69C60.33 15.55 62.46 16.18 64.18 17.47C65.63 18.71 66.43 20.56 66.35 22.47ZM60.45 28.28C60.45 28.17 60.45 27.62 60.45 26.62C58.19 26.62 56.94 26.62 56.69 26.62C55.99 26.58 55.29 26.75 54.69 27.1C54.22 27.46 53.96 28.04 54.01 28.63C53.98 29.25 54.23 29.85 54.7 30.25C55.25 30.67 55.94 30.88 56.64 30.84C57.52 30.86 58.38 30.61 59.12 30.14C59.79 29.72 60.27 29.05 60.45 28.28Z" id="b2bcvULXCW"></path><path d="M70.07 34.62L70.07 8.93L76.07 8.93L76.07 34.62L70.07 34.62Z" id="bQIjhlLTd"></path><path d="M87.36 34.89C85.72 34.96 84.12 34.41 82.88 33.35C81.69 32.21 81.06 30.61 81.16 28.97C81.16 28.42 81.16 25.68 81.16 20.74L78.57 20.74L78.57 16.82L81.16 16.82L81.16 11.64L87.16 11.64L87.16 16.79L92.04 16.79L92.04 20.79L87.16 20.79C87.16 25.17 87.16 27.61 87.16 28.09C87.16 30.09 88.65 29.89 88.82 30.09C89.63 30.04 90.42 29.82 91.15 29.46C91.27 29.88 92.21 33.2 92.33 33.62C91.61 34.02 90.83 34.33 90.02 34.54C89.15 34.77 88.26 34.88 87.36 34.89Z" id="a19VuNvtLR"></path><path d="M113.88 22.86C113.88 23.64 113.88 27.56 113.88 34.62L107.89 34.62C107.89 28.56 107.89 25.19 107.89 24.52C107.94 23.57 107.62 22.65 107 21.94C106.38 21.27 105.5 20.91 104.59 20.94C103.52 20.9 102.5 21.36 101.82 22.19C101.12 23.09 100.77 24.22 100.82 25.36C100.82 25.98 100.82 29.05 100.82 34.58L94.83 34.58L94.83 8.93L100.82 8.93C100.82 15 100.82 18.37 100.82 19.04C101.42 17.98 102.31 17.12 103.38 16.55C104.53 15.98 105.8 15.69 107.09 15.69C108.93 15.62 110.72 16.33 112.01 17.64C113.3 19.06 113.98 20.94 113.88 22.86Z" id="a23B1q4G2H"></path><path d="M13.69 55.75C13.18 56.29 12.55 56.7 11.84 56.94C11.06 57.23 10.23 57.37 9.4 57.35C8.7 57.36 8.01 57.19 7.4 56.84C6.83 56.51 6.37 56 6.09 55.4C5.77 54.72 5.6 53.98 5.59 53.23C5.58 52.8 5.6 52.37 5.66 51.95C5.69 51.74 5.95 50.04 5.98 49.83C6.13 48.3 6.73 46.84 7.72 45.65C8.61 44.67 9.91 44.16 11.23 44.25C12.27 44.19 13.27 44.6 13.98 45.34C14.66 46.25 15 47.37 14.93 48.5C14.76 48.5 13.93 48.5 12.43 48.5C12.43 48.08 12.43 47.85 12.43 47.8C12.32 46.43 11.23 46.53 11.09 46.38C9.86 46.33 9.05 47.13 8.68 48.78L8.55 49.44C8.36 50.95 8.26 51.78 8.24 51.95C8.16 52.42 8.13 52.91 8.15 53.39C8.13 53.9 8.28 54.4 8.59 54.82C8.88 55.12 9.29 55.29 9.72 55.27C10.26 55.25 10.78 55.08 11.23 54.79C11.26 54.63 11.41 53.84 11.68 52.43L9.9 52.43L10.23 50.43L14.5 50.43C14.07 53.27 13.8 55.04 13.69 55.75Z" id="d4BV7qrlDN"></path><path d="M34.54 54.59L31.14 54.59L30.02 57.2L27.29 57.2L33.38 44.42L35.69 44.42L37.37 57.2L34.76 57.2L34.54 54.59ZM32.06 52.44L34.36 52.44L34 47.95L32.06 52.44Z" id="aFUY2Imdz"></path><path d="M60.42 46.57L57.36 46.57L55.51 57.2L52.98 57.2L54.83 46.57L51.83 46.57L52.19 44.43L60.8 44.43L60.42 46.57Z" id="b4Ewr7xfpe"></path><path d="M80.41 51.68L76.52 51.68L75.93 55.06L80.54 55.06L80.16 57.2L73.04 57.2L75.25 44.42L82.37 44.42L81.99 46.56L77.4 46.56L76.87 49.56L80.77 49.56L80.41 51.68Z" id="bgEbx0kNU"></path><path d="M103.52 52.42L105.95 44.43L108.48 44.43L104.28 57.21L101.74 57.21L101.48 49.71L98.89 57.21L96.34 57.21L96.15 44.43L98.63 44.43L98.53 52.42L101.22 44.43L103.35 44.43L103.52 52.42Z" id="bmBJAqyV8"></path><path d="M126.76 54.59L123.36 54.59L122.24 57.2L119.51 57.2L125.6 44.42L127.91 44.42L129.59 57.2L126.98 57.2L126.76 54.59ZM124.28 52.44L126.58 52.44L126.23 47.95L124.28 52.44Z" id="dXG71TirT"></path><path d="M147.42 50.14L150.27 44.43L153.09 44.43L148.28 52.7L147.5 57.21L144.94 57.21L145.77 52.45L143.87 44.46L146.52 44.46L147.42 50.14Z" id="k198lGg0jn"></path></defs><g><g><g><use xlink:href="#a28RiJrn0m" opacity="1" fill="#00adee" fill-opacity="1"></use><g><use xlink:href="#a28RiJrn0m" opacity="1" fill-opacity="0" stroke="#000000" stroke-width="1" stroke-opacity="0"></use></g></g><g><use xlink:href="#a31ntn8kyf" opacity="1" fill="#00adee" fill-opacity="1"></use><g><use xlink:href="#a31ntn8kyf" opacity="1" fill-opacity="0" stroke="#000000" stroke-width="1" stroke-opacity="0"></use></g></g><g><use xlink:href="#b44Lqthh8" opacity="1" fill="#00adee" fill-opacity="1"></use><g><use xlink:href="#b44Lqthh8" opacity="1" fill-opacity="0" stroke="#000000" stroke-width="1" stroke-opacity="0"></use></g></g><g><use xlink:href="#c3imMDfMKo" opacity="1" fill="#00adee" fill-opacity="1"></use><g><use xlink:href="#c3imMDfMKo" opacity="1" fill-opacity="0" stroke="#000000" stroke-width="1" stroke-opacity="0"></use></g></g><g><use xlink:href="#dxKWxhy1P" opacity="1" fill="#00adee" fill-opacity="1"></use><g><use xlink:href="#dxKWxhy1P" opacity="1" fill-opacity="0" stroke="#000000" stroke-width="1" stroke-opacity="0"></use></g></g><g><use xlink:href="#a3MNbJnxk" opacity="1" fill="#00adee" fill-opacity="1"></use><g><use xlink:href="#a3MNbJnxk" opacity="1" fill-opacity="0" stroke="#000000" stroke-width="1" stroke-opacity="0"></use></g></g><g><use xlink:href="#a18ifq84WS" opacity="1" fill="#00adee" fill-opacity="1"></use><g><use xlink:href="#a18ifq84WS" opacity="1" fill-opacity="0" stroke="#000000" stroke-width="1" stroke-opacity="0"></use></g></g><g><use xlink:href="#a20No4TB7" opacity="1" fill="#00adee" fill-opacity="1"></use><g><use xlink:href="#a20No4TB7" opacity="1" fill-opacity="0" stroke="#000000" stroke-width="1" stroke-opacity="0"></use></g></g><g><use xlink:href="#b2XZPrfliH" opacity="1" fill="#00adee" fill-opacity="1"></use><g><use xlink:href="#b2XZPrfliH" opacity="1" fill-opacity="0" stroke="#000000" stroke-width="1" stroke-opacity="0"></use></g></g><g><use xlink:href="#f4ir81v1kM" opacity="1" fill="#00adee" fill-opacity="1"></use><g><use xlink:href="#f4ir81v1kM" opacity="1" fill-opacity="0" stroke="#000000" stroke-width="1" stroke-opacity="0"></use></g></g><g><use xlink:href="#c2Lu9LBr3h" opacity="1" fill="#00adee" fill-opacity="1"></use><g><use xlink:href="#c2Lu9LBr3h" opacity="1" fill-opacity="0" stroke="#000000" stroke-width="1" stroke-opacity="0"></use></g></g><g><use xlink:href="#f1oCbYcM6E" opacity="1" fill="#00adee" fill-opacity="1"></use><g><use xlink:href="#f1oCbYcM6E" opacity="1" fill-opacity="0" stroke="#000000" stroke-width="1" stroke-opacity="0"></use></g></g><g><use xlink:href="#c6m0oVk1f" opacity="1" fill="#5b2b82" fill-opacity="1"></use><g><use xlink:href="#c6m0oVk1f" opacity="1" fill-opacity="0" stroke="#000000" stroke-width="1" stroke-opacity="0"></use></g></g><g><use xlink:href="#b2mYigSi2p" opacity="1" fill="#5b2b82" fill-opacity="1"></use><g><use xlink:href="#b2mYigSi2p" opacity="1" fill-opacity="0" stroke="#000000" stroke-width="1" stroke-opacity="0"></use></g></g><g><use xlink:href="#b2bcvULXCW" opacity="1" fill="#5b2b82" fill-opacity="1"></use><g><use xlink:href="#b2bcvULXCW" opacity="1" fill-opacity="0" stroke="#000000" stroke-width="1" stroke-opacity="0"></use></g></g><g><use xlink:href="#bQIjhlLTd" opacity="1" fill="#5b2b82" fill-opacity="1"></use><g><use xlink:href="#bQIjhlLTd" opacity="1" fill-opacity="0" stroke="#000000" stroke-width="1" stroke-opacity="0"></use></g></g><g><use xlink:href="#a19VuNvtLR" opacity="1" fill="#5b2b82" fill-opacity="1"></use><g><use xlink:href="#a19VuNvtLR" opacity="1" fill-opacity="0" stroke="#000000" stroke-width="1" stroke-opacity="0"></use></g></g><g><use xlink:href="#a23B1q4G2H" opacity="1" fill="#5b2b82" fill-opacity="1"></use><g><use xlink:href="#a23B1q4G2H" opacity="1" fill-opacity="0" stroke="#000000" stroke-width="1" stroke-opacity="0"></use></g></g><g><use xlink:href="#d4BV7qrlDN" opacity="1" fill="#ad90bf" fill-opacity="1"></use><g><use xlink:href="#d4BV7qrlDN" opacity="1" fill-opacity="0" stroke="#000000" stroke-width="1" stroke-opacity="0"></use></g></g><g><use xlink:href="#aFUY2Imdz" opacity="1" fill="#ad90bf" fill-opacity="1"></use><g><use xlink:href="#aFUY2Imdz" opacity="1" fill-opacity="0" stroke="#000000" stroke-width="1" stroke-opacity="0"></use></g></g><g><use xlink:href="#b4Ewr7xfpe" opacity="1" fill="#ad90bf" fill-opacity="1"></use><g><use xlink:href="#b4Ewr7xfpe" opacity="1" fill-opacity="0" stroke="#000000" stroke-width="1" stroke-opacity="0"></use></g></g><g><use xlink:href="#bgEbx0kNU" opacity="1" fill="#ad90bf" fill-opacity="1"></use><g><use xlink:href="#bgEbx0kNU" opacity="1" fill-opacity="0" stroke="#000000" stroke-width="1" stroke-opacity="0"></use></g></g><g><use xlink:href="#bmBJAqyV8" opacity="1" fill="#ad90bf" fill-opacity="1"></use><g><use xlink:href="#bmBJAqyV8" opacity="1" fill-opacity="0" stroke="#000000" stroke-width="1" stroke-opacity="0"></use></g></g><g><use xlink:href="#dXG71TirT" opacity="1" fill="#ad90bf" fill-opacity="1"></use><g><use xlink:href="#dXG71TirT" opacity="1" fill-opacity="0" stroke="#000000" stroke-width="1" stroke-opacity="0"></use></g></g><g><use xlink:href="#k198lGg0jn" opacity="1" fill="#ad90bf" fill-opacity="1"></use><g><use xlink:href="#k198lGg0jn" opacity="1" fill-opacity="0" stroke="#000000" stroke-width="1" stroke-opacity="0"></use></g></g></g></g></svg>