<svg id="Layer_1" data-name="Layer 1" xmlns="http://www.w3.org/2000/svg" viewBox="0 0 146.88 147"><defs><style>.cls-1{fill:none;}.cls-1,.cls-2,.cls-3,.cls-4{stroke:#582c83;stroke-width:2px;}.cls-1,.cls-2,.cls-3{stroke-linecap:round;stroke-linejoin:round;}.cls-2{fill:#ede1ee;}.cls-3{fill:#bd92c3;}.cls-4{fill:#7edef3;stroke-miterlimit:10;}</style></defs><title>mortality-icon</title><path class="cls-1" d="M48.06,105.2H5.55a4,4,0,0,1-4-4V78L22.5,57.13,37.62,72.25,58.26,51.61,74.19,67.54,95,46.73l15.57,15.57,20.17-20.41V18.46a4,4,0,0,0-4-4H5.55a4,4,0,0,0-4,4V59.22"/><path class="cls-1" d="M130.75,60.48v40.75a4,4,0,0,1-4,4H85"/><path class="cls-2" d="M112.56,135.09s-28.1-14.38-32-31.78,5.27-25,5.27-25,4.89-6.75,15.61-4,11.15,16.3,11.15,16.3S113,77,123.71,74.28s15.61,4,15.61,4,9.2,7.59,5.27,25S112.56,135.09,112.56,135.09Z"/><polyline class="cls-1" points="87.09 105.18 93.53 105.18 96.79 86.13 100.31 116.34 105.37 99.31 107.28 105.18 135.94 105.18"/><line class="cls-1" x1="66.37" y1="90.45" x2="66.37" y2="105.2"/><path class="cls-3" d="M73.32,105.2v22.16a6.86,6.86,0,0,1-6.84,6.84h0a6.86,6.86,0,0,1-6.84-6.84V105.2Z"/><circle class="cls-1" cx="66.37" cy="59.26" r="31.19"/><path class="cls-4" d="M87.58,59.26A21.21,21.21,0,1,1,66.37,38.05,21.21,21.21,0,0,1,87.58,59.26ZM66.37,28.07A31.19,31.19,0,1,0,97.56,59.26,31.19,31.19,0,0,0,66.37,28.07Z"/></svg>