<svg id="Layer_1" data-name="Layer 1" xmlns="http://www.w3.org/2000/svg" viewBox="0 0 131.55 122.05"><defs><style>.cls-1{fill:none;}.cls-1,.cls-2,.cls-3{stroke:#582c83;stroke-width:2px;}.cls-1,.cls-2{stroke-linecap:round;stroke-linejoin:round;}.cls-2{fill:#bd92c3;}.cls-3{fill:#7edef3;stroke-miterlimit:10;}</style></defs><title>mortality-icon</title><path class="cls-1" d="M55.86,105.64H13.22a4,4,0,0,1-4-4V78.4l21-21L45.39,72.59l20.7-20.7,16,16L102.95,47l15.61,15.61L138.8,42.14V18.65a4,4,0,0,0-4-4H13.22a4,4,0,0,0-4,4V59.52" transform="translate(-8.25 -13.68)"/><path class="cls-1" d="M138.8,60.79v40.88a4,4,0,0,1-4,4H92.9" transform="translate(-8.25 -13.68)"/><line class="cls-1" x1="65.97" y1="77.18" x2="65.97" y2="91.96"/><path class="cls-2" d="M81.2,105.64v22.23a6.88,6.88,0,0,1-6.86,6.86h0a6.88,6.88,0,0,1-6.86-6.86V105.64Z" transform="translate(-8.25 -13.68)"/><circle class="cls-1" cx="65.97" cy="45.89" r="31.28"/><path class="cls-3" d="M95.49,59.57A21.27,21.27,0,1,1,74.22,38.3,21.27,21.27,0,0,1,95.49,59.57ZM74.22,28.29a31.28,31.28,0,1,0,31.28,31.28A31.28,31.28,0,0,0,74.22,28.29Z" transform="translate(-8.25 -13.68)"/></svg>