<svg id="Layer_1" data-name="Layer 1" xmlns="http://www.w3.org/2000/svg" viewBox="0 0 106.55 136.23"><defs><style>.cls-1{fill:#7edef3;stroke-miterlimit:10;}.cls-1,.cls-2,.cls-3,.cls-4{stroke:#582c83;stroke-width:2px;}.cls-2{fill:#fff;}.cls-2,.cls-3,.cls-4{stroke-linecap:round;stroke-linejoin:round;}.cls-3{fill:#ccabd1;}.cls-4{fill:none;}</style></defs><title>natality-icon</title><path class="cls-1" d="M86.64,59.32h9.42s20.32,1.54,23.21,16.42,6.73,37.5,6.73,37.5,1.19,7-6.73,10.47c0,0-27.69,14.41-33.21,16.27s-14,1.11-21.09-.65S28.3,123.71,28.3,123.71c-7.91-3.5-6.73-10.47-6.73-10.47s3.84-22.62,6.73-37.5S51.5,59.32,51.5,59.32h9.26" transform="translate(-20.51 -5.83)"/><path class="cls-2" d="M79.52,123.37c5.06-2.29,15.68-9,18.49-15,1.26-2.66,1.36-5.28,3.19-5.76,3.7-1,9.43-3.65,10.37-10.9,1.4-10.85-9.64-14.61-9.64-14.61A14.37,14.37,0,0,0,88.09,79.4c-7,5.27-7,14.16-7,14.16a6.54,6.54,0,0,0,3.11,6,16.58,16.58,0,0,1-7.31,1.53C73.14,100.91,61,84.74,61,84.74s-3.38-4.38-7.19-1.2c-2.31,2-.08,6.84.84,8.69,2,4,9.11,11.49,9.11,11.49l-21.45,5.45,29.09,14.2A11.74,11.74,0,0,0,79.52,123.37Z" transform="translate(-20.51 -5.83)"/><path class="cls-3" d="M54.26,44a51,51,0,0,0,6.67,15.35h-.17a33.48,33.48,0,0,1-22.85-8S43,47.68,45,37.75,51.32,6.83,73.67,6.83s24.91,21,24.91,21S99.79,38.42,93.4,44c0,0,.66-4.8-4.86-7.76-4-2.13-5.22-9.83-5.22-9.83S80.46,47.93,54.26,44" transform="translate(-20.51 -5.83)"/><path class="cls-2" d="M54.26,44s5.4,23.35,19.41,23.35S93.4,44,93.4,44s.66-4.8-4.86-7.76c-4-2.13-5.22-9.83-5.22-9.83S80.46,47.93,54.26,44Z" transform="translate(-20.51 -5.83)"/><path class="cls-4" d="M68.45,121.93s12.59,6.91,38,8.05" transform="translate(-20.51 -5.83)"/></svg>