<svg id="Layer_1" data-name="Layer 1" xmlns="http://www.w3.org/2000/svg" viewBox="0 0 146.88 106.34"><defs><style>.cls-1{fill:#ede1ee;}.cls-1,.cls-2,.cls-3,.cls-4,.cls-5{stroke:#582c83;stroke-linecap:round;stroke-linejoin:round;stroke-width:1.5px;}.cls-2{fill:#bfeff9;}.cls-3{fill:#7edef3;}.cls-4{fill:#ccabd1;}.cls-5{fill:none;}</style></defs><title>icon</title><path class="cls-1" d="M110.08,28.13c1.06,2.45-.77,5.61-4.1,7.06a7.52,7.52,0,0,1-5.64.3A4.06,4.06,0,0,1,98,33.36c-1.06-2.45.77-5.61,4.1-7.06S109,25.68,110.08,28.13Z"/><ellipse class="cls-2" cx="75.7" cy="41.98" rx="25.47" ry="18.77" transform="translate(-8.21 20.71) rotate(-14.78)"/><ellipse class="cls-3" cx="97.19" cy="73.45" rx="16.82" ry="12.39" transform="translate(-15.53 27.23) rotate(-14.78)"/><ellipse class="cls-4" cx="40.44" cy="32.61" rx="5.44" ry="4.01" transform="matrix(0.97, -0.26, 0.26, 0.97, -6.98, 11.4)"/><path class="cls-5" d="M104.58,70.57c.58,2.21-2.46,4.94-6.81,6.08s-8.34.28-8.92-1.93"/><ellipse class="cls-1" cx="49.57" cy="67.57" rx="16.82" ry="12.39" transform="translate(-22.79 25.29) rotate(-23.44)"/><ellipse class="cls-4" cx="109.88" cy="49" rx="4.89" ry="3.6" transform="matrix(0.92, -0.4, 0.4, 0.92, -10.42, 47.75)"/><path class="cls-5" d="M56.29,63.62c.91,2.1-1.69,5.25-5.81,7s-8.2,1.53-9.11-.57"/><path class="cls-5" d="M77.89,33.62c6.44-.82,11.7.63,12.53,3.79,1,3.81-4.81,8.64-13,10.8s-15.62.82-16.63-3"/></svg>