<svg id="Layer_1" data-name="Layer 1" xmlns="http://www.w3.org/2000/svg" viewBox="0 0 146.88 106.34"><defs><style>.cls-1{fill:#7edef3;}.cls-1,.cls-2,.cls-3,.cls-4{stroke:#582c83;stroke-linecap:round;stroke-linejoin:round;stroke-width:1.5px;}.cls-2{fill:#bfeff9;}.cls-3{fill:none;}.cls-4{fill:#ede1ee;}</style></defs><title>owh-icons</title><path class="cls-1" d="M121.4,45.44c.93,2.14-.67,4.88-3.57,6.14a6.55,6.55,0,0,1-4.9.26,3.53,3.53,0,0,1-2-1.85c-.93-2.14.67-4.88,3.57-6.14S120.47,43.31,121.4,45.44Z"/><ellipse class="cls-2" cx="91.48" cy="57.5" rx="22.17" ry="16.34" transform="translate(-11.64 25.25) rotate(-14.78)"/><ellipse class="cls-1" cx="106.78" cy="83.54" rx="11.69" ry="8.61" transform="matrix(0.97, -0.26, 0.26, 0.97, -17.78, 30.01)"/><path class="cls-3" d="M111.91,81.53c.41,1.54-1.71,3.43-4.73,4.23s-5.8.2-6.2-1.34"/><ellipse class="cls-1" cx="68.74" cy="79.76" rx="14.63" ry="10.78" transform="translate(-26.06 33.93) rotate(-23.44)"/><ellipse class="cls-2" cx="121.22" cy="63.6" rx="4.25" ry="3.14" transform="translate(-15.3 53.47) rotate(-23.44)"/><path class="cls-3" d="M74.59,76.33c.79,1.83-1.47,4.57-5.06,6.13s-7.14,1.33-7.93-.49"/><path class="cls-3" d="M93.39,50.21c5.6-.72,10.18.55,10.91,3.3.87,3.31-4.19,7.52-11.3,9.4s-13.6.72-14.47-2.6"/><line class="cls-4" x1="36.29" y1="19.09" x2="43.27" y2="31.77"/><line class="cls-4" x1="50.41" y1="21.83" x2="50.08" y2="30.42"/><line class="cls-4" x1="63.73" y1="25.57" x2="56.85" y2="33.27"/><line class="cls-4" x1="74.19" y1="38.9" x2="61.17" y2="41.37"/><line class="cls-4" x1="68.68" y1="47.93" x2="60.72" y2="46.18"/><line class="cls-4" x1="58.84" y1="59.64" x2="55.14" y2="53.3"/><line class="cls-4" x1="47.44" y1="69.97" x2="47.98" y2="54.94"/><line class="cls-4" x1="37.13" y1="61.05" x2="42.42" y2="53.1"/><line class="cls-4" x1="27.04" y1="52.92" x2="37.81" y2="48.16"/><line class="cls-4" x1="33.33" y1="37.24" x2="37.29" y2="38.73"/><circle class="cls-4" cx="31.15" cy="36.41" r="2.34" transform="translate(-10.03 11.91) rotate(-18.7)"/><circle class="cls-4" cx="34.94" cy="16.4" r="2.98" transform="matrix(0.95, -0.32, 0.32, 0.95, -3.41, 12.07)"/><circle class="cls-4" cx="72.54" cy="48.97" r="4" transform="translate(-11.87 25.84) rotate(-18.7)"/><circle class="cls-4" cx="23.35" cy="54.47" r="4" transform="translate(-16.23 10.36) rotate(-18.7)"/><circle class="cls-4" cx="65.51" cy="23.21" r="2.98" transform="translate(-3.98 22.23) rotate(-18.7)"/><circle class="cls-4" cx="60.22" cy="61.73" r="2.41" transform="translate(-16.61 22.57) rotate(-18.7)"/><circle class="cls-4" cx="50.34" cy="19.84" r="1.99" transform="translate(-3.7 17.19) rotate(-18.7)"/><circle class="cls-4" cx="35.98" cy="62.65" r="1.99" transform="translate(-18.19 14.85) rotate(-18.7)"/><circle class="cls-4" cx="76.16" cy="38.52" r="1.99" transform="translate(-8.33 26.45) rotate(-18.7)"/><circle class="cls-4" cx="47.19" cy="72.52" r="2.54" transform="translate(-20.76 18.96) rotate(-18.7)"/><circle class="cls-4" cx="48.94" cy="42.67" r="12.3" transform="matrix(0.95, -0.32, 0.32, 0.95, -11.1, 17.94)"/></svg>