<svg id="Layer_1" data-name="Layer 1" xmlns="http://www.w3.org/2000/svg" viewBox="0 0 146.88 106.34"><defs><style>.cls-1{fill:none;}.cls-1,.cls-2{stroke:#582c83;stroke-linecap:round;stroke-linejoin:round;stroke-width:1.5px;}.cls-2{fill:#7edef3;}</style></defs><title>icon</title><path class="cls-1" d="M96.82,64l5.24-11.13s1.47-3.65,6-2.07,1.58,8.63,1.58,8.63Z"/><path class="cls-2" d="M88.57,54.76c-2,4.24-6.41,2.76-6.41,2.76l-17-5.9a8.32,8.32,0,0,0-4.45-.39c6,8.77,18.68,15.25,18.68,15.25s18.86-9.66,21.5-21.33-3.53-16.77-3.53-16.77-3.28-4.53-10.48-2.71-7.49,10.95-7.49,10.95-.29-9.12-7.49-10.94S61.42,28.4,61.42,28.4s-3.35,2.76-4.06,8.9L85.82,48.18S90.63,50.39,88.57,54.76Z"/><path class="cls-1" d="M35.27,73.7s2.88-2.43,8.12-.45,31.23,8.81,31.23,8.81,6.14,1.86,10.35,0,31-11.87,31-11.87,6.48-2.13,4.6-8.39c-1.06-3.45-5.43-3.57-5.43-3.57a10.17,10.17,0,0,0-3.85.63L86.9,67.49a7.69,7.69,0,0,1-5.31-.19c-2.94-1.14-21.43-7.51-21.43-7.51s-3.65-1.47-2.17-6a3.74,3.74,0,0,1,2.72-2.63"/><path class="cls-1" d="M57.37,37.29l-1.49-.57s-7.68-2.88-13.24.57-18,11.9-18,11.9"/></svg>