<svg id="Layer_1" data-name="Layer 1" xmlns="http://www.w3.org/2000/svg" viewBox="0 0 146.88 106.34"><defs><style>.cls-1{fill:#7edef3;}.cls-1,.cls-2,.cls-4{stroke:#582c83;stroke-linecap:round;stroke-linejoin:round;stroke-width:1.5px;}.cls-2{fill:#ede1ee;}.cls-3{fill:#582c83;}.cls-4{fill:none;}</style></defs><title>owh-icons</title><circle class="cls-1" cx="66.48" cy="44.51" r="8.99"/><path class="cls-1" d="M98.13,43.58a31.86,31.86,0,0,0-63.64-1.25H34.4v.88A25.65,25.65,0,0,1,32,53.15c-1.4,2.69-2.87,5.32-4.07,7.18a2.75,2.75,0,0,0,2.32,4.24H34.4v15.3a5.59,5.59,0,0,0,5.6,5.6h8.72v7.67a2.11,2.11,0,0,0,2.81,2l36.7-12.51a3.16,3.16,0,0,0,2.15-3V65.29A31.72,31.72,0,0,0,98.13,43.58ZM87,48.16l-4.09.69a16.46,16.46,0,0,1-1.83,4.41l2.4,3.36a1.59,1.59,0,0,1-.17,2l-1.45,1.45-1.45,1.45a1.59,1.59,0,0,1-2,.17L75,59.34a17,17,0,0,1-4.29,1.79l-.66,4.12a1.56,1.56,0,0,1-1.54,1.3H64.44a1.56,1.56,0,0,1-1.54-1.3l-.68-4.06a17.17,17.17,0,0,1-4.41-1.79L54.4,61.82a1.59,1.59,0,0,1-2-.17L50.92,60.2l-1.45-1.45a1.59,1.59,0,0,1-.17-2l2.38-3.35A16.45,16.45,0,0,1,49.82,49l-4.12-.69a1.56,1.56,0,0,1-1.3-1.54V42.65a1.55,1.55,0,0,1,1.3-1.54l4.06-.64a17.17,17.17,0,0,1,1.79-4.41l-2.42-3.41a1.59,1.59,0,0,1,.17-2l1.45-1.45,1.45-1.45a1.59,1.59,0,0,1,2-.17l3.35,2.38A15.72,15.72,0,0,1,62.09,28l.69-4.09a1.56,1.56,0,0,1,1.54-1.3h4.09a1.55,1.55,0,0,1,1.54,1.3L70.64,28a16.46,16.46,0,0,1,4.41,1.83l3.36-2.4a1.61,1.61,0,0,1,2,.14L81.88,29l1.45,1.45a1.59,1.59,0,0,1,.17,2l-2.4,3.38a16.68,16.68,0,0,1,1.83,4.41L87,41a1.56,1.56,0,0,1,1.3,1.54v4.09A1.57,1.57,0,0,1,87,48.16Z"/><path class="cls-2" d="M105.82,38.24l17.24,31.6a2.68,2.68,0,0,1,0,2.83,2.87,2.87,0,0,1-1,1,2.8,2.8,0,0,1-1.43.38H86.07a2.8,2.8,0,0,1-1.43-.38,2.84,2.84,0,0,1-1-1,2.68,2.68,0,0,1,0-2.83l17.24-31.6a2.86,2.86,0,0,1,1.05-1.1,2.83,2.83,0,0,1,2.92,0A2.86,2.86,0,0,1,105.82,38.24Z"/><path class="cls-3" d="M103.3,67.81a1.26,1.26,0,1,1,1.26-1.26A1.26,1.26,0,0,1,103.3,67.81Z"/><line class="cls-4" x1="103.3" y1="61.22" x2="103.3" y2="50.06"/></svg>