<svg id="Layer_1" data-name="Layer 1" xmlns="http://www.w3.org/2000/svg" viewBox="0 0 146.88 106.34"><defs><style>.cls-1{fill:none;}.cls-1,.cls-2,.cls-4{stroke:#582c83;stroke-width:1.5px;}.cls-1,.cls-4{stroke-linecap:round;stroke-linejoin:round;}.cls-2{fill:#bfeff9;stroke-miterlimit:10;}.cls-3{fill:#582c83;}.cls-4{fill:#ede1ee;}</style></defs><title>bridged-race-icon</title><line class="cls-1" x1="82.96" y1="42.09" x2="82.96" y2="62.89"/><path class="cls-1" d="M92.83,52A9.87,9.87,0,0,1,83,42.09"/><line class="cls-1" x1="63.23" y1="42.09" x2="63.23" y2="62.89"/><path class="cls-1" d="M82.92,42.09a9.87,9.87,0,0,1-19.74,0"/><path class="cls-1" d="M63.23,42.09A9.87,9.87,0,0,1,53.36,52"/><line class="cls-1" x1="92.83" y1="57.17" x2="53.36" y2="57.17"/><line class="cls-1" x1="73.05" y1="57.17" x2="73.05" y2="51.96"/><path class="cls-2" d="M61.63,67.5c-1.74-1.74-4.66-3.27-9.26-5.57-2.32-1.16-6.18-3.09-7.11-4,3.92-4.82,6.19-10.25,6.19-15,0-3.23,0-7.25-1.81-10.84C48,28.88,44.36,25,36.26,25S24.52,28.88,22.89,32.1c-1.81,3.59-1.81,7.61-1.81,10.84,0,4.76,2.27,10.2,6.19,15-.94.89-4.8,2.81-7.12,4-4.6,2.3-7.52,3.82-9.26,5.57C7,71.36,6.74,77.85,6.72,79.11a4.92,4.92,0,0,0,4.92,5H60.88a4.92,4.92,0,0,0,4.92-5c0-1.26-.31-7.75-4.18-11.61ZM61.76,80"/><circle class="cls-3" cx="36.23" cy="78.11" r="1.12"/><circle class="cls-3" cx="46.02" cy="78.11" r="1.12"/><circle class="cls-3" cx="55.8" cy="78.11" r="1.12"/><circle class="cls-3" cx="26.44" cy="78.11" r="1.12"/><circle class="cls-3" cx="16.66" cy="78.11" r="1.12"/><circle class="cls-3" cx="30.87" cy="72.01" r="1.12"/><circle class="cls-3" cx="40.65" cy="72.01" r="1.12"/><circle class="cls-3" cx="50.44" cy="72.01" r="1.12"/><circle class="cls-3" cx="60.23" cy="72.01" r="1.12"/><circle class="cls-3" cx="21.08" cy="72.01" r="1.12"/><circle class="cls-3" cx="11.29" cy="72.01" r="1.12"/><circle class="cls-3" cx="36.23" cy="65.3" r="1.12"/><circle class="cls-3" cx="46.02" cy="65.3" r="1.12"/><circle class="cls-3" cx="55.8" cy="65.3" r="1.12"/><circle class="cls-3" cx="26.44" cy="65.3" r="1.12"/><circle class="cls-3" cx="16.66" cy="65.3" r="1.12"/><circle class="cls-3" cx="30.87" cy="59.19" r="1.12"/><circle class="cls-3" cx="40.65" cy="59.19" r="1.12"/><circle class="cls-3" cx="36.23" cy="52.49" r="1.12"/><circle class="cls-3" cx="46.02" cy="52.49" r="1.12"/><circle class="cls-3" cx="26.44" cy="52.49" r="1.12"/><circle class="cls-3" cx="30.87" cy="46.38" r="1.12"/><circle class="cls-3" cx="40.65" cy="46.38" r="1.12"/><circle class="cls-3" cx="30.87" cy="33.57" r="1.12"/><path class="cls-3" d="M40.75,32.45h-.1a1.12,1.12,0,0,0,0,2.25h.1a1.12,1.12,0,0,0,0-2.25Z"/><circle class="cls-3" cx="46.02" cy="39.68" r="1.12"/><circle class="cls-3" cx="26.44" cy="39.68" r="1.12"/><path class="cls-3" d="M36.23,38.48a1.12,1.12,0,0,0-1.12,1.12s0,0,0,0,0,0,0,0a1.12,1.12,0,1,0,2.25,0s0,0,0,0,0,0,0,0A1.12,1.12,0,0,0,36.23,38.48Z"/><circle class="cls-3" cx="36.23" cy="26.79" r="1.12"/><path class="cls-4" d="M135.6,67.5c-1.74-1.74-4.66-3.27-9.26-5.57-2.32-1.16-6.18-3.09-7.11-4,3.92-4.82,6.19-10.25,6.19-15,0-3.23,0-7.25-1.81-10.84C122,28.88,118.34,25,110.24,25S98.5,28.88,96.87,32.1c-1.81,3.59-1.81,7.61-1.81,10.84,0,4.76,2.27,10.2,6.19,15-.94.89-4.8,2.81-7.12,4-4.6,2.3-7.52,3.82-9.26,5.57C81,71.36,80.72,77.85,80.7,79.11a4.92,4.92,0,0,0,4.92,5h49.23a4.92,4.92,0,0,0,4.92-5c0-1.26-.31-7.75-4.18-11.61ZM135.73,80"/><line class="cls-1" x1="113.46" y1="25.26" x2="95.42" y2="43.3"/><line class="cls-1" x1="121.09" y1="29.5" x2="97.89" y2="52.7"/><line class="cls-1" x1="124.65" y1="37.81" x2="82.03" y2="80.44"/><line class="cls-1" x1="123.14" y1="51.2" x2="90.26" y2="84.07"/><line class="cls-1" x1="124.68" y1="61.52" x2="102.39" y2="83.81"/><line class="cls-1" x1="131.78" y1="66.29" x2="114.19" y2="83.88"/><line class="cls-1" x1="137.78" y1="72.16" x2="126.04" y2="83.91"/></svg>