<svg id="Layer_1" data-name="Layer 1" xmlns="http://www.w3.org/2000/svg" viewBox="0 0 146.88 106.34"><defs><style>.cls-1{fill:#ede1ee;}.cls-1,.cls-2,.cls-3,.cls-4,.cls-5{stroke:#582c83;stroke-width:1.5px;}.cls-1,.cls-2,.cls-4,.cls-5{stroke-linecap:round;stroke-linejoin:round;}.cls-2{fill:#ccabd1;}.cls-3{fill:#bfeff9;stroke-miterlimit:10;}.cls-4{fill:none;}.cls-5{fill:#fff;}</style></defs><title>owh-icons</title><g id="layer1"><path id="path4388" class="cls-1" d="M77.18,13.16S81,15.38,75,27c-2.55,4.27-7.19,10.84-12.91,18.86L72.65,61c6.2-9.21,11.53-17.54,13.9-22.51C92.72,25.61,79.13,15.09,77.18,13.16Z"/><path id="path4388-2" data-name="path4388" class="cls-1" d="M51.41,60.8,35.82,83,46.4,99s8.89-12.75,15.68-22.51Z"/><path id="path4388-3" data-name="path4388" class="cls-2" d="M49.17,26.83c4.62-1.75,9.65-3,13.11-3S70.53,25.2,75,27h0c6-11.58,2.18-13.8,2.18-13.8l-2.05-1.34A25.79,25.79,0,0,0,62.52,8.3,23.72,23.72,0,0,0,48.45,12l-1.51,1s-2.55,5.35,2.23,13.8Z"/><path id="path4388-4" data-name="path4388" class="cls-1" d="M46.93,13C45,15,31.4,25.48,37.56,38.36s40.2,60.48,40.2,60.48l10.58-16S56,38.32,49.17,26.83C44.38,18.38,46.93,13,46.93,13Z"/></g><rect class="cls-3" x="81.55" y="56.83" width="35.75" height="35.75" rx="5.52" ry="5.52"/><polyline class="cls-4" points="112.66 68.5 100.56 80.6 89.36 69.39 81.55 77.21"/><polyline class="cls-4" points="106.59 68.48 112.66 68.48 112.66 74.55"/><circle class="cls-5" cx="89.25" cy="69.28" r="3.08"/><circle class="cls-5" cx="100.57" cy="80.59" r="3.08"/></svg>