<svg id="Layer_1" data-name="Layer 1" xmlns="http://www.w3.org/2000/svg" viewBox="0 0 146.88 106.34"><defs><style>.cls-1{fill:#bfeff9;}.cls-1,.cls-2,.cls-3,.cls-4{stroke:#582c83;stroke-linejoin:round;stroke-width:1.5px;}.cls-2{fill:#7edef3;}.cls-2,.cls-3,.cls-4{stroke-linecap:round;}.cls-3{fill:#ede1ee;}.cls-4{fill:none;}</style></defs><title>owh-icons</title><g id="layer1"><path id="path4388" class="cls-1" d="M77.24,13.17S81,15.39,75.06,27c-2.56,4.27-7.2,10.85-12.93,18.88L72.71,61.08c6.21-9.23,11.55-17.56,13.92-22.55C92.8,25.63,79.19,15.1,77.24,13.17Z"/><path id="path4388-2" data-name="path4388" class="cls-1" d="M51.43,60.87,35.82,83.08l10.6,16s8.9-12.77,15.71-22.54Z"/><path id="path4388-3" data-name="path4388" class="cls-2" d="M49.19,26.86c4.63-1.75,9.67-3,13.13-3S70.58,25.23,75.06,27h0c6-11.6,2.19-13.82,2.19-13.82l-2.06-1.34A25.83,25.83,0,0,0,62.56,8.3,23.76,23.76,0,0,0,48.47,12L47,13s-2.56,5.36,2.24,13.82Z"/><path id="path4388-4" data-name="path4388" class="cls-1" d="M47,13C45,15,31.39,25.5,37.57,38.4S77.83,99,77.83,99l10.6-16S56,38.36,49.19,26.86C44.39,18.4,47,13,47,13Z"/></g><path class="cls-3" d="M98.69,96.46S80.59,87.2,78.05,76s3.39-16.1,3.39-16.1,3.15-4.35,10.06-2.6,7.19,10.5,7.19,10.5S99,59,105.87,57.29s10.06,2.6,10.06,2.6,5.93,4.89,3.39,16.1S98.69,96.46,98.69,96.46Z"/><polyline class="cls-4" points="78.39 77.19 86.43 77.19 88.53 64.92 90.8 84.38 94.06 73.41 95.29 77.19 113.72 77.19"/></svg>