<svg id="Layer_1" data-name="Layer 1" xmlns="http://www.w3.org/2000/svg" viewBox="0 0 146.88 106.34"><defs><style>.cls-1{fill:none;}.cls-1,.cls-2,.cls-3,.cls-4{stroke:#582c83;stroke-width:1.5px;}.cls-1,.cls-2,.cls-3{stroke-linecap:round;stroke-linejoin:round;}.cls-2{fill:#ede1ee;}.cls-3{fill:#bd92c3;}.cls-4{fill:#7edef3;stroke-miterlimit:10;}</style></defs><title>owh-icons</title><path class="cls-1" d="M57.52,73.65H29.36A2.63,2.63,0,0,1,26.74,71V55.66L40.59,41.81l10,10L64.27,38.15,74.83,48.7,88.62,34.91,98.93,45.23l13.36-13.52V16.19a2.63,2.63,0,0,0-2.62-2.62H29.36a2.63,2.63,0,0,0-2.62,2.62v27"/><path class="cls-1" d="M112.29,44V71a2.63,2.63,0,0,1-2.62,2.62H82"/><path class="cls-2" d="M100.24,93.45S81.63,83.92,79,72.4s3.49-16.56,3.49-16.56,3.24-4.47,10.34-2.67S100.24,64,100.24,64s.28-9,7.39-10.8S118,55.84,118,55.84s6.09,5,3.49,16.56S100.24,93.45,100.24,93.45Z"/><polyline class="cls-1" points="83.37 73.64 87.64 73.64 89.8 61.02 92.13 81.03 95.48 69.75 96.75 73.64 115.73 73.64"/><line class="cls-1" x1="69.65" y1="63.88" x2="69.65" y2="73.65"/><path class="cls-3" d="M74.25,73.65V88.32a4.54,4.54,0,0,1-4.53,4.53h0a4.54,4.54,0,0,1-4.53-4.53V73.65Z"/><circle class="cls-1" cx="69.65" cy="43.22" r="20.66"/><path class="cls-4" d="M83.69,43.22a14,14,0,1,1-14-14A14,14,0,0,1,83.69,43.22Zm-14-20.66A20.66,20.66,0,1,0,90.31,43.22,20.66,20.66,0,0,0,69.65,22.56Z"/></svg>