<svg id="Layer_1" data-name="Layer 1" xmlns="http://www.w3.org/2000/svg" viewBox="0 0 146.88 106.34"><defs><style>.cls-1{fill:#ede1ee;}.cls-1,.cls-2{stroke:#582c83;stroke-linecap:round;stroke-linejoin:round;stroke-width:1.5px;}.cls-2{fill:#ccabd1;}</style></defs><title>icon</title><g id="layer1"><path id="path4388" class="cls-1" d="M88.78,14s3.78,2.22-2.18,13.8C84,32.1,79.4,38.68,73.69,46.69L84.25,61.88c6.2-9.21,11.53-17.54,13.9-22.51C104.32,26.48,90.72,16,88.78,14Z"/><path id="path4388-2" data-name="path4388" class="cls-1" d="M63,61.67,47.41,83.84,58,99.84s8.89-12.75,15.68-22.51Z"/><path id="path4388-3" data-name="path4388" class="cls-2" d="M60.76,27.7c4.62-1.75,9.65-3,13.11-3s8.25,1.35,12.72,3.11h0c6-11.58,2.18-13.8,2.18-13.8l-2.05-1.34A25.79,25.79,0,0,0,74.12,9.17,23.72,23.72,0,0,0,60,12.88l-1.51,1S56,19.25,60.76,27.7Z"/><path id="path4388-4" data-name="path4388" class="cls-1" d="M58.53,13.9C56.59,15.83,43,26.35,49.16,39.23s40.2,60.48,40.2,60.48l10.58-16s-32.34-44.52-39.18-56C56,19.25,58.53,13.9,58.53,13.9Z"/></g></svg>