<svg id="Layer_1" data-name="Layer 1" xmlns="http://www.w3.org/2000/svg" viewBox="0 0 146.88 106.34"><defs><style>.cls-1{fill:none;}.cls-1,.cls-2,.cls-3,.cls-4{stroke:#582c83;stroke-width:1.5px;}.cls-1,.cls-3,.cls-4{stroke-linecap:round;stroke-linejoin:round;}.cls-2{fill:#bfeff9;stroke-miterlimit:10;}.cls-3{fill:#fff;}.cls-4{fill:#ede1ee;}.cls-5{fill:#582c83;}</style></defs><title>infant-mortality-icon</title><path class="cls-1" d="M61.14,15.38c-2.16-1.08-3.45-2.44-3.45-3.93,0-3.48,7.08-6.3,15.82-6.3S89.33,8,89.33,11.45c0,1.43-1.19,2.75-3.21,3.8"/><path class="cls-2" d="M73.51,18.06c7.57,0,14.33,3.36,18.09,9,7.19,10.78.54,22.54-2.15,26.59a7.52,7.52,0,0,0-.31,7.92c.12.17,13.07,16.15,3.56,30.42-4,6-11.16,9.55-19.19,9.55h0c-8,0-15.21-3.57-19.19-9.55-9.51-14.26,3.44-30.24,3.56-30.42a7.52,7.52,0,0,0-.31-7.92c-2.69-4-9.34-15.81-2.15-26.59C59.18,21.42,65.94,18.06,73.51,18.06Z"/><path class="cls-1" d="M73.52,59.53a24.69,24.69,0,0,1,0,29.57"/><path class="cls-3" d="M73.51,59.53a82.3,82.3,0,0,0-5.75-6.2c-4.85-4.84-8.68-8.67-8.68-15.32a14.43,14.43,0,0,1,28.86,0c0,6.66-3.83,10.48-8.68,15.32A82.51,82.51,0,0,0,73.51,59.53Z"/><path class="cls-1" d="M66.27,35.78a2.44,2.44,0,0,1,4.87,0"/><path class="cls-1" d="M75.87,35.78a2.44,2.44,0,0,1,4.87,0"/><path class="cls-4" d="M67,45.1c0-4.22,3.38-4.35,3.77-4.35a2.48,2.48,0,0,1,1.11.28,3.77,3.77,0,0,0,3.29,0,2.49,2.49,0,0,1,1.11-.28c.39,0,3.77.12,3.77,4.35s-3.38,4.35-3.77,4.35a2.49,2.49,0,0,1-1.11-.28,3.77,3.77,0,0,0-3.29,0,2.48,2.48,0,0,1-1.11.28C70.37,49.45,67,49.33,67,45.1Z"/><circle class="cls-5" cx="73.51" cy="45.1" r="1.03"/></svg>