<svg id="Layer_1" data-name="Layer 1" xmlns="http://www.w3.org/2000/svg" viewBox="0 0 146.88 106.34"><defs><style>.cls-1{fill:none;}.cls-1,.cls-2,.cls-3,.cls-4{stroke:#582c83;stroke-width:1.5px;}.cls-1,.cls-3,.cls-4{stroke-linecap:round;stroke-linejoin:round;}.cls-2{fill:#bfeff9;stroke-miterlimit:10;}.cls-3{fill:#fff;}.cls-4{fill:#ede1ee;}.cls-5{fill:#582c83;}</style></defs><title>owh-icons</title><path class="cls-1" d="M49.55,14.86c-2.18-1.09-3.48-2.46-3.48-4,0-3.51,7.15-6.36,16-6.36S78,7.38,78,10.9c0,1.44-1.2,2.77-3.23,3.84"/><path class="cls-2" d="M62,17.57c7.64,0,14.46,3.39,18.25,9.08,7.25,10.88.55,22.75-2.17,26.83a7.58,7.58,0,0,0-.32,8c.12.17,13.19,16.3,3.59,30.69-4,6-11.26,9.64-19.36,9.64h0c-8.1,0-15.34-3.6-19.36-9.64-9.6-14.39,3.47-30.52,3.59-30.69a7.58,7.58,0,0,0-.32-8c-2.71-4.08-9.42-15.95-2.17-26.83C47.57,21,54.39,17.57,62,17.57Z"/><path class="cls-1" d="M62,59.41a24.91,24.91,0,0,1,0,29.84"/><path class="cls-3" d="M62,59.41a83,83,0,0,0-5.81-6.25c-4.89-4.88-8.75-8.74-8.75-15.46a14.56,14.56,0,1,1,29.12,0c0,6.72-3.86,10.58-8.76,15.46A83.25,83.25,0,0,0,62,59.41Z"/><path class="cls-1" d="M54.73,35.45a2.46,2.46,0,1,1,4.92,0"/><path class="cls-1" d="M64.41,35.45a2.46,2.46,0,0,1,4.92,0"/><path class="cls-4" d="M55.45,44.85c0-4.26,3.41-4.39,3.8-4.39a2.51,2.51,0,0,1,1.12.28,3.8,3.8,0,0,0,3.32,0,2.51,2.51,0,0,1,1.12-.28c.39,0,3.8.12,3.8,4.39s-3.41,4.39-3.8,4.39A2.51,2.51,0,0,1,63.69,49a3.8,3.8,0,0,0-3.32,0,2.51,2.51,0,0,1-1.12.28C58.87,49.24,55.45,49.12,55.45,44.85Z"/><path class="cls-5" d="M62,45.89a1,1,0,1,1,1-1A1,1,0,0,1,62,45.89Z"/><path class="cls-4" d="M98.21,99.55s-18.41-9.42-21-20.82,3.45-16.37,3.45-16.37,3.2-4.42,10.23-2.64,7.31,10.68,7.31,10.68.28-8.9,7.31-10.68,10.23,2.64,10.23,2.64,6,5,3.45,16.37S98.21,99.55,98.21,99.55Z"/><polyline class="cls-1" points="77.57 79.96 85.75 79.96 87.89 67.48 90.19 87.27 93.5 76.11 94.76 79.96 113.52 79.96"/></svg>