<svg id="Layer_1" data-name="Layer 1" xmlns="http://www.w3.org/2000/svg" viewBox="0 0 146.88 106.34"><defs><style>.cls-1{fill:none;}.cls-1,.cls-2,.cls-3{stroke:#582c83;stroke-width:1.5px;}.cls-1,.cls-2{stroke-linecap:round;stroke-linejoin:round;}.cls-2{fill:#bd92c3;}.cls-3{fill:#7edef3;stroke-miterlimit:10;}</style></defs><title>icon</title><path class="cls-1" d="M60.71,73.67H32.53a2.63,2.63,0,0,1-2.62-2.62V55.68L43.77,41.82l10,10L67.47,38.16,78,48.72l13.8-13.8,10.32,10.32,13.37-13.53V16.19a2.63,2.63,0,0,0-2.62-2.62H32.53a2.63,2.63,0,0,0-2.62,2.62v27"/><path class="cls-1" d="M115.51,44v27a2.63,2.63,0,0,1-2.62,2.62H85.18"/><line class="cls-1" x1="72.84" y1="63.9" x2="72.84" y2="73.67"/><path class="cls-2" d="M77.45,73.67V88.36a4.54,4.54,0,0,1-4.53,4.53h0a4.54,4.54,0,0,1-4.53-4.53V73.67Z"/><circle class="cls-1" cx="72.84" cy="43.23" r="20.67"/><path class="cls-3" d="M86.9,43.23A14.06,14.06,0,1,1,72.84,29.18,14.06,14.06,0,0,1,86.9,43.23ZM72.84,22.56A20.67,20.67,0,1,0,93.51,43.23,20.67,20.67,0,0,0,72.84,22.56Z"/></svg>