<svg id="Layer_1" data-name="Layer 1" xmlns="http://www.w3.org/2000/svg" viewBox="0 0 146.88 106.34"><defs><style>.cls-1{fill:none;}.cls-1,.cls-2,.cls-3,.cls-4{stroke:#582c83;stroke-width:1.5px;}.cls-1,.cls-2,.cls-4{stroke-linecap:round;stroke-linejoin:round;}.cls-2{fill:#bd92c3;}.cls-3{fill:#7edef3;stroke-miterlimit:10;}.cls-4{fill:#ede1ee;}</style></defs><title>owh-icons</title><path class="cls-1" d="M52.69,73.65H24.52A2.63,2.63,0,0,1,21.9,71V55.66L35.76,41.81l10,10L59.44,38.15,70,48.7,83.78,34.91,94.1,45.23l13.36-13.52V16.19a2.63,2.63,0,0,0-2.62-2.62H24.52a2.63,2.63,0,0,0-2.62,2.62v27"/><path class="cls-1" d="M107.46,44V71a2.63,2.63,0,0,1-2.62,2.62H77.15"/><line class="cls-1" x1="64.81" y1="63.88" x2="64.81" y2="73.65"/><path class="cls-2" d="M69.42,73.65V88.32a4.54,4.54,0,0,1-4.53,4.53h0a4.54,4.54,0,0,1-4.53-4.53V73.65Z"/><circle class="cls-1" cx="64.81" cy="43.22" r="20.66"/><path class="cls-3" d="M78.86,43.22a14,14,0,1,1-14-14A14,14,0,0,1,78.86,43.22Zm-14-20.66A20.66,20.66,0,1,0,85.47,43.22,20.66,20.66,0,0,0,64.81,22.56Z"/><path class="cls-4" d="M107.46,93.45S88.85,83.92,86.24,72.4s3.49-16.56,3.49-16.56,3.24-4.47,10.34-2.67S107.46,64,107.46,64s.28-9,7.39-10.8,10.34,2.67,10.34,2.67,6.09,5,3.49,16.56S107.46,93.45,107.46,93.45Z"/><polyline class="cls-1" points="86.59 73.64 94.86 73.64 97.02 61.02 99.34 81.03 102.7 69.75 103.97 73.64 122.95 73.64"/></svg>