<svg id="Layer_1" data-name="Layer 1" xmlns="http://www.w3.org/2000/svg" viewBox="0 0 146.88 106.34"><defs><style>.cls-1{fill:#7edef3;stroke-miterlimit:10;}.cls-1,.cls-2,.cls-3,.cls-4{stroke:#582c83;stroke-width:1.5px;}.cls-2{fill:#fff;}.cls-2,.cls-3,.cls-4{stroke-linecap:round;stroke-linejoin:round;}.cls-3{fill:#ccabd1;}.cls-4{fill:none;}</style></defs><title>icon</title><path class="cls-1" d="M82,43.36h6.49s14,1.06,16,11.32,4.64,25.84,4.64,25.84.82,4.8-4.64,7.21c0,0-19.08,9.93-22.89,11.21s-9.62.76-14.53-.45S41.76,87.73,41.76,87.73c-5.45-2.41-4.64-7.21-4.64-7.21s2.64-15.59,4.64-25.84,16-11.32,16-11.32h6.38"/><path class="cls-2" d="M77.06,87.49c3.49-1.58,10.81-6.21,12.74-10.3.87-1.83.94-3.64,2.2-4,2.55-.67,6.5-2.51,7.14-7.51,1-7.48-6.64-10.07-6.64-10.07A9.9,9.9,0,0,0,83,57.2C78.14,60.83,78.14,67,78.14,67a4.51,4.51,0,0,0,2.14,4.15,11.42,11.42,0,0,1-5,1.06C72.66,72,64.33,60.87,64.33,60.87s-2.33-3-5-.83c-1.59,1.34-.05,4.71.58,6C61.32,68.79,66.23,74,66.23,74L51.45,77.71l20,9.78A8.09,8.09,0,0,0,77.06,87.49Z"/><path class="cls-3" d="M59.66,32.79a35.13,35.13,0,0,0,4.6,10.58h-.12a23.07,23.07,0,0,1-15.75-5.52s3.53-2.5,4.89-9.34S57.63,7.19,73,7.19,90.2,21.66,90.2,21.66,91,29,86.62,32.79c0,0,.45-3.31-3.35-5.35-2.74-1.47-3.6-6.77-3.6-6.77s-2,14.84-20,12.12"/><path class="cls-2" d="M59.66,32.79S63.37,48.88,73,48.88,86.62,32.79,86.62,32.79s.45-3.31-3.35-5.35c-2.74-1.47-3.6-6.77-3.6-6.77S77.71,35.51,59.66,32.79Z"/><path class="cls-4" d="M69.44,86.5s8.67,4.76,26.2,5.55"/></svg>