<svg id="Layer_1" data-name="Layer 1" xmlns="http://www.w3.org/2000/svg" viewBox="0 0 146.88 106.34"><defs><style>.cls-1{fill:#ede1ee;}.cls-1,.cls-2,.cls-3,.cls-4,.cls-5{stroke:#582c83;stroke-width:1.5px;}.cls-1,.cls-2,.cls-3,.cls-4{stroke-linecap:round;stroke-linejoin:round;}.cls-2{fill:#fff;}.cls-3{fill:none;}.cls-4{fill:#d1eefc;}.cls-5{fill:#bfeff9;stroke-miterlimit:10;}.cls-6{fill:#582c83;}</style></defs><title>owh-icons</title><path class="cls-1" d="M67.82,86.8c-37.43,0-52.17-27.59-52.17-27.59-2.39-3.36.69-6.5.69-6.5L49.49,22.56a4.38,4.38,0,0,1,5.77,0s5.37,6,12.71,6h-.33c7.34,0,12.71-6,12.71-6a4.38,4.38,0,0,1,5.77,0L119.3,52.71s3.08,3.14.69,6.5C120,59.21,104.44,86.8,67.82,86.8Z"/><path class="cls-2" d="M48,56.19a10.24,10.24,0,0,1,4.38-2.46c3.85-1,5.88.9,5.88.9a6.34,6.34,0,0,1,1.68,2.76,4.93,4.93,0,0,1,.26-.43,16,16,0,0,1,8.24-5h0a13.59,13.59,0,0,1-.66-2.42c-1-4.67.17-10.6,4.32-13.49s10-1.72,10-1.72,6.36,1.34,8,6.53a14.14,14.14,0,0,1-.39,9.79c-.51,1.6-3.05,5.18-2.84,7.34a13.78,13.78,0,0,1-1,5.54s-1.56,4.36-7.06,8.26Q77.89,72.42,77,73a34.89,34.89,0,0,1-14.47,5.25c-4.31.48-9.3-.67-11.48-4.8a12.81,12.81,0,0,1-.78-9.22h0a10.12,10.12,0,0,1-5.16,1,4.58,4.58,0,0,1-4.32-3.78s-.62-3.9,1.25-6.38,4.05-1.33,4.05-1.33A3.47,3.47,0,0,1,48,56.19Z"/><path class="cls-3" d="M77,63s-8.4,3.52-14.39,1.26S60.16,57,60.16,57a16,16,0,0,1,8.24-5"/><path class="cls-3" d="M46.28,58.11a11.32,11.32,0,0,1,6.06-4.38c3.85-1,5.88.9,5.88.9a6.34,6.34,0,0,1,1.68,2.76"/><path class="cls-4" d="M59.85,62.3a5.51,5.51,0,0,1-.78,3.47"/><path class="cls-3" d="M80.83,45.12s2,.19,2,1.77a2.21,2.21,0,0,1-1,2.06,4.43,4.43,0,0,1-1.39.62"/><path class="cls-3" d="M51.15,61.72s-3.05,6.14-.1,11.71c2.19,4.12,7.17,5.28,11.48,4.8A34.89,34.89,0,0,0,77,73q.89-.56,1.74-1.16c5.5-3.9,7.06-8.26,7.06-8.26a13.78,13.78,0,0,0,1-5.54c-.21-2.15,2.33-5.74,2.84-7.34a14.14,14.14,0,0,0,.39-9.79c-1.65-5.19-8-6.53-8-6.53s-5.74-1.24-10,1.72-5.29,8.82-4.32,13.49A13.59,13.59,0,0,0,68.4,52l.38.76c.77,1.55,2.17,1.92,3.33,2.37.7.27,2.31.72,2.31.72s-4.75.61-7.18,2.62"/><path class="cls-5" d="M132,59a3.93,3.93,0,0,1-1.47-4.53,4.52,4.52,0,0,0-4.29-5.91,3.93,3.93,0,0,1-3.85-2.8,4.52,4.52,0,0,0-6.95-2.26,3.93,3.93,0,0,1-4.76,0,4.52,4.52,0,0,0-6.95,2.26,3.93,3.93,0,0,1-3.85,2.8,4.52,4.52,0,0,0-4.29,5.91A3.93,3.93,0,0,1,94.08,59a4.52,4.52,0,0,0,0,7.31,3.93,3.93,0,0,1,1.47,4.53,4.52,4.52,0,0,0,4.29,5.91,3.93,3.93,0,0,1,3.85,2.8,4.32,4.32,0,0,0,2.9,2.89,5.39,5.39,0,0,0,1.67.3,4.5,4.5,0,0,0,2.41-.8,6.56,6.56,0,0,1,2.39-.94,3,3,0,0,1,2.39.69,4.23,4.23,0,0,0,4,.75,4.32,4.32,0,0,0,2.9-2.89,3.93,3.93,0,0,1,3.85-2.8,4.52,4.52,0,0,0,4.29-5.91A3.93,3.93,0,0,1,132,66.26,4.52,4.52,0,0,0,132,59Z"/><path class="cls-6" d="M113.56,73.12a1.28,1.28,0,1,1,1.28-1.28A1.28,1.28,0,0,1,113.56,73.12Z"/><line class="cls-3" x1="113.56" y1="65.54" x2="113.56" y2="53.36"/></svg>