<svg id="Layer_1" data-name="Layer 1" xmlns="http://www.w3.org/2000/svg" viewBox="0 0 146.88 106.34"><defs><style>.cls-1{fill:none;}.cls-1,.cls-2{stroke:#582c83;stroke-linecap:round;stroke-linejoin:round;stroke-width:1.5px;}.cls-2{fill:#bfeff9;}</style></defs><title>icon</title><path class="cls-1" d="M58.91,39.16a25.23,25.23,0,1,1,.27,11.23"/><line class="cls-1" x1="115.91" y1="11.93" x2="101.52" y2="26.32"/><polyline class="cls-1" points="103.39 11.93 115.91 11.93 115.91 24.45"/><circle class="cls-1" cx="64.81" cy="69.18" r="25.25" transform="translate(-29.93 66.09) rotate(-45)"/><line class="cls-1" x1="32.56" y1="36.93" x2="46.95" y2="51.32"/><line class="cls-1" x1="45.25" y1="37.51" x2="33.1" y2="49.66"/><path class="cls-2" d="M90.06,53.54l14.15,5.19V76c0,3.11-1.76,5.85-4.62,8.58a86,86,0,0,1-9.53,7.29,86,86,0,0,1-9.53-7.29c-2.86-2.73-4.62-5.47-4.62-8.58V58.73Z"/><line class="cls-1" x1="71.02" y1="53.66" x2="107.02" y2="89.66"/></svg>