<svg id="Layer_1" data-name="Layer 1" xmlns="http://www.w3.org/2000/svg" viewBox="0 0 146.88 106.34"><defs><style>.cls-1{fill:none;}.cls-1,.cls-2,.cls-3,.cls-4{stroke:#582c83;stroke-linecap:round;stroke-linejoin:round;stroke-width:1.5px;}.cls-2{fill:#7edef3;}.cls-3{fill:#bfeff9;}.cls-4{fill:#ede1ee;}</style></defs><title>owh-icons</title><path class="cls-1" d="M55.16,37.16a25.23,25.23,0,1,1,.27,11.23"/><line class="cls-1" x1="112.16" y1="9.93" x2="97.77" y2="24.32"/><polyline class="cls-1" points="99.64 9.93 112.16 9.93 112.16 22.45"/><circle class="cls-1" cx="61.06" cy="67.18" r="25.25" transform="translate(-29.62 62.85) rotate(-45)"/><line class="cls-1" x1="28.81" y1="34.93" x2="43.2" y2="49.32"/><line class="cls-1" x1="41.5" y1="35.51" x2="29.35" y2="47.66"/><path class="cls-2" d="M88.92,45.58l18.68,6.85V75.19c0,4.11-2.32,7.73-6.1,11.33C98,89.83,93.44,93,88.92,96.14,84.4,93,79.79,89.83,76.33,86.52c-3.77-3.6-6.1-7.22-6.1-11.33V52.43Z"/><path class="cls-3" d="M88.92,96.14C84.4,93,79.79,89.83,76.33,86.52c-3.77-3.6-6.1-7.22-6.1-11.33V52.43l18.68-6.85Z"/><circle class="cls-4" cx="108.45" cy="80.9" r="11.87"/><line class="cls-1" x1="112.73" y1="76.62" x2="104.17" y2="85.18"/><line class="cls-1" x1="104.17" y1="76.62" x2="112.73" y2="85.18"/></svg>