<svg id="Layer_1" data-name="Layer 1" xmlns="http://www.w3.org/2000/svg" viewBox="0 0 146.88 106.34"><defs><style>.cls-1{fill:#ede1ee;}.cls-1,.cls-3{stroke:#582c83;stroke-linecap:round;stroke-linejoin:round;stroke-width:1.5px;}.cls-2{fill:#582c83;}.cls-3{fill:none;}</style></defs><title>tuberculosis-icon</title><path class="cls-1" d="M62.4,34.2c-.64-3.55-2.51-12-10-12-14.92,0-30.9,29.19-30.9,49.74,0,7.24,1.2,16.87,11.57,16.87a25.38,25.38,0,0,0,7-1.14c7.7-2.22,23.73-6.84,23.73-23.15v-.82c0-7.32,0-14-.31-19.77A62.29,62.29,0,0,0,62.4,34.2Z"/><circle class="cls-2" cx="50.24" cy="36.6" r="1.02"/><circle class="cls-2" cx="51.55" cy="66.21" r="1.02"/><circle class="cls-2" cx="52.72" cy="49.22" r="1.02"/><circle class="cls-2" cx="40.82" cy="44.61" r="1.02"/><circle class="cls-2" cx="33.62" cy="62.22" r="1.02"/><circle class="cls-2" cx="43.79" cy="57.18" r="1.02"/><circle class="cls-2" cx="39.63" cy="73.42" r="1.02"/><path class="cls-3" d="M63.41,42.37a14.2,14.2,0,0,0,10.14-7.16"/><path class="cls-3" d="M70.2,19.82l-1.09,9.51s-1.26,5.8-6.34,6.61"/><path class="cls-1" d="M83.67,43.94c-.31,5.75-.31,12.45-.31,19.77v.82c0,16.31,16,20.93,23.73,23.15a25.38,25.38,0,0,0,7,1.14c10.37,0,11.57-9.63,11.57-16.87,0-20.55-16-49.74-30.9-49.74-7.54,0-9.41,8.45-10,12A62.29,62.29,0,0,0,83.67,43.94Z"/><circle class="cls-2" cx="96.88" cy="36.6" r="1.02"/><circle class="cls-2" cx="113.5" cy="62.22" r="1.02"/><circle class="cls-2" cx="95.57" cy="66.21" r="1.02"/><circle class="cls-2" cx="106.3" cy="44.61" r="1.02"/><circle class="cls-2" cx="107.49" cy="73.42" r="1.02"/><circle class="cls-2" cx="103.32" cy="57.18" r="1.02"/><circle class="cls-2" cx="94.4" cy="49.22" r="1.02"/><path class="cls-3" d="M83.7,42.37a14.2,14.2,0,0,1-10.14-7.16"/><path class="cls-3" d="M76.91,19.82,78,29.33s1.26,5.8,6.34,6.61"/></svg>