<svg id="Layer_1" data-name="Layer 1" xmlns="http://www.w3.org/2000/svg" viewBox="0 0 146.88 106.34"><defs><style>.cls-1{fill:#7edef3;stroke-miterlimit:10;}.cls-1,.cls-2,.cls-3,.cls-4,.cls-6{stroke:#582c83;stroke-width:1.5px;}.cls-2{fill:#ccabd1;}.cls-2,.cls-3,.cls-4,.cls-6{stroke-linecap:round;stroke-linejoin:round;}.cls-3{fill:#fff;}.cls-4{fill:#ede1ee;}.cls-5{fill:#582c83;}.cls-6{fill:none;}</style></defs><title>owh-icons</title><path class="cls-1" d="M54.22,70.67,32.68,79.59s-5.8,2.18-5.8,9.8h75.38c0-7.62-5.8-9.8-5.8-9.8L74.91,70.67a14.64,14.64,0,0,1-20.7,0"/><path class="cls-2" d="M71.3,16.51H69a7.89,7.89,0,0,0,2.31-5.58,19.06,19.06,0,0,1-13.5,5.58h0a9.77,9.77,0,0,0-9.77,9.77v9.59l2.79,2.79,2.55-8.2h0a15.8,15.8,0,0,0,22.34,0h0l2.55,8.2,2.79-2.79V26.28A9.77,9.77,0,0,0,71.3,16.51Z"/><path class="cls-3" d="M81.08,35.87l-2.79,2.79-2.55-8.2h0a15.79,15.79,0,0,1-22.34,0h0l-2.55,8.2-2.79-2.79h0a5.53,5.53,0,0,0-3.7,5.21c0,4.73,2.4,8.56,5.39,8.69,2.76,8.48,8.35,14.3,14.82,14.3s12.07-5.81,14.82-14.29c3-.14,5.39-4,5.39-8.7A5.54,5.54,0,0,0,81.08,35.87Z"/><path class="cls-3" d="M74.91,70.67a14.64,14.64,0,0,1-20.7,0,7.12,7.12,0,0,0,4.41-6.59V62.34a11.07,11.07,0,0,0,11.89,0v1.73a7.14,7.14,0,0,0,4.4,6.59Z"/><path class="cls-4" d="M105.22,59.07l18.37,33.67a2.86,2.86,0,0,1,0,3,3.06,3.06,0,0,1-1.11,1.1,3,3,0,0,1-1.52.41H84.18a3,3,0,0,1-1.52-.41,3,3,0,0,1-1.11-1.1,2.86,2.86,0,0,1,0-3L99.87,59.07A3,3,0,0,1,101,57.9a3,3,0,0,1,3.11,0A3,3,0,0,1,105.22,59.07Z"/><path class="cls-5" d="M102.54,90.44a1.23,1.23,0,1,1,1.23-1.23A1.23,1.23,0,0,1,102.54,90.44Z"/><line class="cls-6" x1="102.54" y1="83.54" x2="102.54" y2="71.65"/></svg>