<svg id="Layer_1" data-name="Layer 1" xmlns="http://www.w3.org/2000/svg" viewBox="0 0 146.88 106.34"><defs><style>.cls-1{fill:#7edef3;stroke-miterlimit:10;}.cls-1,.cls-2,.cls-3,.cls-4,.cls-5{stroke:#582c83;stroke-width:1.5px;}.cls-2{fill:#ccabd1;}.cls-2,.cls-3,.cls-4,.cls-5{stroke-linecap:round;stroke-linejoin:round;}.cls-3{fill:#fff;}.cls-4{fill:#ede1ee;}.cls-5{fill:none;}</style></defs><title>icon</title><path class="cls-1" d="M51.15,66.91,32.41,74.67s-5.05,1.9-5.05,8.53H93c0-6.63-5.05-8.53-5.05-8.53L69.17,66.91a12.74,12.74,0,0,1-18,0"/><path class="cls-2" d="M66,19.78H64a6.87,6.87,0,0,0,2-4.86,16.59,16.59,0,0,1-11.75,4.86h0a8.51,8.51,0,0,0-8.5,8.51v8.35l2.43,2.43,2.22-7.13h0a13.75,13.75,0,0,0,19.44,0h0l2.22,7.13,2.43-2.43V28.28A8.5,8.5,0,0,0,66,19.78Z"/><path class="cls-3" d="M74.53,36.63,72.1,39.06l-2.22-7.13h0a13.75,13.75,0,0,1-19.44,0h0l-2.22,7.13-2.43-2.43h0a4.81,4.81,0,0,0-3.22,4.54c0,4.12,2.09,7.45,4.69,7.57,2.4,7.38,7.27,12.44,12.9,12.44s10.5-5.06,12.9-12.44c2.6-.12,4.69-3.45,4.69-7.57A4.82,4.82,0,0,0,74.53,36.63Z"/><path class="cls-3" d="M69.17,66.91a12.74,12.74,0,0,1-18,0A6.2,6.2,0,0,0,55,61.17v-1.5a9.63,9.63,0,0,0,10.35,0v1.51a6.21,6.21,0,0,0,3.83,5.74Z"/><path class="cls-4" d="M99.31,51.19l20.37,37.34a3.17,3.17,0,0,1-.05,3.35,3.39,3.39,0,0,1-1.23,1.22,3.31,3.31,0,0,1-1.69.45H76a3.31,3.31,0,0,1-1.69-.45A3.36,3.36,0,0,1,73,91.88,3.17,3.17,0,0,1,73,88.54L93.37,51.19a3.38,3.38,0,0,1,1.25-1.3,3.34,3.34,0,0,1,3.45,0A3.38,3.38,0,0,1,99.31,51.19Z"/><circle class="cls-5" cx="96.34" cy="84.63" r="0.53"/><line class="cls-5" x1="96.34" y1="78.34" x2="96.34" y2="65.15"/></svg>